G04 #@! TF.GenerationSoftware,KiCad,Pcbnew,8.0.5*
G04 #@! TF.CreationDate,2025-01-03T00:20:55+01:00*
G04 #@! TF.ProjectId,Tortu,546f7274-752e-46b6-9963-61645f706362,rev?*
G04 #@! TF.SameCoordinates,Original*
G04 #@! TF.FileFunction,Soldermask,Top*
G04 #@! TF.FilePolarity,Negative*
%FSLAX46Y46*%
G04 Gerber Fmt 4.6, Leading zero omitted, Abs format (unit mm)*
G04 Created by KiCad (PCBNEW 8.0.5) date 2025-01-03 00:20:55*
%MOMM*%
%LPD*%
G01*
G04 APERTURE LIST*
%ADD10R,1.700000X1.700000*%
%ADD11O,1.700000X1.700000*%
%ADD12C,1.524000*%
%ADD13O,1.800000X1.800000*%
%ADD14O,1.500000X1.500000*%
%ADD15R,1.700000X3.500000*%
%ADD16R,3.500000X1.700000*%
%ADD17R,3.000000X3.000000*%
%ADD18C,3.000000*%
%ADD19C,2.000000*%
%ADD20C,1.600000*%
%ADD21O,1.600000X1.600000*%
%ADD22R,2.000000X2.000000*%
%ADD23O,3.101600X1.851600*%
%ADD24O,4.101600X2.601600*%
G04 APERTURE END LIST*
D10*
X165100000Y-62230000D03*
D11*
X167640000Y-62230000D03*
D12*
X194310000Y-97536000D03*
X196850000Y-97536000D03*
X199390000Y-97536000D03*
X201930000Y-97536000D03*
X204470000Y-97536000D03*
X207010000Y-97536000D03*
D13*
X210944000Y-111575000D03*
D14*
X207914000Y-111875000D03*
X207914000Y-116725000D03*
D13*
X210944000Y-117025000D03*
D11*
X211074000Y-105410000D03*
D15*
X211074000Y-104510000D03*
D11*
X208534000Y-105410000D03*
D15*
X208534000Y-104510000D03*
D10*
X205994000Y-105410000D03*
D15*
X205994000Y-104510000D03*
D11*
X203454000Y-105410000D03*
D15*
X203454000Y-104510000D03*
D11*
X200914000Y-105410000D03*
D15*
X200914000Y-104510000D03*
D11*
X198374000Y-105410000D03*
D15*
X198374000Y-104510000D03*
D11*
X195834000Y-105410000D03*
D15*
X195834000Y-104510000D03*
D10*
X193294000Y-105410000D03*
D15*
X193294000Y-104510000D03*
D11*
X190754000Y-105410000D03*
D15*
X190754000Y-104510000D03*
D11*
X188214000Y-105410000D03*
D15*
X188214000Y-104510000D03*
D11*
X185674000Y-105410000D03*
D15*
X185674000Y-104510000D03*
D11*
X183134000Y-105410000D03*
D15*
X183134000Y-104510000D03*
D10*
X180594000Y-105410000D03*
D15*
X180594000Y-104510000D03*
D11*
X178054000Y-105410000D03*
D15*
X178054000Y-104510000D03*
D11*
X175514000Y-105410000D03*
D15*
X175514000Y-104510000D03*
D11*
X172974000Y-105410000D03*
D15*
X172974000Y-104510000D03*
D11*
X170434000Y-105410000D03*
D15*
X170434000Y-104510000D03*
D10*
X167894000Y-105410000D03*
D15*
X167894000Y-104510000D03*
D11*
X165354000Y-105410000D03*
D15*
X165354000Y-104510000D03*
D11*
X162814000Y-105410000D03*
D15*
X162814000Y-104510000D03*
D11*
X162814000Y-123190000D03*
D15*
X162814000Y-124090000D03*
D11*
X165354000Y-123190000D03*
D15*
X165354000Y-124090000D03*
D10*
X167894000Y-123190000D03*
D15*
X167894000Y-124090000D03*
D11*
X170434000Y-123190000D03*
D15*
X170434000Y-124090000D03*
D11*
X172974000Y-123190000D03*
D15*
X172974000Y-124090000D03*
D11*
X175514000Y-123190000D03*
D15*
X175514000Y-124090000D03*
D11*
X178054000Y-123190000D03*
D15*
X178054000Y-124090000D03*
D10*
X180594000Y-123190000D03*
D15*
X180594000Y-124090000D03*
D11*
X183134000Y-123190000D03*
D15*
X183134000Y-124090000D03*
D11*
X185674000Y-123190000D03*
D15*
X185674000Y-124090000D03*
D11*
X188214000Y-123190000D03*
D15*
X188214000Y-124090000D03*
D11*
X190754000Y-123190000D03*
D15*
X190754000Y-124090000D03*
D10*
X193294000Y-123190000D03*
D15*
X193294000Y-124090000D03*
D11*
X195834000Y-123190000D03*
D15*
X195834000Y-124090000D03*
D11*
X198374000Y-123190000D03*
D15*
X198374000Y-124090000D03*
D11*
X200914000Y-123190000D03*
D15*
X200914000Y-124090000D03*
D11*
X203454000Y-123190000D03*
D15*
X203454000Y-124090000D03*
D10*
X205994000Y-123190000D03*
D15*
X205994000Y-124090000D03*
D11*
X208534000Y-123190000D03*
D15*
X208534000Y-124090000D03*
D11*
X211074000Y-123190000D03*
D15*
X211074000Y-124090000D03*
D11*
X163044000Y-111760000D03*
D16*
X162144000Y-111760000D03*
D10*
X163044000Y-114300000D03*
D16*
X162144000Y-114300000D03*
D11*
X163044000Y-116840000D03*
D16*
X162144000Y-116840000D03*
D17*
X123398000Y-103966000D03*
D18*
X123398000Y-108966000D03*
X123398000Y-113966000D03*
D19*
X177269000Y-130755000D03*
X183769000Y-130755000D03*
X177269000Y-135255000D03*
X183769000Y-135255000D03*
D20*
X137668000Y-113792000D03*
D21*
X137668000Y-123952000D03*
D19*
X135255000Y-75836000D03*
X126746000Y-75836000D03*
X147828000Y-75836000D03*
X139319000Y-75836000D03*
X193219000Y-130791000D03*
X199719000Y-130791000D03*
X193219000Y-135291000D03*
X199719000Y-135291000D03*
D20*
X208514000Y-128270000D03*
X206014000Y-128270000D03*
X160000000Y-73025000D03*
X157500000Y-73025000D03*
D19*
X147095000Y-130755000D03*
X153595000Y-130755000D03*
X147095000Y-135255000D03*
X153595000Y-135255000D03*
D20*
X208514000Y-132080000D03*
X206014000Y-132080000D03*
D10*
X122555000Y-73025000D03*
D11*
X122555000Y-75565000D03*
D10*
X132588000Y-123952000D03*
D11*
X130048000Y-123952000D03*
X127508000Y-123952000D03*
X124968000Y-123952000D03*
X122428000Y-123952000D03*
D22*
X157477200Y-76685500D03*
D19*
X160017200Y-76685500D03*
X162557200Y-76685500D03*
X165097200Y-76685500D03*
X167637200Y-76685500D03*
X170177200Y-76685500D03*
X172717200Y-76685500D03*
X175257200Y-76685500D03*
D20*
X140462000Y-82824000D03*
X140462000Y-85324000D03*
D23*
X135439000Y-82670000D03*
X135439000Y-85210000D03*
X135439000Y-87750000D03*
X135439000Y-90290000D03*
X135439000Y-92830000D03*
X135439000Y-95370000D03*
X135439000Y-97910000D03*
D24*
X122985000Y-92090000D03*
X122985000Y-88590000D03*
D20*
X144272000Y-82824000D03*
X144272000Y-85324000D03*
D10*
X122682000Y-132842000D03*
D11*
X125222000Y-132842000D03*
D20*
X186690000Y-95885000D03*
X186690000Y-98385000D03*
D19*
X132871000Y-130719000D03*
X139371000Y-130719000D03*
X132871000Y-135219000D03*
X139371000Y-135219000D03*
X161977000Y-130791000D03*
X168477000Y-130791000D03*
X161977000Y-135291000D03*
X168477000Y-135291000D03*
M02*
