M48
; DRILL file {KiCad 8.0.5} date 2025-01-03T00:20:40+0100
; FORMAT={-:-/ absolute / metric / decimal}
; #@! TF.CreationDate,2025-01-03T00:20:40+01:00
; #@! TF.GenerationSoftware,Kicad,Pcbnew,8.0.5
; #@! TF.FileFunction,Plated,1,2,PTH
FMAT,2
METRIC
; #@! TA.AperFunction,Plated,PTH,ComponentDrill
T1C0.762
; #@! TA.AperFunction,Plated,PTH,ComponentDrill
T2C0.800
; #@! TA.AperFunction,Plated,PTH,ComponentDrill
T3C1.000
; #@! TA.AperFunction,Plated,PTH,ComponentDrill
T4C1.020
; #@! TA.AperFunction,Plated,PTH,ComponentDrill
T5C1.100
; #@! TA.AperFunction,Plated,PTH,ComponentDrill
T6C1.200
%
G90
G05
T1
X194.31Y-97.536
X196.85Y-97.536
X199.39Y-97.536
X201.93Y-97.536
X204.47Y-97.536
X207.01Y-97.536
T2
X140.462Y-82.824
X140.462Y-85.324
X144.272Y-82.824
X144.272Y-85.324
X186.69Y-95.885
X186.69Y-98.385
X206.014Y-128.27
X206.014Y-132.08
X208.514Y-128.27
X208.514Y-132.08
T3
X122.428Y-123.952
X122.555Y-73.025
X122.555Y-75.565
X122.682Y-132.842
X122.985Y-88.59
X122.985Y-92.09
X124.968Y-123.952
X125.222Y-132.842
X126.746Y-75.836
X127.508Y-123.952
X130.048Y-123.952
X132.588Y-123.952
X135.255Y-75.836
X135.939Y-82.67
X135.939Y-85.21
X135.939Y-87.75
X135.939Y-90.29
X135.939Y-92.83
X135.939Y-95.37
X135.939Y-97.91
X137.668Y-113.792
X137.668Y-123.952
X139.319Y-75.836
X147.828Y-75.836
X157.477Y-76.685
X157.5Y-73.025
X160.0Y-73.025
X160.017Y-76.685
X162.557Y-76.685
X165.097Y-76.685
X165.1Y-62.23
X167.637Y-76.685
X167.64Y-62.23
X170.177Y-76.685
X172.717Y-76.685
X175.257Y-76.685
T4
X162.814Y-105.41
X162.814Y-123.19
X163.044Y-111.76
X163.044Y-114.3
X163.044Y-116.84
X165.354Y-105.41
X165.354Y-123.19
X167.894Y-105.41
X167.894Y-123.19
X170.434Y-105.41
X170.434Y-123.19
X172.974Y-105.41
X172.974Y-123.19
X175.514Y-105.41
X175.514Y-123.19
X178.054Y-105.41
X178.054Y-123.19
X180.594Y-105.41
X180.594Y-123.19
X183.134Y-105.41
X183.134Y-123.19
X185.674Y-105.41
X185.674Y-123.19
X188.214Y-105.41
X188.214Y-123.19
X190.754Y-105.41
X190.754Y-123.19
X193.294Y-105.41
X193.294Y-123.19
X195.834Y-105.41
X195.834Y-123.19
X198.374Y-105.41
X198.374Y-123.19
X200.914Y-105.41
X200.914Y-123.19
X203.454Y-105.41
X203.454Y-123.19
X205.994Y-105.41
X205.994Y-123.19
X208.534Y-105.41
X208.534Y-123.19
X211.074Y-105.41
X211.074Y-123.19
T5
X132.871Y-130.719
X132.871Y-135.219
X139.371Y-130.719
X139.371Y-135.219
X147.095Y-130.755
X147.095Y-135.255
X153.595Y-130.755
X153.595Y-135.255
X161.977Y-130.791
X161.977Y-135.291
X168.477Y-130.791
X168.477Y-135.291
X177.269Y-130.755
X177.269Y-135.255
X183.769Y-130.755
X183.769Y-135.255
X193.219Y-130.791
X193.219Y-135.291
X199.719Y-130.791
X199.719Y-135.291
T6
X123.398Y-103.966
X123.398Y-108.966
X123.398Y-113.966
M30
