%TF.GenerationSoftware,KiCad,Pcbnew,8.0.5*%
%TF.CreationDate,2025-01-03T00:20:52+01:00*%
%TF.ProjectId,Tortu,546f7274-752e-46b6-9963-61645f706362,rev?*%
%TF.SameCoordinates,Original*%
%TF.FileFunction,Drillmap*%
%TF.FilePolarity,Positive*%
%FSLAX45Y45*%
G04 Gerber Fmt 4.5, Leading zero omitted, Abs format (unit mm)*
G04 Created by KiCad (PCBNEW 8.0.5) date 2025-01-03 00:20:52*
%MOMM*%
%LPD*%
G01*
G04 APERTURE LIST*
%ADD10C,0.050000*%
%ADD11C,0.200000*%
%ADD12C,0.100000*%
%ADD13C,0.102000*%
%ADD14C,0.110000*%
%ADD15C,0.120000*%
G04 APERTURE END LIST*
D10*
X12192000Y-14097000D02*
X21082000Y-14097000D01*
X12453880Y-13779500D02*
G75*
G02*
X12057120Y-13779500I-198380J0D01*
G01*
X12057120Y-13779500D02*
G75*
G02*
X12453880Y-13779500I198380J0D01*
G01*
X12448941Y-6223000D02*
G75*
G02*
X12062059Y-6223000I-193441J0D01*
G01*
X12062059Y-6223000D02*
G75*
G02*
X12448941Y-6223000I193441J0D01*
G01*
X21216880Y-13779500D02*
G75*
G02*
X20820120Y-13779500I-198380J0D01*
G01*
X20820120Y-13779500D02*
G75*
G02*
X21216880Y-13779500I198380J0D01*
G01*
X11938000Y-6159500D02*
X11938000Y-13843000D01*
X12192000Y-14097000D02*
G75*
G02*
X11938000Y-13843000I0J254000D01*
G01*
X11938000Y-6159500D02*
G75*
G02*
X12192000Y-5905500I254000J0D01*
G01*
X21336000Y-13843000D02*
G75*
G02*
X21082000Y-14097000I-254000J0D01*
G01*
X21082000Y-5905500D02*
G75*
G02*
X21336000Y-6159500I0J-254000D01*
G01*
X21216880Y-6223000D02*
G75*
G02*
X20820120Y-6223000I-198380J0D01*
G01*
X20820120Y-6223000D02*
G75*
G02*
X21216880Y-6223000I198380J0D01*
G01*
X21336000Y-13843000D02*
X21336000Y-6159500D01*
X12192000Y-5905500D02*
X21082000Y-5905500D01*
D11*
D12*
X19392900Y-9715500D02*
X19469100Y-9791700D01*
X19469100Y-9715500D02*
X19392900Y-9791700D01*
X19646900Y-9715500D02*
X19723100Y-9791700D01*
X19723100Y-9715500D02*
X19646900Y-9791700D01*
X19900900Y-9715500D02*
X19977100Y-9791700D01*
X19977100Y-9715500D02*
X19900900Y-9791700D01*
X20154900Y-9715500D02*
X20231100Y-9791700D01*
X20231100Y-9715500D02*
X20154900Y-9791700D01*
X20408900Y-9715500D02*
X20485100Y-9791700D01*
X20485100Y-9715500D02*
X20408900Y-9791700D01*
X20662900Y-9715500D02*
X20739100Y-9791700D01*
X20739100Y-9715500D02*
X20662900Y-9791700D01*
X14086200Y-8282400D02*
G75*
G02*
X14006200Y-8282400I-40000J0D01*
G01*
X14006200Y-8282400D02*
G75*
G02*
X14086200Y-8282400I40000J0D01*
G01*
X14086200Y-8532400D02*
G75*
G02*
X14006200Y-8532400I-40000J0D01*
G01*
X14006200Y-8532400D02*
G75*
G02*
X14086200Y-8532400I40000J0D01*
G01*
X14467200Y-8282400D02*
G75*
G02*
X14387200Y-8282400I-40000J0D01*
G01*
X14387200Y-8282400D02*
G75*
G02*
X14467200Y-8282400I40000J0D01*
G01*
X14467200Y-8532400D02*
G75*
G02*
X14387200Y-8532400I-40000J0D01*
G01*
X14387200Y-8532400D02*
G75*
G02*
X14467200Y-8532400I40000J0D01*
G01*
X18709000Y-9588500D02*
G75*
G02*
X18629000Y-9588500I-40000J0D01*
G01*
X18629000Y-9588500D02*
G75*
G02*
X18709000Y-9588500I40000J0D01*
G01*
X18709000Y-9838500D02*
G75*
G02*
X18629000Y-9838500I-40000J0D01*
G01*
X18629000Y-9838500D02*
G75*
G02*
X18709000Y-9838500I40000J0D01*
G01*
X20641400Y-12827000D02*
G75*
G02*
X20561400Y-12827000I-40000J0D01*
G01*
X20561400Y-12827000D02*
G75*
G02*
X20641400Y-12827000I40000J0D01*
G01*
X20641400Y-13208000D02*
G75*
G02*
X20561400Y-13208000I-40000J0D01*
G01*
X20561400Y-13208000D02*
G75*
G02*
X20641400Y-13208000I40000J0D01*
G01*
X20891400Y-12827000D02*
G75*
G02*
X20811400Y-12827000I-40000J0D01*
G01*
X20811400Y-12827000D02*
G75*
G02*
X20891400Y-12827000I40000J0D01*
G01*
X20891400Y-13208000D02*
G75*
G02*
X20811400Y-13208000I-40000J0D01*
G01*
X20811400Y-13208000D02*
G75*
G02*
X20891400Y-13208000I40000J0D01*
G01*
X12242800Y-12345200D02*
X12242800Y-12445200D01*
X12192800Y-12395200D02*
X12292800Y-12395200D01*
X12255500Y-7252500D02*
X12255500Y-7352500D01*
X12205500Y-7302500D02*
X12305500Y-7302500D01*
X12255500Y-7506500D02*
X12255500Y-7606500D01*
X12205500Y-7556500D02*
X12305500Y-7556500D01*
X12268200Y-13234200D02*
X12268200Y-13334200D01*
X12218200Y-13284200D02*
X12318200Y-13284200D01*
X12298500Y-8809000D02*
X12298500Y-8909000D01*
X12248500Y-8859000D02*
X12348500Y-8859000D01*
X12298500Y-9159000D02*
X12298500Y-9259000D01*
X12248500Y-9209000D02*
X12348500Y-9209000D01*
X12496800Y-12345200D02*
X12496800Y-12445200D01*
X12446800Y-12395200D02*
X12546800Y-12395200D01*
X12522200Y-13234200D02*
X12522200Y-13334200D01*
X12472200Y-13284200D02*
X12572200Y-13284200D01*
X12674600Y-7533600D02*
X12674600Y-7633600D01*
X12624600Y-7583600D02*
X12724600Y-7583600D01*
X12750800Y-12345200D02*
X12750800Y-12445200D01*
X12700800Y-12395200D02*
X12800800Y-12395200D01*
X13004800Y-12345200D02*
X13004800Y-12445200D01*
X12954800Y-12395200D02*
X13054800Y-12395200D01*
X13258800Y-12345200D02*
X13258800Y-12445200D01*
X13208800Y-12395200D02*
X13308800Y-12395200D01*
X13525500Y-7533600D02*
X13525500Y-7633600D01*
X13475500Y-7583600D02*
X13575500Y-7583600D01*
X13593900Y-8217000D02*
X13593900Y-8317000D01*
X13543900Y-8267000D02*
X13643900Y-8267000D01*
X13593900Y-8471000D02*
X13593900Y-8571000D01*
X13543900Y-8521000D02*
X13643900Y-8521000D01*
X13593900Y-8725000D02*
X13593900Y-8825000D01*
X13543900Y-8775000D02*
X13643900Y-8775000D01*
X13593900Y-8979000D02*
X13593900Y-9079000D01*
X13543900Y-9029000D02*
X13643900Y-9029000D01*
X13593900Y-9233000D02*
X13593900Y-9333000D01*
X13543900Y-9283000D02*
X13643900Y-9283000D01*
X13593900Y-9487000D02*
X13593900Y-9587000D01*
X13543900Y-9537000D02*
X13643900Y-9537000D01*
X13593900Y-9741000D02*
X13593900Y-9841000D01*
X13543900Y-9791000D02*
X13643900Y-9791000D01*
X13766800Y-11329200D02*
X13766800Y-11429200D01*
X13716800Y-11379200D02*
X13816800Y-11379200D01*
X13766800Y-12345200D02*
X13766800Y-12445200D01*
X13716800Y-12395200D02*
X13816800Y-12395200D01*
X13931900Y-7533600D02*
X13931900Y-7633600D01*
X13881900Y-7583600D02*
X13981900Y-7583600D01*
X14782800Y-7533600D02*
X14782800Y-7633600D01*
X14732800Y-7583600D02*
X14832800Y-7583600D01*
X15747720Y-7618550D02*
X15747720Y-7718550D01*
X15697720Y-7668550D02*
X15797720Y-7668550D01*
X15750000Y-7252500D02*
X15750000Y-7352500D01*
X15700000Y-7302500D02*
X15800000Y-7302500D01*
X16000000Y-7252500D02*
X16000000Y-7352500D01*
X15950000Y-7302500D02*
X16050000Y-7302500D01*
X16001720Y-7618550D02*
X16001720Y-7718550D01*
X15951720Y-7668550D02*
X16051720Y-7668550D01*
X16255720Y-7618550D02*
X16255720Y-7718550D01*
X16205720Y-7668550D02*
X16305720Y-7668550D01*
X16509720Y-7618550D02*
X16509720Y-7718550D01*
X16459720Y-7668550D02*
X16559720Y-7668550D01*
X16510000Y-6173000D02*
X16510000Y-6273000D01*
X16460000Y-6223000D02*
X16560000Y-6223000D01*
X16763720Y-7618550D02*
X16763720Y-7718550D01*
X16713720Y-7668550D02*
X16813720Y-7668550D01*
X16764000Y-6173000D02*
X16764000Y-6273000D01*
X16714000Y-6223000D02*
X16814000Y-6223000D01*
X17017720Y-7618550D02*
X17017720Y-7718550D01*
X16967720Y-7668550D02*
X17067720Y-7668550D01*
X17271720Y-7618550D02*
X17271720Y-7718550D01*
X17221720Y-7668550D02*
X17321720Y-7668550D01*
X17525720Y-7618550D02*
X17525720Y-7718550D01*
X17475720Y-7668550D02*
X17575720Y-7668550D01*
D13*
X16317463Y-10577063D02*
X16317463Y-10504937D01*
X16245337Y-10504937D01*
X16245337Y-10577063D01*
X16317463Y-10577063D01*
X16317463Y-12355063D02*
X16317463Y-12282937D01*
X16245337Y-12282937D01*
X16245337Y-12355063D01*
X16317463Y-12355063D01*
X16340463Y-11212063D02*
X16340463Y-11139937D01*
X16268337Y-11139937D01*
X16268337Y-11212063D01*
X16340463Y-11212063D01*
X16340463Y-11466063D02*
X16340463Y-11393937D01*
X16268337Y-11393937D01*
X16268337Y-11466063D01*
X16340463Y-11466063D01*
X16340463Y-11720063D02*
X16340463Y-11647937D01*
X16268337Y-11647937D01*
X16268337Y-11720063D01*
X16340463Y-11720063D01*
X16571463Y-10577063D02*
X16571463Y-10504937D01*
X16499337Y-10504937D01*
X16499337Y-10577063D01*
X16571463Y-10577063D01*
X16571463Y-12355063D02*
X16571463Y-12282937D01*
X16499337Y-12282937D01*
X16499337Y-12355063D01*
X16571463Y-12355063D01*
X16825463Y-10577063D02*
X16825463Y-10504937D01*
X16753337Y-10504937D01*
X16753337Y-10577063D01*
X16825463Y-10577063D01*
X16825463Y-12355063D02*
X16825463Y-12282937D01*
X16753337Y-12282937D01*
X16753337Y-12355063D01*
X16825463Y-12355063D01*
X17079463Y-10577063D02*
X17079463Y-10504937D01*
X17007337Y-10504937D01*
X17007337Y-10577063D01*
X17079463Y-10577063D01*
X17079463Y-12355063D02*
X17079463Y-12282937D01*
X17007337Y-12282937D01*
X17007337Y-12355063D01*
X17079463Y-12355063D01*
X17333463Y-10577063D02*
X17333463Y-10504937D01*
X17261337Y-10504937D01*
X17261337Y-10577063D01*
X17333463Y-10577063D01*
X17333463Y-12355063D02*
X17333463Y-12282937D01*
X17261337Y-12282937D01*
X17261337Y-12355063D01*
X17333463Y-12355063D01*
X17587463Y-10577063D02*
X17587463Y-10504937D01*
X17515337Y-10504937D01*
X17515337Y-10577063D01*
X17587463Y-10577063D01*
X17587463Y-12355063D02*
X17587463Y-12282937D01*
X17515337Y-12282937D01*
X17515337Y-12355063D01*
X17587463Y-12355063D01*
X17841463Y-10577063D02*
X17841463Y-10504937D01*
X17769337Y-10504937D01*
X17769337Y-10577063D01*
X17841463Y-10577063D01*
X17841463Y-12355063D02*
X17841463Y-12282937D01*
X17769337Y-12282937D01*
X17769337Y-12355063D01*
X17841463Y-12355063D01*
X18095463Y-10577063D02*
X18095463Y-10504937D01*
X18023337Y-10504937D01*
X18023337Y-10577063D01*
X18095463Y-10577063D01*
X18095463Y-12355063D02*
X18095463Y-12282937D01*
X18023337Y-12282937D01*
X18023337Y-12355063D01*
X18095463Y-12355063D01*
X18349463Y-10577063D02*
X18349463Y-10504937D01*
X18277337Y-10504937D01*
X18277337Y-10577063D01*
X18349463Y-10577063D01*
X18349463Y-12355063D02*
X18349463Y-12282937D01*
X18277337Y-12282937D01*
X18277337Y-12355063D01*
X18349463Y-12355063D01*
X18603463Y-10577063D02*
X18603463Y-10504937D01*
X18531337Y-10504937D01*
X18531337Y-10577063D01*
X18603463Y-10577063D01*
X18603463Y-12355063D02*
X18603463Y-12282937D01*
X18531337Y-12282937D01*
X18531337Y-12355063D01*
X18603463Y-12355063D01*
X18857463Y-10577063D02*
X18857463Y-10504937D01*
X18785337Y-10504937D01*
X18785337Y-10577063D01*
X18857463Y-10577063D01*
X18857463Y-12355063D02*
X18857463Y-12282937D01*
X18785337Y-12282937D01*
X18785337Y-12355063D01*
X18857463Y-12355063D01*
X19111463Y-10577063D02*
X19111463Y-10504937D01*
X19039337Y-10504937D01*
X19039337Y-10577063D01*
X19111463Y-10577063D01*
X19111463Y-12355063D02*
X19111463Y-12282937D01*
X19039337Y-12282937D01*
X19039337Y-12355063D01*
X19111463Y-12355063D01*
X19365463Y-10577063D02*
X19365463Y-10504937D01*
X19293337Y-10504937D01*
X19293337Y-10577063D01*
X19365463Y-10577063D01*
X19365463Y-12355063D02*
X19365463Y-12282937D01*
X19293337Y-12282937D01*
X19293337Y-12355063D01*
X19365463Y-12355063D01*
X19619463Y-10577063D02*
X19619463Y-10504937D01*
X19547337Y-10504937D01*
X19547337Y-10577063D01*
X19619463Y-10577063D01*
X19619463Y-12355063D02*
X19619463Y-12282937D01*
X19547337Y-12282937D01*
X19547337Y-12355063D01*
X19619463Y-12355063D01*
X19873463Y-10577063D02*
X19873463Y-10504937D01*
X19801337Y-10504937D01*
X19801337Y-10577063D01*
X19873463Y-10577063D01*
X19873463Y-12355063D02*
X19873463Y-12282937D01*
X19801337Y-12282937D01*
X19801337Y-12355063D01*
X19873463Y-12355063D01*
X20127463Y-10577063D02*
X20127463Y-10504937D01*
X20055337Y-10504937D01*
X20055337Y-10577063D01*
X20127463Y-10577063D01*
X20127463Y-12355063D02*
X20127463Y-12282937D01*
X20055337Y-12282937D01*
X20055337Y-12355063D01*
X20127463Y-12355063D01*
X20381463Y-10577063D02*
X20381463Y-10504937D01*
X20309337Y-10504937D01*
X20309337Y-10577063D01*
X20381463Y-10577063D01*
X20381463Y-12355063D02*
X20381463Y-12282937D01*
X20309337Y-12282937D01*
X20309337Y-12355063D01*
X20381463Y-12355063D01*
X20635463Y-10577063D02*
X20635463Y-10504937D01*
X20563337Y-10504937D01*
X20563337Y-10577063D01*
X20635463Y-10577063D01*
X20635463Y-12355063D02*
X20635463Y-12282937D01*
X20563337Y-12282937D01*
X20563337Y-12355063D01*
X20635463Y-12355063D01*
X20889463Y-10577063D02*
X20889463Y-10504937D01*
X20817337Y-10504937D01*
X20817337Y-10577063D01*
X20889463Y-10577063D01*
X20889463Y-12355063D02*
X20889463Y-12282937D01*
X20817337Y-12282937D01*
X20817337Y-12355063D01*
X20889463Y-12355063D01*
X21143463Y-10577063D02*
X21143463Y-10504937D01*
X21071337Y-10504937D01*
X21071337Y-10577063D01*
X21143463Y-10577063D01*
X21143463Y-12355063D02*
X21143463Y-12282937D01*
X21071337Y-12282937D01*
X21071337Y-12355063D01*
X21143463Y-12355063D01*
D14*
X13287100Y-13126900D02*
X13342100Y-13071900D01*
X13287100Y-13016900D01*
X13232100Y-13071900D01*
X13287100Y-13126900D01*
X13287100Y-13576900D02*
X13342100Y-13521900D01*
X13287100Y-13466900D01*
X13232100Y-13521900D01*
X13287100Y-13576900D01*
X13937100Y-13126900D02*
X13992100Y-13071900D01*
X13937100Y-13016900D01*
X13882100Y-13071900D01*
X13937100Y-13126900D01*
X13937100Y-13576900D02*
X13992100Y-13521900D01*
X13937100Y-13466900D01*
X13882100Y-13521900D01*
X13937100Y-13576900D01*
X14709500Y-13130500D02*
X14764500Y-13075500D01*
X14709500Y-13020500D01*
X14654500Y-13075500D01*
X14709500Y-13130500D01*
X14709500Y-13580500D02*
X14764500Y-13525500D01*
X14709500Y-13470500D01*
X14654500Y-13525500D01*
X14709500Y-13580500D01*
X15359500Y-13130500D02*
X15414500Y-13075500D01*
X15359500Y-13020500D01*
X15304500Y-13075500D01*
X15359500Y-13130500D01*
X15359500Y-13580500D02*
X15414500Y-13525500D01*
X15359500Y-13470500D01*
X15304500Y-13525500D01*
X15359500Y-13580500D01*
X16197700Y-13134100D02*
X16252700Y-13079100D01*
X16197700Y-13024100D01*
X16142700Y-13079100D01*
X16197700Y-13134100D01*
X16197700Y-13584100D02*
X16252700Y-13529100D01*
X16197700Y-13474100D01*
X16142700Y-13529100D01*
X16197700Y-13584100D01*
X16847700Y-13134100D02*
X16902700Y-13079100D01*
X16847700Y-13024100D01*
X16792700Y-13079100D01*
X16847700Y-13134100D01*
X16847700Y-13584100D02*
X16902700Y-13529100D01*
X16847700Y-13474100D01*
X16792700Y-13529100D01*
X16847700Y-13584100D01*
X17726900Y-13130500D02*
X17781900Y-13075500D01*
X17726900Y-13020500D01*
X17671900Y-13075500D01*
X17726900Y-13130500D01*
X17726900Y-13580500D02*
X17781900Y-13525500D01*
X17726900Y-13470500D01*
X17671900Y-13525500D01*
X17726900Y-13580500D01*
X18376900Y-13130500D02*
X18431900Y-13075500D01*
X18376900Y-13020500D01*
X18321900Y-13075500D01*
X18376900Y-13130500D01*
X18376900Y-13580500D02*
X18431900Y-13525500D01*
X18376900Y-13470500D01*
X18321900Y-13525500D01*
X18376900Y-13580500D01*
X19321900Y-13134100D02*
X19376900Y-13079100D01*
X19321900Y-13024100D01*
X19266900Y-13079100D01*
X19321900Y-13134100D01*
X19321900Y-13584100D02*
X19376900Y-13529100D01*
X19321900Y-13474100D01*
X19266900Y-13529100D01*
X19321900Y-13584100D01*
X19971900Y-13134100D02*
X20026900Y-13079100D01*
X19971900Y-13024100D01*
X19916900Y-13079100D01*
X19971900Y-13134100D01*
X19971900Y-13584100D02*
X20026900Y-13529100D01*
X19971900Y-13474100D01*
X19916900Y-13529100D01*
X19971900Y-13584100D01*
D15*
X12279800Y-10336600D02*
X12399800Y-10456600D01*
X12399800Y-10336600D02*
X12279800Y-10456600D01*
X12399800Y-10396600D02*
G75*
G02*
X12279800Y-10396600I-60000J0D01*
G01*
X12279800Y-10396600D02*
G75*
G02*
X12399800Y-10396600I60000J0D01*
G01*
X12279800Y-10836600D02*
X12399800Y-10956600D01*
X12399800Y-10836600D02*
X12279800Y-10956600D01*
X12399800Y-10896600D02*
G75*
G02*
X12279800Y-10896600I-60000J0D01*
G01*
X12279800Y-10896600D02*
G75*
G02*
X12399800Y-10896600I60000J0D01*
G01*
X12279800Y-11336600D02*
X12399800Y-11456600D01*
X12399800Y-11336600D02*
X12279800Y-11456600D01*
X12399800Y-11396600D02*
G75*
G02*
X12279800Y-11396600I-60000J0D01*
G01*
X12279800Y-11396600D02*
G75*
G02*
X12399800Y-11396600I60000J0D01*
G01*
D11*
X12196277Y-14410984D02*
X12196277Y-14210984D01*
X12196277Y-14210984D02*
X12243896Y-14210984D01*
X12243896Y-14210984D02*
X12272467Y-14220508D01*
X12272467Y-14220508D02*
X12291515Y-14239555D01*
X12291515Y-14239555D02*
X12301039Y-14258603D01*
X12301039Y-14258603D02*
X12310562Y-14296698D01*
X12310562Y-14296698D02*
X12310562Y-14325269D01*
X12310562Y-14325269D02*
X12301039Y-14363365D01*
X12301039Y-14363365D02*
X12291515Y-14382412D01*
X12291515Y-14382412D02*
X12272467Y-14401460D01*
X12272467Y-14401460D02*
X12243896Y-14410984D01*
X12243896Y-14410984D02*
X12196277Y-14410984D01*
X12396277Y-14410984D02*
X12396277Y-14277650D01*
X12396277Y-14315746D02*
X12405801Y-14296698D01*
X12405801Y-14296698D02*
X12415324Y-14287174D01*
X12415324Y-14287174D02*
X12434372Y-14277650D01*
X12434372Y-14277650D02*
X12453420Y-14277650D01*
X12520086Y-14410984D02*
X12520086Y-14277650D01*
X12520086Y-14210984D02*
X12510562Y-14220508D01*
X12510562Y-14220508D02*
X12520086Y-14230031D01*
X12520086Y-14230031D02*
X12529610Y-14220508D01*
X12529610Y-14220508D02*
X12520086Y-14210984D01*
X12520086Y-14210984D02*
X12520086Y-14230031D01*
X12643896Y-14410984D02*
X12624848Y-14401460D01*
X12624848Y-14401460D02*
X12615324Y-14382412D01*
X12615324Y-14382412D02*
X12615324Y-14210984D01*
X12748658Y-14410984D02*
X12729610Y-14401460D01*
X12729610Y-14401460D02*
X12720086Y-14382412D01*
X12720086Y-14382412D02*
X12720086Y-14210984D01*
X12977229Y-14410984D02*
X12977229Y-14210984D01*
X12977229Y-14210984D02*
X13043896Y-14353841D01*
X13043896Y-14353841D02*
X13110562Y-14210984D01*
X13110562Y-14210984D02*
X13110562Y-14410984D01*
X13291515Y-14410984D02*
X13291515Y-14306222D01*
X13291515Y-14306222D02*
X13281991Y-14287174D01*
X13281991Y-14287174D02*
X13262943Y-14277650D01*
X13262943Y-14277650D02*
X13224848Y-14277650D01*
X13224848Y-14277650D02*
X13205801Y-14287174D01*
X13291515Y-14401460D02*
X13272467Y-14410984D01*
X13272467Y-14410984D02*
X13224848Y-14410984D01*
X13224848Y-14410984D02*
X13205801Y-14401460D01*
X13205801Y-14401460D02*
X13196277Y-14382412D01*
X13196277Y-14382412D02*
X13196277Y-14363365D01*
X13196277Y-14363365D02*
X13205801Y-14344317D01*
X13205801Y-14344317D02*
X13224848Y-14334793D01*
X13224848Y-14334793D02*
X13272467Y-14334793D01*
X13272467Y-14334793D02*
X13291515Y-14325269D01*
X13386753Y-14277650D02*
X13386753Y-14477650D01*
X13386753Y-14287174D02*
X13405801Y-14277650D01*
X13405801Y-14277650D02*
X13443896Y-14277650D01*
X13443896Y-14277650D02*
X13462943Y-14287174D01*
X13462943Y-14287174D02*
X13472467Y-14296698D01*
X13472467Y-14296698D02*
X13481991Y-14315746D01*
X13481991Y-14315746D02*
X13481991Y-14372888D01*
X13481991Y-14372888D02*
X13472467Y-14391936D01*
X13472467Y-14391936D02*
X13462943Y-14401460D01*
X13462943Y-14401460D02*
X13443896Y-14410984D01*
X13443896Y-14410984D02*
X13405801Y-14410984D01*
X13405801Y-14410984D02*
X13386753Y-14401460D01*
X13567705Y-14391936D02*
X13577229Y-14401460D01*
X13577229Y-14401460D02*
X13567705Y-14410984D01*
X13567705Y-14410984D02*
X13558182Y-14401460D01*
X13558182Y-14401460D02*
X13567705Y-14391936D01*
X13567705Y-14391936D02*
X13567705Y-14410984D01*
X13567705Y-14287174D02*
X13577229Y-14296698D01*
X13577229Y-14296698D02*
X13567705Y-14306222D01*
X13567705Y-14306222D02*
X13558182Y-14296698D01*
X13558182Y-14296698D02*
X13567705Y-14287174D01*
X13567705Y-14287174D02*
X13567705Y-14306222D01*
D12*
X11859300Y-14701400D02*
X11935500Y-14777600D01*
X11935500Y-14701400D02*
X11859300Y-14777600D01*
D11*
X12234372Y-14630984D02*
X12253420Y-14630984D01*
X12253420Y-14630984D02*
X12272467Y-14640508D01*
X12272467Y-14640508D02*
X12281991Y-14650031D01*
X12281991Y-14650031D02*
X12291515Y-14669079D01*
X12291515Y-14669079D02*
X12301039Y-14707174D01*
X12301039Y-14707174D02*
X12301039Y-14754793D01*
X12301039Y-14754793D02*
X12291515Y-14792888D01*
X12291515Y-14792888D02*
X12281991Y-14811936D01*
X12281991Y-14811936D02*
X12272467Y-14821460D01*
X12272467Y-14821460D02*
X12253420Y-14830984D01*
X12253420Y-14830984D02*
X12234372Y-14830984D01*
X12234372Y-14830984D02*
X12215324Y-14821460D01*
X12215324Y-14821460D02*
X12205801Y-14811936D01*
X12205801Y-14811936D02*
X12196277Y-14792888D01*
X12196277Y-14792888D02*
X12186753Y-14754793D01*
X12186753Y-14754793D02*
X12186753Y-14707174D01*
X12186753Y-14707174D02*
X12196277Y-14669079D01*
X12196277Y-14669079D02*
X12205801Y-14650031D01*
X12205801Y-14650031D02*
X12215324Y-14640508D01*
X12215324Y-14640508D02*
X12234372Y-14630984D01*
X12386753Y-14811936D02*
X12396277Y-14821460D01*
X12396277Y-14821460D02*
X12386753Y-14830984D01*
X12386753Y-14830984D02*
X12377229Y-14821460D01*
X12377229Y-14821460D02*
X12386753Y-14811936D01*
X12386753Y-14811936D02*
X12386753Y-14830984D01*
X12462943Y-14630984D02*
X12596277Y-14630984D01*
X12596277Y-14630984D02*
X12510562Y-14830984D01*
X12758182Y-14630984D02*
X12720086Y-14630984D01*
X12720086Y-14630984D02*
X12701039Y-14640508D01*
X12701039Y-14640508D02*
X12691515Y-14650031D01*
X12691515Y-14650031D02*
X12672467Y-14678603D01*
X12672467Y-14678603D02*
X12662943Y-14716698D01*
X12662943Y-14716698D02*
X12662943Y-14792888D01*
X12662943Y-14792888D02*
X12672467Y-14811936D01*
X12672467Y-14811936D02*
X12681991Y-14821460D01*
X12681991Y-14821460D02*
X12701039Y-14830984D01*
X12701039Y-14830984D02*
X12739134Y-14830984D01*
X12739134Y-14830984D02*
X12758182Y-14821460D01*
X12758182Y-14821460D02*
X12767705Y-14811936D01*
X12767705Y-14811936D02*
X12777229Y-14792888D01*
X12777229Y-14792888D02*
X12777229Y-14745269D01*
X12777229Y-14745269D02*
X12767705Y-14726222D01*
X12767705Y-14726222D02*
X12758182Y-14716698D01*
X12758182Y-14716698D02*
X12739134Y-14707174D01*
X12739134Y-14707174D02*
X12701039Y-14707174D01*
X12701039Y-14707174D02*
X12681991Y-14716698D01*
X12681991Y-14716698D02*
X12672467Y-14726222D01*
X12672467Y-14726222D02*
X12662943Y-14745269D01*
X12853420Y-14650031D02*
X12862943Y-14640508D01*
X12862943Y-14640508D02*
X12881991Y-14630984D01*
X12881991Y-14630984D02*
X12929610Y-14630984D01*
X12929610Y-14630984D02*
X12948658Y-14640508D01*
X12948658Y-14640508D02*
X12958182Y-14650031D01*
X12958182Y-14650031D02*
X12967705Y-14669079D01*
X12967705Y-14669079D02*
X12967705Y-14688127D01*
X12967705Y-14688127D02*
X12958182Y-14716698D01*
X12958182Y-14716698D02*
X12843896Y-14830984D01*
X12843896Y-14830984D02*
X12967705Y-14830984D01*
X13053420Y-14830984D02*
X13053420Y-14697650D01*
X13053420Y-14716698D02*
X13062943Y-14707174D01*
X13062943Y-14707174D02*
X13081991Y-14697650D01*
X13081991Y-14697650D02*
X13110563Y-14697650D01*
X13110563Y-14697650D02*
X13129610Y-14707174D01*
X13129610Y-14707174D02*
X13139134Y-14726222D01*
X13139134Y-14726222D02*
X13139134Y-14830984D01*
X13139134Y-14726222D02*
X13148658Y-14707174D01*
X13148658Y-14707174D02*
X13167705Y-14697650D01*
X13167705Y-14697650D02*
X13196277Y-14697650D01*
X13196277Y-14697650D02*
X13215324Y-14707174D01*
X13215324Y-14707174D02*
X13224848Y-14726222D01*
X13224848Y-14726222D02*
X13224848Y-14830984D01*
X13320086Y-14830984D02*
X13320086Y-14697650D01*
X13320086Y-14716698D02*
X13329610Y-14707174D01*
X13329610Y-14707174D02*
X13348658Y-14697650D01*
X13348658Y-14697650D02*
X13377229Y-14697650D01*
X13377229Y-14697650D02*
X13396277Y-14707174D01*
X13396277Y-14707174D02*
X13405801Y-14726222D01*
X13405801Y-14726222D02*
X13405801Y-14830984D01*
X13405801Y-14726222D02*
X13415324Y-14707174D01*
X13415324Y-14707174D02*
X13434372Y-14697650D01*
X13434372Y-14697650D02*
X13462943Y-14697650D01*
X13462943Y-14697650D02*
X13481991Y-14707174D01*
X13481991Y-14707174D02*
X13491515Y-14726222D01*
X13491515Y-14726222D02*
X13491515Y-14830984D01*
X13881991Y-14621460D02*
X13710563Y-14878603D01*
X14139134Y-14630984D02*
X14158182Y-14630984D01*
X14158182Y-14630984D02*
X14177229Y-14640508D01*
X14177229Y-14640508D02*
X14186753Y-14650031D01*
X14186753Y-14650031D02*
X14196277Y-14669079D01*
X14196277Y-14669079D02*
X14205801Y-14707174D01*
X14205801Y-14707174D02*
X14205801Y-14754793D01*
X14205801Y-14754793D02*
X14196277Y-14792888D01*
X14196277Y-14792888D02*
X14186753Y-14811936D01*
X14186753Y-14811936D02*
X14177229Y-14821460D01*
X14177229Y-14821460D02*
X14158182Y-14830984D01*
X14158182Y-14830984D02*
X14139134Y-14830984D01*
X14139134Y-14830984D02*
X14120086Y-14821460D01*
X14120086Y-14821460D02*
X14110563Y-14811936D01*
X14110563Y-14811936D02*
X14101039Y-14792888D01*
X14101039Y-14792888D02*
X14091515Y-14754793D01*
X14091515Y-14754793D02*
X14091515Y-14707174D01*
X14091515Y-14707174D02*
X14101039Y-14669079D01*
X14101039Y-14669079D02*
X14110563Y-14650031D01*
X14110563Y-14650031D02*
X14120086Y-14640508D01*
X14120086Y-14640508D02*
X14139134Y-14630984D01*
X14291515Y-14811936D02*
X14301039Y-14821460D01*
X14301039Y-14821460D02*
X14291515Y-14830984D01*
X14291515Y-14830984D02*
X14281991Y-14821460D01*
X14281991Y-14821460D02*
X14291515Y-14811936D01*
X14291515Y-14811936D02*
X14291515Y-14830984D01*
X14424848Y-14630984D02*
X14443896Y-14630984D01*
X14443896Y-14630984D02*
X14462944Y-14640508D01*
X14462944Y-14640508D02*
X14472467Y-14650031D01*
X14472467Y-14650031D02*
X14481991Y-14669079D01*
X14481991Y-14669079D02*
X14491515Y-14707174D01*
X14491515Y-14707174D02*
X14491515Y-14754793D01*
X14491515Y-14754793D02*
X14481991Y-14792888D01*
X14481991Y-14792888D02*
X14472467Y-14811936D01*
X14472467Y-14811936D02*
X14462944Y-14821460D01*
X14462944Y-14821460D02*
X14443896Y-14830984D01*
X14443896Y-14830984D02*
X14424848Y-14830984D01*
X14424848Y-14830984D02*
X14405801Y-14821460D01*
X14405801Y-14821460D02*
X14396277Y-14811936D01*
X14396277Y-14811936D02*
X14386753Y-14792888D01*
X14386753Y-14792888D02*
X14377229Y-14754793D01*
X14377229Y-14754793D02*
X14377229Y-14707174D01*
X14377229Y-14707174D02*
X14386753Y-14669079D01*
X14386753Y-14669079D02*
X14396277Y-14650031D01*
X14396277Y-14650031D02*
X14405801Y-14640508D01*
X14405801Y-14640508D02*
X14424848Y-14630984D01*
X14558182Y-14630984D02*
X14681991Y-14630984D01*
X14681991Y-14630984D02*
X14615325Y-14707174D01*
X14615325Y-14707174D02*
X14643896Y-14707174D01*
X14643896Y-14707174D02*
X14662944Y-14716698D01*
X14662944Y-14716698D02*
X14672467Y-14726222D01*
X14672467Y-14726222D02*
X14681991Y-14745269D01*
X14681991Y-14745269D02*
X14681991Y-14792888D01*
X14681991Y-14792888D02*
X14672467Y-14811936D01*
X14672467Y-14811936D02*
X14662944Y-14821460D01*
X14662944Y-14821460D02*
X14643896Y-14830984D01*
X14643896Y-14830984D02*
X14586753Y-14830984D01*
X14586753Y-14830984D02*
X14567706Y-14821460D01*
X14567706Y-14821460D02*
X14558182Y-14811936D01*
X14805801Y-14630984D02*
X14824848Y-14630984D01*
X14824848Y-14630984D02*
X14843896Y-14640508D01*
X14843896Y-14640508D02*
X14853420Y-14650031D01*
X14853420Y-14650031D02*
X14862944Y-14669079D01*
X14862944Y-14669079D02*
X14872467Y-14707174D01*
X14872467Y-14707174D02*
X14872467Y-14754793D01*
X14872467Y-14754793D02*
X14862944Y-14792888D01*
X14862944Y-14792888D02*
X14853420Y-14811936D01*
X14853420Y-14811936D02*
X14843896Y-14821460D01*
X14843896Y-14821460D02*
X14824848Y-14830984D01*
X14824848Y-14830984D02*
X14805801Y-14830984D01*
X14805801Y-14830984D02*
X14786753Y-14821460D01*
X14786753Y-14821460D02*
X14777229Y-14811936D01*
X14777229Y-14811936D02*
X14767706Y-14792888D01*
X14767706Y-14792888D02*
X14758182Y-14754793D01*
X14758182Y-14754793D02*
X14758182Y-14707174D01*
X14758182Y-14707174D02*
X14767706Y-14669079D01*
X14767706Y-14669079D02*
X14777229Y-14650031D01*
X14777229Y-14650031D02*
X14786753Y-14640508D01*
X14786753Y-14640508D02*
X14805801Y-14630984D01*
X14996277Y-14630984D02*
X15015325Y-14630984D01*
X15015325Y-14630984D02*
X15034372Y-14640508D01*
X15034372Y-14640508D02*
X15043896Y-14650031D01*
X15043896Y-14650031D02*
X15053420Y-14669079D01*
X15053420Y-14669079D02*
X15062944Y-14707174D01*
X15062944Y-14707174D02*
X15062944Y-14754793D01*
X15062944Y-14754793D02*
X15053420Y-14792888D01*
X15053420Y-14792888D02*
X15043896Y-14811936D01*
X15043896Y-14811936D02*
X15034372Y-14821460D01*
X15034372Y-14821460D02*
X15015325Y-14830984D01*
X15015325Y-14830984D02*
X14996277Y-14830984D01*
X14996277Y-14830984D02*
X14977229Y-14821460D01*
X14977229Y-14821460D02*
X14967706Y-14811936D01*
X14967706Y-14811936D02*
X14958182Y-14792888D01*
X14958182Y-14792888D02*
X14948658Y-14754793D01*
X14948658Y-14754793D02*
X14948658Y-14707174D01*
X14948658Y-14707174D02*
X14958182Y-14669079D01*
X14958182Y-14669079D02*
X14967706Y-14650031D01*
X14967706Y-14650031D02*
X14977229Y-14640508D01*
X14977229Y-14640508D02*
X14996277Y-14630984D01*
X15139134Y-14630984D02*
X15139134Y-14669079D01*
X15215325Y-14630984D02*
X15215325Y-14669079D01*
X15510563Y-14907174D02*
X15501039Y-14897650D01*
X15501039Y-14897650D02*
X15481991Y-14869079D01*
X15481991Y-14869079D02*
X15472468Y-14850031D01*
X15472468Y-14850031D02*
X15462944Y-14821460D01*
X15462944Y-14821460D02*
X15453420Y-14773841D01*
X15453420Y-14773841D02*
X15453420Y-14735746D01*
X15453420Y-14735746D02*
X15462944Y-14688127D01*
X15462944Y-14688127D02*
X15472468Y-14659555D01*
X15472468Y-14659555D02*
X15481991Y-14640508D01*
X15481991Y-14640508D02*
X15501039Y-14611936D01*
X15501039Y-14611936D02*
X15510563Y-14602412D01*
X15672468Y-14630984D02*
X15634372Y-14630984D01*
X15634372Y-14630984D02*
X15615325Y-14640508D01*
X15615325Y-14640508D02*
X15605801Y-14650031D01*
X15605801Y-14650031D02*
X15586753Y-14678603D01*
X15586753Y-14678603D02*
X15577229Y-14716698D01*
X15577229Y-14716698D02*
X15577229Y-14792888D01*
X15577229Y-14792888D02*
X15586753Y-14811936D01*
X15586753Y-14811936D02*
X15596277Y-14821460D01*
X15596277Y-14821460D02*
X15615325Y-14830984D01*
X15615325Y-14830984D02*
X15653420Y-14830984D01*
X15653420Y-14830984D02*
X15672468Y-14821460D01*
X15672468Y-14821460D02*
X15681991Y-14811936D01*
X15681991Y-14811936D02*
X15691515Y-14792888D01*
X15691515Y-14792888D02*
X15691515Y-14745269D01*
X15691515Y-14745269D02*
X15681991Y-14726222D01*
X15681991Y-14726222D02*
X15672468Y-14716698D01*
X15672468Y-14716698D02*
X15653420Y-14707174D01*
X15653420Y-14707174D02*
X15615325Y-14707174D01*
X15615325Y-14707174D02*
X15596277Y-14716698D01*
X15596277Y-14716698D02*
X15586753Y-14726222D01*
X15586753Y-14726222D02*
X15577229Y-14745269D01*
X15929610Y-14830984D02*
X15929610Y-14630984D01*
X16015325Y-14830984D02*
X16015325Y-14726222D01*
X16015325Y-14726222D02*
X16005801Y-14707174D01*
X16005801Y-14707174D02*
X15986753Y-14697650D01*
X15986753Y-14697650D02*
X15958182Y-14697650D01*
X15958182Y-14697650D02*
X15939134Y-14707174D01*
X15939134Y-14707174D02*
X15929610Y-14716698D01*
X16139134Y-14830984D02*
X16120087Y-14821460D01*
X16120087Y-14821460D02*
X16110563Y-14811936D01*
X16110563Y-14811936D02*
X16101039Y-14792888D01*
X16101039Y-14792888D02*
X16101039Y-14735746D01*
X16101039Y-14735746D02*
X16110563Y-14716698D01*
X16110563Y-14716698D02*
X16120087Y-14707174D01*
X16120087Y-14707174D02*
X16139134Y-14697650D01*
X16139134Y-14697650D02*
X16167706Y-14697650D01*
X16167706Y-14697650D02*
X16186753Y-14707174D01*
X16186753Y-14707174D02*
X16196277Y-14716698D01*
X16196277Y-14716698D02*
X16205801Y-14735746D01*
X16205801Y-14735746D02*
X16205801Y-14792888D01*
X16205801Y-14792888D02*
X16196277Y-14811936D01*
X16196277Y-14811936D02*
X16186753Y-14821460D01*
X16186753Y-14821460D02*
X16167706Y-14830984D01*
X16167706Y-14830984D02*
X16139134Y-14830984D01*
X16320087Y-14830984D02*
X16301039Y-14821460D01*
X16301039Y-14821460D02*
X16291515Y-14802412D01*
X16291515Y-14802412D02*
X16291515Y-14630984D01*
X16472468Y-14821460D02*
X16453420Y-14830984D01*
X16453420Y-14830984D02*
X16415325Y-14830984D01*
X16415325Y-14830984D02*
X16396277Y-14821460D01*
X16396277Y-14821460D02*
X16386753Y-14802412D01*
X16386753Y-14802412D02*
X16386753Y-14726222D01*
X16386753Y-14726222D02*
X16396277Y-14707174D01*
X16396277Y-14707174D02*
X16415325Y-14697650D01*
X16415325Y-14697650D02*
X16453420Y-14697650D01*
X16453420Y-14697650D02*
X16472468Y-14707174D01*
X16472468Y-14707174D02*
X16481991Y-14726222D01*
X16481991Y-14726222D02*
X16481991Y-14745269D01*
X16481991Y-14745269D02*
X16386753Y-14764317D01*
X16558182Y-14821460D02*
X16577230Y-14830984D01*
X16577230Y-14830984D02*
X16615325Y-14830984D01*
X16615325Y-14830984D02*
X16634372Y-14821460D01*
X16634372Y-14821460D02*
X16643896Y-14802412D01*
X16643896Y-14802412D02*
X16643896Y-14792888D01*
X16643896Y-14792888D02*
X16634372Y-14773841D01*
X16634372Y-14773841D02*
X16615325Y-14764317D01*
X16615325Y-14764317D02*
X16586753Y-14764317D01*
X16586753Y-14764317D02*
X16567706Y-14754793D01*
X16567706Y-14754793D02*
X16558182Y-14735746D01*
X16558182Y-14735746D02*
X16558182Y-14726222D01*
X16558182Y-14726222D02*
X16567706Y-14707174D01*
X16567706Y-14707174D02*
X16586753Y-14697650D01*
X16586753Y-14697650D02*
X16615325Y-14697650D01*
X16615325Y-14697650D02*
X16634372Y-14707174D01*
X16710563Y-14907174D02*
X16720087Y-14897650D01*
X16720087Y-14897650D02*
X16739134Y-14869079D01*
X16739134Y-14869079D02*
X16748658Y-14850031D01*
X16748658Y-14850031D02*
X16758182Y-14821460D01*
X16758182Y-14821460D02*
X16767706Y-14773841D01*
X16767706Y-14773841D02*
X16767706Y-14735746D01*
X16767706Y-14735746D02*
X16758182Y-14688127D01*
X16758182Y-14688127D02*
X16748658Y-14659555D01*
X16748658Y-14659555D02*
X16739134Y-14640508D01*
X16739134Y-14640508D02*
X16720087Y-14611936D01*
X16720087Y-14611936D02*
X16710563Y-14602412D01*
D12*
X11935500Y-15003500D02*
G75*
G02*
X11855500Y-15003500I-40000J0D01*
G01*
X11855500Y-15003500D02*
G75*
G02*
X11935500Y-15003500I40000J0D01*
G01*
D11*
X12234372Y-14894984D02*
X12253420Y-14894984D01*
X12253420Y-14894984D02*
X12272467Y-14904508D01*
X12272467Y-14904508D02*
X12281991Y-14914031D01*
X12281991Y-14914031D02*
X12291515Y-14933079D01*
X12291515Y-14933079D02*
X12301039Y-14971174D01*
X12301039Y-14971174D02*
X12301039Y-15018793D01*
X12301039Y-15018793D02*
X12291515Y-15056888D01*
X12291515Y-15056888D02*
X12281991Y-15075936D01*
X12281991Y-15075936D02*
X12272467Y-15085460D01*
X12272467Y-15085460D02*
X12253420Y-15094984D01*
X12253420Y-15094984D02*
X12234372Y-15094984D01*
X12234372Y-15094984D02*
X12215324Y-15085460D01*
X12215324Y-15085460D02*
X12205801Y-15075936D01*
X12205801Y-15075936D02*
X12196277Y-15056888D01*
X12196277Y-15056888D02*
X12186753Y-15018793D01*
X12186753Y-15018793D02*
X12186753Y-14971174D01*
X12186753Y-14971174D02*
X12196277Y-14933079D01*
X12196277Y-14933079D02*
X12205801Y-14914031D01*
X12205801Y-14914031D02*
X12215324Y-14904508D01*
X12215324Y-14904508D02*
X12234372Y-14894984D01*
X12386753Y-15075936D02*
X12396277Y-15085460D01*
X12396277Y-15085460D02*
X12386753Y-15094984D01*
X12386753Y-15094984D02*
X12377229Y-15085460D01*
X12377229Y-15085460D02*
X12386753Y-15075936D01*
X12386753Y-15075936D02*
X12386753Y-15094984D01*
X12510562Y-14980698D02*
X12491515Y-14971174D01*
X12491515Y-14971174D02*
X12481991Y-14961650D01*
X12481991Y-14961650D02*
X12472467Y-14942603D01*
X12472467Y-14942603D02*
X12472467Y-14933079D01*
X12472467Y-14933079D02*
X12481991Y-14914031D01*
X12481991Y-14914031D02*
X12491515Y-14904508D01*
X12491515Y-14904508D02*
X12510562Y-14894984D01*
X12510562Y-14894984D02*
X12548658Y-14894984D01*
X12548658Y-14894984D02*
X12567705Y-14904508D01*
X12567705Y-14904508D02*
X12577229Y-14914031D01*
X12577229Y-14914031D02*
X12586753Y-14933079D01*
X12586753Y-14933079D02*
X12586753Y-14942603D01*
X12586753Y-14942603D02*
X12577229Y-14961650D01*
X12577229Y-14961650D02*
X12567705Y-14971174D01*
X12567705Y-14971174D02*
X12548658Y-14980698D01*
X12548658Y-14980698D02*
X12510562Y-14980698D01*
X12510562Y-14980698D02*
X12491515Y-14990222D01*
X12491515Y-14990222D02*
X12481991Y-14999746D01*
X12481991Y-14999746D02*
X12472467Y-15018793D01*
X12472467Y-15018793D02*
X12472467Y-15056888D01*
X12472467Y-15056888D02*
X12481991Y-15075936D01*
X12481991Y-15075936D02*
X12491515Y-15085460D01*
X12491515Y-15085460D02*
X12510562Y-15094984D01*
X12510562Y-15094984D02*
X12548658Y-15094984D01*
X12548658Y-15094984D02*
X12567705Y-15085460D01*
X12567705Y-15085460D02*
X12577229Y-15075936D01*
X12577229Y-15075936D02*
X12586753Y-15056888D01*
X12586753Y-15056888D02*
X12586753Y-15018793D01*
X12586753Y-15018793D02*
X12577229Y-14999746D01*
X12577229Y-14999746D02*
X12567705Y-14990222D01*
X12567705Y-14990222D02*
X12548658Y-14980698D01*
X12710562Y-14894984D02*
X12729610Y-14894984D01*
X12729610Y-14894984D02*
X12748658Y-14904508D01*
X12748658Y-14904508D02*
X12758182Y-14914031D01*
X12758182Y-14914031D02*
X12767705Y-14933079D01*
X12767705Y-14933079D02*
X12777229Y-14971174D01*
X12777229Y-14971174D02*
X12777229Y-15018793D01*
X12777229Y-15018793D02*
X12767705Y-15056888D01*
X12767705Y-15056888D02*
X12758182Y-15075936D01*
X12758182Y-15075936D02*
X12748658Y-15085460D01*
X12748658Y-15085460D02*
X12729610Y-15094984D01*
X12729610Y-15094984D02*
X12710562Y-15094984D01*
X12710562Y-15094984D02*
X12691515Y-15085460D01*
X12691515Y-15085460D02*
X12681991Y-15075936D01*
X12681991Y-15075936D02*
X12672467Y-15056888D01*
X12672467Y-15056888D02*
X12662943Y-15018793D01*
X12662943Y-15018793D02*
X12662943Y-14971174D01*
X12662943Y-14971174D02*
X12672467Y-14933079D01*
X12672467Y-14933079D02*
X12681991Y-14914031D01*
X12681991Y-14914031D02*
X12691515Y-14904508D01*
X12691515Y-14904508D02*
X12710562Y-14894984D01*
X12901039Y-14894984D02*
X12920086Y-14894984D01*
X12920086Y-14894984D02*
X12939134Y-14904508D01*
X12939134Y-14904508D02*
X12948658Y-14914031D01*
X12948658Y-14914031D02*
X12958182Y-14933079D01*
X12958182Y-14933079D02*
X12967705Y-14971174D01*
X12967705Y-14971174D02*
X12967705Y-15018793D01*
X12967705Y-15018793D02*
X12958182Y-15056888D01*
X12958182Y-15056888D02*
X12948658Y-15075936D01*
X12948658Y-15075936D02*
X12939134Y-15085460D01*
X12939134Y-15085460D02*
X12920086Y-15094984D01*
X12920086Y-15094984D02*
X12901039Y-15094984D01*
X12901039Y-15094984D02*
X12881991Y-15085460D01*
X12881991Y-15085460D02*
X12872467Y-15075936D01*
X12872467Y-15075936D02*
X12862943Y-15056888D01*
X12862943Y-15056888D02*
X12853420Y-15018793D01*
X12853420Y-15018793D02*
X12853420Y-14971174D01*
X12853420Y-14971174D02*
X12862943Y-14933079D01*
X12862943Y-14933079D02*
X12872467Y-14914031D01*
X12872467Y-14914031D02*
X12881991Y-14904508D01*
X12881991Y-14904508D02*
X12901039Y-14894984D01*
X13053420Y-15094984D02*
X13053420Y-14961650D01*
X13053420Y-14980698D02*
X13062943Y-14971174D01*
X13062943Y-14971174D02*
X13081991Y-14961650D01*
X13081991Y-14961650D02*
X13110563Y-14961650D01*
X13110563Y-14961650D02*
X13129610Y-14971174D01*
X13129610Y-14971174D02*
X13139134Y-14990222D01*
X13139134Y-14990222D02*
X13139134Y-15094984D01*
X13139134Y-14990222D02*
X13148658Y-14971174D01*
X13148658Y-14971174D02*
X13167705Y-14961650D01*
X13167705Y-14961650D02*
X13196277Y-14961650D01*
X13196277Y-14961650D02*
X13215324Y-14971174D01*
X13215324Y-14971174D02*
X13224848Y-14990222D01*
X13224848Y-14990222D02*
X13224848Y-15094984D01*
X13320086Y-15094984D02*
X13320086Y-14961650D01*
X13320086Y-14980698D02*
X13329610Y-14971174D01*
X13329610Y-14971174D02*
X13348658Y-14961650D01*
X13348658Y-14961650D02*
X13377229Y-14961650D01*
X13377229Y-14961650D02*
X13396277Y-14971174D01*
X13396277Y-14971174D02*
X13405801Y-14990222D01*
X13405801Y-14990222D02*
X13405801Y-15094984D01*
X13405801Y-14990222D02*
X13415324Y-14971174D01*
X13415324Y-14971174D02*
X13434372Y-14961650D01*
X13434372Y-14961650D02*
X13462943Y-14961650D01*
X13462943Y-14961650D02*
X13481991Y-14971174D01*
X13481991Y-14971174D02*
X13491515Y-14990222D01*
X13491515Y-14990222D02*
X13491515Y-15094984D01*
X13881991Y-14885460D02*
X13710563Y-15142603D01*
X14139134Y-14894984D02*
X14158182Y-14894984D01*
X14158182Y-14894984D02*
X14177229Y-14904508D01*
X14177229Y-14904508D02*
X14186753Y-14914031D01*
X14186753Y-14914031D02*
X14196277Y-14933079D01*
X14196277Y-14933079D02*
X14205801Y-14971174D01*
X14205801Y-14971174D02*
X14205801Y-15018793D01*
X14205801Y-15018793D02*
X14196277Y-15056888D01*
X14196277Y-15056888D02*
X14186753Y-15075936D01*
X14186753Y-15075936D02*
X14177229Y-15085460D01*
X14177229Y-15085460D02*
X14158182Y-15094984D01*
X14158182Y-15094984D02*
X14139134Y-15094984D01*
X14139134Y-15094984D02*
X14120086Y-15085460D01*
X14120086Y-15085460D02*
X14110563Y-15075936D01*
X14110563Y-15075936D02*
X14101039Y-15056888D01*
X14101039Y-15056888D02*
X14091515Y-15018793D01*
X14091515Y-15018793D02*
X14091515Y-14971174D01*
X14091515Y-14971174D02*
X14101039Y-14933079D01*
X14101039Y-14933079D02*
X14110563Y-14914031D01*
X14110563Y-14914031D02*
X14120086Y-14904508D01*
X14120086Y-14904508D02*
X14139134Y-14894984D01*
X14291515Y-15075936D02*
X14301039Y-15085460D01*
X14301039Y-15085460D02*
X14291515Y-15094984D01*
X14291515Y-15094984D02*
X14281991Y-15085460D01*
X14281991Y-15085460D02*
X14291515Y-15075936D01*
X14291515Y-15075936D02*
X14291515Y-15094984D01*
X14424848Y-14894984D02*
X14443896Y-14894984D01*
X14443896Y-14894984D02*
X14462944Y-14904508D01*
X14462944Y-14904508D02*
X14472467Y-14914031D01*
X14472467Y-14914031D02*
X14481991Y-14933079D01*
X14481991Y-14933079D02*
X14491515Y-14971174D01*
X14491515Y-14971174D02*
X14491515Y-15018793D01*
X14491515Y-15018793D02*
X14481991Y-15056888D01*
X14481991Y-15056888D02*
X14472467Y-15075936D01*
X14472467Y-15075936D02*
X14462944Y-15085460D01*
X14462944Y-15085460D02*
X14443896Y-15094984D01*
X14443896Y-15094984D02*
X14424848Y-15094984D01*
X14424848Y-15094984D02*
X14405801Y-15085460D01*
X14405801Y-15085460D02*
X14396277Y-15075936D01*
X14396277Y-15075936D02*
X14386753Y-15056888D01*
X14386753Y-15056888D02*
X14377229Y-15018793D01*
X14377229Y-15018793D02*
X14377229Y-14971174D01*
X14377229Y-14971174D02*
X14386753Y-14933079D01*
X14386753Y-14933079D02*
X14396277Y-14914031D01*
X14396277Y-14914031D02*
X14405801Y-14904508D01*
X14405801Y-14904508D02*
X14424848Y-14894984D01*
X14558182Y-14894984D02*
X14681991Y-14894984D01*
X14681991Y-14894984D02*
X14615325Y-14971174D01*
X14615325Y-14971174D02*
X14643896Y-14971174D01*
X14643896Y-14971174D02*
X14662944Y-14980698D01*
X14662944Y-14980698D02*
X14672467Y-14990222D01*
X14672467Y-14990222D02*
X14681991Y-15009269D01*
X14681991Y-15009269D02*
X14681991Y-15056888D01*
X14681991Y-15056888D02*
X14672467Y-15075936D01*
X14672467Y-15075936D02*
X14662944Y-15085460D01*
X14662944Y-15085460D02*
X14643896Y-15094984D01*
X14643896Y-15094984D02*
X14586753Y-15094984D01*
X14586753Y-15094984D02*
X14567706Y-15085460D01*
X14567706Y-15085460D02*
X14558182Y-15075936D01*
X14872467Y-15094984D02*
X14758182Y-15094984D01*
X14815325Y-15094984D02*
X14815325Y-14894984D01*
X14815325Y-14894984D02*
X14796277Y-14923555D01*
X14796277Y-14923555D02*
X14777229Y-14942603D01*
X14777229Y-14942603D02*
X14758182Y-14952127D01*
X15053420Y-14894984D02*
X14958182Y-14894984D01*
X14958182Y-14894984D02*
X14948658Y-14990222D01*
X14948658Y-14990222D02*
X14958182Y-14980698D01*
X14958182Y-14980698D02*
X14977229Y-14971174D01*
X14977229Y-14971174D02*
X15024848Y-14971174D01*
X15024848Y-14971174D02*
X15043896Y-14980698D01*
X15043896Y-14980698D02*
X15053420Y-14990222D01*
X15053420Y-14990222D02*
X15062944Y-15009269D01*
X15062944Y-15009269D02*
X15062944Y-15056888D01*
X15062944Y-15056888D02*
X15053420Y-15075936D01*
X15053420Y-15075936D02*
X15043896Y-15085460D01*
X15043896Y-15085460D02*
X15024848Y-15094984D01*
X15024848Y-15094984D02*
X14977229Y-15094984D01*
X14977229Y-15094984D02*
X14958182Y-15085460D01*
X14958182Y-15085460D02*
X14948658Y-15075936D01*
X15139134Y-14894984D02*
X15139134Y-14933079D01*
X15215325Y-14894984D02*
X15215325Y-14933079D01*
X15510563Y-15171174D02*
X15501039Y-15161650D01*
X15501039Y-15161650D02*
X15481991Y-15133079D01*
X15481991Y-15133079D02*
X15472468Y-15114031D01*
X15472468Y-15114031D02*
X15462944Y-15085460D01*
X15462944Y-15085460D02*
X15453420Y-15037841D01*
X15453420Y-15037841D02*
X15453420Y-14999746D01*
X15453420Y-14999746D02*
X15462944Y-14952127D01*
X15462944Y-14952127D02*
X15472468Y-14923555D01*
X15472468Y-14923555D02*
X15481991Y-14904508D01*
X15481991Y-14904508D02*
X15501039Y-14875936D01*
X15501039Y-14875936D02*
X15510563Y-14866412D01*
X15691515Y-15094984D02*
X15577229Y-15094984D01*
X15634372Y-15094984D02*
X15634372Y-14894984D01*
X15634372Y-14894984D02*
X15615325Y-14923555D01*
X15615325Y-14923555D02*
X15596277Y-14942603D01*
X15596277Y-14942603D02*
X15577229Y-14952127D01*
X15815325Y-14894984D02*
X15834372Y-14894984D01*
X15834372Y-14894984D02*
X15853420Y-14904508D01*
X15853420Y-14904508D02*
X15862944Y-14914031D01*
X15862944Y-14914031D02*
X15872468Y-14933079D01*
X15872468Y-14933079D02*
X15881991Y-14971174D01*
X15881991Y-14971174D02*
X15881991Y-15018793D01*
X15881991Y-15018793D02*
X15872468Y-15056888D01*
X15872468Y-15056888D02*
X15862944Y-15075936D01*
X15862944Y-15075936D02*
X15853420Y-15085460D01*
X15853420Y-15085460D02*
X15834372Y-15094984D01*
X15834372Y-15094984D02*
X15815325Y-15094984D01*
X15815325Y-15094984D02*
X15796277Y-15085460D01*
X15796277Y-15085460D02*
X15786753Y-15075936D01*
X15786753Y-15075936D02*
X15777229Y-15056888D01*
X15777229Y-15056888D02*
X15767706Y-15018793D01*
X15767706Y-15018793D02*
X15767706Y-14971174D01*
X15767706Y-14971174D02*
X15777229Y-14933079D01*
X15777229Y-14933079D02*
X15786753Y-14914031D01*
X15786753Y-14914031D02*
X15796277Y-14904508D01*
X15796277Y-14904508D02*
X15815325Y-14894984D01*
X16120087Y-15094984D02*
X16120087Y-14894984D01*
X16205801Y-15094984D02*
X16205801Y-14990222D01*
X16205801Y-14990222D02*
X16196277Y-14971174D01*
X16196277Y-14971174D02*
X16177230Y-14961650D01*
X16177230Y-14961650D02*
X16148658Y-14961650D01*
X16148658Y-14961650D02*
X16129610Y-14971174D01*
X16129610Y-14971174D02*
X16120087Y-14980698D01*
X16329610Y-15094984D02*
X16310563Y-15085460D01*
X16310563Y-15085460D02*
X16301039Y-15075936D01*
X16301039Y-15075936D02*
X16291515Y-15056888D01*
X16291515Y-15056888D02*
X16291515Y-14999746D01*
X16291515Y-14999746D02*
X16301039Y-14980698D01*
X16301039Y-14980698D02*
X16310563Y-14971174D01*
X16310563Y-14971174D02*
X16329610Y-14961650D01*
X16329610Y-14961650D02*
X16358182Y-14961650D01*
X16358182Y-14961650D02*
X16377230Y-14971174D01*
X16377230Y-14971174D02*
X16386753Y-14980698D01*
X16386753Y-14980698D02*
X16396277Y-14999746D01*
X16396277Y-14999746D02*
X16396277Y-15056888D01*
X16396277Y-15056888D02*
X16386753Y-15075936D01*
X16386753Y-15075936D02*
X16377230Y-15085460D01*
X16377230Y-15085460D02*
X16358182Y-15094984D01*
X16358182Y-15094984D02*
X16329610Y-15094984D01*
X16510563Y-15094984D02*
X16491515Y-15085460D01*
X16491515Y-15085460D02*
X16481991Y-15066412D01*
X16481991Y-15066412D02*
X16481991Y-14894984D01*
X16662944Y-15085460D02*
X16643896Y-15094984D01*
X16643896Y-15094984D02*
X16605801Y-15094984D01*
X16605801Y-15094984D02*
X16586753Y-15085460D01*
X16586753Y-15085460D02*
X16577230Y-15066412D01*
X16577230Y-15066412D02*
X16577230Y-14990222D01*
X16577230Y-14990222D02*
X16586753Y-14971174D01*
X16586753Y-14971174D02*
X16605801Y-14961650D01*
X16605801Y-14961650D02*
X16643896Y-14961650D01*
X16643896Y-14961650D02*
X16662944Y-14971174D01*
X16662944Y-14971174D02*
X16672468Y-14990222D01*
X16672468Y-14990222D02*
X16672468Y-15009269D01*
X16672468Y-15009269D02*
X16577230Y-15028317D01*
X16748658Y-15085460D02*
X16767706Y-15094984D01*
X16767706Y-15094984D02*
X16805801Y-15094984D01*
X16805801Y-15094984D02*
X16824849Y-15085460D01*
X16824849Y-15085460D02*
X16834373Y-15066412D01*
X16834373Y-15066412D02*
X16834373Y-15056888D01*
X16834373Y-15056888D02*
X16824849Y-15037841D01*
X16824849Y-15037841D02*
X16805801Y-15028317D01*
X16805801Y-15028317D02*
X16777230Y-15028317D01*
X16777230Y-15028317D02*
X16758182Y-15018793D01*
X16758182Y-15018793D02*
X16748658Y-14999746D01*
X16748658Y-14999746D02*
X16748658Y-14990222D01*
X16748658Y-14990222D02*
X16758182Y-14971174D01*
X16758182Y-14971174D02*
X16777230Y-14961650D01*
X16777230Y-14961650D02*
X16805801Y-14961650D01*
X16805801Y-14961650D02*
X16824849Y-14971174D01*
X16901039Y-15171174D02*
X16910563Y-15161650D01*
X16910563Y-15161650D02*
X16929611Y-15133079D01*
X16929611Y-15133079D02*
X16939134Y-15114031D01*
X16939134Y-15114031D02*
X16948658Y-15085460D01*
X16948658Y-15085460D02*
X16958182Y-15037841D01*
X16958182Y-15037841D02*
X16958182Y-14999746D01*
X16958182Y-14999746D02*
X16948658Y-14952127D01*
X16948658Y-14952127D02*
X16939134Y-14923555D01*
X16939134Y-14923555D02*
X16929611Y-14904508D01*
X16929611Y-14904508D02*
X16910563Y-14875936D01*
X16910563Y-14875936D02*
X16901039Y-14866412D01*
D12*
X11885500Y-15217500D02*
X11885500Y-15317500D01*
X11835500Y-15267500D02*
X11935500Y-15267500D01*
D11*
X12301039Y-15358984D02*
X12186753Y-15358984D01*
X12243896Y-15358984D02*
X12243896Y-15158984D01*
X12243896Y-15158984D02*
X12224848Y-15187555D01*
X12224848Y-15187555D02*
X12205801Y-15206603D01*
X12205801Y-15206603D02*
X12186753Y-15216127D01*
X12386753Y-15339936D02*
X12396277Y-15349460D01*
X12396277Y-15349460D02*
X12386753Y-15358984D01*
X12386753Y-15358984D02*
X12377229Y-15349460D01*
X12377229Y-15349460D02*
X12386753Y-15339936D01*
X12386753Y-15339936D02*
X12386753Y-15358984D01*
X12520086Y-15158984D02*
X12539134Y-15158984D01*
X12539134Y-15158984D02*
X12558182Y-15168508D01*
X12558182Y-15168508D02*
X12567705Y-15178031D01*
X12567705Y-15178031D02*
X12577229Y-15197079D01*
X12577229Y-15197079D02*
X12586753Y-15235174D01*
X12586753Y-15235174D02*
X12586753Y-15282793D01*
X12586753Y-15282793D02*
X12577229Y-15320888D01*
X12577229Y-15320888D02*
X12567705Y-15339936D01*
X12567705Y-15339936D02*
X12558182Y-15349460D01*
X12558182Y-15349460D02*
X12539134Y-15358984D01*
X12539134Y-15358984D02*
X12520086Y-15358984D01*
X12520086Y-15358984D02*
X12501039Y-15349460D01*
X12501039Y-15349460D02*
X12491515Y-15339936D01*
X12491515Y-15339936D02*
X12481991Y-15320888D01*
X12481991Y-15320888D02*
X12472467Y-15282793D01*
X12472467Y-15282793D02*
X12472467Y-15235174D01*
X12472467Y-15235174D02*
X12481991Y-15197079D01*
X12481991Y-15197079D02*
X12491515Y-15178031D01*
X12491515Y-15178031D02*
X12501039Y-15168508D01*
X12501039Y-15168508D02*
X12520086Y-15158984D01*
X12710562Y-15158984D02*
X12729610Y-15158984D01*
X12729610Y-15158984D02*
X12748658Y-15168508D01*
X12748658Y-15168508D02*
X12758182Y-15178031D01*
X12758182Y-15178031D02*
X12767705Y-15197079D01*
X12767705Y-15197079D02*
X12777229Y-15235174D01*
X12777229Y-15235174D02*
X12777229Y-15282793D01*
X12777229Y-15282793D02*
X12767705Y-15320888D01*
X12767705Y-15320888D02*
X12758182Y-15339936D01*
X12758182Y-15339936D02*
X12748658Y-15349460D01*
X12748658Y-15349460D02*
X12729610Y-15358984D01*
X12729610Y-15358984D02*
X12710562Y-15358984D01*
X12710562Y-15358984D02*
X12691515Y-15349460D01*
X12691515Y-15349460D02*
X12681991Y-15339936D01*
X12681991Y-15339936D02*
X12672467Y-15320888D01*
X12672467Y-15320888D02*
X12662943Y-15282793D01*
X12662943Y-15282793D02*
X12662943Y-15235174D01*
X12662943Y-15235174D02*
X12672467Y-15197079D01*
X12672467Y-15197079D02*
X12681991Y-15178031D01*
X12681991Y-15178031D02*
X12691515Y-15168508D01*
X12691515Y-15168508D02*
X12710562Y-15158984D01*
X12901039Y-15158984D02*
X12920086Y-15158984D01*
X12920086Y-15158984D02*
X12939134Y-15168508D01*
X12939134Y-15168508D02*
X12948658Y-15178031D01*
X12948658Y-15178031D02*
X12958182Y-15197079D01*
X12958182Y-15197079D02*
X12967705Y-15235174D01*
X12967705Y-15235174D02*
X12967705Y-15282793D01*
X12967705Y-15282793D02*
X12958182Y-15320888D01*
X12958182Y-15320888D02*
X12948658Y-15339936D01*
X12948658Y-15339936D02*
X12939134Y-15349460D01*
X12939134Y-15349460D02*
X12920086Y-15358984D01*
X12920086Y-15358984D02*
X12901039Y-15358984D01*
X12901039Y-15358984D02*
X12881991Y-15349460D01*
X12881991Y-15349460D02*
X12872467Y-15339936D01*
X12872467Y-15339936D02*
X12862943Y-15320888D01*
X12862943Y-15320888D02*
X12853420Y-15282793D01*
X12853420Y-15282793D02*
X12853420Y-15235174D01*
X12853420Y-15235174D02*
X12862943Y-15197079D01*
X12862943Y-15197079D02*
X12872467Y-15178031D01*
X12872467Y-15178031D02*
X12881991Y-15168508D01*
X12881991Y-15168508D02*
X12901039Y-15158984D01*
X13053420Y-15358984D02*
X13053420Y-15225650D01*
X13053420Y-15244698D02*
X13062943Y-15235174D01*
X13062943Y-15235174D02*
X13081991Y-15225650D01*
X13081991Y-15225650D02*
X13110563Y-15225650D01*
X13110563Y-15225650D02*
X13129610Y-15235174D01*
X13129610Y-15235174D02*
X13139134Y-15254222D01*
X13139134Y-15254222D02*
X13139134Y-15358984D01*
X13139134Y-15254222D02*
X13148658Y-15235174D01*
X13148658Y-15235174D02*
X13167705Y-15225650D01*
X13167705Y-15225650D02*
X13196277Y-15225650D01*
X13196277Y-15225650D02*
X13215324Y-15235174D01*
X13215324Y-15235174D02*
X13224848Y-15254222D01*
X13224848Y-15254222D02*
X13224848Y-15358984D01*
X13320086Y-15358984D02*
X13320086Y-15225650D01*
X13320086Y-15244698D02*
X13329610Y-15235174D01*
X13329610Y-15235174D02*
X13348658Y-15225650D01*
X13348658Y-15225650D02*
X13377229Y-15225650D01*
X13377229Y-15225650D02*
X13396277Y-15235174D01*
X13396277Y-15235174D02*
X13405801Y-15254222D01*
X13405801Y-15254222D02*
X13405801Y-15358984D01*
X13405801Y-15254222D02*
X13415324Y-15235174D01*
X13415324Y-15235174D02*
X13434372Y-15225650D01*
X13434372Y-15225650D02*
X13462943Y-15225650D01*
X13462943Y-15225650D02*
X13481991Y-15235174D01*
X13481991Y-15235174D02*
X13491515Y-15254222D01*
X13491515Y-15254222D02*
X13491515Y-15358984D01*
X13881991Y-15149460D02*
X13710563Y-15406603D01*
X14139134Y-15158984D02*
X14158182Y-15158984D01*
X14158182Y-15158984D02*
X14177229Y-15168508D01*
X14177229Y-15168508D02*
X14186753Y-15178031D01*
X14186753Y-15178031D02*
X14196277Y-15197079D01*
X14196277Y-15197079D02*
X14205801Y-15235174D01*
X14205801Y-15235174D02*
X14205801Y-15282793D01*
X14205801Y-15282793D02*
X14196277Y-15320888D01*
X14196277Y-15320888D02*
X14186753Y-15339936D01*
X14186753Y-15339936D02*
X14177229Y-15349460D01*
X14177229Y-15349460D02*
X14158182Y-15358984D01*
X14158182Y-15358984D02*
X14139134Y-15358984D01*
X14139134Y-15358984D02*
X14120086Y-15349460D01*
X14120086Y-15349460D02*
X14110563Y-15339936D01*
X14110563Y-15339936D02*
X14101039Y-15320888D01*
X14101039Y-15320888D02*
X14091515Y-15282793D01*
X14091515Y-15282793D02*
X14091515Y-15235174D01*
X14091515Y-15235174D02*
X14101039Y-15197079D01*
X14101039Y-15197079D02*
X14110563Y-15178031D01*
X14110563Y-15178031D02*
X14120086Y-15168508D01*
X14120086Y-15168508D02*
X14139134Y-15158984D01*
X14291515Y-15339936D02*
X14301039Y-15349460D01*
X14301039Y-15349460D02*
X14291515Y-15358984D01*
X14291515Y-15358984D02*
X14281991Y-15349460D01*
X14281991Y-15349460D02*
X14291515Y-15339936D01*
X14291515Y-15339936D02*
X14291515Y-15358984D01*
X14424848Y-15158984D02*
X14443896Y-15158984D01*
X14443896Y-15158984D02*
X14462944Y-15168508D01*
X14462944Y-15168508D02*
X14472467Y-15178031D01*
X14472467Y-15178031D02*
X14481991Y-15197079D01*
X14481991Y-15197079D02*
X14491515Y-15235174D01*
X14491515Y-15235174D02*
X14491515Y-15282793D01*
X14491515Y-15282793D02*
X14481991Y-15320888D01*
X14481991Y-15320888D02*
X14472467Y-15339936D01*
X14472467Y-15339936D02*
X14462944Y-15349460D01*
X14462944Y-15349460D02*
X14443896Y-15358984D01*
X14443896Y-15358984D02*
X14424848Y-15358984D01*
X14424848Y-15358984D02*
X14405801Y-15349460D01*
X14405801Y-15349460D02*
X14396277Y-15339936D01*
X14396277Y-15339936D02*
X14386753Y-15320888D01*
X14386753Y-15320888D02*
X14377229Y-15282793D01*
X14377229Y-15282793D02*
X14377229Y-15235174D01*
X14377229Y-15235174D02*
X14386753Y-15197079D01*
X14386753Y-15197079D02*
X14396277Y-15178031D01*
X14396277Y-15178031D02*
X14405801Y-15168508D01*
X14405801Y-15168508D02*
X14424848Y-15158984D01*
X14558182Y-15158984D02*
X14681991Y-15158984D01*
X14681991Y-15158984D02*
X14615325Y-15235174D01*
X14615325Y-15235174D02*
X14643896Y-15235174D01*
X14643896Y-15235174D02*
X14662944Y-15244698D01*
X14662944Y-15244698D02*
X14672467Y-15254222D01*
X14672467Y-15254222D02*
X14681991Y-15273269D01*
X14681991Y-15273269D02*
X14681991Y-15320888D01*
X14681991Y-15320888D02*
X14672467Y-15339936D01*
X14672467Y-15339936D02*
X14662944Y-15349460D01*
X14662944Y-15349460D02*
X14643896Y-15358984D01*
X14643896Y-15358984D02*
X14586753Y-15358984D01*
X14586753Y-15358984D02*
X14567706Y-15349460D01*
X14567706Y-15349460D02*
X14558182Y-15339936D01*
X14777229Y-15358984D02*
X14815325Y-15358984D01*
X14815325Y-15358984D02*
X14834372Y-15349460D01*
X14834372Y-15349460D02*
X14843896Y-15339936D01*
X14843896Y-15339936D02*
X14862944Y-15311365D01*
X14862944Y-15311365D02*
X14872467Y-15273269D01*
X14872467Y-15273269D02*
X14872467Y-15197079D01*
X14872467Y-15197079D02*
X14862944Y-15178031D01*
X14862944Y-15178031D02*
X14853420Y-15168508D01*
X14853420Y-15168508D02*
X14834372Y-15158984D01*
X14834372Y-15158984D02*
X14796277Y-15158984D01*
X14796277Y-15158984D02*
X14777229Y-15168508D01*
X14777229Y-15168508D02*
X14767706Y-15178031D01*
X14767706Y-15178031D02*
X14758182Y-15197079D01*
X14758182Y-15197079D02*
X14758182Y-15244698D01*
X14758182Y-15244698D02*
X14767706Y-15263746D01*
X14767706Y-15263746D02*
X14777229Y-15273269D01*
X14777229Y-15273269D02*
X14796277Y-15282793D01*
X14796277Y-15282793D02*
X14834372Y-15282793D01*
X14834372Y-15282793D02*
X14853420Y-15273269D01*
X14853420Y-15273269D02*
X14862944Y-15263746D01*
X14862944Y-15263746D02*
X14872467Y-15244698D01*
X15043896Y-15225650D02*
X15043896Y-15358984D01*
X14996277Y-15149460D02*
X14948658Y-15292317D01*
X14948658Y-15292317D02*
X15072467Y-15292317D01*
X15139134Y-15158984D02*
X15139134Y-15197079D01*
X15215325Y-15158984D02*
X15215325Y-15197079D01*
X15510563Y-15435174D02*
X15501039Y-15425650D01*
X15501039Y-15425650D02*
X15481991Y-15397079D01*
X15481991Y-15397079D02*
X15472468Y-15378031D01*
X15472468Y-15378031D02*
X15462944Y-15349460D01*
X15462944Y-15349460D02*
X15453420Y-15301841D01*
X15453420Y-15301841D02*
X15453420Y-15263746D01*
X15453420Y-15263746D02*
X15462944Y-15216127D01*
X15462944Y-15216127D02*
X15472468Y-15187555D01*
X15472468Y-15187555D02*
X15481991Y-15168508D01*
X15481991Y-15168508D02*
X15501039Y-15139936D01*
X15501039Y-15139936D02*
X15510563Y-15130412D01*
X15567706Y-15158984D02*
X15691515Y-15158984D01*
X15691515Y-15158984D02*
X15624848Y-15235174D01*
X15624848Y-15235174D02*
X15653420Y-15235174D01*
X15653420Y-15235174D02*
X15672468Y-15244698D01*
X15672468Y-15244698D02*
X15681991Y-15254222D01*
X15681991Y-15254222D02*
X15691515Y-15273269D01*
X15691515Y-15273269D02*
X15691515Y-15320888D01*
X15691515Y-15320888D02*
X15681991Y-15339936D01*
X15681991Y-15339936D02*
X15672468Y-15349460D01*
X15672468Y-15349460D02*
X15653420Y-15358984D01*
X15653420Y-15358984D02*
X15596277Y-15358984D01*
X15596277Y-15358984D02*
X15577229Y-15349460D01*
X15577229Y-15349460D02*
X15567706Y-15339936D01*
X15862944Y-15158984D02*
X15824848Y-15158984D01*
X15824848Y-15158984D02*
X15805801Y-15168508D01*
X15805801Y-15168508D02*
X15796277Y-15178031D01*
X15796277Y-15178031D02*
X15777229Y-15206603D01*
X15777229Y-15206603D02*
X15767706Y-15244698D01*
X15767706Y-15244698D02*
X15767706Y-15320888D01*
X15767706Y-15320888D02*
X15777229Y-15339936D01*
X15777229Y-15339936D02*
X15786753Y-15349460D01*
X15786753Y-15349460D02*
X15805801Y-15358984D01*
X15805801Y-15358984D02*
X15843896Y-15358984D01*
X15843896Y-15358984D02*
X15862944Y-15349460D01*
X15862944Y-15349460D02*
X15872468Y-15339936D01*
X15872468Y-15339936D02*
X15881991Y-15320888D01*
X15881991Y-15320888D02*
X15881991Y-15273269D01*
X15881991Y-15273269D02*
X15872468Y-15254222D01*
X15872468Y-15254222D02*
X15862944Y-15244698D01*
X15862944Y-15244698D02*
X15843896Y-15235174D01*
X15843896Y-15235174D02*
X15805801Y-15235174D01*
X15805801Y-15235174D02*
X15786753Y-15244698D01*
X15786753Y-15244698D02*
X15777229Y-15254222D01*
X15777229Y-15254222D02*
X15767706Y-15273269D01*
X16120087Y-15358984D02*
X16120087Y-15158984D01*
X16205801Y-15358984D02*
X16205801Y-15254222D01*
X16205801Y-15254222D02*
X16196277Y-15235174D01*
X16196277Y-15235174D02*
X16177230Y-15225650D01*
X16177230Y-15225650D02*
X16148658Y-15225650D01*
X16148658Y-15225650D02*
X16129610Y-15235174D01*
X16129610Y-15235174D02*
X16120087Y-15244698D01*
X16329610Y-15358984D02*
X16310563Y-15349460D01*
X16310563Y-15349460D02*
X16301039Y-15339936D01*
X16301039Y-15339936D02*
X16291515Y-15320888D01*
X16291515Y-15320888D02*
X16291515Y-15263746D01*
X16291515Y-15263746D02*
X16301039Y-15244698D01*
X16301039Y-15244698D02*
X16310563Y-15235174D01*
X16310563Y-15235174D02*
X16329610Y-15225650D01*
X16329610Y-15225650D02*
X16358182Y-15225650D01*
X16358182Y-15225650D02*
X16377230Y-15235174D01*
X16377230Y-15235174D02*
X16386753Y-15244698D01*
X16386753Y-15244698D02*
X16396277Y-15263746D01*
X16396277Y-15263746D02*
X16396277Y-15320888D01*
X16396277Y-15320888D02*
X16386753Y-15339936D01*
X16386753Y-15339936D02*
X16377230Y-15349460D01*
X16377230Y-15349460D02*
X16358182Y-15358984D01*
X16358182Y-15358984D02*
X16329610Y-15358984D01*
X16510563Y-15358984D02*
X16491515Y-15349460D01*
X16491515Y-15349460D02*
X16481991Y-15330412D01*
X16481991Y-15330412D02*
X16481991Y-15158984D01*
X16662944Y-15349460D02*
X16643896Y-15358984D01*
X16643896Y-15358984D02*
X16605801Y-15358984D01*
X16605801Y-15358984D02*
X16586753Y-15349460D01*
X16586753Y-15349460D02*
X16577230Y-15330412D01*
X16577230Y-15330412D02*
X16577230Y-15254222D01*
X16577230Y-15254222D02*
X16586753Y-15235174D01*
X16586753Y-15235174D02*
X16605801Y-15225650D01*
X16605801Y-15225650D02*
X16643896Y-15225650D01*
X16643896Y-15225650D02*
X16662944Y-15235174D01*
X16662944Y-15235174D02*
X16672468Y-15254222D01*
X16672468Y-15254222D02*
X16672468Y-15273269D01*
X16672468Y-15273269D02*
X16577230Y-15292317D01*
X16748658Y-15349460D02*
X16767706Y-15358984D01*
X16767706Y-15358984D02*
X16805801Y-15358984D01*
X16805801Y-15358984D02*
X16824849Y-15349460D01*
X16824849Y-15349460D02*
X16834373Y-15330412D01*
X16834373Y-15330412D02*
X16834373Y-15320888D01*
X16834373Y-15320888D02*
X16824849Y-15301841D01*
X16824849Y-15301841D02*
X16805801Y-15292317D01*
X16805801Y-15292317D02*
X16777230Y-15292317D01*
X16777230Y-15292317D02*
X16758182Y-15282793D01*
X16758182Y-15282793D02*
X16748658Y-15263746D01*
X16748658Y-15263746D02*
X16748658Y-15254222D01*
X16748658Y-15254222D02*
X16758182Y-15235174D01*
X16758182Y-15235174D02*
X16777230Y-15225650D01*
X16777230Y-15225650D02*
X16805801Y-15225650D01*
X16805801Y-15225650D02*
X16824849Y-15235174D01*
X16901039Y-15435174D02*
X16910563Y-15425650D01*
X16910563Y-15425650D02*
X16929611Y-15397079D01*
X16929611Y-15397079D02*
X16939134Y-15378031D01*
X16939134Y-15378031D02*
X16948658Y-15349460D01*
X16948658Y-15349460D02*
X16958182Y-15301841D01*
X16958182Y-15301841D02*
X16958182Y-15263746D01*
X16958182Y-15263746D02*
X16948658Y-15216127D01*
X16948658Y-15216127D02*
X16939134Y-15187555D01*
X16939134Y-15187555D02*
X16929611Y-15168508D01*
X16929611Y-15168508D02*
X16910563Y-15139936D01*
X16910563Y-15139936D02*
X16901039Y-15130412D01*
D13*
X11920563Y-15567563D02*
X11920563Y-15495437D01*
X11848437Y-15495437D01*
X11848437Y-15567563D01*
X11920563Y-15567563D01*
D11*
X12301039Y-15622984D02*
X12186753Y-15622984D01*
X12243896Y-15622984D02*
X12243896Y-15422984D01*
X12243896Y-15422984D02*
X12224848Y-15451555D01*
X12224848Y-15451555D02*
X12205801Y-15470603D01*
X12205801Y-15470603D02*
X12186753Y-15480127D01*
X12386753Y-15603936D02*
X12396277Y-15613460D01*
X12396277Y-15613460D02*
X12386753Y-15622984D01*
X12386753Y-15622984D02*
X12377229Y-15613460D01*
X12377229Y-15613460D02*
X12386753Y-15603936D01*
X12386753Y-15603936D02*
X12386753Y-15622984D01*
X12520086Y-15422984D02*
X12539134Y-15422984D01*
X12539134Y-15422984D02*
X12558182Y-15432508D01*
X12558182Y-15432508D02*
X12567705Y-15442031D01*
X12567705Y-15442031D02*
X12577229Y-15461079D01*
X12577229Y-15461079D02*
X12586753Y-15499174D01*
X12586753Y-15499174D02*
X12586753Y-15546793D01*
X12586753Y-15546793D02*
X12577229Y-15584888D01*
X12577229Y-15584888D02*
X12567705Y-15603936D01*
X12567705Y-15603936D02*
X12558182Y-15613460D01*
X12558182Y-15613460D02*
X12539134Y-15622984D01*
X12539134Y-15622984D02*
X12520086Y-15622984D01*
X12520086Y-15622984D02*
X12501039Y-15613460D01*
X12501039Y-15613460D02*
X12491515Y-15603936D01*
X12491515Y-15603936D02*
X12481991Y-15584888D01*
X12481991Y-15584888D02*
X12472467Y-15546793D01*
X12472467Y-15546793D02*
X12472467Y-15499174D01*
X12472467Y-15499174D02*
X12481991Y-15461079D01*
X12481991Y-15461079D02*
X12491515Y-15442031D01*
X12491515Y-15442031D02*
X12501039Y-15432508D01*
X12501039Y-15432508D02*
X12520086Y-15422984D01*
X12662943Y-15442031D02*
X12672467Y-15432508D01*
X12672467Y-15432508D02*
X12691515Y-15422984D01*
X12691515Y-15422984D02*
X12739134Y-15422984D01*
X12739134Y-15422984D02*
X12758182Y-15432508D01*
X12758182Y-15432508D02*
X12767705Y-15442031D01*
X12767705Y-15442031D02*
X12777229Y-15461079D01*
X12777229Y-15461079D02*
X12777229Y-15480127D01*
X12777229Y-15480127D02*
X12767705Y-15508698D01*
X12767705Y-15508698D02*
X12653420Y-15622984D01*
X12653420Y-15622984D02*
X12777229Y-15622984D01*
X12901039Y-15422984D02*
X12920086Y-15422984D01*
X12920086Y-15422984D02*
X12939134Y-15432508D01*
X12939134Y-15432508D02*
X12948658Y-15442031D01*
X12948658Y-15442031D02*
X12958182Y-15461079D01*
X12958182Y-15461079D02*
X12967705Y-15499174D01*
X12967705Y-15499174D02*
X12967705Y-15546793D01*
X12967705Y-15546793D02*
X12958182Y-15584888D01*
X12958182Y-15584888D02*
X12948658Y-15603936D01*
X12948658Y-15603936D02*
X12939134Y-15613460D01*
X12939134Y-15613460D02*
X12920086Y-15622984D01*
X12920086Y-15622984D02*
X12901039Y-15622984D01*
X12901039Y-15622984D02*
X12881991Y-15613460D01*
X12881991Y-15613460D02*
X12872467Y-15603936D01*
X12872467Y-15603936D02*
X12862943Y-15584888D01*
X12862943Y-15584888D02*
X12853420Y-15546793D01*
X12853420Y-15546793D02*
X12853420Y-15499174D01*
X12853420Y-15499174D02*
X12862943Y-15461079D01*
X12862943Y-15461079D02*
X12872467Y-15442031D01*
X12872467Y-15442031D02*
X12881991Y-15432508D01*
X12881991Y-15432508D02*
X12901039Y-15422984D01*
X13053420Y-15622984D02*
X13053420Y-15489650D01*
X13053420Y-15508698D02*
X13062943Y-15499174D01*
X13062943Y-15499174D02*
X13081991Y-15489650D01*
X13081991Y-15489650D02*
X13110563Y-15489650D01*
X13110563Y-15489650D02*
X13129610Y-15499174D01*
X13129610Y-15499174D02*
X13139134Y-15518222D01*
X13139134Y-15518222D02*
X13139134Y-15622984D01*
X13139134Y-15518222D02*
X13148658Y-15499174D01*
X13148658Y-15499174D02*
X13167705Y-15489650D01*
X13167705Y-15489650D02*
X13196277Y-15489650D01*
X13196277Y-15489650D02*
X13215324Y-15499174D01*
X13215324Y-15499174D02*
X13224848Y-15518222D01*
X13224848Y-15518222D02*
X13224848Y-15622984D01*
X13320086Y-15622984D02*
X13320086Y-15489650D01*
X13320086Y-15508698D02*
X13329610Y-15499174D01*
X13329610Y-15499174D02*
X13348658Y-15489650D01*
X13348658Y-15489650D02*
X13377229Y-15489650D01*
X13377229Y-15489650D02*
X13396277Y-15499174D01*
X13396277Y-15499174D02*
X13405801Y-15518222D01*
X13405801Y-15518222D02*
X13405801Y-15622984D01*
X13405801Y-15518222D02*
X13415324Y-15499174D01*
X13415324Y-15499174D02*
X13434372Y-15489650D01*
X13434372Y-15489650D02*
X13462943Y-15489650D01*
X13462943Y-15489650D02*
X13481991Y-15499174D01*
X13481991Y-15499174D02*
X13491515Y-15518222D01*
X13491515Y-15518222D02*
X13491515Y-15622984D01*
X13881991Y-15413460D02*
X13710563Y-15670603D01*
X14139134Y-15422984D02*
X14158182Y-15422984D01*
X14158182Y-15422984D02*
X14177229Y-15432508D01*
X14177229Y-15432508D02*
X14186753Y-15442031D01*
X14186753Y-15442031D02*
X14196277Y-15461079D01*
X14196277Y-15461079D02*
X14205801Y-15499174D01*
X14205801Y-15499174D02*
X14205801Y-15546793D01*
X14205801Y-15546793D02*
X14196277Y-15584888D01*
X14196277Y-15584888D02*
X14186753Y-15603936D01*
X14186753Y-15603936D02*
X14177229Y-15613460D01*
X14177229Y-15613460D02*
X14158182Y-15622984D01*
X14158182Y-15622984D02*
X14139134Y-15622984D01*
X14139134Y-15622984D02*
X14120086Y-15613460D01*
X14120086Y-15613460D02*
X14110563Y-15603936D01*
X14110563Y-15603936D02*
X14101039Y-15584888D01*
X14101039Y-15584888D02*
X14091515Y-15546793D01*
X14091515Y-15546793D02*
X14091515Y-15499174D01*
X14091515Y-15499174D02*
X14101039Y-15461079D01*
X14101039Y-15461079D02*
X14110563Y-15442031D01*
X14110563Y-15442031D02*
X14120086Y-15432508D01*
X14120086Y-15432508D02*
X14139134Y-15422984D01*
X14291515Y-15603936D02*
X14301039Y-15613460D01*
X14301039Y-15613460D02*
X14291515Y-15622984D01*
X14291515Y-15622984D02*
X14281991Y-15613460D01*
X14281991Y-15613460D02*
X14291515Y-15603936D01*
X14291515Y-15603936D02*
X14291515Y-15622984D01*
X14424848Y-15422984D02*
X14443896Y-15422984D01*
X14443896Y-15422984D02*
X14462944Y-15432508D01*
X14462944Y-15432508D02*
X14472467Y-15442031D01*
X14472467Y-15442031D02*
X14481991Y-15461079D01*
X14481991Y-15461079D02*
X14491515Y-15499174D01*
X14491515Y-15499174D02*
X14491515Y-15546793D01*
X14491515Y-15546793D02*
X14481991Y-15584888D01*
X14481991Y-15584888D02*
X14472467Y-15603936D01*
X14472467Y-15603936D02*
X14462944Y-15613460D01*
X14462944Y-15613460D02*
X14443896Y-15622984D01*
X14443896Y-15622984D02*
X14424848Y-15622984D01*
X14424848Y-15622984D02*
X14405801Y-15613460D01*
X14405801Y-15613460D02*
X14396277Y-15603936D01*
X14396277Y-15603936D02*
X14386753Y-15584888D01*
X14386753Y-15584888D02*
X14377229Y-15546793D01*
X14377229Y-15546793D02*
X14377229Y-15499174D01*
X14377229Y-15499174D02*
X14386753Y-15461079D01*
X14386753Y-15461079D02*
X14396277Y-15442031D01*
X14396277Y-15442031D02*
X14405801Y-15432508D01*
X14405801Y-15432508D02*
X14424848Y-15422984D01*
X14662944Y-15489650D02*
X14662944Y-15622984D01*
X14615325Y-15413460D02*
X14567706Y-15556317D01*
X14567706Y-15556317D02*
X14691515Y-15556317D01*
X14805801Y-15422984D02*
X14824848Y-15422984D01*
X14824848Y-15422984D02*
X14843896Y-15432508D01*
X14843896Y-15432508D02*
X14853420Y-15442031D01*
X14853420Y-15442031D02*
X14862944Y-15461079D01*
X14862944Y-15461079D02*
X14872467Y-15499174D01*
X14872467Y-15499174D02*
X14872467Y-15546793D01*
X14872467Y-15546793D02*
X14862944Y-15584888D01*
X14862944Y-15584888D02*
X14853420Y-15603936D01*
X14853420Y-15603936D02*
X14843896Y-15613460D01*
X14843896Y-15613460D02*
X14824848Y-15622984D01*
X14824848Y-15622984D02*
X14805801Y-15622984D01*
X14805801Y-15622984D02*
X14786753Y-15613460D01*
X14786753Y-15613460D02*
X14777229Y-15603936D01*
X14777229Y-15603936D02*
X14767706Y-15584888D01*
X14767706Y-15584888D02*
X14758182Y-15546793D01*
X14758182Y-15546793D02*
X14758182Y-15499174D01*
X14758182Y-15499174D02*
X14767706Y-15461079D01*
X14767706Y-15461079D02*
X14777229Y-15442031D01*
X14777229Y-15442031D02*
X14786753Y-15432508D01*
X14786753Y-15432508D02*
X14805801Y-15422984D01*
X14948658Y-15442031D02*
X14958182Y-15432508D01*
X14958182Y-15432508D02*
X14977229Y-15422984D01*
X14977229Y-15422984D02*
X15024848Y-15422984D01*
X15024848Y-15422984D02*
X15043896Y-15432508D01*
X15043896Y-15432508D02*
X15053420Y-15442031D01*
X15053420Y-15442031D02*
X15062944Y-15461079D01*
X15062944Y-15461079D02*
X15062944Y-15480127D01*
X15062944Y-15480127D02*
X15053420Y-15508698D01*
X15053420Y-15508698D02*
X14939134Y-15622984D01*
X14939134Y-15622984D02*
X15062944Y-15622984D01*
X15139134Y-15422984D02*
X15139134Y-15461079D01*
X15215325Y-15422984D02*
X15215325Y-15461079D01*
X15510563Y-15699174D02*
X15501039Y-15689650D01*
X15501039Y-15689650D02*
X15481991Y-15661079D01*
X15481991Y-15661079D02*
X15472468Y-15642031D01*
X15472468Y-15642031D02*
X15462944Y-15613460D01*
X15462944Y-15613460D02*
X15453420Y-15565841D01*
X15453420Y-15565841D02*
X15453420Y-15527746D01*
X15453420Y-15527746D02*
X15462944Y-15480127D01*
X15462944Y-15480127D02*
X15472468Y-15451555D01*
X15472468Y-15451555D02*
X15481991Y-15432508D01*
X15481991Y-15432508D02*
X15501039Y-15403936D01*
X15501039Y-15403936D02*
X15510563Y-15394412D01*
X15672468Y-15489650D02*
X15672468Y-15622984D01*
X15624848Y-15413460D02*
X15577229Y-15556317D01*
X15577229Y-15556317D02*
X15701039Y-15556317D01*
X15758182Y-15422984D02*
X15881991Y-15422984D01*
X15881991Y-15422984D02*
X15815325Y-15499174D01*
X15815325Y-15499174D02*
X15843896Y-15499174D01*
X15843896Y-15499174D02*
X15862944Y-15508698D01*
X15862944Y-15508698D02*
X15872468Y-15518222D01*
X15872468Y-15518222D02*
X15881991Y-15537269D01*
X15881991Y-15537269D02*
X15881991Y-15584888D01*
X15881991Y-15584888D02*
X15872468Y-15603936D01*
X15872468Y-15603936D02*
X15862944Y-15613460D01*
X15862944Y-15613460D02*
X15843896Y-15622984D01*
X15843896Y-15622984D02*
X15786753Y-15622984D01*
X15786753Y-15622984D02*
X15767706Y-15613460D01*
X15767706Y-15613460D02*
X15758182Y-15603936D01*
X16120087Y-15622984D02*
X16120087Y-15422984D01*
X16205801Y-15622984D02*
X16205801Y-15518222D01*
X16205801Y-15518222D02*
X16196277Y-15499174D01*
X16196277Y-15499174D02*
X16177230Y-15489650D01*
X16177230Y-15489650D02*
X16148658Y-15489650D01*
X16148658Y-15489650D02*
X16129610Y-15499174D01*
X16129610Y-15499174D02*
X16120087Y-15508698D01*
X16329610Y-15622984D02*
X16310563Y-15613460D01*
X16310563Y-15613460D02*
X16301039Y-15603936D01*
X16301039Y-15603936D02*
X16291515Y-15584888D01*
X16291515Y-15584888D02*
X16291515Y-15527746D01*
X16291515Y-15527746D02*
X16301039Y-15508698D01*
X16301039Y-15508698D02*
X16310563Y-15499174D01*
X16310563Y-15499174D02*
X16329610Y-15489650D01*
X16329610Y-15489650D02*
X16358182Y-15489650D01*
X16358182Y-15489650D02*
X16377230Y-15499174D01*
X16377230Y-15499174D02*
X16386753Y-15508698D01*
X16386753Y-15508698D02*
X16396277Y-15527746D01*
X16396277Y-15527746D02*
X16396277Y-15584888D01*
X16396277Y-15584888D02*
X16386753Y-15603936D01*
X16386753Y-15603936D02*
X16377230Y-15613460D01*
X16377230Y-15613460D02*
X16358182Y-15622984D01*
X16358182Y-15622984D02*
X16329610Y-15622984D01*
X16510563Y-15622984D02*
X16491515Y-15613460D01*
X16491515Y-15613460D02*
X16481991Y-15594412D01*
X16481991Y-15594412D02*
X16481991Y-15422984D01*
X16662944Y-15613460D02*
X16643896Y-15622984D01*
X16643896Y-15622984D02*
X16605801Y-15622984D01*
X16605801Y-15622984D02*
X16586753Y-15613460D01*
X16586753Y-15613460D02*
X16577230Y-15594412D01*
X16577230Y-15594412D02*
X16577230Y-15518222D01*
X16577230Y-15518222D02*
X16586753Y-15499174D01*
X16586753Y-15499174D02*
X16605801Y-15489650D01*
X16605801Y-15489650D02*
X16643896Y-15489650D01*
X16643896Y-15489650D02*
X16662944Y-15499174D01*
X16662944Y-15499174D02*
X16672468Y-15518222D01*
X16672468Y-15518222D02*
X16672468Y-15537269D01*
X16672468Y-15537269D02*
X16577230Y-15556317D01*
X16748658Y-15613460D02*
X16767706Y-15622984D01*
X16767706Y-15622984D02*
X16805801Y-15622984D01*
X16805801Y-15622984D02*
X16824849Y-15613460D01*
X16824849Y-15613460D02*
X16834373Y-15594412D01*
X16834373Y-15594412D02*
X16834373Y-15584888D01*
X16834373Y-15584888D02*
X16824849Y-15565841D01*
X16824849Y-15565841D02*
X16805801Y-15556317D01*
X16805801Y-15556317D02*
X16777230Y-15556317D01*
X16777230Y-15556317D02*
X16758182Y-15546793D01*
X16758182Y-15546793D02*
X16748658Y-15527746D01*
X16748658Y-15527746D02*
X16748658Y-15518222D01*
X16748658Y-15518222D02*
X16758182Y-15499174D01*
X16758182Y-15499174D02*
X16777230Y-15489650D01*
X16777230Y-15489650D02*
X16805801Y-15489650D01*
X16805801Y-15489650D02*
X16824849Y-15499174D01*
X16901039Y-15699174D02*
X16910563Y-15689650D01*
X16910563Y-15689650D02*
X16929611Y-15661079D01*
X16929611Y-15661079D02*
X16939134Y-15642031D01*
X16939134Y-15642031D02*
X16948658Y-15613460D01*
X16948658Y-15613460D02*
X16958182Y-15565841D01*
X16958182Y-15565841D02*
X16958182Y-15527746D01*
X16958182Y-15527746D02*
X16948658Y-15480127D01*
X16948658Y-15480127D02*
X16939134Y-15451555D01*
X16939134Y-15451555D02*
X16929611Y-15432508D01*
X16929611Y-15432508D02*
X16910563Y-15403936D01*
X16910563Y-15403936D02*
X16901039Y-15394412D01*
D14*
X11880500Y-15850500D02*
X11935500Y-15795500D01*
X11880500Y-15740500D01*
X11825500Y-15795500D01*
X11880500Y-15850500D01*
D11*
X12301039Y-15886984D02*
X12186753Y-15886984D01*
X12243896Y-15886984D02*
X12243896Y-15686984D01*
X12243896Y-15686984D02*
X12224848Y-15715555D01*
X12224848Y-15715555D02*
X12205801Y-15734603D01*
X12205801Y-15734603D02*
X12186753Y-15744127D01*
X12386753Y-15867936D02*
X12396277Y-15877460D01*
X12396277Y-15877460D02*
X12386753Y-15886984D01*
X12386753Y-15886984D02*
X12377229Y-15877460D01*
X12377229Y-15877460D02*
X12386753Y-15867936D01*
X12386753Y-15867936D02*
X12386753Y-15886984D01*
X12586753Y-15886984D02*
X12472467Y-15886984D01*
X12529610Y-15886984D02*
X12529610Y-15686984D01*
X12529610Y-15686984D02*
X12510562Y-15715555D01*
X12510562Y-15715555D02*
X12491515Y-15734603D01*
X12491515Y-15734603D02*
X12472467Y-15744127D01*
X12710562Y-15686984D02*
X12729610Y-15686984D01*
X12729610Y-15686984D02*
X12748658Y-15696508D01*
X12748658Y-15696508D02*
X12758182Y-15706031D01*
X12758182Y-15706031D02*
X12767705Y-15725079D01*
X12767705Y-15725079D02*
X12777229Y-15763174D01*
X12777229Y-15763174D02*
X12777229Y-15810793D01*
X12777229Y-15810793D02*
X12767705Y-15848888D01*
X12767705Y-15848888D02*
X12758182Y-15867936D01*
X12758182Y-15867936D02*
X12748658Y-15877460D01*
X12748658Y-15877460D02*
X12729610Y-15886984D01*
X12729610Y-15886984D02*
X12710562Y-15886984D01*
X12710562Y-15886984D02*
X12691515Y-15877460D01*
X12691515Y-15877460D02*
X12681991Y-15867936D01*
X12681991Y-15867936D02*
X12672467Y-15848888D01*
X12672467Y-15848888D02*
X12662943Y-15810793D01*
X12662943Y-15810793D02*
X12662943Y-15763174D01*
X12662943Y-15763174D02*
X12672467Y-15725079D01*
X12672467Y-15725079D02*
X12681991Y-15706031D01*
X12681991Y-15706031D02*
X12691515Y-15696508D01*
X12691515Y-15696508D02*
X12710562Y-15686984D01*
X12901039Y-15686984D02*
X12920086Y-15686984D01*
X12920086Y-15686984D02*
X12939134Y-15696508D01*
X12939134Y-15696508D02*
X12948658Y-15706031D01*
X12948658Y-15706031D02*
X12958182Y-15725079D01*
X12958182Y-15725079D02*
X12967705Y-15763174D01*
X12967705Y-15763174D02*
X12967705Y-15810793D01*
X12967705Y-15810793D02*
X12958182Y-15848888D01*
X12958182Y-15848888D02*
X12948658Y-15867936D01*
X12948658Y-15867936D02*
X12939134Y-15877460D01*
X12939134Y-15877460D02*
X12920086Y-15886984D01*
X12920086Y-15886984D02*
X12901039Y-15886984D01*
X12901039Y-15886984D02*
X12881991Y-15877460D01*
X12881991Y-15877460D02*
X12872467Y-15867936D01*
X12872467Y-15867936D02*
X12862943Y-15848888D01*
X12862943Y-15848888D02*
X12853420Y-15810793D01*
X12853420Y-15810793D02*
X12853420Y-15763174D01*
X12853420Y-15763174D02*
X12862943Y-15725079D01*
X12862943Y-15725079D02*
X12872467Y-15706031D01*
X12872467Y-15706031D02*
X12881991Y-15696508D01*
X12881991Y-15696508D02*
X12901039Y-15686984D01*
X13053420Y-15886984D02*
X13053420Y-15753650D01*
X13053420Y-15772698D02*
X13062943Y-15763174D01*
X13062943Y-15763174D02*
X13081991Y-15753650D01*
X13081991Y-15753650D02*
X13110563Y-15753650D01*
X13110563Y-15753650D02*
X13129610Y-15763174D01*
X13129610Y-15763174D02*
X13139134Y-15782222D01*
X13139134Y-15782222D02*
X13139134Y-15886984D01*
X13139134Y-15782222D02*
X13148658Y-15763174D01*
X13148658Y-15763174D02*
X13167705Y-15753650D01*
X13167705Y-15753650D02*
X13196277Y-15753650D01*
X13196277Y-15753650D02*
X13215324Y-15763174D01*
X13215324Y-15763174D02*
X13224848Y-15782222D01*
X13224848Y-15782222D02*
X13224848Y-15886984D01*
X13320086Y-15886984D02*
X13320086Y-15753650D01*
X13320086Y-15772698D02*
X13329610Y-15763174D01*
X13329610Y-15763174D02*
X13348658Y-15753650D01*
X13348658Y-15753650D02*
X13377229Y-15753650D01*
X13377229Y-15753650D02*
X13396277Y-15763174D01*
X13396277Y-15763174D02*
X13405801Y-15782222D01*
X13405801Y-15782222D02*
X13405801Y-15886984D01*
X13405801Y-15782222D02*
X13415324Y-15763174D01*
X13415324Y-15763174D02*
X13434372Y-15753650D01*
X13434372Y-15753650D02*
X13462943Y-15753650D01*
X13462943Y-15753650D02*
X13481991Y-15763174D01*
X13481991Y-15763174D02*
X13491515Y-15782222D01*
X13491515Y-15782222D02*
X13491515Y-15886984D01*
X13881991Y-15677460D02*
X13710563Y-15934603D01*
X14139134Y-15686984D02*
X14158182Y-15686984D01*
X14158182Y-15686984D02*
X14177229Y-15696508D01*
X14177229Y-15696508D02*
X14186753Y-15706031D01*
X14186753Y-15706031D02*
X14196277Y-15725079D01*
X14196277Y-15725079D02*
X14205801Y-15763174D01*
X14205801Y-15763174D02*
X14205801Y-15810793D01*
X14205801Y-15810793D02*
X14196277Y-15848888D01*
X14196277Y-15848888D02*
X14186753Y-15867936D01*
X14186753Y-15867936D02*
X14177229Y-15877460D01*
X14177229Y-15877460D02*
X14158182Y-15886984D01*
X14158182Y-15886984D02*
X14139134Y-15886984D01*
X14139134Y-15886984D02*
X14120086Y-15877460D01*
X14120086Y-15877460D02*
X14110563Y-15867936D01*
X14110563Y-15867936D02*
X14101039Y-15848888D01*
X14101039Y-15848888D02*
X14091515Y-15810793D01*
X14091515Y-15810793D02*
X14091515Y-15763174D01*
X14091515Y-15763174D02*
X14101039Y-15725079D01*
X14101039Y-15725079D02*
X14110563Y-15706031D01*
X14110563Y-15706031D02*
X14120086Y-15696508D01*
X14120086Y-15696508D02*
X14139134Y-15686984D01*
X14291515Y-15867936D02*
X14301039Y-15877460D01*
X14301039Y-15877460D02*
X14291515Y-15886984D01*
X14291515Y-15886984D02*
X14281991Y-15877460D01*
X14281991Y-15877460D02*
X14291515Y-15867936D01*
X14291515Y-15867936D02*
X14291515Y-15886984D01*
X14424848Y-15686984D02*
X14443896Y-15686984D01*
X14443896Y-15686984D02*
X14462944Y-15696508D01*
X14462944Y-15696508D02*
X14472467Y-15706031D01*
X14472467Y-15706031D02*
X14481991Y-15725079D01*
X14481991Y-15725079D02*
X14491515Y-15763174D01*
X14491515Y-15763174D02*
X14491515Y-15810793D01*
X14491515Y-15810793D02*
X14481991Y-15848888D01*
X14481991Y-15848888D02*
X14472467Y-15867936D01*
X14472467Y-15867936D02*
X14462944Y-15877460D01*
X14462944Y-15877460D02*
X14443896Y-15886984D01*
X14443896Y-15886984D02*
X14424848Y-15886984D01*
X14424848Y-15886984D02*
X14405801Y-15877460D01*
X14405801Y-15877460D02*
X14396277Y-15867936D01*
X14396277Y-15867936D02*
X14386753Y-15848888D01*
X14386753Y-15848888D02*
X14377229Y-15810793D01*
X14377229Y-15810793D02*
X14377229Y-15763174D01*
X14377229Y-15763174D02*
X14386753Y-15725079D01*
X14386753Y-15725079D02*
X14396277Y-15706031D01*
X14396277Y-15706031D02*
X14405801Y-15696508D01*
X14405801Y-15696508D02*
X14424848Y-15686984D01*
X14662944Y-15753650D02*
X14662944Y-15886984D01*
X14615325Y-15677460D02*
X14567706Y-15820317D01*
X14567706Y-15820317D02*
X14691515Y-15820317D01*
X14748658Y-15686984D02*
X14872467Y-15686984D01*
X14872467Y-15686984D02*
X14805801Y-15763174D01*
X14805801Y-15763174D02*
X14834372Y-15763174D01*
X14834372Y-15763174D02*
X14853420Y-15772698D01*
X14853420Y-15772698D02*
X14862944Y-15782222D01*
X14862944Y-15782222D02*
X14872467Y-15801269D01*
X14872467Y-15801269D02*
X14872467Y-15848888D01*
X14872467Y-15848888D02*
X14862944Y-15867936D01*
X14862944Y-15867936D02*
X14853420Y-15877460D01*
X14853420Y-15877460D02*
X14834372Y-15886984D01*
X14834372Y-15886984D02*
X14777229Y-15886984D01*
X14777229Y-15886984D02*
X14758182Y-15877460D01*
X14758182Y-15877460D02*
X14748658Y-15867936D01*
X14939134Y-15686984D02*
X15062944Y-15686984D01*
X15062944Y-15686984D02*
X14996277Y-15763174D01*
X14996277Y-15763174D02*
X15024848Y-15763174D01*
X15024848Y-15763174D02*
X15043896Y-15772698D01*
X15043896Y-15772698D02*
X15053420Y-15782222D01*
X15053420Y-15782222D02*
X15062944Y-15801269D01*
X15062944Y-15801269D02*
X15062944Y-15848888D01*
X15062944Y-15848888D02*
X15053420Y-15867936D01*
X15053420Y-15867936D02*
X15043896Y-15877460D01*
X15043896Y-15877460D02*
X15024848Y-15886984D01*
X15024848Y-15886984D02*
X14967706Y-15886984D01*
X14967706Y-15886984D02*
X14948658Y-15877460D01*
X14948658Y-15877460D02*
X14939134Y-15867936D01*
X15139134Y-15686984D02*
X15139134Y-15725079D01*
X15215325Y-15686984D02*
X15215325Y-15725079D01*
X15510563Y-15963174D02*
X15501039Y-15953650D01*
X15501039Y-15953650D02*
X15481991Y-15925079D01*
X15481991Y-15925079D02*
X15472468Y-15906031D01*
X15472468Y-15906031D02*
X15462944Y-15877460D01*
X15462944Y-15877460D02*
X15453420Y-15829841D01*
X15453420Y-15829841D02*
X15453420Y-15791746D01*
X15453420Y-15791746D02*
X15462944Y-15744127D01*
X15462944Y-15744127D02*
X15472468Y-15715555D01*
X15472468Y-15715555D02*
X15481991Y-15696508D01*
X15481991Y-15696508D02*
X15501039Y-15667936D01*
X15501039Y-15667936D02*
X15510563Y-15658412D01*
X15577229Y-15706031D02*
X15586753Y-15696508D01*
X15586753Y-15696508D02*
X15605801Y-15686984D01*
X15605801Y-15686984D02*
X15653420Y-15686984D01*
X15653420Y-15686984D02*
X15672468Y-15696508D01*
X15672468Y-15696508D02*
X15681991Y-15706031D01*
X15681991Y-15706031D02*
X15691515Y-15725079D01*
X15691515Y-15725079D02*
X15691515Y-15744127D01*
X15691515Y-15744127D02*
X15681991Y-15772698D01*
X15681991Y-15772698D02*
X15567706Y-15886984D01*
X15567706Y-15886984D02*
X15691515Y-15886984D01*
X15815325Y-15686984D02*
X15834372Y-15686984D01*
X15834372Y-15686984D02*
X15853420Y-15696508D01*
X15853420Y-15696508D02*
X15862944Y-15706031D01*
X15862944Y-15706031D02*
X15872468Y-15725079D01*
X15872468Y-15725079D02*
X15881991Y-15763174D01*
X15881991Y-15763174D02*
X15881991Y-15810793D01*
X15881991Y-15810793D02*
X15872468Y-15848888D01*
X15872468Y-15848888D02*
X15862944Y-15867936D01*
X15862944Y-15867936D02*
X15853420Y-15877460D01*
X15853420Y-15877460D02*
X15834372Y-15886984D01*
X15834372Y-15886984D02*
X15815325Y-15886984D01*
X15815325Y-15886984D02*
X15796277Y-15877460D01*
X15796277Y-15877460D02*
X15786753Y-15867936D01*
X15786753Y-15867936D02*
X15777229Y-15848888D01*
X15777229Y-15848888D02*
X15767706Y-15810793D01*
X15767706Y-15810793D02*
X15767706Y-15763174D01*
X15767706Y-15763174D02*
X15777229Y-15725079D01*
X15777229Y-15725079D02*
X15786753Y-15706031D01*
X15786753Y-15706031D02*
X15796277Y-15696508D01*
X15796277Y-15696508D02*
X15815325Y-15686984D01*
X16120087Y-15886984D02*
X16120087Y-15686984D01*
X16205801Y-15886984D02*
X16205801Y-15782222D01*
X16205801Y-15782222D02*
X16196277Y-15763174D01*
X16196277Y-15763174D02*
X16177230Y-15753650D01*
X16177230Y-15753650D02*
X16148658Y-15753650D01*
X16148658Y-15753650D02*
X16129610Y-15763174D01*
X16129610Y-15763174D02*
X16120087Y-15772698D01*
X16329610Y-15886984D02*
X16310563Y-15877460D01*
X16310563Y-15877460D02*
X16301039Y-15867936D01*
X16301039Y-15867936D02*
X16291515Y-15848888D01*
X16291515Y-15848888D02*
X16291515Y-15791746D01*
X16291515Y-15791746D02*
X16301039Y-15772698D01*
X16301039Y-15772698D02*
X16310563Y-15763174D01*
X16310563Y-15763174D02*
X16329610Y-15753650D01*
X16329610Y-15753650D02*
X16358182Y-15753650D01*
X16358182Y-15753650D02*
X16377230Y-15763174D01*
X16377230Y-15763174D02*
X16386753Y-15772698D01*
X16386753Y-15772698D02*
X16396277Y-15791746D01*
X16396277Y-15791746D02*
X16396277Y-15848888D01*
X16396277Y-15848888D02*
X16386753Y-15867936D01*
X16386753Y-15867936D02*
X16377230Y-15877460D01*
X16377230Y-15877460D02*
X16358182Y-15886984D01*
X16358182Y-15886984D02*
X16329610Y-15886984D01*
X16510563Y-15886984D02*
X16491515Y-15877460D01*
X16491515Y-15877460D02*
X16481991Y-15858412D01*
X16481991Y-15858412D02*
X16481991Y-15686984D01*
X16662944Y-15877460D02*
X16643896Y-15886984D01*
X16643896Y-15886984D02*
X16605801Y-15886984D01*
X16605801Y-15886984D02*
X16586753Y-15877460D01*
X16586753Y-15877460D02*
X16577230Y-15858412D01*
X16577230Y-15858412D02*
X16577230Y-15782222D01*
X16577230Y-15782222D02*
X16586753Y-15763174D01*
X16586753Y-15763174D02*
X16605801Y-15753650D01*
X16605801Y-15753650D02*
X16643896Y-15753650D01*
X16643896Y-15753650D02*
X16662944Y-15763174D01*
X16662944Y-15763174D02*
X16672468Y-15782222D01*
X16672468Y-15782222D02*
X16672468Y-15801269D01*
X16672468Y-15801269D02*
X16577230Y-15820317D01*
X16748658Y-15877460D02*
X16767706Y-15886984D01*
X16767706Y-15886984D02*
X16805801Y-15886984D01*
X16805801Y-15886984D02*
X16824849Y-15877460D01*
X16824849Y-15877460D02*
X16834373Y-15858412D01*
X16834373Y-15858412D02*
X16834373Y-15848888D01*
X16834373Y-15848888D02*
X16824849Y-15829841D01*
X16824849Y-15829841D02*
X16805801Y-15820317D01*
X16805801Y-15820317D02*
X16777230Y-15820317D01*
X16777230Y-15820317D02*
X16758182Y-15810793D01*
X16758182Y-15810793D02*
X16748658Y-15791746D01*
X16748658Y-15791746D02*
X16748658Y-15782222D01*
X16748658Y-15782222D02*
X16758182Y-15763174D01*
X16758182Y-15763174D02*
X16777230Y-15753650D01*
X16777230Y-15753650D02*
X16805801Y-15753650D01*
X16805801Y-15753650D02*
X16824849Y-15763174D01*
X16901039Y-15963174D02*
X16910563Y-15953650D01*
X16910563Y-15953650D02*
X16929611Y-15925079D01*
X16929611Y-15925079D02*
X16939134Y-15906031D01*
X16939134Y-15906031D02*
X16948658Y-15877460D01*
X16948658Y-15877460D02*
X16958182Y-15829841D01*
X16958182Y-15829841D02*
X16958182Y-15791746D01*
X16958182Y-15791746D02*
X16948658Y-15744127D01*
X16948658Y-15744127D02*
X16939134Y-15715555D01*
X16939134Y-15715555D02*
X16929611Y-15696508D01*
X16929611Y-15696508D02*
X16910563Y-15667936D01*
X16910563Y-15667936D02*
X16901039Y-15658412D01*
D15*
X11815500Y-15999500D02*
X11935500Y-16119500D01*
X11935500Y-15999500D02*
X11815500Y-16119500D01*
X11935500Y-16059500D02*
G75*
G02*
X11815500Y-16059500I-60000J0D01*
G01*
X11815500Y-16059500D02*
G75*
G02*
X11935500Y-16059500I60000J0D01*
G01*
D11*
X12301039Y-16150984D02*
X12186753Y-16150984D01*
X12243896Y-16150984D02*
X12243896Y-15950984D01*
X12243896Y-15950984D02*
X12224848Y-15979555D01*
X12224848Y-15979555D02*
X12205801Y-15998603D01*
X12205801Y-15998603D02*
X12186753Y-16008127D01*
X12386753Y-16131936D02*
X12396277Y-16141460D01*
X12396277Y-16141460D02*
X12386753Y-16150984D01*
X12386753Y-16150984D02*
X12377229Y-16141460D01*
X12377229Y-16141460D02*
X12386753Y-16131936D01*
X12386753Y-16131936D02*
X12386753Y-16150984D01*
X12472467Y-15970031D02*
X12481991Y-15960508D01*
X12481991Y-15960508D02*
X12501039Y-15950984D01*
X12501039Y-15950984D02*
X12548658Y-15950984D01*
X12548658Y-15950984D02*
X12567705Y-15960508D01*
X12567705Y-15960508D02*
X12577229Y-15970031D01*
X12577229Y-15970031D02*
X12586753Y-15989079D01*
X12586753Y-15989079D02*
X12586753Y-16008127D01*
X12586753Y-16008127D02*
X12577229Y-16036698D01*
X12577229Y-16036698D02*
X12462943Y-16150984D01*
X12462943Y-16150984D02*
X12586753Y-16150984D01*
X12710562Y-15950984D02*
X12729610Y-15950984D01*
X12729610Y-15950984D02*
X12748658Y-15960508D01*
X12748658Y-15960508D02*
X12758182Y-15970031D01*
X12758182Y-15970031D02*
X12767705Y-15989079D01*
X12767705Y-15989079D02*
X12777229Y-16027174D01*
X12777229Y-16027174D02*
X12777229Y-16074793D01*
X12777229Y-16074793D02*
X12767705Y-16112888D01*
X12767705Y-16112888D02*
X12758182Y-16131936D01*
X12758182Y-16131936D02*
X12748658Y-16141460D01*
X12748658Y-16141460D02*
X12729610Y-16150984D01*
X12729610Y-16150984D02*
X12710562Y-16150984D01*
X12710562Y-16150984D02*
X12691515Y-16141460D01*
X12691515Y-16141460D02*
X12681991Y-16131936D01*
X12681991Y-16131936D02*
X12672467Y-16112888D01*
X12672467Y-16112888D02*
X12662943Y-16074793D01*
X12662943Y-16074793D02*
X12662943Y-16027174D01*
X12662943Y-16027174D02*
X12672467Y-15989079D01*
X12672467Y-15989079D02*
X12681991Y-15970031D01*
X12681991Y-15970031D02*
X12691515Y-15960508D01*
X12691515Y-15960508D02*
X12710562Y-15950984D01*
X12901039Y-15950984D02*
X12920086Y-15950984D01*
X12920086Y-15950984D02*
X12939134Y-15960508D01*
X12939134Y-15960508D02*
X12948658Y-15970031D01*
X12948658Y-15970031D02*
X12958182Y-15989079D01*
X12958182Y-15989079D02*
X12967705Y-16027174D01*
X12967705Y-16027174D02*
X12967705Y-16074793D01*
X12967705Y-16074793D02*
X12958182Y-16112888D01*
X12958182Y-16112888D02*
X12948658Y-16131936D01*
X12948658Y-16131936D02*
X12939134Y-16141460D01*
X12939134Y-16141460D02*
X12920086Y-16150984D01*
X12920086Y-16150984D02*
X12901039Y-16150984D01*
X12901039Y-16150984D02*
X12881991Y-16141460D01*
X12881991Y-16141460D02*
X12872467Y-16131936D01*
X12872467Y-16131936D02*
X12862943Y-16112888D01*
X12862943Y-16112888D02*
X12853420Y-16074793D01*
X12853420Y-16074793D02*
X12853420Y-16027174D01*
X12853420Y-16027174D02*
X12862943Y-15989079D01*
X12862943Y-15989079D02*
X12872467Y-15970031D01*
X12872467Y-15970031D02*
X12881991Y-15960508D01*
X12881991Y-15960508D02*
X12901039Y-15950984D01*
X13053420Y-16150984D02*
X13053420Y-16017650D01*
X13053420Y-16036698D02*
X13062943Y-16027174D01*
X13062943Y-16027174D02*
X13081991Y-16017650D01*
X13081991Y-16017650D02*
X13110563Y-16017650D01*
X13110563Y-16017650D02*
X13129610Y-16027174D01*
X13129610Y-16027174D02*
X13139134Y-16046222D01*
X13139134Y-16046222D02*
X13139134Y-16150984D01*
X13139134Y-16046222D02*
X13148658Y-16027174D01*
X13148658Y-16027174D02*
X13167705Y-16017650D01*
X13167705Y-16017650D02*
X13196277Y-16017650D01*
X13196277Y-16017650D02*
X13215324Y-16027174D01*
X13215324Y-16027174D02*
X13224848Y-16046222D01*
X13224848Y-16046222D02*
X13224848Y-16150984D01*
X13320086Y-16150984D02*
X13320086Y-16017650D01*
X13320086Y-16036698D02*
X13329610Y-16027174D01*
X13329610Y-16027174D02*
X13348658Y-16017650D01*
X13348658Y-16017650D02*
X13377229Y-16017650D01*
X13377229Y-16017650D02*
X13396277Y-16027174D01*
X13396277Y-16027174D02*
X13405801Y-16046222D01*
X13405801Y-16046222D02*
X13405801Y-16150984D01*
X13405801Y-16046222D02*
X13415324Y-16027174D01*
X13415324Y-16027174D02*
X13434372Y-16017650D01*
X13434372Y-16017650D02*
X13462943Y-16017650D01*
X13462943Y-16017650D02*
X13481991Y-16027174D01*
X13481991Y-16027174D02*
X13491515Y-16046222D01*
X13491515Y-16046222D02*
X13491515Y-16150984D01*
X13881991Y-15941460D02*
X13710563Y-16198603D01*
X14139134Y-15950984D02*
X14158182Y-15950984D01*
X14158182Y-15950984D02*
X14177229Y-15960508D01*
X14177229Y-15960508D02*
X14186753Y-15970031D01*
X14186753Y-15970031D02*
X14196277Y-15989079D01*
X14196277Y-15989079D02*
X14205801Y-16027174D01*
X14205801Y-16027174D02*
X14205801Y-16074793D01*
X14205801Y-16074793D02*
X14196277Y-16112888D01*
X14196277Y-16112888D02*
X14186753Y-16131936D01*
X14186753Y-16131936D02*
X14177229Y-16141460D01*
X14177229Y-16141460D02*
X14158182Y-16150984D01*
X14158182Y-16150984D02*
X14139134Y-16150984D01*
X14139134Y-16150984D02*
X14120086Y-16141460D01*
X14120086Y-16141460D02*
X14110563Y-16131936D01*
X14110563Y-16131936D02*
X14101039Y-16112888D01*
X14101039Y-16112888D02*
X14091515Y-16074793D01*
X14091515Y-16074793D02*
X14091515Y-16027174D01*
X14091515Y-16027174D02*
X14101039Y-15989079D01*
X14101039Y-15989079D02*
X14110563Y-15970031D01*
X14110563Y-15970031D02*
X14120086Y-15960508D01*
X14120086Y-15960508D02*
X14139134Y-15950984D01*
X14291515Y-16131936D02*
X14301039Y-16141460D01*
X14301039Y-16141460D02*
X14291515Y-16150984D01*
X14291515Y-16150984D02*
X14281991Y-16141460D01*
X14281991Y-16141460D02*
X14291515Y-16131936D01*
X14291515Y-16131936D02*
X14291515Y-16150984D01*
X14424848Y-15950984D02*
X14443896Y-15950984D01*
X14443896Y-15950984D02*
X14462944Y-15960508D01*
X14462944Y-15960508D02*
X14472467Y-15970031D01*
X14472467Y-15970031D02*
X14481991Y-15989079D01*
X14481991Y-15989079D02*
X14491515Y-16027174D01*
X14491515Y-16027174D02*
X14491515Y-16074793D01*
X14491515Y-16074793D02*
X14481991Y-16112888D01*
X14481991Y-16112888D02*
X14472467Y-16131936D01*
X14472467Y-16131936D02*
X14462944Y-16141460D01*
X14462944Y-16141460D02*
X14443896Y-16150984D01*
X14443896Y-16150984D02*
X14424848Y-16150984D01*
X14424848Y-16150984D02*
X14405801Y-16141460D01*
X14405801Y-16141460D02*
X14396277Y-16131936D01*
X14396277Y-16131936D02*
X14386753Y-16112888D01*
X14386753Y-16112888D02*
X14377229Y-16074793D01*
X14377229Y-16074793D02*
X14377229Y-16027174D01*
X14377229Y-16027174D02*
X14386753Y-15989079D01*
X14386753Y-15989079D02*
X14396277Y-15970031D01*
X14396277Y-15970031D02*
X14405801Y-15960508D01*
X14405801Y-15960508D02*
X14424848Y-15950984D01*
X14662944Y-16017650D02*
X14662944Y-16150984D01*
X14615325Y-15941460D02*
X14567706Y-16084317D01*
X14567706Y-16084317D02*
X14691515Y-16084317D01*
X14748658Y-15950984D02*
X14881991Y-15950984D01*
X14881991Y-15950984D02*
X14796277Y-16150984D01*
X14948658Y-15970031D02*
X14958182Y-15960508D01*
X14958182Y-15960508D02*
X14977229Y-15950984D01*
X14977229Y-15950984D02*
X15024848Y-15950984D01*
X15024848Y-15950984D02*
X15043896Y-15960508D01*
X15043896Y-15960508D02*
X15053420Y-15970031D01*
X15053420Y-15970031D02*
X15062944Y-15989079D01*
X15062944Y-15989079D02*
X15062944Y-16008127D01*
X15062944Y-16008127D02*
X15053420Y-16036698D01*
X15053420Y-16036698D02*
X14939134Y-16150984D01*
X14939134Y-16150984D02*
X15062944Y-16150984D01*
X15139134Y-15950984D02*
X15139134Y-15989079D01*
X15215325Y-15950984D02*
X15215325Y-15989079D01*
X15510563Y-16227174D02*
X15501039Y-16217650D01*
X15501039Y-16217650D02*
X15481991Y-16189079D01*
X15481991Y-16189079D02*
X15472468Y-16170031D01*
X15472468Y-16170031D02*
X15462944Y-16141460D01*
X15462944Y-16141460D02*
X15453420Y-16093841D01*
X15453420Y-16093841D02*
X15453420Y-16055746D01*
X15453420Y-16055746D02*
X15462944Y-16008127D01*
X15462944Y-16008127D02*
X15472468Y-15979555D01*
X15472468Y-15979555D02*
X15481991Y-15960508D01*
X15481991Y-15960508D02*
X15501039Y-15931936D01*
X15501039Y-15931936D02*
X15510563Y-15922412D01*
X15567706Y-15950984D02*
X15691515Y-15950984D01*
X15691515Y-15950984D02*
X15624848Y-16027174D01*
X15624848Y-16027174D02*
X15653420Y-16027174D01*
X15653420Y-16027174D02*
X15672468Y-16036698D01*
X15672468Y-16036698D02*
X15681991Y-16046222D01*
X15681991Y-16046222D02*
X15691515Y-16065269D01*
X15691515Y-16065269D02*
X15691515Y-16112888D01*
X15691515Y-16112888D02*
X15681991Y-16131936D01*
X15681991Y-16131936D02*
X15672468Y-16141460D01*
X15672468Y-16141460D02*
X15653420Y-16150984D01*
X15653420Y-16150984D02*
X15596277Y-16150984D01*
X15596277Y-16150984D02*
X15577229Y-16141460D01*
X15577229Y-16141460D02*
X15567706Y-16131936D01*
X15929610Y-16150984D02*
X15929610Y-15950984D01*
X16015325Y-16150984D02*
X16015325Y-16046222D01*
X16015325Y-16046222D02*
X16005801Y-16027174D01*
X16005801Y-16027174D02*
X15986753Y-16017650D01*
X15986753Y-16017650D02*
X15958182Y-16017650D01*
X15958182Y-16017650D02*
X15939134Y-16027174D01*
X15939134Y-16027174D02*
X15929610Y-16036698D01*
X16139134Y-16150984D02*
X16120087Y-16141460D01*
X16120087Y-16141460D02*
X16110563Y-16131936D01*
X16110563Y-16131936D02*
X16101039Y-16112888D01*
X16101039Y-16112888D02*
X16101039Y-16055746D01*
X16101039Y-16055746D02*
X16110563Y-16036698D01*
X16110563Y-16036698D02*
X16120087Y-16027174D01*
X16120087Y-16027174D02*
X16139134Y-16017650D01*
X16139134Y-16017650D02*
X16167706Y-16017650D01*
X16167706Y-16017650D02*
X16186753Y-16027174D01*
X16186753Y-16027174D02*
X16196277Y-16036698D01*
X16196277Y-16036698D02*
X16205801Y-16055746D01*
X16205801Y-16055746D02*
X16205801Y-16112888D01*
X16205801Y-16112888D02*
X16196277Y-16131936D01*
X16196277Y-16131936D02*
X16186753Y-16141460D01*
X16186753Y-16141460D02*
X16167706Y-16150984D01*
X16167706Y-16150984D02*
X16139134Y-16150984D01*
X16320087Y-16150984D02*
X16301039Y-16141460D01*
X16301039Y-16141460D02*
X16291515Y-16122412D01*
X16291515Y-16122412D02*
X16291515Y-15950984D01*
X16472468Y-16141460D02*
X16453420Y-16150984D01*
X16453420Y-16150984D02*
X16415325Y-16150984D01*
X16415325Y-16150984D02*
X16396277Y-16141460D01*
X16396277Y-16141460D02*
X16386753Y-16122412D01*
X16386753Y-16122412D02*
X16386753Y-16046222D01*
X16386753Y-16046222D02*
X16396277Y-16027174D01*
X16396277Y-16027174D02*
X16415325Y-16017650D01*
X16415325Y-16017650D02*
X16453420Y-16017650D01*
X16453420Y-16017650D02*
X16472468Y-16027174D01*
X16472468Y-16027174D02*
X16481991Y-16046222D01*
X16481991Y-16046222D02*
X16481991Y-16065269D01*
X16481991Y-16065269D02*
X16386753Y-16084317D01*
X16558182Y-16141460D02*
X16577230Y-16150984D01*
X16577230Y-16150984D02*
X16615325Y-16150984D01*
X16615325Y-16150984D02*
X16634372Y-16141460D01*
X16634372Y-16141460D02*
X16643896Y-16122412D01*
X16643896Y-16122412D02*
X16643896Y-16112888D01*
X16643896Y-16112888D02*
X16634372Y-16093841D01*
X16634372Y-16093841D02*
X16615325Y-16084317D01*
X16615325Y-16084317D02*
X16586753Y-16084317D01*
X16586753Y-16084317D02*
X16567706Y-16074793D01*
X16567706Y-16074793D02*
X16558182Y-16055746D01*
X16558182Y-16055746D02*
X16558182Y-16046222D01*
X16558182Y-16046222D02*
X16567706Y-16027174D01*
X16567706Y-16027174D02*
X16586753Y-16017650D01*
X16586753Y-16017650D02*
X16615325Y-16017650D01*
X16615325Y-16017650D02*
X16634372Y-16027174D01*
X16710563Y-16227174D02*
X16720087Y-16217650D01*
X16720087Y-16217650D02*
X16739134Y-16189079D01*
X16739134Y-16189079D02*
X16748658Y-16170031D01*
X16748658Y-16170031D02*
X16758182Y-16141460D01*
X16758182Y-16141460D02*
X16767706Y-16093841D01*
X16767706Y-16093841D02*
X16767706Y-16055746D01*
X16767706Y-16055746D02*
X16758182Y-16008127D01*
X16758182Y-16008127D02*
X16748658Y-15979555D01*
X16748658Y-15979555D02*
X16739134Y-15960508D01*
X16739134Y-15960508D02*
X16720087Y-15931936D01*
X16720087Y-15931936D02*
X16710563Y-15922412D01*
M02*
