%TF.GenerationSoftware,KiCad,Pcbnew,8.0.5*%
%TF.CreationDate,2024-10-19T23:10:57+02:00*%
%TF.ProjectId,Tortu,546f7274-752e-46b6-9963-61645f706362,rev?*%
%TF.SameCoordinates,Original*%
%TF.FileFunction,Copper,L2,Bot*%
%TF.FilePolarity,Positive*%
%FSLAX46Y46*%
G04 Gerber Fmt 4.6, Leading zero omitted, Abs format (unit mm)*
G04 Created by KiCad (PCBNEW 8.0.5) date 2024-10-19 23:10:57*
%MOMM*%
%LPD*%
G01*
G04 APERTURE LIST*
%TA.AperFunction,ComponentPad*%
%ADD10R,1.700000X1.700000*%
%TD*%
%TA.AperFunction,ComponentPad*%
%ADD11O,1.700000X1.700000*%
%TD*%
%TA.AperFunction,ComponentPad*%
%ADD12R,1.524000X1.524000*%
%TD*%
%TA.AperFunction,ComponentPad*%
%ADD13C,1.524000*%
%TD*%
%TA.AperFunction,ComponentPad*%
%ADD14C,1.600000*%
%TD*%
%TA.AperFunction,ComponentPad*%
%ADD15R,3.000000X3.000000*%
%TD*%
%TA.AperFunction,ComponentPad*%
%ADD16C,3.000000*%
%TD*%
%TA.AperFunction,ComponentPad*%
%ADD17C,2.000000*%
%TD*%
%TA.AperFunction,ComponentPad*%
%ADD18C,1.400000*%
%TD*%
%TA.AperFunction,ComponentPad*%
%ADD19O,1.400000X1.400000*%
%TD*%
%TA.AperFunction,ComponentPad*%
%ADD20O,3.000000X1.750000*%
%TD*%
%TA.AperFunction,ComponentPad*%
%ADD21O,4.000000X2.500000*%
%TD*%
%TA.AperFunction,ViaPad*%
%ADD22C,0.600000*%
%TD*%
%TA.AperFunction,Conductor*%
%ADD23C,0.635000*%
%TD*%
G04 APERTURE END LIST*
D10*
%TO.P,LS1,1,1*%
%TO.N,Net-(LS1-Pad1)*%
X122936000Y-129037000D03*
D11*
%TO.P,LS1,2,2*%
%TO.N,Net-(AudioJack1-Pin_5)*%
X122936000Y-126497000D03*
%TD*%
D10*
%TO.P,AudioJack1,1,Pin_1*%
%TO.N,Net-(AudioJack1-Pin_1)*%
X127000000Y-132334000D03*
D11*
%TO.P,AudioJack1,2,Pin_2*%
%TO.N,unconnected-(AudioJack1-Pin_2-Pad2)*%
X127000000Y-129794000D03*
%TO.P,AudioJack1,3,Pin_3*%
%TO.N,Net-(AudioAmp1-OUTN)*%
X127000000Y-127254000D03*
%TO.P,AudioJack1,4,Pin_4*%
%TO.N,unconnected-(AudioJack1-Pin_4-Pad4)*%
X127000000Y-124714000D03*
%TO.P,AudioJack1,5,Pin_5*%
%TO.N,Net-(AudioJack1-Pin_5)*%
X127000000Y-122174000D03*
%TD*%
D12*
%TO.P,Display1,1,GND*%
%TO.N,GND*%
X175516800Y-98574500D03*
D13*
%TO.P,Display1,2,VCC*%
%TO.N,+3.3V*%
X172976800Y-98574500D03*
%TO.P,Display1,3,SCL*%
%TO.N,GPIO18*%
X170436800Y-98574500D03*
%TO.P,Display1,4,SDA*%
%TO.N,GPIO19*%
X167896800Y-98574500D03*
%TO.P,Display1,5,RES*%
%TO.N,GPIO21*%
X165356800Y-98574500D03*
%TO.P,Display1,6,DC*%
%TO.N,GPIO20*%
X162816800Y-98574500D03*
%TO.P,Display1,7,CS*%
%TO.N,GPIO17*%
X160276800Y-98574500D03*
%TO.P,Display1,8,BLK*%
%TO.N,unconnected-(Display1-BLK-Pad8)*%
X157736800Y-98574500D03*
%TD*%
D14*
%TO.P,C_SD1,1*%
%TO.N,+3.3V*%
X172212000Y-111105000D03*
%TO.P,C_SD1,2*%
%TO.N,GND*%
X172212000Y-108605000D03*
%TD*%
%TO.P,C_Pico2,1*%
%TO.N,Vin*%
X209022000Y-95123000D03*
%TO.P,C_Pico2,2*%
%TO.N,GND*%
X206522000Y-95123000D03*
%TD*%
%TO.P,C_Pico1,1*%
%TO.N,Vin*%
X209022000Y-91948000D03*
%TO.P,C_Pico1,2*%
%TO.N,GND*%
X206522000Y-91948000D03*
%TD*%
%TO.P,C_Display1,1*%
%TO.N,+3.3V*%
X172943200Y-95910400D03*
%TO.P,C_Display1,2*%
%TO.N,GND*%
X175443200Y-95910400D03*
%TD*%
%TO.P,C_Audio2,1*%
%TO.N,Vin*%
X131572000Y-82697000D03*
%TO.P,C_Audio2,2*%
%TO.N,GND*%
X131572000Y-85197000D03*
%TD*%
%TO.P,C_Audio1,1*%
%TO.N,Vin*%
X127762000Y-82697000D03*
%TO.P,C_Audio1,2*%
%TO.N,GND*%
X127762000Y-85197000D03*
%TD*%
D15*
%TO.P,RV1,1,1*%
%TO.N,unconnected-(RV1-Pad1)*%
X123398000Y-103966000D03*
D16*
%TO.P,RV1,2,2*%
%TO.N,Net-(LS1-Pad1)*%
X123398000Y-108966000D03*
%TO.P,RV1,3,3*%
%TO.N,Net-(AudioAmp1-OUTP)*%
X123398000Y-113966000D03*
%TD*%
D13*
%TO.P,SDCard1,1,GND*%
%TO.N,GND*%
X174879000Y-108585000D03*
%TO.P,SDCard1,2,VCC*%
%TO.N,+3.3V*%
X174879000Y-111125000D03*
%TO.P,SDCard1,3,MISO*%
%TO.N,GPIO12*%
X174879000Y-113665000D03*
%TO.P,SDCard1,4,MOSI*%
%TO.N,GPIO11*%
X174879000Y-116205000D03*
%TO.P,SDCard1,5,SCK*%
%TO.N,GPIO10*%
X174879000Y-118745000D03*
%TO.P,SDCard1,6,CS*%
%TO.N,GPIO13*%
X174879000Y-121285000D03*
%TD*%
D17*
%TO.P,BtnStory1,1,1*%
%TO.N,GPIO27*%
X177269000Y-130755000D03*
X183769000Y-130755000D03*
%TO.P,BtnStory1,2,2*%
%TO.N,GND*%
X177269000Y-135255000D03*
X183769000Y-135255000D03*
%TD*%
D18*
%TO.P,R1,1*%
%TO.N,Net-(LS1-Pad1)*%
X131699000Y-111887000D03*
D19*
%TO.P,R1,2*%
%TO.N,Net-(AudioJack1-Pin_1)*%
X131699000Y-116967000D03*
%TD*%
D13*
%TO.P,LX-LCBST1,4,V0-*%
%TO.N,GND*%
X139319000Y-75836000D03*
%TO.P,LX-LCBST1,3,V0+*%
%TO.N,Vin*%
X147828000Y-75836000D03*
%TO.P,LX-LCBST1,2,B-*%
%TO.N,unconnected-(LX-LCBST1-B--Pad2)*%
X126746000Y-75836000D03*
%TO.P,LX-LCBST1,1,B+*%
%TO.N,unconnected-(LX-LCBST1-B+-Pad1)*%
X135255000Y-75836000D03*
%TD*%
D11*
%TO.P,MCU1,1,GPIO0*%
%TO.N,GPIO0*%
X211455000Y-69596000D03*
%TO.P,MCU1,2,GPIO1*%
%TO.N,GPIO1*%
X208915000Y-69596000D03*
D10*
%TO.P,MCU1,3,GND*%
%TO.N,GND*%
X206375000Y-69596000D03*
D11*
%TO.P,MCU1,4,GPIO2*%
%TO.N,GPIO2*%
X203835000Y-69596000D03*
%TO.P,MCU1,5,GPIO3*%
%TO.N,unconnected-(MCU1-GPIO3-Pad5)_1*%
X201295000Y-69596000D03*
%TO.P,MCU1,6,GPIO4*%
%TO.N,unconnected-(MCU1-GPIO4-Pad6)_1*%
X198755000Y-69596000D03*
%TO.P,MCU1,7,GPIO5*%
%TO.N,unconnected-(MCU1-GPIO5-Pad7)_1*%
X196215000Y-69596000D03*
D10*
%TO.P,MCU1,8,GND*%
%TO.N,GND*%
X193675000Y-69596000D03*
D11*
%TO.P,MCU1,9,GPIO6*%
%TO.N,unconnected-(MCU1-GPIO6-Pad9)*%
X191135000Y-69596000D03*
%TO.P,MCU1,10,GPIO7*%
%TO.N,unconnected-(MCU1-GPIO7-Pad10)_1*%
X188595000Y-69596000D03*
%TO.P,MCU1,11,GPIO8*%
%TO.N,unconnected-(MCU1-GPIO8-Pad11)_1*%
X186055000Y-69596000D03*
%TO.P,MCU1,12,GPIO9*%
%TO.N,unconnected-(MCU1-GPIO9-Pad12)_1*%
X183515000Y-69596000D03*
D10*
%TO.P,MCU1,13,GND*%
%TO.N,GND*%
X180975000Y-69596000D03*
D11*
%TO.P,MCU1,14,GPIO10*%
%TO.N,GPIO10*%
X178435000Y-69596000D03*
%TO.P,MCU1,15,GPIO11*%
%TO.N,GPIO11*%
X175895000Y-69596000D03*
%TO.P,MCU1,16,GPIO12*%
%TO.N,GPIO12*%
X173355000Y-69596000D03*
%TO.P,MCU1,17,GPIO13*%
%TO.N,GPIO13*%
X170815000Y-69596000D03*
D10*
%TO.P,MCU1,18,GND*%
%TO.N,GND*%
X168275000Y-69596000D03*
D11*
%TO.P,MCU1,19,GPIO14*%
%TO.N,unconnected-(MCU1-GPIO14-Pad19)*%
X165735000Y-69596000D03*
%TO.P,MCU1,20,GPIO15*%
%TO.N,unconnected-(MCU1-GPIO15-Pad20)_1*%
X163195000Y-69596000D03*
%TO.P,MCU1,21,GPIO16*%
%TO.N,GPIO16*%
X163195000Y-87376000D03*
%TO.P,MCU1,22,GPIO17*%
%TO.N,GPIO17*%
X165735000Y-87376000D03*
D10*
%TO.P,MCU1,23,GND*%
%TO.N,GND*%
X168275000Y-87376000D03*
D11*
%TO.P,MCU1,24,GPIO18*%
%TO.N,GPIO18*%
X170815000Y-87376000D03*
%TO.P,MCU1,25,GPIO19*%
%TO.N,GPIO19*%
X173355000Y-87376000D03*
%TO.P,MCU1,26,GPIO20*%
%TO.N,GPIO20*%
X175895000Y-87376000D03*
%TO.P,MCU1,27,GPIO21*%
%TO.N,GPIO21*%
X178435000Y-87376000D03*
D10*
%TO.P,MCU1,28,GND*%
%TO.N,GND*%
X180975000Y-87376000D03*
D11*
%TO.P,MCU1,29,GPIO22*%
%TO.N,GPIO22*%
X183515000Y-87376000D03*
%TO.P,MCU1,30,RUN*%
%TO.N,unconnected-(MCU1-RUN-Pad30)*%
X186055000Y-87376000D03*
%TO.P,MCU1,31,GPIO26_ADC0*%
%TO.N,GPIO26*%
X188595000Y-87376000D03*
%TO.P,MCU1,32,GPIO27_ADC1*%
%TO.N,GPIO27*%
X191135000Y-87376000D03*
D10*
%TO.P,MCU1,33,AGND*%
%TO.N,GND*%
X193675000Y-87376000D03*
D11*
%TO.P,MCU1,34,GPIO28_ADC2*%
%TO.N,GPIO28*%
X196215000Y-87376000D03*
%TO.P,MCU1,35,ADC_VREF*%
%TO.N,unconnected-(MCU1-ADC_VREF-Pad35)_1*%
X198755000Y-87376000D03*
%TO.P,MCU1,36,3V3*%
%TO.N,+3.3V*%
X201295000Y-87376000D03*
%TO.P,MCU1,37,3V3_EN*%
%TO.N,unconnected-(MCU1-3V3_EN-Pad37)*%
X203835000Y-87376000D03*
D10*
%TO.P,MCU1,38,GND*%
%TO.N,GND*%
X206375000Y-87376000D03*
D11*
%TO.P,MCU1,39,VSYS*%
%TO.N,Vin*%
X208915000Y-87376000D03*
%TO.P,MCU1,40,VBUS*%
%TO.N,unconnected-(MCU1-VBUS-Pad40)_1*%
X211455000Y-87376000D03*
%TO.P,MCU1,41,SWCLK*%
%TO.N,unconnected-(MCU1-SWCLK-Pad41)_1*%
X163425000Y-75946000D03*
D10*
%TO.P,MCU1,42,GND*%
%TO.N,GND*%
X163425000Y-78486000D03*
D11*
%TO.P,MCU1,43,SWDIO*%
%TO.N,unconnected-(MCU1-SWDIO-Pad43)_1*%
X163425000Y-81026000D03*
%TD*%
D17*
%TO.P,BtnRight1,1,1*%
%TO.N,GPIO28*%
X193219000Y-130791000D03*
X199719000Y-130791000D03*
%TO.P,BtnRight1,2,2*%
%TO.N,GND*%
X193219000Y-135291000D03*
X199719000Y-135291000D03*
%TD*%
%TO.P,BtnPlay1,1,1*%
%TO.N,GPIO22*%
X147095000Y-130755000D03*
X153595000Y-130755000D03*
%TO.P,BtnPlay1,2,2*%
%TO.N,GND*%
X147095000Y-135255000D03*
X153595000Y-135255000D03*
%TD*%
D20*
%TO.P,AudioAmp1,1,Vin*%
%TO.N,Vin*%
X135439000Y-82670000D03*
%TO.P,AudioAmp1,2,GND*%
%TO.N,GND*%
X135439000Y-85210000D03*
%TO.P,AudioAmp1,3,~{SD_MODE}*%
%TO.N,unconnected-(AudioAmp1-~{SD_MODE}-Pad3)*%
X135439000Y-87750000D03*
%TO.P,AudioAmp1,4,GAIN*%
%TO.N,unconnected-(AudioAmp1-GAIN-Pad4)*%
X135439000Y-90290000D03*
%TO.P,AudioAmp1,5,DIN*%
%TO.N,GPIO2*%
X135439000Y-92830000D03*
%TO.P,AudioAmp1,6,BCLK*%
%TO.N,GPIO0*%
X135439000Y-95370000D03*
%TO.P,AudioAmp1,7,LRC*%
%TO.N,GPIO1*%
X135439000Y-97910000D03*
D21*
%TO.P,AudioAmp1,8,OUTP*%
%TO.N,Net-(AudioAmp1-OUTP)*%
X122985000Y-92090000D03*
%TO.P,AudioAmp1,9,OUTN*%
%TO.N,Net-(AudioAmp1-OUTN)*%
X122985000Y-88590000D03*
%TD*%
D17*
%TO.P,BtnLeft1,1,1*%
%TO.N,GPIO16*%
X132871000Y-130719000D03*
X139371000Y-130719000D03*
%TO.P,BtnLeft1,2,2*%
%TO.N,GND*%
X132871000Y-135219000D03*
X139371000Y-135219000D03*
%TD*%
%TO.P,BtnMusic1,1,1*%
%TO.N,GPIO26*%
X161977000Y-130791000D03*
X168477000Y-130791000D03*
%TO.P,BtnMusic1,2,2*%
%TO.N,GND*%
X161977000Y-135291000D03*
X168477000Y-135291000D03*
%TD*%
D22*
%TO.N,GPIO13*%
X148590000Y-69721909D03*
%TD*%
D23*
%TO.N,GPIO20*%
X162816800Y-98574500D02*
X160528000Y-96285700D01*
X160528000Y-96285700D02*
X160528000Y-84582000D01*
X161090000Y-84020000D02*
X172539000Y-84020000D01*
X160528000Y-84582000D02*
X161090000Y-84020000D01*
X172539000Y-84020000D02*
X175895000Y-87376000D01*
%TO.N,GPIO12*%
X174879000Y-113665000D02*
X159752604Y-113665000D01*
X159752604Y-113665000D02*
X146050000Y-99962396D01*
X146050000Y-99962396D02*
X146050000Y-75804513D01*
X157719513Y-64135000D02*
X172085000Y-64135000D01*
X146050000Y-75804513D02*
X157719513Y-64135000D01*
X172085000Y-64135000D02*
X173355000Y-65405000D01*
X173355000Y-65405000D02*
X173355000Y-69596000D01*
%TO.N,GPIO11*%
X161111736Y-116205000D02*
X145215000Y-100308264D01*
X145215000Y-100308264D02*
X145215000Y-75458645D01*
X174879000Y-116205000D02*
X161111736Y-116205000D01*
X172520000Y-63300000D02*
X175895000Y-66675000D01*
X145215000Y-75458645D02*
X157373645Y-63300000D01*
X157373645Y-63300000D02*
X172520000Y-63300000D01*
X175895000Y-66675000D02*
X175895000Y-69596000D01*
%TO.N,GPIO10*%
X144380000Y-100654132D02*
X144380000Y-75112777D01*
X157027777Y-62465000D02*
X172865868Y-62465000D01*
X174879000Y-118745000D02*
X162470868Y-118745000D01*
X162470868Y-118745000D02*
X144380000Y-100654132D01*
X144380000Y-75112777D02*
X157027777Y-62465000D01*
X172865868Y-62465000D02*
X178435000Y-68034132D01*
X178435000Y-68034132D02*
X178435000Y-69596000D01*
%TO.N,GPIO13*%
X148590000Y-69721909D02*
X143545000Y-74766909D01*
X143545000Y-74766909D02*
X143545000Y-101000000D01*
X143545000Y-101000000D02*
X164465000Y-121920000D01*
X164465000Y-121920000D02*
X174244000Y-121920000D01*
X174244000Y-121920000D02*
X174879000Y-121285000D01*
%TO.N,Vin*%
X147828000Y-75836000D02*
X153623500Y-75836000D01*
X153623500Y-75836000D02*
X160972500Y-83185000D01*
X160972500Y-83185000D02*
X206019400Y-83185000D01*
X206019400Y-83185000D02*
X208915000Y-86080600D01*
X208915000Y-86080600D02*
X208915000Y-87376000D01*
%TO.N,GPIO18*%
X170436800Y-98574500D02*
X170436800Y-87754200D01*
X170436800Y-87754200D02*
X170815000Y-87376000D01*
%TO.N,+3.3V*%
X169545000Y-105410000D02*
X169545000Y-108585000D01*
X172976800Y-98574500D02*
X172976800Y-101978200D01*
X169545000Y-108585000D02*
X169692000Y-108585000D01*
X172976800Y-101978200D02*
X169545000Y-105410000D01*
X169692000Y-108585000D02*
X172212000Y-111105000D01*
%TD*%
%TA.AperFunction,Conductor*%
%TO.N,GND*%
G36*
X209697408Y-59575185D02*
G01*
X209743163Y-59627989D01*
X209753107Y-59697147D01*
X209724082Y-59760703D01*
X209665304Y-59798477D01*
X209661206Y-59799604D01*
X209415789Y-59862615D01*
X209415786Y-59862616D01*
X209125152Y-59977686D01*
X209125144Y-59977690D01*
X208851218Y-60128282D01*
X208851208Y-60128288D01*
X208598316Y-60312025D01*
X208598313Y-60312028D01*
X208394004Y-60503887D01*
X208370440Y-60526015D01*
X208304021Y-60606302D01*
X208171179Y-60766880D01*
X208003685Y-61030809D01*
X208003682Y-61030815D01*
X207870588Y-61313652D01*
X207870586Y-61313657D01*
X207773989Y-61610952D01*
X207715412Y-61918022D01*
X207715411Y-61918029D01*
X207695785Y-62229994D01*
X207695785Y-62230005D01*
X207715411Y-62541970D01*
X207715412Y-62541977D01*
X207773989Y-62849047D01*
X207870586Y-63146342D01*
X207870588Y-63146347D01*
X208003682Y-63429184D01*
X208003685Y-63429190D01*
X208171179Y-63693119D01*
X208171182Y-63693123D01*
X208171183Y-63693124D01*
X208370440Y-63933985D01*
X208598315Y-64147973D01*
X208851212Y-64331714D01*
X209043682Y-64437525D01*
X209125144Y-64482309D01*
X209125152Y-64482313D01*
X209415786Y-64597383D01*
X209415789Y-64597384D01*
X209678771Y-64664906D01*
X209718568Y-64675124D01*
X209783630Y-64683343D01*
X210028689Y-64714302D01*
X210028698Y-64714302D01*
X210028701Y-64714303D01*
X210028703Y-64714303D01*
X210341297Y-64714303D01*
X210341299Y-64714303D01*
X210341302Y-64714302D01*
X210341310Y-64714302D01*
X210526366Y-64690923D01*
X210651432Y-64675124D01*
X210954210Y-64597384D01*
X210954213Y-64597383D01*
X211244847Y-64482313D01*
X211244851Y-64482310D01*
X211244856Y-64482309D01*
X211518788Y-64331714D01*
X211771685Y-64147973D01*
X211999560Y-63933985D01*
X212198817Y-63693124D01*
X212366316Y-63429188D01*
X212499414Y-63146341D01*
X212596012Y-62849043D01*
X212613697Y-62756333D01*
X212645594Y-62694172D01*
X212706036Y-62659122D01*
X212775833Y-62662314D01*
X212832824Y-62702734D01*
X212858916Y-62767549D01*
X212859500Y-62779571D01*
X212859500Y-68854573D01*
X212839815Y-68921612D01*
X212787011Y-68967367D01*
X212717853Y-68977311D01*
X212654297Y-68948286D01*
X212632742Y-68922183D01*
X212632140Y-68922605D01*
X212493494Y-68724597D01*
X212326402Y-68557506D01*
X212326395Y-68557501D01*
X212325862Y-68557128D01*
X212247910Y-68502545D01*
X212132834Y-68421967D01*
X212132830Y-68421965D01*
X212132828Y-68421964D01*
X211918663Y-68322097D01*
X211918659Y-68322096D01*
X211918655Y-68322094D01*
X211690413Y-68260938D01*
X211690403Y-68260936D01*
X211455001Y-68240341D01*
X211454999Y-68240341D01*
X211219596Y-68260936D01*
X211219586Y-68260938D01*
X210991344Y-68322094D01*
X210991335Y-68322098D01*
X210777171Y-68421964D01*
X210777169Y-68421965D01*
X210583597Y-68557505D01*
X210416505Y-68724597D01*
X210286575Y-68910158D01*
X210231998Y-68953783D01*
X210162500Y-68960977D01*
X210100145Y-68929454D01*
X210083425Y-68910158D01*
X209953494Y-68724597D01*
X209786402Y-68557506D01*
X209786395Y-68557501D01*
X209785862Y-68557128D01*
X209707910Y-68502545D01*
X209592834Y-68421967D01*
X209592830Y-68421965D01*
X209592828Y-68421964D01*
X209378663Y-68322097D01*
X209378659Y-68322096D01*
X209378655Y-68322094D01*
X209150413Y-68260938D01*
X209150403Y-68260936D01*
X208915001Y-68240341D01*
X208914999Y-68240341D01*
X208679596Y-68260936D01*
X208679586Y-68260938D01*
X208451344Y-68322094D01*
X208451335Y-68322098D01*
X208237171Y-68421964D01*
X208237169Y-68421965D01*
X208043600Y-68557503D01*
X207921284Y-68679819D01*
X207859961Y-68713303D01*
X207790269Y-68708319D01*
X207734336Y-68666447D01*
X207717421Y-68635470D01*
X207668354Y-68503913D01*
X207668350Y-68503906D01*
X207582190Y-68388812D01*
X207582187Y-68388809D01*
X207467093Y-68302649D01*
X207467086Y-68302645D01*
X207332379Y-68252403D01*
X207332372Y-68252401D01*
X207272844Y-68246000D01*
X206625000Y-68246000D01*
X206625000Y-69151439D01*
X206571853Y-69120755D01*
X206442143Y-69086000D01*
X206307857Y-69086000D01*
X206178147Y-69120755D01*
X206125000Y-69151439D01*
X206125000Y-68246000D01*
X205477155Y-68246000D01*
X205417627Y-68252401D01*
X205417620Y-68252403D01*
X205282913Y-68302645D01*
X205282906Y-68302649D01*
X205167812Y-68388809D01*
X205167809Y-68388812D01*
X205081649Y-68503906D01*
X205081645Y-68503913D01*
X205032578Y-68635470D01*
X204990707Y-68691404D01*
X204925242Y-68715821D01*
X204856969Y-68700969D01*
X204828715Y-68679819D01*
X204784366Y-68635470D01*
X204706401Y-68557505D01*
X204706397Y-68557502D01*
X204706396Y-68557501D01*
X204512834Y-68421967D01*
X204512830Y-68421965D01*
X204512828Y-68421964D01*
X204298663Y-68322097D01*
X204298659Y-68322096D01*
X204298655Y-68322094D01*
X204070413Y-68260938D01*
X204070403Y-68260936D01*
X203835001Y-68240341D01*
X203834999Y-68240341D01*
X203599596Y-68260936D01*
X203599586Y-68260938D01*
X203371344Y-68322094D01*
X203371335Y-68322098D01*
X203157171Y-68421964D01*
X203157169Y-68421965D01*
X202963597Y-68557505D01*
X202796505Y-68724597D01*
X202666575Y-68910158D01*
X202611998Y-68953783D01*
X202542500Y-68960977D01*
X202480145Y-68929454D01*
X202463425Y-68910158D01*
X202333494Y-68724597D01*
X202166402Y-68557506D01*
X202166395Y-68557501D01*
X202165862Y-68557128D01*
X202087910Y-68502545D01*
X201972834Y-68421967D01*
X201972830Y-68421965D01*
X201972828Y-68421964D01*
X201758663Y-68322097D01*
X201758659Y-68322096D01*
X201758655Y-68322094D01*
X201530413Y-68260938D01*
X201530403Y-68260936D01*
X201295001Y-68240341D01*
X201294999Y-68240341D01*
X201059596Y-68260936D01*
X201059586Y-68260938D01*
X200831344Y-68322094D01*
X200831335Y-68322098D01*
X200617171Y-68421964D01*
X200617169Y-68421965D01*
X200423597Y-68557505D01*
X200256505Y-68724597D01*
X200126575Y-68910158D01*
X200071998Y-68953783D01*
X200002500Y-68960977D01*
X199940145Y-68929454D01*
X199923425Y-68910158D01*
X199793494Y-68724597D01*
X199626402Y-68557506D01*
X199626395Y-68557501D01*
X199625862Y-68557128D01*
X199547910Y-68502545D01*
X199432834Y-68421967D01*
X199432830Y-68421965D01*
X199432828Y-68421964D01*
X199218663Y-68322097D01*
X199218659Y-68322096D01*
X199218655Y-68322094D01*
X198990413Y-68260938D01*
X198990403Y-68260936D01*
X198755001Y-68240341D01*
X198754999Y-68240341D01*
X198519596Y-68260936D01*
X198519586Y-68260938D01*
X198291344Y-68322094D01*
X198291335Y-68322098D01*
X198077171Y-68421964D01*
X198077169Y-68421965D01*
X197883597Y-68557505D01*
X197716505Y-68724597D01*
X197586575Y-68910158D01*
X197531998Y-68953783D01*
X197462500Y-68960977D01*
X197400145Y-68929454D01*
X197383425Y-68910158D01*
X197253494Y-68724597D01*
X197086402Y-68557506D01*
X197086395Y-68557501D01*
X197085862Y-68557128D01*
X197007910Y-68502545D01*
X196892834Y-68421967D01*
X196892830Y-68421965D01*
X196892828Y-68421964D01*
X196678663Y-68322097D01*
X196678659Y-68322096D01*
X196678655Y-68322094D01*
X196450413Y-68260938D01*
X196450403Y-68260936D01*
X196215001Y-68240341D01*
X196214999Y-68240341D01*
X195979596Y-68260936D01*
X195979586Y-68260938D01*
X195751344Y-68322094D01*
X195751335Y-68322098D01*
X195537171Y-68421964D01*
X195537169Y-68421965D01*
X195343600Y-68557503D01*
X195221284Y-68679819D01*
X195159961Y-68713303D01*
X195090269Y-68708319D01*
X195034336Y-68666447D01*
X195017421Y-68635470D01*
X194968354Y-68503913D01*
X194968350Y-68503906D01*
X194882190Y-68388812D01*
X194882187Y-68388809D01*
X194767093Y-68302649D01*
X194767086Y-68302645D01*
X194632379Y-68252403D01*
X194632372Y-68252401D01*
X194572844Y-68246000D01*
X193925000Y-68246000D01*
X193925000Y-69151439D01*
X193871853Y-69120755D01*
X193742143Y-69086000D01*
X193607857Y-69086000D01*
X193478147Y-69120755D01*
X193425000Y-69151439D01*
X193425000Y-68246000D01*
X192777155Y-68246000D01*
X192717627Y-68252401D01*
X192717620Y-68252403D01*
X192582913Y-68302645D01*
X192582906Y-68302649D01*
X192467812Y-68388809D01*
X192467809Y-68388812D01*
X192381649Y-68503906D01*
X192381645Y-68503913D01*
X192332578Y-68635470D01*
X192290707Y-68691404D01*
X192225242Y-68715821D01*
X192156969Y-68700969D01*
X192128715Y-68679819D01*
X192084366Y-68635470D01*
X192006401Y-68557505D01*
X192006397Y-68557502D01*
X192006396Y-68557501D01*
X191812834Y-68421967D01*
X191812830Y-68421965D01*
X191812828Y-68421964D01*
X191598663Y-68322097D01*
X191598659Y-68322096D01*
X191598655Y-68322094D01*
X191370413Y-68260938D01*
X191370403Y-68260936D01*
X191135001Y-68240341D01*
X191134999Y-68240341D01*
X190899596Y-68260936D01*
X190899586Y-68260938D01*
X190671344Y-68322094D01*
X190671335Y-68322098D01*
X190457171Y-68421964D01*
X190457169Y-68421965D01*
X190263597Y-68557505D01*
X190096505Y-68724597D01*
X189966575Y-68910158D01*
X189911998Y-68953783D01*
X189842500Y-68960977D01*
X189780145Y-68929454D01*
X189763425Y-68910158D01*
X189633494Y-68724597D01*
X189466402Y-68557506D01*
X189466395Y-68557501D01*
X189465862Y-68557128D01*
X189387910Y-68502545D01*
X189272834Y-68421967D01*
X189272830Y-68421965D01*
X189272828Y-68421964D01*
X189058663Y-68322097D01*
X189058659Y-68322096D01*
X189058655Y-68322094D01*
X188830413Y-68260938D01*
X188830403Y-68260936D01*
X188595001Y-68240341D01*
X188594999Y-68240341D01*
X188359596Y-68260936D01*
X188359586Y-68260938D01*
X188131344Y-68322094D01*
X188131335Y-68322098D01*
X187917171Y-68421964D01*
X187917169Y-68421965D01*
X187723597Y-68557505D01*
X187556505Y-68724597D01*
X187426575Y-68910158D01*
X187371998Y-68953783D01*
X187302500Y-68960977D01*
X187240145Y-68929454D01*
X187223425Y-68910158D01*
X187093494Y-68724597D01*
X186926402Y-68557506D01*
X186926395Y-68557501D01*
X186925862Y-68557128D01*
X186847910Y-68502545D01*
X186732834Y-68421967D01*
X186732830Y-68421965D01*
X186732828Y-68421964D01*
X186518663Y-68322097D01*
X186518659Y-68322096D01*
X186518655Y-68322094D01*
X186290413Y-68260938D01*
X186290403Y-68260936D01*
X186055001Y-68240341D01*
X186054999Y-68240341D01*
X185819596Y-68260936D01*
X185819586Y-68260938D01*
X185591344Y-68322094D01*
X185591335Y-68322098D01*
X185377171Y-68421964D01*
X185377169Y-68421965D01*
X185183597Y-68557505D01*
X185016505Y-68724597D01*
X184886575Y-68910158D01*
X184831998Y-68953783D01*
X184762500Y-68960977D01*
X184700145Y-68929454D01*
X184683425Y-68910158D01*
X184553494Y-68724597D01*
X184386402Y-68557506D01*
X184386395Y-68557501D01*
X184385862Y-68557128D01*
X184307910Y-68502545D01*
X184192834Y-68421967D01*
X184192830Y-68421965D01*
X184192828Y-68421964D01*
X183978663Y-68322097D01*
X183978659Y-68322096D01*
X183978655Y-68322094D01*
X183750413Y-68260938D01*
X183750403Y-68260936D01*
X183515001Y-68240341D01*
X183514999Y-68240341D01*
X183279596Y-68260936D01*
X183279586Y-68260938D01*
X183051344Y-68322094D01*
X183051335Y-68322098D01*
X182837171Y-68421964D01*
X182837169Y-68421965D01*
X182643600Y-68557503D01*
X182521284Y-68679819D01*
X182459961Y-68713303D01*
X182390269Y-68708319D01*
X182334336Y-68666447D01*
X182317421Y-68635470D01*
X182268354Y-68503913D01*
X182268350Y-68503906D01*
X182182190Y-68388812D01*
X182182187Y-68388809D01*
X182067093Y-68302649D01*
X182067086Y-68302645D01*
X181932379Y-68252403D01*
X181932372Y-68252401D01*
X181872844Y-68246000D01*
X181225000Y-68246000D01*
X181225000Y-69151439D01*
X181171853Y-69120755D01*
X181042143Y-69086000D01*
X180907857Y-69086000D01*
X180778147Y-69120755D01*
X180725000Y-69151439D01*
X180725000Y-68246000D01*
X180077155Y-68246000D01*
X180017627Y-68252401D01*
X180017620Y-68252403D01*
X179882913Y-68302645D01*
X179882906Y-68302649D01*
X179767812Y-68388809D01*
X179767809Y-68388812D01*
X179681649Y-68503906D01*
X179681645Y-68503913D01*
X179632578Y-68635470D01*
X179590707Y-68691404D01*
X179525242Y-68715821D01*
X179456969Y-68700969D01*
X179428715Y-68679819D01*
X179384366Y-68635470D01*
X179306401Y-68557505D01*
X179305863Y-68557128D01*
X179305683Y-68556903D01*
X179302251Y-68554023D01*
X179302830Y-68553332D01*
X179262245Y-68502545D01*
X179253000Y-68455562D01*
X179253000Y-67953565D01*
X179252999Y-67953561D01*
X179221566Y-67795536D01*
X179221565Y-67795530D01*
X179190733Y-67721097D01*
X179190733Y-67721095D01*
X179159906Y-67646671D01*
X179159905Y-67646670D01*
X179159903Y-67646664D01*
X179070382Y-67512687D01*
X179070379Y-67512683D01*
X173387316Y-61829620D01*
X173387312Y-61829617D01*
X173253342Y-61740100D01*
X173253329Y-61740093D01*
X173104474Y-61678436D01*
X173104462Y-61678433D01*
X172946438Y-61647000D01*
X172946434Y-61647000D01*
X156947211Y-61647000D01*
X156947210Y-61647000D01*
X156912291Y-61653946D01*
X156877371Y-61660892D01*
X156806717Y-61674945D01*
X156789174Y-61678435D01*
X156789173Y-61678435D01*
X156640313Y-61740094D01*
X156640311Y-61740095D01*
X156568339Y-61788186D01*
X156506331Y-61829618D01*
X156449363Y-61886586D01*
X156392395Y-61943555D01*
X156392393Y-61943557D01*
X149266114Y-69069834D01*
X149204791Y-69103319D01*
X149135099Y-69098335D01*
X149109542Y-69085255D01*
X148977474Y-68997010D01*
X148977461Y-68997003D01*
X148828606Y-68935346D01*
X148828596Y-68935343D01*
X148670567Y-68903909D01*
X148670565Y-68903909D01*
X148509434Y-68903909D01*
X148509432Y-68903909D01*
X148351404Y-68935343D01*
X148351396Y-68935345D01*
X148202530Y-68997007D01*
X148202527Y-68997008D01*
X148068555Y-69086526D01*
X148068551Y-69086529D01*
X142909620Y-74245460D01*
X142909617Y-74245464D01*
X142820100Y-74379434D01*
X142820093Y-74379447D01*
X142758436Y-74528302D01*
X142758433Y-74528314D01*
X142727000Y-74686338D01*
X142727000Y-101080570D01*
X142758433Y-101238594D01*
X142758435Y-101238602D01*
X142779524Y-101289515D01*
X142820097Y-101387468D01*
X142820098Y-101387471D01*
X142909617Y-101521444D01*
X142909620Y-101521448D01*
X153429801Y-112041628D01*
X163829615Y-122441442D01*
X163829618Y-122441445D01*
X163943555Y-122555382D01*
X163997217Y-122591236D01*
X163997219Y-122591239D01*
X163997219Y-122591238D01*
X164077526Y-122644899D01*
X164077532Y-122644903D01*
X164077536Y-122644905D01*
X164222328Y-122704879D01*
X164224889Y-122706047D01*
X164226395Y-122706563D01*
X164226396Y-122706564D01*
X164226398Y-122706565D01*
X164384431Y-122737999D01*
X164384433Y-122738000D01*
X164384434Y-122738000D01*
X174324567Y-122738000D01*
X174324568Y-122737999D01*
X174482602Y-122706565D01*
X174557035Y-122675733D01*
X174631468Y-122644903D01*
X174746383Y-122568118D01*
X174813059Y-122547241D01*
X174826081Y-122547693D01*
X174878998Y-122552323D01*
X174879000Y-122552323D01*
X174879002Y-122552323D01*
X174937089Y-122547241D01*
X175099068Y-122533070D01*
X175312450Y-122475894D01*
X175512662Y-122382534D01*
X175693620Y-122255826D01*
X175849826Y-122099620D01*
X175976534Y-121918662D01*
X176069894Y-121718450D01*
X176127070Y-121505068D01*
X176144783Y-121302599D01*
X176146323Y-121285002D01*
X176146323Y-121284997D01*
X176130313Y-121102000D01*
X176127070Y-121064932D01*
X176069894Y-120851550D01*
X175976534Y-120651339D01*
X175849826Y-120470380D01*
X175693620Y-120314174D01*
X175693616Y-120314171D01*
X175693615Y-120314170D01*
X175512666Y-120187468D01*
X175512658Y-120187464D01*
X175383811Y-120127382D01*
X175331371Y-120081210D01*
X175312219Y-120014017D01*
X175332435Y-119947135D01*
X175383811Y-119902618D01*
X175389802Y-119899824D01*
X175512662Y-119842534D01*
X175693620Y-119715826D01*
X175849826Y-119559620D01*
X175976534Y-119378662D01*
X176069894Y-119178450D01*
X176127070Y-118965068D01*
X176146323Y-118745000D01*
X176127070Y-118524932D01*
X176069894Y-118311550D01*
X175976534Y-118111339D01*
X175849826Y-117930380D01*
X175693620Y-117774174D01*
X175693616Y-117774171D01*
X175693615Y-117774170D01*
X175512666Y-117647468D01*
X175512658Y-117647464D01*
X175383811Y-117587382D01*
X175331371Y-117541210D01*
X175312219Y-117474017D01*
X175332435Y-117407135D01*
X175383811Y-117362618D01*
X175389802Y-117359824D01*
X175512662Y-117302534D01*
X175693620Y-117175826D01*
X175849826Y-117019620D01*
X175976534Y-116838662D01*
X176069894Y-116638450D01*
X176127070Y-116425068D01*
X176146323Y-116205000D01*
X176127070Y-115984932D01*
X176069894Y-115771550D01*
X175976534Y-115571339D01*
X175849826Y-115390380D01*
X175693620Y-115234174D01*
X175693616Y-115234171D01*
X175693615Y-115234170D01*
X175512666Y-115107468D01*
X175512658Y-115107464D01*
X175383811Y-115047382D01*
X175331371Y-115001210D01*
X175312219Y-114934017D01*
X175332435Y-114867135D01*
X175383811Y-114822618D01*
X175389802Y-114819824D01*
X175512662Y-114762534D01*
X175693620Y-114635826D01*
X175849826Y-114479620D01*
X175976534Y-114298662D01*
X176069894Y-114098450D01*
X176127070Y-113885068D01*
X176146323Y-113665000D01*
X176127070Y-113444932D01*
X176069894Y-113231550D01*
X175976534Y-113031339D01*
X175913180Y-112940859D01*
X175849827Y-112850381D01*
X175810127Y-112810681D01*
X175693620Y-112694174D01*
X175693616Y-112694171D01*
X175693615Y-112694170D01*
X175512666Y-112567468D01*
X175512658Y-112567464D01*
X175383811Y-112507382D01*
X175331371Y-112461210D01*
X175312219Y-112394017D01*
X175332435Y-112327135D01*
X175383811Y-112282618D01*
X175392063Y-112278770D01*
X175512662Y-112222534D01*
X175693620Y-112095826D01*
X175849826Y-111939620D01*
X175976534Y-111758662D01*
X176069894Y-111558450D01*
X176127070Y-111345068D01*
X176146323Y-111125000D01*
X176144573Y-111105001D01*
X176129038Y-110927430D01*
X176127070Y-110904932D01*
X176069894Y-110691550D01*
X175976534Y-110491339D01*
X175849826Y-110310380D01*
X175693620Y-110154174D01*
X175693616Y-110154171D01*
X175693615Y-110154170D01*
X175512666Y-110027468D01*
X175512662Y-110027466D01*
X175383218Y-109967105D01*
X175330779Y-109920932D01*
X175311627Y-109853739D01*
X175331843Y-109786858D01*
X175383219Y-109742340D01*
X175512416Y-109682095D01*
X175512417Y-109682094D01*
X175577188Y-109636741D01*
X174906448Y-108966000D01*
X174929160Y-108966000D01*
X175026061Y-108940036D01*
X175112940Y-108889876D01*
X175183876Y-108818940D01*
X175234036Y-108732061D01*
X175260000Y-108635160D01*
X175260000Y-108612447D01*
X175930741Y-109283188D01*
X175976094Y-109218417D01*
X175976100Y-109218407D01*
X176069419Y-109018284D01*
X176069424Y-109018270D01*
X176126573Y-108804986D01*
X176126575Y-108804976D01*
X176145821Y-108585000D01*
X176145821Y-108584999D01*
X176126575Y-108365023D01*
X176126573Y-108365013D01*
X176069424Y-108151729D01*
X176069420Y-108151720D01*
X175976096Y-107951586D01*
X175930741Y-107886811D01*
X175930740Y-107886810D01*
X175260000Y-108557551D01*
X175260000Y-108534840D01*
X175234036Y-108437939D01*
X175183876Y-108351060D01*
X175112940Y-108280124D01*
X175026061Y-108229964D01*
X174929160Y-108204000D01*
X174906448Y-108204000D01*
X175577188Y-107533259D01*
X175577187Y-107533258D01*
X175512411Y-107487901D01*
X175512405Y-107487898D01*
X175312284Y-107394580D01*
X175312270Y-107394575D01*
X175098986Y-107337426D01*
X175098976Y-107337424D01*
X174879001Y-107318179D01*
X174878999Y-107318179D01*
X174659023Y-107337424D01*
X174659013Y-107337426D01*
X174445729Y-107394575D01*
X174445720Y-107394579D01*
X174245590Y-107487901D01*
X174180811Y-107533258D01*
X174851553Y-108204000D01*
X174828840Y-108204000D01*
X174731939Y-108229964D01*
X174645060Y-108280124D01*
X174574124Y-108351060D01*
X174523964Y-108437939D01*
X174498000Y-108534840D01*
X174498000Y-108557553D01*
X173827258Y-107886811D01*
X173781901Y-107951590D01*
X173688579Y-108151720D01*
X173688576Y-108151728D01*
X173682264Y-108175282D01*
X173645897Y-108234941D01*
X173583049Y-108265468D01*
X173513673Y-108257171D01*
X173459797Y-108212683D01*
X173442714Y-108175273D01*
X173438268Y-108158681D01*
X173438264Y-108158668D01*
X173342136Y-107952521D01*
X173342132Y-107952513D01*
X173291025Y-107879526D01*
X172612000Y-108558551D01*
X172612000Y-108552339D01*
X172584741Y-108450606D01*
X172532080Y-108359394D01*
X172457606Y-108284920D01*
X172366394Y-108232259D01*
X172264661Y-108205000D01*
X172258448Y-108205000D01*
X172937472Y-107525974D01*
X172864478Y-107474863D01*
X172658331Y-107378735D01*
X172658317Y-107378730D01*
X172438610Y-107319860D01*
X172438599Y-107319858D01*
X172212002Y-107300034D01*
X172211998Y-107300034D01*
X171985400Y-107319858D01*
X171985389Y-107319860D01*
X171765682Y-107378730D01*
X171765673Y-107378734D01*
X171559516Y-107474866D01*
X171559512Y-107474868D01*
X171486526Y-107525973D01*
X171486526Y-107525974D01*
X172165553Y-108205000D01*
X172159339Y-108205000D01*
X172057606Y-108232259D01*
X171966394Y-108284920D01*
X171891920Y-108359394D01*
X171839259Y-108450606D01*
X171812000Y-108552339D01*
X171812000Y-108558552D01*
X171132974Y-107879526D01*
X171132973Y-107879526D01*
X171081868Y-107952512D01*
X171081866Y-107952516D01*
X170985734Y-108158673D01*
X170985730Y-108158682D01*
X170926860Y-108378389D01*
X170925920Y-108383724D01*
X170923952Y-108383377D01*
X170901672Y-108440310D01*
X170845075Y-108481280D01*
X170775313Y-108485148D01*
X170715927Y-108452100D01*
X170399319Y-108135492D01*
X170365834Y-108074169D01*
X170363000Y-108047811D01*
X170363000Y-105800189D01*
X170382685Y-105733150D01*
X170399319Y-105712508D01*
X173612180Y-102499647D01*
X173612182Y-102499645D01*
X173701702Y-102365668D01*
X173704664Y-102358517D01*
X173763365Y-102216802D01*
X173794800Y-102058766D01*
X173794800Y-99593308D01*
X173814485Y-99526269D01*
X173831119Y-99505627D01*
X173947626Y-99389120D01*
X174029225Y-99272583D01*
X174083802Y-99228959D01*
X174153300Y-99221765D01*
X174215655Y-99253288D01*
X174251069Y-99313517D01*
X174254800Y-99343707D01*
X174254800Y-99384344D01*
X174261201Y-99443872D01*
X174261203Y-99443879D01*
X174311445Y-99578586D01*
X174311449Y-99578593D01*
X174397609Y-99693687D01*
X174397612Y-99693690D01*
X174512706Y-99779850D01*
X174512713Y-99779854D01*
X174647420Y-99830096D01*
X174647427Y-99830098D01*
X174706955Y-99836499D01*
X174706972Y-99836500D01*
X175266800Y-99836500D01*
X175266800Y-98863316D01*
X175282860Y-98879376D01*
X175369739Y-98929536D01*
X175466640Y-98955500D01*
X175566960Y-98955500D01*
X175663861Y-98929536D01*
X175750740Y-98879376D01*
X175766800Y-98863316D01*
X175766800Y-99836500D01*
X176326628Y-99836500D01*
X176326644Y-99836499D01*
X176386172Y-99830098D01*
X176386179Y-99830096D01*
X176520886Y-99779854D01*
X176520893Y-99779850D01*
X176635987Y-99693690D01*
X176635990Y-99693687D01*
X176722150Y-99578593D01*
X176722154Y-99578586D01*
X176772396Y-99443879D01*
X176772398Y-99443872D01*
X176778799Y-99384344D01*
X176778800Y-99384327D01*
X176778800Y-98824500D01*
X175805616Y-98824500D01*
X175821676Y-98808440D01*
X175871836Y-98721561D01*
X175897800Y-98624660D01*
X175897800Y-98524340D01*
X175871836Y-98427439D01*
X175821676Y-98340560D01*
X175805616Y-98324500D01*
X176778800Y-98324500D01*
X176778800Y-97764672D01*
X176778799Y-97764655D01*
X176772398Y-97705127D01*
X176772396Y-97705120D01*
X176722154Y-97570413D01*
X176722150Y-97570406D01*
X176635990Y-97455312D01*
X176635987Y-97455309D01*
X176520893Y-97369149D01*
X176520886Y-97369145D01*
X176386179Y-97318903D01*
X176386172Y-97318901D01*
X176326644Y-97312500D01*
X176071778Y-97312500D01*
X176004739Y-97292815D01*
X175958984Y-97240011D01*
X175949040Y-97170853D01*
X175978065Y-97107297D01*
X176019373Y-97076118D01*
X176095680Y-97040535D01*
X176168671Y-96989424D01*
X175489647Y-96310400D01*
X175495861Y-96310400D01*
X175597594Y-96283141D01*
X175688806Y-96230480D01*
X175763280Y-96156006D01*
X175815941Y-96064794D01*
X175843200Y-95963061D01*
X175843200Y-95956847D01*
X176522224Y-96635871D01*
X176573336Y-96562878D01*
X176669464Y-96356731D01*
X176669469Y-96356717D01*
X176728339Y-96137010D01*
X176728341Y-96136999D01*
X176748166Y-95910402D01*
X176748166Y-95910397D01*
X176728341Y-95683800D01*
X176728339Y-95683789D01*
X176669469Y-95464082D01*
X176669464Y-95464068D01*
X176573336Y-95257921D01*
X176573332Y-95257913D01*
X176522225Y-95184926D01*
X175843200Y-95863951D01*
X175843200Y-95857739D01*
X175815941Y-95756006D01*
X175763280Y-95664794D01*
X175688806Y-95590320D01*
X175597594Y-95537659D01*
X175495861Y-95510400D01*
X175489648Y-95510400D01*
X175877050Y-95122997D01*
X205217034Y-95122997D01*
X205217034Y-95123002D01*
X205236858Y-95349599D01*
X205236860Y-95349610D01*
X205295730Y-95569317D01*
X205295735Y-95569331D01*
X205391863Y-95775478D01*
X205442974Y-95848472D01*
X206122000Y-95169446D01*
X206122000Y-95175661D01*
X206149259Y-95277394D01*
X206201920Y-95368606D01*
X206276394Y-95443080D01*
X206367606Y-95495741D01*
X206469339Y-95523000D01*
X206475553Y-95523000D01*
X205796526Y-96202025D01*
X205869513Y-96253132D01*
X205869521Y-96253136D01*
X206075668Y-96349264D01*
X206075682Y-96349269D01*
X206295389Y-96408139D01*
X206295400Y-96408141D01*
X206521998Y-96427966D01*
X206522002Y-96427966D01*
X206748599Y-96408141D01*
X206748610Y-96408139D01*
X206968317Y-96349269D01*
X206968331Y-96349264D01*
X207174478Y-96253136D01*
X207247471Y-96202024D01*
X206568447Y-95523000D01*
X206574661Y-95523000D01*
X206676394Y-95495741D01*
X206767606Y-95443080D01*
X206842080Y-95368606D01*
X206894741Y-95277394D01*
X206922000Y-95175661D01*
X206922000Y-95169447D01*
X207601024Y-95848471D01*
X207652134Y-95775481D01*
X207659340Y-95760028D01*
X207705511Y-95707587D01*
X207772704Y-95688433D01*
X207839585Y-95708646D01*
X207884105Y-95760022D01*
X207891430Y-95775730D01*
X207891432Y-95775734D01*
X208021954Y-95962141D01*
X208182858Y-96123045D01*
X208202927Y-96137097D01*
X208369266Y-96253568D01*
X208575504Y-96349739D01*
X208575509Y-96349740D01*
X208575511Y-96349741D01*
X208602214Y-96356896D01*
X208795308Y-96408635D01*
X208957230Y-96422801D01*
X209021998Y-96428468D01*
X209022000Y-96428468D01*
X209022002Y-96428468D01*
X209078673Y-96423509D01*
X209248692Y-96408635D01*
X209468496Y-96349739D01*
X209674734Y-96253568D01*
X209861139Y-96123047D01*
X210022047Y-95962139D01*
X210152568Y-95775734D01*
X210248739Y-95569496D01*
X210307635Y-95349692D01*
X210327468Y-95123000D01*
X210307635Y-94896308D01*
X210250784Y-94684135D01*
X210248741Y-94676511D01*
X210248738Y-94676502D01*
X210224613Y-94624766D01*
X210152568Y-94470266D01*
X210022047Y-94283861D01*
X210022045Y-94283858D01*
X209861141Y-94122954D01*
X209674734Y-93992432D01*
X209674732Y-93992431D01*
X209468497Y-93896261D01*
X209468488Y-93896258D01*
X209248697Y-93837366D01*
X209248693Y-93837365D01*
X209248692Y-93837365D01*
X209248691Y-93837364D01*
X209248686Y-93837364D01*
X209022002Y-93817532D01*
X209021998Y-93817532D01*
X208795313Y-93837364D01*
X208795302Y-93837366D01*
X208575511Y-93896258D01*
X208575502Y-93896261D01*
X208369267Y-93992431D01*
X208369265Y-93992432D01*
X208182858Y-94122954D01*
X208021954Y-94283858D01*
X207891432Y-94470265D01*
X207891429Y-94470270D01*
X207884104Y-94485979D01*
X207837929Y-94538417D01*
X207770735Y-94557566D01*
X207703855Y-94537347D01*
X207659341Y-94485973D01*
X207652133Y-94470515D01*
X207652132Y-94470513D01*
X207601025Y-94397526D01*
X206922000Y-95076551D01*
X206922000Y-95070339D01*
X206894741Y-94968606D01*
X206842080Y-94877394D01*
X206767606Y-94802920D01*
X206676394Y-94750259D01*
X206574661Y-94723000D01*
X206568448Y-94723000D01*
X207247472Y-94043974D01*
X207174478Y-93992863D01*
X206968331Y-93896735D01*
X206968317Y-93896730D01*
X206748610Y-93837860D01*
X206748599Y-93837858D01*
X206522002Y-93818034D01*
X206521998Y-93818034D01*
X206295400Y-93837858D01*
X206295389Y-93837860D01*
X206075682Y-93896730D01*
X206075673Y-93896734D01*
X205869516Y-93992866D01*
X205869512Y-93992868D01*
X205796526Y-94043973D01*
X205796526Y-94043974D01*
X206475553Y-94723000D01*
X206469339Y-94723000D01*
X206367606Y-94750259D01*
X206276394Y-94802920D01*
X206201920Y-94877394D01*
X206149259Y-94968606D01*
X206122000Y-95070339D01*
X206122000Y-95076552D01*
X205442974Y-94397526D01*
X205442973Y-94397526D01*
X205391868Y-94470512D01*
X205391866Y-94470516D01*
X205295734Y-94676673D01*
X205295730Y-94676682D01*
X205236860Y-94896389D01*
X205236858Y-94896400D01*
X205217034Y-95122997D01*
X175877050Y-95122997D01*
X176168672Y-94831374D01*
X176095678Y-94780263D01*
X175889531Y-94684135D01*
X175889517Y-94684130D01*
X175669810Y-94625260D01*
X175669799Y-94625258D01*
X175443202Y-94605434D01*
X175443198Y-94605434D01*
X175216600Y-94625258D01*
X175216589Y-94625260D01*
X174996882Y-94684130D01*
X174996873Y-94684134D01*
X174790716Y-94780266D01*
X174790712Y-94780268D01*
X174717726Y-94831373D01*
X174717726Y-94831374D01*
X175396753Y-95510400D01*
X175390539Y-95510400D01*
X175288806Y-95537659D01*
X175197594Y-95590320D01*
X175123120Y-95664794D01*
X175070459Y-95756006D01*
X175043200Y-95857739D01*
X175043200Y-95863952D01*
X174364174Y-95184926D01*
X174364173Y-95184926D01*
X174313068Y-95257912D01*
X174313067Y-95257914D01*
X174305856Y-95273379D01*
X174259682Y-95325817D01*
X174192488Y-95344967D01*
X174125607Y-95324750D01*
X174081093Y-95273376D01*
X174073768Y-95257666D01*
X173943247Y-95071261D01*
X173943245Y-95071258D01*
X173782341Y-94910354D01*
X173595934Y-94779832D01*
X173595932Y-94779831D01*
X173389697Y-94683661D01*
X173389688Y-94683658D01*
X173169897Y-94624766D01*
X173169893Y-94624765D01*
X173169892Y-94624765D01*
X173169891Y-94624764D01*
X173169886Y-94624764D01*
X172943202Y-94604932D01*
X172943198Y-94604932D01*
X172716513Y-94624764D01*
X172716502Y-94624766D01*
X172496711Y-94683658D01*
X172496702Y-94683661D01*
X172290467Y-94779831D01*
X172290465Y-94779832D01*
X172104058Y-94910354D01*
X171943154Y-95071258D01*
X171812632Y-95257665D01*
X171812631Y-95257667D01*
X171716461Y-95463902D01*
X171716458Y-95463911D01*
X171657566Y-95683702D01*
X171657564Y-95683713D01*
X171637732Y-95910398D01*
X171637732Y-95910401D01*
X171657564Y-96137086D01*
X171657566Y-96137097D01*
X171716458Y-96356888D01*
X171716461Y-96356897D01*
X171812631Y-96563132D01*
X171812632Y-96563134D01*
X171943154Y-96749541D01*
X172104058Y-96910445D01*
X172104061Y-96910447D01*
X172290466Y-97040968D01*
X172496704Y-97137139D01*
X172496709Y-97137140D01*
X172496711Y-97137141D01*
X172533721Y-97147058D01*
X172593382Y-97183423D01*
X172623911Y-97246270D01*
X172615616Y-97315646D01*
X172571131Y-97369523D01*
X172548213Y-97381224D01*
X172548257Y-97381318D01*
X172545647Y-97382534D01*
X172544051Y-97383350D01*
X172543359Y-97383601D01*
X172343140Y-97476965D01*
X172343138Y-97476966D01*
X172162177Y-97603675D01*
X172005975Y-97759877D01*
X171879266Y-97940838D01*
X171879265Y-97940840D01*
X171819182Y-98069689D01*
X171773009Y-98122128D01*
X171705816Y-98141280D01*
X171638935Y-98121064D01*
X171594418Y-98069689D01*
X171534334Y-97940840D01*
X171534333Y-97940838D01*
X171407624Y-97759877D01*
X171291119Y-97643372D01*
X171257634Y-97582049D01*
X171254800Y-97555691D01*
X171254800Y-91947997D01*
X205217034Y-91947997D01*
X205217034Y-91948002D01*
X205236858Y-92174599D01*
X205236860Y-92174610D01*
X205295730Y-92394317D01*
X205295735Y-92394331D01*
X205391863Y-92600478D01*
X205442974Y-92673472D01*
X206122000Y-91994446D01*
X206122000Y-92000661D01*
X206149259Y-92102394D01*
X206201920Y-92193606D01*
X206276394Y-92268080D01*
X206367606Y-92320741D01*
X206469339Y-92348000D01*
X206475553Y-92348000D01*
X205796526Y-93027025D01*
X205869513Y-93078132D01*
X205869521Y-93078136D01*
X206075668Y-93174264D01*
X206075682Y-93174269D01*
X206295389Y-93233139D01*
X206295400Y-93233141D01*
X206521998Y-93252966D01*
X206522002Y-93252966D01*
X206748599Y-93233141D01*
X206748610Y-93233139D01*
X206968317Y-93174269D01*
X206968331Y-93174264D01*
X207174478Y-93078136D01*
X207247471Y-93027024D01*
X206568447Y-92348000D01*
X206574661Y-92348000D01*
X206676394Y-92320741D01*
X206767606Y-92268080D01*
X206842080Y-92193606D01*
X206894741Y-92102394D01*
X206922000Y-92000661D01*
X206922000Y-91994447D01*
X207601024Y-92673471D01*
X207652134Y-92600481D01*
X207659340Y-92585028D01*
X207705511Y-92532587D01*
X207772704Y-92513433D01*
X207839585Y-92533646D01*
X207884105Y-92585022D01*
X207891430Y-92600730D01*
X207891432Y-92600734D01*
X208021954Y-92787141D01*
X208182858Y-92948045D01*
X208182861Y-92948047D01*
X208369266Y-93078568D01*
X208575504Y-93174739D01*
X208795308Y-93233635D01*
X208944196Y-93246661D01*
X209021998Y-93253468D01*
X209022000Y-93253468D01*
X209022002Y-93253468D01*
X209099804Y-93246661D01*
X209248692Y-93233635D01*
X209468496Y-93174739D01*
X209674734Y-93078568D01*
X209861139Y-92948047D01*
X210022047Y-92787139D01*
X210152568Y-92600734D01*
X210248739Y-92394496D01*
X210307635Y-92174692D01*
X210327468Y-91948000D01*
X210307635Y-91721308D01*
X210255333Y-91526112D01*
X210248741Y-91501511D01*
X210248738Y-91501502D01*
X210193277Y-91382566D01*
X210152568Y-91295266D01*
X210022047Y-91108861D01*
X210022045Y-91108858D01*
X209861141Y-90947954D01*
X209674734Y-90817432D01*
X209674732Y-90817431D01*
X209468497Y-90721261D01*
X209468488Y-90721258D01*
X209248697Y-90662366D01*
X209248693Y-90662365D01*
X209248692Y-90662365D01*
X209248691Y-90662364D01*
X209248686Y-90662364D01*
X209022002Y-90642532D01*
X209021998Y-90642532D01*
X208795313Y-90662364D01*
X208795302Y-90662366D01*
X208575511Y-90721258D01*
X208575502Y-90721261D01*
X208369267Y-90817431D01*
X208369265Y-90817432D01*
X208182858Y-90947954D01*
X208021954Y-91108858D01*
X207891432Y-91295265D01*
X207891429Y-91295270D01*
X207884104Y-91310979D01*
X207837929Y-91363417D01*
X207770735Y-91382566D01*
X207703855Y-91362347D01*
X207659341Y-91310973D01*
X207652133Y-91295515D01*
X207652132Y-91295513D01*
X207601025Y-91222526D01*
X206922000Y-91901551D01*
X206922000Y-91895339D01*
X206894741Y-91793606D01*
X206842080Y-91702394D01*
X206767606Y-91627920D01*
X206676394Y-91575259D01*
X206574661Y-91548000D01*
X206568448Y-91548000D01*
X207247472Y-90868974D01*
X207174478Y-90817863D01*
X206968331Y-90721735D01*
X206968317Y-90721730D01*
X206748610Y-90662860D01*
X206748599Y-90662858D01*
X206522002Y-90643034D01*
X206521998Y-90643034D01*
X206295400Y-90662858D01*
X206295389Y-90662860D01*
X206075682Y-90721730D01*
X206075673Y-90721734D01*
X205869516Y-90817866D01*
X205869512Y-90817868D01*
X205796526Y-90868973D01*
X205796526Y-90868974D01*
X206475553Y-91548000D01*
X206469339Y-91548000D01*
X206367606Y-91575259D01*
X206276394Y-91627920D01*
X206201920Y-91702394D01*
X206149259Y-91793606D01*
X206122000Y-91895339D01*
X206122000Y-91901552D01*
X205442974Y-91222526D01*
X205442973Y-91222526D01*
X205391868Y-91295512D01*
X205391866Y-91295516D01*
X205295734Y-91501673D01*
X205295730Y-91501682D01*
X205236860Y-91721389D01*
X205236858Y-91721400D01*
X205217034Y-91947997D01*
X171254800Y-91947997D01*
X171254800Y-88740027D01*
X171274485Y-88672988D01*
X171326395Y-88627645D01*
X171343195Y-88619811D01*
X171492830Y-88550035D01*
X171686401Y-88414495D01*
X171853495Y-88247401D01*
X171983425Y-88061842D01*
X172038002Y-88018217D01*
X172107500Y-88011023D01*
X172169855Y-88042546D01*
X172186575Y-88061842D01*
X172316500Y-88247395D01*
X172316505Y-88247401D01*
X172483599Y-88414495D01*
X172580384Y-88482265D01*
X172677165Y-88550032D01*
X172677167Y-88550033D01*
X172677170Y-88550035D01*
X172891337Y-88649903D01*
X173119592Y-88711063D01*
X173290319Y-88726000D01*
X173354999Y-88731659D01*
X173355000Y-88731659D01*
X173355001Y-88731659D01*
X173419681Y-88726000D01*
X173590408Y-88711063D01*
X173818663Y-88649903D01*
X174032830Y-88550035D01*
X174226401Y-88414495D01*
X174393495Y-88247401D01*
X174523425Y-88061842D01*
X174578002Y-88018217D01*
X174647500Y-88011023D01*
X174709855Y-88042546D01*
X174726575Y-88061842D01*
X174856500Y-88247395D01*
X174856505Y-88247401D01*
X175023599Y-88414495D01*
X175120384Y-88482265D01*
X175217165Y-88550032D01*
X175217167Y-88550033D01*
X175217170Y-88550035D01*
X175431337Y-88649903D01*
X175659592Y-88711063D01*
X175830319Y-88726000D01*
X175894999Y-88731659D01*
X175895000Y-88731659D01*
X175895001Y-88731659D01*
X175959681Y-88726000D01*
X176130408Y-88711063D01*
X176358663Y-88649903D01*
X176572830Y-88550035D01*
X176766401Y-88414495D01*
X176933495Y-88247401D01*
X177063425Y-88061842D01*
X177118002Y-88018217D01*
X177187500Y-88011023D01*
X177249855Y-88042546D01*
X177266575Y-88061842D01*
X177396500Y-88247395D01*
X177396505Y-88247401D01*
X177563599Y-88414495D01*
X177660384Y-88482265D01*
X177757165Y-88550032D01*
X177757167Y-88550033D01*
X177757170Y-88550035D01*
X177971337Y-88649903D01*
X178199592Y-88711063D01*
X178370319Y-88726000D01*
X178434999Y-88731659D01*
X178435000Y-88731659D01*
X178435001Y-88731659D01*
X178499681Y-88726000D01*
X178670408Y-88711063D01*
X178898663Y-88649903D01*
X179112830Y-88550035D01*
X179306401Y-88414495D01*
X179428717Y-88292178D01*
X179490036Y-88258696D01*
X179559728Y-88263680D01*
X179615662Y-88305551D01*
X179632577Y-88336528D01*
X179681646Y-88468088D01*
X179681649Y-88468093D01*
X179767809Y-88583187D01*
X179767812Y-88583190D01*
X179882906Y-88669350D01*
X179882913Y-88669354D01*
X180017620Y-88719596D01*
X180017627Y-88719598D01*
X180077155Y-88725999D01*
X180077172Y-88726000D01*
X180725000Y-88726000D01*
X180725000Y-87820560D01*
X180778147Y-87851245D01*
X180907857Y-87886000D01*
X181042143Y-87886000D01*
X181171853Y-87851245D01*
X181225000Y-87820560D01*
X181225000Y-88726000D01*
X181872828Y-88726000D01*
X181872844Y-88725999D01*
X181932372Y-88719598D01*
X181932379Y-88719596D01*
X182067086Y-88669354D01*
X182067093Y-88669350D01*
X182182187Y-88583190D01*
X182182190Y-88583187D01*
X182268350Y-88468093D01*
X182268354Y-88468086D01*
X182317422Y-88336529D01*
X182359293Y-88280595D01*
X182424757Y-88256178D01*
X182493030Y-88271030D01*
X182521285Y-88292181D01*
X182643599Y-88414495D01*
X182740384Y-88482265D01*
X182837165Y-88550032D01*
X182837167Y-88550033D01*
X182837170Y-88550035D01*
X183051337Y-88649903D01*
X183279592Y-88711063D01*
X183450319Y-88726000D01*
X183514999Y-88731659D01*
X183515000Y-88731659D01*
X183515001Y-88731659D01*
X183579681Y-88726000D01*
X183750408Y-88711063D01*
X183978663Y-88649903D01*
X184192830Y-88550035D01*
X184386401Y-88414495D01*
X184553495Y-88247401D01*
X184683425Y-88061842D01*
X184738002Y-88018217D01*
X184807500Y-88011023D01*
X184869855Y-88042546D01*
X184886575Y-88061842D01*
X185016500Y-88247395D01*
X185016505Y-88247401D01*
X185183599Y-88414495D01*
X185280384Y-88482265D01*
X185377165Y-88550032D01*
X185377167Y-88550033D01*
X185377170Y-88550035D01*
X185591337Y-88649903D01*
X185819592Y-88711063D01*
X185990319Y-88726000D01*
X186054999Y-88731659D01*
X186055000Y-88731659D01*
X186055001Y-88731659D01*
X186119681Y-88726000D01*
X186290408Y-88711063D01*
X186518663Y-88649903D01*
X186732830Y-88550035D01*
X186926401Y-88414495D01*
X187093495Y-88247401D01*
X187223425Y-88061842D01*
X187278002Y-88018217D01*
X187347500Y-88011023D01*
X187409855Y-88042546D01*
X187426575Y-88061842D01*
X187556500Y-88247395D01*
X187556505Y-88247401D01*
X187723599Y-88414495D01*
X187820384Y-88482265D01*
X187917165Y-88550032D01*
X187917167Y-88550033D01*
X187917170Y-88550035D01*
X188131337Y-88649903D01*
X188359592Y-88711063D01*
X188530319Y-88726000D01*
X188594999Y-88731659D01*
X188595000Y-88731659D01*
X188595001Y-88731659D01*
X188659681Y-88726000D01*
X188830408Y-88711063D01*
X189058663Y-88649903D01*
X189272830Y-88550035D01*
X189466401Y-88414495D01*
X189633495Y-88247401D01*
X189763425Y-88061842D01*
X189818002Y-88018217D01*
X189887500Y-88011023D01*
X189949855Y-88042546D01*
X189966575Y-88061842D01*
X190096500Y-88247395D01*
X190096505Y-88247401D01*
X190263599Y-88414495D01*
X190360384Y-88482265D01*
X190457165Y-88550032D01*
X190457167Y-88550033D01*
X190457170Y-88550035D01*
X190671337Y-88649903D01*
X190899592Y-88711063D01*
X191070319Y-88726000D01*
X191134999Y-88731659D01*
X191135000Y-88731659D01*
X191135001Y-88731659D01*
X191199681Y-88726000D01*
X191370408Y-88711063D01*
X191598663Y-88649903D01*
X191812830Y-88550035D01*
X192006401Y-88414495D01*
X192128717Y-88292178D01*
X192190036Y-88258696D01*
X192259728Y-88263680D01*
X192315662Y-88305551D01*
X192332577Y-88336528D01*
X192381646Y-88468088D01*
X192381649Y-88468093D01*
X192467809Y-88583187D01*
X192467812Y-88583190D01*
X192582906Y-88669350D01*
X192582913Y-88669354D01*
X192717620Y-88719596D01*
X192717627Y-88719598D01*
X192777155Y-88725999D01*
X192777172Y-88726000D01*
X193425000Y-88726000D01*
X193425000Y-87820560D01*
X193478147Y-87851245D01*
X193607857Y-87886000D01*
X193742143Y-87886000D01*
X193871853Y-87851245D01*
X193925000Y-87820560D01*
X193925000Y-88726000D01*
X194572828Y-88726000D01*
X194572844Y-88725999D01*
X194632372Y-88719598D01*
X194632379Y-88719596D01*
X194767086Y-88669354D01*
X194767093Y-88669350D01*
X194882187Y-88583190D01*
X194882190Y-88583187D01*
X194968350Y-88468093D01*
X194968354Y-88468086D01*
X195017422Y-88336529D01*
X195059293Y-88280595D01*
X195124757Y-88256178D01*
X195193030Y-88271030D01*
X195221285Y-88292181D01*
X195343599Y-88414495D01*
X195440384Y-88482265D01*
X195537165Y-88550032D01*
X195537167Y-88550033D01*
X195537170Y-88550035D01*
X195751337Y-88649903D01*
X195979592Y-88711063D01*
X196150319Y-88726000D01*
X196214999Y-88731659D01*
X196215000Y-88731659D01*
X196215001Y-88731659D01*
X196279681Y-88726000D01*
X196450408Y-88711063D01*
X196678663Y-88649903D01*
X196892830Y-88550035D01*
X197086401Y-88414495D01*
X197253495Y-88247401D01*
X197383425Y-88061842D01*
X197438002Y-88018217D01*
X197507500Y-88011023D01*
X197569855Y-88042546D01*
X197586575Y-88061842D01*
X197716500Y-88247395D01*
X197716505Y-88247401D01*
X197883599Y-88414495D01*
X197980384Y-88482265D01*
X198077165Y-88550032D01*
X198077167Y-88550033D01*
X198077170Y-88550035D01*
X198291337Y-88649903D01*
X198519592Y-88711063D01*
X198690319Y-88726000D01*
X198754999Y-88731659D01*
X198755000Y-88731659D01*
X198755001Y-88731659D01*
X198819681Y-88726000D01*
X198990408Y-88711063D01*
X199218663Y-88649903D01*
X199432830Y-88550035D01*
X199626401Y-88414495D01*
X199793495Y-88247401D01*
X199923425Y-88061842D01*
X199978002Y-88018217D01*
X200047500Y-88011023D01*
X200109855Y-88042546D01*
X200126575Y-88061842D01*
X200256500Y-88247395D01*
X200256505Y-88247401D01*
X200423599Y-88414495D01*
X200520384Y-88482265D01*
X200617165Y-88550032D01*
X200617167Y-88550033D01*
X200617170Y-88550035D01*
X200831337Y-88649903D01*
X201059592Y-88711063D01*
X201230319Y-88726000D01*
X201294999Y-88731659D01*
X201295000Y-88731659D01*
X201295001Y-88731659D01*
X201359681Y-88726000D01*
X201530408Y-88711063D01*
X201758663Y-88649903D01*
X201972830Y-88550035D01*
X202166401Y-88414495D01*
X202333495Y-88247401D01*
X202463425Y-88061842D01*
X202518002Y-88018217D01*
X202587500Y-88011023D01*
X202649855Y-88042546D01*
X202666575Y-88061842D01*
X202796500Y-88247395D01*
X202796505Y-88247401D01*
X202963599Y-88414495D01*
X203060384Y-88482265D01*
X203157165Y-88550032D01*
X203157167Y-88550033D01*
X203157170Y-88550035D01*
X203371337Y-88649903D01*
X203599592Y-88711063D01*
X203770319Y-88726000D01*
X203834999Y-88731659D01*
X203835000Y-88731659D01*
X203835001Y-88731659D01*
X203899681Y-88726000D01*
X204070408Y-88711063D01*
X204298663Y-88649903D01*
X204512830Y-88550035D01*
X204706401Y-88414495D01*
X204828717Y-88292178D01*
X204890036Y-88258696D01*
X204959728Y-88263680D01*
X205015662Y-88305551D01*
X205032577Y-88336528D01*
X205081646Y-88468088D01*
X205081649Y-88468093D01*
X205167809Y-88583187D01*
X205167812Y-88583190D01*
X205282906Y-88669350D01*
X205282913Y-88669354D01*
X205417620Y-88719596D01*
X205417627Y-88719598D01*
X205477155Y-88725999D01*
X205477172Y-88726000D01*
X206125000Y-88726000D01*
X206125000Y-87820560D01*
X206178147Y-87851245D01*
X206307857Y-87886000D01*
X206442143Y-87886000D01*
X206571853Y-87851245D01*
X206625000Y-87820560D01*
X206625000Y-88726000D01*
X207272828Y-88726000D01*
X207272844Y-88725999D01*
X207332372Y-88719598D01*
X207332379Y-88719596D01*
X207467086Y-88669354D01*
X207467093Y-88669350D01*
X207582187Y-88583190D01*
X207582190Y-88583187D01*
X207668350Y-88468093D01*
X207668354Y-88468086D01*
X207717422Y-88336529D01*
X207759293Y-88280595D01*
X207824757Y-88256178D01*
X207893030Y-88271030D01*
X207921285Y-88292181D01*
X208043599Y-88414495D01*
X208140384Y-88482265D01*
X208237165Y-88550032D01*
X208237167Y-88550033D01*
X208237170Y-88550035D01*
X208451337Y-88649903D01*
X208679592Y-88711063D01*
X208850319Y-88726000D01*
X208914999Y-88731659D01*
X208915000Y-88731659D01*
X208915001Y-88731659D01*
X208979681Y-88726000D01*
X209150408Y-88711063D01*
X209378663Y-88649903D01*
X209592830Y-88550035D01*
X209786401Y-88414495D01*
X209953495Y-88247401D01*
X210083425Y-88061842D01*
X210138002Y-88018217D01*
X210207500Y-88011023D01*
X210269855Y-88042546D01*
X210286575Y-88061842D01*
X210416500Y-88247395D01*
X210416505Y-88247401D01*
X210583599Y-88414495D01*
X210680384Y-88482265D01*
X210777165Y-88550032D01*
X210777167Y-88550033D01*
X210777170Y-88550035D01*
X210991337Y-88649903D01*
X211219592Y-88711063D01*
X211390319Y-88726000D01*
X211454999Y-88731659D01*
X211455000Y-88731659D01*
X211455001Y-88731659D01*
X211519681Y-88726000D01*
X211690408Y-88711063D01*
X211918663Y-88649903D01*
X212132830Y-88550035D01*
X212326401Y-88414495D01*
X212493495Y-88247401D01*
X212629035Y-88053830D01*
X212632140Y-88049396D01*
X212633465Y-88050324D01*
X212678675Y-88007214D01*
X212747282Y-87993988D01*
X212812148Y-88019953D01*
X212852678Y-88076866D01*
X212859500Y-88117427D01*
X212859500Y-137245428D01*
X212839815Y-137312467D01*
X212787011Y-137358222D01*
X212717853Y-137368166D01*
X212654297Y-137339141D01*
X212616523Y-137280363D01*
X212613698Y-137268673D01*
X212596012Y-137175957D01*
X212499414Y-136878659D01*
X212366316Y-136595812D01*
X212291937Y-136478609D01*
X212198820Y-136331880D01*
X212186314Y-136316763D01*
X211999560Y-136091015D01*
X211771685Y-135877027D01*
X211771683Y-135877025D01*
X211518791Y-135693288D01*
X211518781Y-135693282D01*
X211244855Y-135542690D01*
X211244847Y-135542686D01*
X210954213Y-135427616D01*
X210954210Y-135427615D01*
X210651435Y-135349876D01*
X210651422Y-135349874D01*
X210341310Y-135310697D01*
X210341299Y-135310697D01*
X210028701Y-135310697D01*
X210028689Y-135310697D01*
X209718577Y-135349874D01*
X209718564Y-135349876D01*
X209415789Y-135427615D01*
X209415786Y-135427616D01*
X209125152Y-135542686D01*
X209125144Y-135542690D01*
X208851218Y-135693282D01*
X208851208Y-135693288D01*
X208598316Y-135877025D01*
X208598313Y-135877028D01*
X208370442Y-136091013D01*
X208171179Y-136331880D01*
X208003685Y-136595809D01*
X208003682Y-136595815D01*
X207870588Y-136878652D01*
X207870586Y-136878657D01*
X207773989Y-137175952D01*
X207715412Y-137483022D01*
X207715411Y-137483029D01*
X207695785Y-137794994D01*
X207695785Y-137795005D01*
X207715411Y-138106970D01*
X207715412Y-138106977D01*
X207715413Y-138106981D01*
X207764462Y-138364108D01*
X207773989Y-138414047D01*
X207870586Y-138711342D01*
X207870588Y-138711347D01*
X208003682Y-138994184D01*
X208003685Y-138994190D01*
X208171179Y-139258119D01*
X208171182Y-139258123D01*
X208171183Y-139258124D01*
X208370440Y-139498985D01*
X208598315Y-139712973D01*
X208851212Y-139896714D01*
X209116733Y-140042685D01*
X209125144Y-140047309D01*
X209125152Y-140047313D01*
X209415786Y-140162383D01*
X209415789Y-140162384D01*
X209661206Y-140225396D01*
X209721244Y-140261134D01*
X209752430Y-140323658D01*
X209744862Y-140393116D01*
X209700944Y-140447457D01*
X209634618Y-140469427D01*
X209630369Y-140469500D01*
X123109631Y-140469500D01*
X123042592Y-140449815D01*
X122996837Y-140397011D01*
X122986893Y-140327853D01*
X123015918Y-140264297D01*
X123074696Y-140226523D01*
X123078794Y-140225396D01*
X123324210Y-140162384D01*
X123324213Y-140162383D01*
X123614847Y-140047313D01*
X123614851Y-140047310D01*
X123614856Y-140047309D01*
X123888788Y-139896714D01*
X124141685Y-139712973D01*
X124369560Y-139498985D01*
X124568817Y-139258124D01*
X124736316Y-138994188D01*
X124869414Y-138711341D01*
X124966012Y-138414043D01*
X125024587Y-138106981D01*
X125044215Y-137795000D01*
X125024587Y-137483019D01*
X124966012Y-137175957D01*
X124869414Y-136878659D01*
X124736316Y-136595812D01*
X124661937Y-136478609D01*
X124568820Y-136331880D01*
X124556314Y-136316763D01*
X124369560Y-136091015D01*
X124141685Y-135877027D01*
X124141683Y-135877025D01*
X123888791Y-135693288D01*
X123888781Y-135693282D01*
X123614855Y-135542690D01*
X123614847Y-135542686D01*
X123324213Y-135427616D01*
X123324210Y-135427615D01*
X123021435Y-135349876D01*
X123021422Y-135349874D01*
X122711310Y-135310697D01*
X122711299Y-135310697D01*
X122398701Y-135310697D01*
X122398689Y-135310697D01*
X122088577Y-135349874D01*
X122088564Y-135349876D01*
X121785789Y-135427615D01*
X121785786Y-135427616D01*
X121495152Y-135542686D01*
X121495144Y-135542690D01*
X121221218Y-135693282D01*
X121221208Y-135693288D01*
X120968316Y-135877025D01*
X120968313Y-135877028D01*
X120740442Y-136091013D01*
X120541179Y-136331880D01*
X120373685Y-136595809D01*
X120373682Y-136595815D01*
X120240588Y-136878652D01*
X120240586Y-136878657D01*
X120143989Y-137175952D01*
X120143988Y-137175956D01*
X120143988Y-137175957D01*
X120126303Y-137268664D01*
X120094406Y-137330827D01*
X120033963Y-137365877D01*
X119964167Y-137362685D01*
X119907175Y-137322265D01*
X119881084Y-137257450D01*
X119880500Y-137245428D01*
X119880500Y-135218994D01*
X131365859Y-135218994D01*
X131365859Y-135219005D01*
X131386385Y-135466729D01*
X131386387Y-135466738D01*
X131447412Y-135707717D01*
X131547266Y-135935364D01*
X131647564Y-136088882D01*
X132347212Y-135389234D01*
X132358482Y-135431292D01*
X132430890Y-135556708D01*
X132533292Y-135659110D01*
X132658708Y-135731518D01*
X132700765Y-135742787D01*
X132000942Y-136442609D01*
X132047768Y-136479055D01*
X132047770Y-136479056D01*
X132266385Y-136597364D01*
X132266396Y-136597369D01*
X132501506Y-136678083D01*
X132746707Y-136719000D01*
X132995293Y-136719000D01*
X133240493Y-136678083D01*
X133475603Y-136597369D01*
X133475614Y-136597364D01*
X133694228Y-136479057D01*
X133694231Y-136479055D01*
X133741056Y-136442609D01*
X133041234Y-135742787D01*
X133083292Y-135731518D01*
X133208708Y-135659110D01*
X133311110Y-135556708D01*
X133383518Y-135431292D01*
X133394787Y-135389235D01*
X134094434Y-136088882D01*
X134194731Y-135935369D01*
X134294587Y-135707717D01*
X134355612Y-135466738D01*
X134355614Y-135466729D01*
X134376141Y-135219005D01*
X134376141Y-135218994D01*
X137865859Y-135218994D01*
X137865859Y-135219005D01*
X137886385Y-135466729D01*
X137886387Y-135466738D01*
X137947412Y-135707717D01*
X138047266Y-135935364D01*
X138147564Y-136088882D01*
X138847212Y-135389234D01*
X138858482Y-135431292D01*
X138930890Y-135556708D01*
X139033292Y-135659110D01*
X139158708Y-135731518D01*
X139200765Y-135742787D01*
X138500942Y-136442609D01*
X138547768Y-136479055D01*
X138547770Y-136479056D01*
X138766385Y-136597364D01*
X138766396Y-136597369D01*
X139001506Y-136678083D01*
X139246707Y-136719000D01*
X139495293Y-136719000D01*
X139740493Y-136678083D01*
X139975603Y-136597369D01*
X139975614Y-136597364D01*
X140194228Y-136479057D01*
X140194231Y-136479055D01*
X140241056Y-136442609D01*
X139541234Y-135742787D01*
X139583292Y-135731518D01*
X139708708Y-135659110D01*
X139811110Y-135556708D01*
X139883518Y-135431292D01*
X139894787Y-135389235D01*
X140594434Y-136088882D01*
X140694731Y-135935369D01*
X140794587Y-135707717D01*
X140855612Y-135466738D01*
X140855614Y-135466729D01*
X140873159Y-135254994D01*
X145589859Y-135254994D01*
X145589859Y-135255005D01*
X145610385Y-135502729D01*
X145610387Y-135502738D01*
X145671412Y-135743717D01*
X145771266Y-135971364D01*
X145871564Y-136124882D01*
X146571212Y-135425234D01*
X146582482Y-135467292D01*
X146654890Y-135592708D01*
X146757292Y-135695110D01*
X146882708Y-135767518D01*
X146924765Y-135778787D01*
X146224942Y-136478609D01*
X146271768Y-136515055D01*
X146271770Y-136515056D01*
X146490385Y-136633364D01*
X146490396Y-136633369D01*
X146725506Y-136714083D01*
X146970707Y-136755000D01*
X147219293Y-136755000D01*
X147464493Y-136714083D01*
X147699603Y-136633369D01*
X147699614Y-136633364D01*
X147918228Y-136515057D01*
X147918231Y-136515055D01*
X147965056Y-136478609D01*
X147265234Y-135778787D01*
X147307292Y-135767518D01*
X147432708Y-135695110D01*
X147535110Y-135592708D01*
X147607518Y-135467292D01*
X147618787Y-135425235D01*
X148318434Y-136124882D01*
X148418731Y-135971369D01*
X148518587Y-135743717D01*
X148579612Y-135502738D01*
X148579614Y-135502729D01*
X148600141Y-135255005D01*
X148600141Y-135254994D01*
X152089859Y-135254994D01*
X152089859Y-135255005D01*
X152110385Y-135502729D01*
X152110387Y-135502738D01*
X152171412Y-135743717D01*
X152271266Y-135971364D01*
X152371564Y-136124882D01*
X153071212Y-135425234D01*
X153082482Y-135467292D01*
X153154890Y-135592708D01*
X153257292Y-135695110D01*
X153382708Y-135767518D01*
X153424765Y-135778787D01*
X152724942Y-136478609D01*
X152771768Y-136515055D01*
X152771770Y-136515056D01*
X152990385Y-136633364D01*
X152990396Y-136633369D01*
X153225506Y-136714083D01*
X153470707Y-136755000D01*
X153719293Y-136755000D01*
X153964493Y-136714083D01*
X154199603Y-136633369D01*
X154199614Y-136633364D01*
X154418228Y-136515057D01*
X154418231Y-136515055D01*
X154465056Y-136478609D01*
X153765234Y-135778787D01*
X153807292Y-135767518D01*
X153932708Y-135695110D01*
X154035110Y-135592708D01*
X154107518Y-135467292D01*
X154118787Y-135425235D01*
X154818434Y-136124882D01*
X154918731Y-135971369D01*
X155018587Y-135743717D01*
X155079612Y-135502738D01*
X155079614Y-135502729D01*
X155097159Y-135290994D01*
X160471859Y-135290994D01*
X160471859Y-135291005D01*
X160492385Y-135538729D01*
X160492387Y-135538738D01*
X160553412Y-135779717D01*
X160653266Y-136007364D01*
X160753564Y-136160882D01*
X161453212Y-135461234D01*
X161464482Y-135503292D01*
X161536890Y-135628708D01*
X161639292Y-135731110D01*
X161764708Y-135803518D01*
X161806765Y-135814787D01*
X161106942Y-136514609D01*
X161153768Y-136551055D01*
X161153770Y-136551056D01*
X161372385Y-136669364D01*
X161372396Y-136669369D01*
X161607506Y-136750083D01*
X161852707Y-136791000D01*
X162101293Y-136791000D01*
X162346493Y-136750083D01*
X162581603Y-136669369D01*
X162581614Y-136669364D01*
X162800228Y-136551057D01*
X162800231Y-136551055D01*
X162847056Y-136514609D01*
X162147234Y-135814787D01*
X162189292Y-135803518D01*
X162314708Y-135731110D01*
X162417110Y-135628708D01*
X162489518Y-135503292D01*
X162500787Y-135461235D01*
X163200434Y-136160882D01*
X163300731Y-136007369D01*
X163400587Y-135779717D01*
X163461612Y-135538738D01*
X163461614Y-135538729D01*
X163482141Y-135291005D01*
X163482141Y-135290994D01*
X166971859Y-135290994D01*
X166971859Y-135291005D01*
X166992385Y-135538729D01*
X166992387Y-135538738D01*
X167053412Y-135779717D01*
X167153266Y-136007364D01*
X167253564Y-136160882D01*
X167953212Y-135461234D01*
X167964482Y-135503292D01*
X168036890Y-135628708D01*
X168139292Y-135731110D01*
X168264708Y-135803518D01*
X168306765Y-135814787D01*
X167606942Y-136514609D01*
X167653768Y-136551055D01*
X167653770Y-136551056D01*
X167872385Y-136669364D01*
X167872396Y-136669369D01*
X168107506Y-136750083D01*
X168352707Y-136791000D01*
X168601293Y-136791000D01*
X168846493Y-136750083D01*
X169081603Y-136669369D01*
X169081614Y-136669364D01*
X169300228Y-136551057D01*
X169300231Y-136551055D01*
X169347056Y-136514609D01*
X168647234Y-135814787D01*
X168689292Y-135803518D01*
X168814708Y-135731110D01*
X168917110Y-135628708D01*
X168989518Y-135503292D01*
X169000787Y-135461235D01*
X169700434Y-136160882D01*
X169800731Y-136007369D01*
X169900587Y-135779717D01*
X169961612Y-135538738D01*
X169961614Y-135538729D01*
X169982141Y-135291005D01*
X169982141Y-135290994D01*
X169979158Y-135254994D01*
X175763859Y-135254994D01*
X175763859Y-135255005D01*
X175784385Y-135502729D01*
X175784387Y-135502738D01*
X175845412Y-135743717D01*
X175945266Y-135971364D01*
X176045564Y-136124882D01*
X176745212Y-135425234D01*
X176756482Y-135467292D01*
X176828890Y-135592708D01*
X176931292Y-135695110D01*
X177056708Y-135767518D01*
X177098765Y-135778787D01*
X176398942Y-136478609D01*
X176445768Y-136515055D01*
X176445770Y-136515056D01*
X176664385Y-136633364D01*
X176664396Y-136633369D01*
X176899506Y-136714083D01*
X177144707Y-136755000D01*
X177393293Y-136755000D01*
X177638493Y-136714083D01*
X177873603Y-136633369D01*
X177873614Y-136633364D01*
X178092228Y-136515057D01*
X178092231Y-136515055D01*
X178139056Y-136478609D01*
X177439234Y-135778787D01*
X177481292Y-135767518D01*
X177606708Y-135695110D01*
X177709110Y-135592708D01*
X177781518Y-135467292D01*
X177792787Y-135425235D01*
X178492434Y-136124882D01*
X178592731Y-135971369D01*
X178692587Y-135743717D01*
X178753612Y-135502738D01*
X178753614Y-135502729D01*
X178774141Y-135255005D01*
X178774141Y-135254994D01*
X182263859Y-135254994D01*
X182263859Y-135255005D01*
X182284385Y-135502729D01*
X182284387Y-135502738D01*
X182345412Y-135743717D01*
X182445266Y-135971364D01*
X182545564Y-136124882D01*
X183245212Y-135425234D01*
X183256482Y-135467292D01*
X183328890Y-135592708D01*
X183431292Y-135695110D01*
X183556708Y-135767518D01*
X183598765Y-135778787D01*
X182898942Y-136478609D01*
X182945768Y-136515055D01*
X182945770Y-136515056D01*
X183164385Y-136633364D01*
X183164396Y-136633369D01*
X183399506Y-136714083D01*
X183644707Y-136755000D01*
X183893293Y-136755000D01*
X184138493Y-136714083D01*
X184373603Y-136633369D01*
X184373614Y-136633364D01*
X184592228Y-136515057D01*
X184592231Y-136515055D01*
X184639056Y-136478609D01*
X183939234Y-135778787D01*
X183981292Y-135767518D01*
X184106708Y-135695110D01*
X184209110Y-135592708D01*
X184281518Y-135467292D01*
X184292787Y-135425234D01*
X184992434Y-136124882D01*
X185092731Y-135971369D01*
X185192587Y-135743717D01*
X185253612Y-135502738D01*
X185253614Y-135502729D01*
X185271159Y-135290994D01*
X191713859Y-135290994D01*
X191713859Y-135291005D01*
X191734385Y-135538729D01*
X191734387Y-135538738D01*
X191795412Y-135779717D01*
X191895266Y-136007364D01*
X191995564Y-136160882D01*
X192695212Y-135461234D01*
X192706482Y-135503292D01*
X192778890Y-135628708D01*
X192881292Y-135731110D01*
X193006708Y-135803518D01*
X193048765Y-135814787D01*
X192348942Y-136514609D01*
X192395768Y-136551055D01*
X192395770Y-136551056D01*
X192614385Y-136669364D01*
X192614396Y-136669369D01*
X192849506Y-136750083D01*
X193094707Y-136791000D01*
X193343293Y-136791000D01*
X193588493Y-136750083D01*
X193823603Y-136669369D01*
X193823614Y-136669364D01*
X194042228Y-136551057D01*
X194042231Y-136551055D01*
X194089056Y-136514609D01*
X193389234Y-135814787D01*
X193431292Y-135803518D01*
X193556708Y-135731110D01*
X193659110Y-135628708D01*
X193731518Y-135503292D01*
X193742787Y-135461235D01*
X194442434Y-136160882D01*
X194542731Y-136007369D01*
X194642587Y-135779717D01*
X194703612Y-135538738D01*
X194703614Y-135538729D01*
X194724141Y-135291005D01*
X194724141Y-135290994D01*
X198213859Y-135290994D01*
X198213859Y-135291005D01*
X198234385Y-135538729D01*
X198234387Y-135538738D01*
X198295412Y-135779717D01*
X198395266Y-136007364D01*
X198495564Y-136160882D01*
X199195212Y-135461234D01*
X199206482Y-135503292D01*
X199278890Y-135628708D01*
X199381292Y-135731110D01*
X199506708Y-135803518D01*
X199548765Y-135814787D01*
X198848942Y-136514609D01*
X198895768Y-136551055D01*
X198895770Y-136551056D01*
X199114385Y-136669364D01*
X199114396Y-136669369D01*
X199349506Y-136750083D01*
X199594707Y-136791000D01*
X199843293Y-136791000D01*
X200088493Y-136750083D01*
X200323603Y-136669369D01*
X200323614Y-136669364D01*
X200542228Y-136551057D01*
X200542231Y-136551055D01*
X200589056Y-136514609D01*
X199889234Y-135814787D01*
X199931292Y-135803518D01*
X200056708Y-135731110D01*
X200159110Y-135628708D01*
X200231518Y-135503292D01*
X200242787Y-135461235D01*
X200942434Y-136160882D01*
X201042731Y-136007369D01*
X201142587Y-135779717D01*
X201203612Y-135538738D01*
X201203614Y-135538729D01*
X201224141Y-135291005D01*
X201224141Y-135290994D01*
X201203614Y-135043270D01*
X201203612Y-135043261D01*
X201142587Y-134802282D01*
X201042731Y-134574630D01*
X200942434Y-134421116D01*
X200242786Y-135120763D01*
X200231518Y-135078708D01*
X200159110Y-134953292D01*
X200056708Y-134850890D01*
X199931292Y-134778482D01*
X199889235Y-134767212D01*
X200589057Y-134067390D01*
X200589056Y-134067389D01*
X200542229Y-134030943D01*
X200323614Y-133912635D01*
X200323603Y-133912630D01*
X200088493Y-133831916D01*
X199843293Y-133791000D01*
X199594707Y-133791000D01*
X199349506Y-133831916D01*
X199114396Y-133912630D01*
X199114390Y-133912632D01*
X198895761Y-134030949D01*
X198848942Y-134067388D01*
X198848942Y-134067390D01*
X199548765Y-134767212D01*
X199506708Y-134778482D01*
X199381292Y-134850890D01*
X199278890Y-134953292D01*
X199206482Y-135078708D01*
X199195212Y-135120764D01*
X198495564Y-134421116D01*
X198395267Y-134574632D01*
X198295412Y-134802282D01*
X198234387Y-135043261D01*
X198234385Y-135043270D01*
X198213859Y-135290994D01*
X194724141Y-135290994D01*
X194703614Y-135043270D01*
X194703612Y-135043261D01*
X194642587Y-134802282D01*
X194542731Y-134574630D01*
X194442434Y-134421116D01*
X193742787Y-135120764D01*
X193731518Y-135078708D01*
X193659110Y-134953292D01*
X193556708Y-134850890D01*
X193431292Y-134778482D01*
X193389235Y-134767212D01*
X194089057Y-134067390D01*
X194089056Y-134067389D01*
X194042229Y-134030943D01*
X193823614Y-133912635D01*
X193823603Y-133912630D01*
X193588493Y-133831916D01*
X193343293Y-133791000D01*
X193094707Y-133791000D01*
X192849506Y-133831916D01*
X192614396Y-133912630D01*
X192614390Y-133912632D01*
X192395761Y-134030949D01*
X192348942Y-134067388D01*
X192348942Y-134067390D01*
X193048765Y-134767212D01*
X193006708Y-134778482D01*
X192881292Y-134850890D01*
X192778890Y-134953292D01*
X192706482Y-135078708D01*
X192695212Y-135120764D01*
X191995564Y-134421116D01*
X191895267Y-134574632D01*
X191795412Y-134802282D01*
X191734387Y-135043261D01*
X191734385Y-135043270D01*
X191713859Y-135290994D01*
X185271159Y-135290994D01*
X185274141Y-135255005D01*
X185274141Y-135254994D01*
X185253614Y-135007270D01*
X185253612Y-135007261D01*
X185192587Y-134766282D01*
X185092731Y-134538630D01*
X184992434Y-134385116D01*
X184292787Y-135084764D01*
X184281518Y-135042708D01*
X184209110Y-134917292D01*
X184106708Y-134814890D01*
X183981292Y-134742482D01*
X183939235Y-134731212D01*
X184639057Y-134031390D01*
X184639056Y-134031389D01*
X184592229Y-133994943D01*
X184373614Y-133876635D01*
X184373603Y-133876630D01*
X184138493Y-133795916D01*
X183893293Y-133755000D01*
X183644707Y-133755000D01*
X183399506Y-133795916D01*
X183164396Y-133876630D01*
X183164390Y-133876632D01*
X182945761Y-133994949D01*
X182898942Y-134031388D01*
X182898942Y-134031390D01*
X183598765Y-134731212D01*
X183556708Y-134742482D01*
X183431292Y-134814890D01*
X183328890Y-134917292D01*
X183256482Y-135042708D01*
X183245212Y-135084764D01*
X182545564Y-134385116D01*
X182445267Y-134538632D01*
X182345412Y-134766282D01*
X182284387Y-135007261D01*
X182284385Y-135007270D01*
X182263859Y-135254994D01*
X178774141Y-135254994D01*
X178753614Y-135007270D01*
X178753612Y-135007261D01*
X178692587Y-134766282D01*
X178592731Y-134538630D01*
X178492434Y-134385116D01*
X177792787Y-135084764D01*
X177781518Y-135042708D01*
X177709110Y-134917292D01*
X177606708Y-134814890D01*
X177481292Y-134742482D01*
X177439235Y-134731212D01*
X178139057Y-134031390D01*
X178139056Y-134031389D01*
X178092229Y-133994943D01*
X177873614Y-133876635D01*
X177873603Y-133876630D01*
X177638493Y-133795916D01*
X177393293Y-133755000D01*
X177144707Y-133755000D01*
X176899506Y-133795916D01*
X176664396Y-133876630D01*
X176664390Y-133876632D01*
X176445761Y-133994949D01*
X176398942Y-134031388D01*
X176398942Y-134031390D01*
X177098765Y-134731212D01*
X177056708Y-134742482D01*
X176931292Y-134814890D01*
X176828890Y-134917292D01*
X176756482Y-135042708D01*
X176745212Y-135084764D01*
X176045564Y-134385116D01*
X175945267Y-134538632D01*
X175845412Y-134766282D01*
X175784387Y-135007261D01*
X175784385Y-135007270D01*
X175763859Y-135254994D01*
X169979158Y-135254994D01*
X169961614Y-135043270D01*
X169961612Y-135043261D01*
X169900587Y-134802282D01*
X169800731Y-134574630D01*
X169700434Y-134421116D01*
X169000787Y-135120764D01*
X168989518Y-135078708D01*
X168917110Y-134953292D01*
X168814708Y-134850890D01*
X168689292Y-134778482D01*
X168647235Y-134767212D01*
X169347057Y-134067390D01*
X169347056Y-134067389D01*
X169300229Y-134030943D01*
X169081614Y-133912635D01*
X169081603Y-133912630D01*
X168846493Y-133831916D01*
X168601293Y-133791000D01*
X168352707Y-133791000D01*
X168107506Y-133831916D01*
X167872396Y-133912630D01*
X167872390Y-133912632D01*
X167653761Y-134030949D01*
X167606942Y-134067388D01*
X167606942Y-134067390D01*
X168306765Y-134767212D01*
X168264708Y-134778482D01*
X168139292Y-134850890D01*
X168036890Y-134953292D01*
X167964482Y-135078708D01*
X167953212Y-135120764D01*
X167253564Y-134421116D01*
X167153267Y-134574632D01*
X167053412Y-134802282D01*
X166992387Y-135043261D01*
X166992385Y-135043270D01*
X166971859Y-135290994D01*
X163482141Y-135290994D01*
X163461614Y-135043270D01*
X163461612Y-135043261D01*
X163400587Y-134802282D01*
X163300731Y-134574630D01*
X163200434Y-134421116D01*
X162500787Y-135120764D01*
X162489518Y-135078708D01*
X162417110Y-134953292D01*
X162314708Y-134850890D01*
X162189292Y-134778482D01*
X162147235Y-134767212D01*
X162847057Y-134067390D01*
X162847056Y-134067389D01*
X162800229Y-134030943D01*
X162581614Y-133912635D01*
X162581603Y-133912630D01*
X162346493Y-133831916D01*
X162101293Y-133791000D01*
X161852707Y-133791000D01*
X161607506Y-133831916D01*
X161372396Y-133912630D01*
X161372390Y-133912632D01*
X161153761Y-134030949D01*
X161106942Y-134067388D01*
X161106942Y-134067390D01*
X161806765Y-134767212D01*
X161764708Y-134778482D01*
X161639292Y-134850890D01*
X161536890Y-134953292D01*
X161464482Y-135078708D01*
X161453212Y-135120764D01*
X160753564Y-134421116D01*
X160653267Y-134574632D01*
X160553412Y-134802282D01*
X160492387Y-135043261D01*
X160492385Y-135043270D01*
X160471859Y-135290994D01*
X155097159Y-135290994D01*
X155100141Y-135255005D01*
X155100141Y-135254994D01*
X155079614Y-135007270D01*
X155079612Y-135007261D01*
X155018587Y-134766282D01*
X154918731Y-134538630D01*
X154818434Y-134385116D01*
X154118787Y-135084764D01*
X154107518Y-135042708D01*
X154035110Y-134917292D01*
X153932708Y-134814890D01*
X153807292Y-134742482D01*
X153765235Y-134731212D01*
X154465057Y-134031390D01*
X154465056Y-134031389D01*
X154418229Y-133994943D01*
X154199614Y-133876635D01*
X154199603Y-133876630D01*
X153964493Y-133795916D01*
X153719293Y-133755000D01*
X153470707Y-133755000D01*
X153225506Y-133795916D01*
X152990396Y-133876630D01*
X152990390Y-133876632D01*
X152771761Y-133994949D01*
X152724942Y-134031388D01*
X152724942Y-134031390D01*
X153424765Y-134731212D01*
X153382708Y-134742482D01*
X153257292Y-134814890D01*
X153154890Y-134917292D01*
X153082482Y-135042708D01*
X153071212Y-135084764D01*
X152371564Y-134385116D01*
X152271267Y-134538632D01*
X152171412Y-134766282D01*
X152110387Y-135007261D01*
X152110385Y-135007270D01*
X152089859Y-135254994D01*
X148600141Y-135254994D01*
X148579614Y-135007270D01*
X148579612Y-135007261D01*
X148518587Y-134766282D01*
X148418731Y-134538630D01*
X148318434Y-134385116D01*
X147618787Y-135084764D01*
X147607518Y-135042708D01*
X147535110Y-134917292D01*
X147432708Y-134814890D01*
X147307292Y-134742482D01*
X147265235Y-134731212D01*
X147965057Y-134031390D01*
X147965056Y-134031389D01*
X147918229Y-133994943D01*
X147699614Y-133876635D01*
X147699603Y-133876630D01*
X147464493Y-133795916D01*
X147219293Y-133755000D01*
X146970707Y-133755000D01*
X146725506Y-133795916D01*
X146490396Y-133876630D01*
X146490390Y-133876632D01*
X146271761Y-133994949D01*
X146224942Y-134031388D01*
X146224942Y-134031390D01*
X146924765Y-134731212D01*
X146882708Y-134742482D01*
X146757292Y-134814890D01*
X146654890Y-134917292D01*
X146582482Y-135042708D01*
X146571212Y-135084764D01*
X145871564Y-134385116D01*
X145771267Y-134538632D01*
X145671412Y-134766282D01*
X145610387Y-135007261D01*
X145610385Y-135007270D01*
X145589859Y-135254994D01*
X140873159Y-135254994D01*
X140876141Y-135219005D01*
X140876141Y-135218994D01*
X140855614Y-134971270D01*
X140855612Y-134971261D01*
X140794587Y-134730282D01*
X140694731Y-134502630D01*
X140594434Y-134349116D01*
X139894787Y-135048764D01*
X139883518Y-135006708D01*
X139811110Y-134881292D01*
X139708708Y-134778890D01*
X139583292Y-134706482D01*
X139541235Y-134695212D01*
X140241057Y-133995390D01*
X140241056Y-133995389D01*
X140194229Y-133958943D01*
X139975614Y-133840635D01*
X139975603Y-133840630D01*
X139740493Y-133759916D01*
X139495293Y-133719000D01*
X139246707Y-133719000D01*
X139001506Y-133759916D01*
X138766396Y-133840630D01*
X138766390Y-133840632D01*
X138547761Y-133958949D01*
X138500942Y-133995388D01*
X138500942Y-133995390D01*
X139200765Y-134695212D01*
X139158708Y-134706482D01*
X139033292Y-134778890D01*
X138930890Y-134881292D01*
X138858482Y-135006708D01*
X138847212Y-135048764D01*
X138147564Y-134349116D01*
X138047267Y-134502632D01*
X137947412Y-134730282D01*
X137886387Y-134971261D01*
X137886385Y-134971270D01*
X137865859Y-135218994D01*
X134376141Y-135218994D01*
X134355614Y-134971270D01*
X134355612Y-134971261D01*
X134294587Y-134730282D01*
X134194731Y-134502630D01*
X134094434Y-134349116D01*
X133394787Y-135048764D01*
X133383518Y-135006708D01*
X133311110Y-134881292D01*
X133208708Y-134778890D01*
X133083292Y-134706482D01*
X133041235Y-134695212D01*
X133741057Y-133995390D01*
X133741056Y-133995389D01*
X133694229Y-133958943D01*
X133475614Y-133840635D01*
X133475603Y-133840630D01*
X133240493Y-133759916D01*
X132995293Y-133719000D01*
X132746707Y-133719000D01*
X132501506Y-133759916D01*
X132266396Y-133840630D01*
X132266390Y-133840632D01*
X132047761Y-133958949D01*
X132000942Y-133995388D01*
X132000942Y-133995390D01*
X132700765Y-134695212D01*
X132658708Y-134706482D01*
X132533292Y-134778890D01*
X132430890Y-134881292D01*
X132358482Y-135006708D01*
X132347212Y-135048764D01*
X131647564Y-134349116D01*
X131547267Y-134502632D01*
X131447412Y-134730282D01*
X131386387Y-134971261D01*
X131386385Y-134971270D01*
X131365859Y-135218994D01*
X119880500Y-135218994D01*
X119880500Y-126496999D01*
X121580341Y-126496999D01*
X121580341Y-126497000D01*
X121600936Y-126732403D01*
X121600938Y-126732413D01*
X121662094Y-126960655D01*
X121662096Y-126960659D01*
X121662097Y-126960663D01*
X121689107Y-127018586D01*
X121761965Y-127174830D01*
X121761967Y-127174834D01*
X121817400Y-127254000D01*
X121897501Y-127368396D01*
X121897506Y-127368402D01*
X122019430Y-127490326D01*
X122052915Y-127551649D01*
X122047931Y-127621341D01*
X122006059Y-127677274D01*
X121975083Y-127694189D01*
X121843669Y-127743203D01*
X121843664Y-127743206D01*
X121728455Y-127829452D01*
X121728452Y-127829455D01*
X121642206Y-127944664D01*
X121642202Y-127944671D01*
X121591908Y-128079517D01*
X121585501Y-128139116D01*
X121585501Y-128139123D01*
X121585500Y-128139135D01*
X121585500Y-129934870D01*
X121585501Y-129934876D01*
X121591908Y-129994483D01*
X121642202Y-130129328D01*
X121642206Y-130129335D01*
X121728452Y-130244544D01*
X121728455Y-130244547D01*
X121843664Y-130330793D01*
X121843671Y-130330797D01*
X121978517Y-130381091D01*
X121978516Y-130381091D01*
X121985444Y-130381835D01*
X122038127Y-130387500D01*
X123833872Y-130387499D01*
X123893483Y-130381091D01*
X124028331Y-130330796D01*
X124143546Y-130244546D01*
X124229796Y-130129331D01*
X124280091Y-129994483D01*
X124286500Y-129934873D01*
X124286499Y-128139128D01*
X124280091Y-128079517D01*
X124229796Y-127944669D01*
X124229795Y-127944668D01*
X124229793Y-127944664D01*
X124143547Y-127829455D01*
X124143544Y-127829452D01*
X124028335Y-127743206D01*
X124028328Y-127743202D01*
X123896917Y-127694189D01*
X123840983Y-127652318D01*
X123816566Y-127586853D01*
X123831418Y-127518580D01*
X123852563Y-127490332D01*
X123974495Y-127368401D01*
X124110035Y-127174830D01*
X124209903Y-126960663D01*
X124271063Y-126732408D01*
X124291659Y-126497000D01*
X124271063Y-126261592D01*
X124209903Y-126033337D01*
X124110035Y-125819171D01*
X124063351Y-125752498D01*
X123974494Y-125625597D01*
X123807402Y-125458506D01*
X123807395Y-125458501D01*
X123613834Y-125322967D01*
X123613830Y-125322965D01*
X123613828Y-125322964D01*
X123399663Y-125223097D01*
X123399659Y-125223096D01*
X123399655Y-125223094D01*
X123171413Y-125161938D01*
X123171403Y-125161936D01*
X122936001Y-125141341D01*
X122935999Y-125141341D01*
X122700596Y-125161936D01*
X122700586Y-125161938D01*
X122472344Y-125223094D01*
X122472335Y-125223098D01*
X122258171Y-125322964D01*
X122258169Y-125322965D01*
X122064597Y-125458505D01*
X121897505Y-125625597D01*
X121761965Y-125819169D01*
X121761964Y-125819171D01*
X121662098Y-126033335D01*
X121662094Y-126033344D01*
X121600938Y-126261586D01*
X121600936Y-126261596D01*
X121580341Y-126496999D01*
X119880500Y-126496999D01*
X119880500Y-122173999D01*
X125644341Y-122173999D01*
X125644341Y-122174000D01*
X125664936Y-122409403D01*
X125664938Y-122409413D01*
X125726094Y-122637655D01*
X125726096Y-122637659D01*
X125726097Y-122637663D01*
X125758227Y-122706565D01*
X125825965Y-122851830D01*
X125825967Y-122851834D01*
X125961501Y-123045395D01*
X125961506Y-123045402D01*
X126128597Y-123212493D01*
X126128603Y-123212498D01*
X126314158Y-123342425D01*
X126357783Y-123397002D01*
X126364977Y-123466500D01*
X126333454Y-123528855D01*
X126314158Y-123545575D01*
X126128597Y-123675505D01*
X125961505Y-123842597D01*
X125825965Y-124036169D01*
X125825964Y-124036171D01*
X125726098Y-124250335D01*
X125726094Y-124250344D01*
X125664938Y-124478586D01*
X125664936Y-124478596D01*
X125644341Y-124713999D01*
X125644341Y-124714000D01*
X125664936Y-124949403D01*
X125664938Y-124949413D01*
X125726094Y-125177655D01*
X125726096Y-125177659D01*
X125726097Y-125177663D01*
X125747284Y-125223098D01*
X125825965Y-125391830D01*
X125825967Y-125391834D01*
X125961501Y-125585395D01*
X125961506Y-125585402D01*
X126128597Y-125752493D01*
X126128603Y-125752498D01*
X126314158Y-125882425D01*
X126357783Y-125937002D01*
X126364977Y-126006500D01*
X126333454Y-126068855D01*
X126314158Y-126085575D01*
X126128597Y-126215505D01*
X125961505Y-126382597D01*
X125825965Y-126576169D01*
X125825964Y-126576171D01*
X125726098Y-126790335D01*
X125726094Y-126790344D01*
X125664938Y-127018586D01*
X125664936Y-127018596D01*
X125644341Y-127253999D01*
X125644341Y-127254000D01*
X125664936Y-127489403D01*
X125664938Y-127489413D01*
X125726094Y-127717655D01*
X125726096Y-127717659D01*
X125726097Y-127717663D01*
X125738007Y-127743203D01*
X125825965Y-127931830D01*
X125825967Y-127931834D01*
X125961501Y-128125395D01*
X125961506Y-128125402D01*
X126128597Y-128292493D01*
X126128603Y-128292498D01*
X126314158Y-128422425D01*
X126357783Y-128477002D01*
X126364977Y-128546500D01*
X126333454Y-128608855D01*
X126314158Y-128625575D01*
X126128597Y-128755505D01*
X125961505Y-128922597D01*
X125825965Y-129116169D01*
X125825964Y-129116171D01*
X125726098Y-129330335D01*
X125726094Y-129330344D01*
X125664938Y-129558586D01*
X125664936Y-129558596D01*
X125644341Y-129793999D01*
X125644341Y-129794000D01*
X125664936Y-130029403D01*
X125664938Y-130029413D01*
X125726094Y-130257655D01*
X125726096Y-130257659D01*
X125726097Y-130257663D01*
X125760200Y-130330796D01*
X125825965Y-130471830D01*
X125825967Y-130471834D01*
X125934281Y-130626521D01*
X125961501Y-130665396D01*
X125961506Y-130665402D01*
X126083430Y-130787326D01*
X126116915Y-130848649D01*
X126111931Y-130918341D01*
X126070059Y-130974274D01*
X126039083Y-130991189D01*
X125907669Y-131040203D01*
X125907664Y-131040206D01*
X125792455Y-131126452D01*
X125792452Y-131126455D01*
X125706206Y-131241664D01*
X125706202Y-131241671D01*
X125655908Y-131376517D01*
X125649556Y-131435606D01*
X125649501Y-131436123D01*
X125649500Y-131436135D01*
X125649500Y-133231870D01*
X125649501Y-133231876D01*
X125655908Y-133291483D01*
X125706202Y-133426328D01*
X125706206Y-133426335D01*
X125792452Y-133541544D01*
X125792455Y-133541547D01*
X125907664Y-133627793D01*
X125907671Y-133627797D01*
X126042517Y-133678091D01*
X126042516Y-133678091D01*
X126049444Y-133678835D01*
X126102127Y-133684500D01*
X127897872Y-133684499D01*
X127957483Y-133678091D01*
X128092331Y-133627796D01*
X128207546Y-133541546D01*
X128293796Y-133426331D01*
X128344091Y-133291483D01*
X128350500Y-133231873D01*
X128350499Y-131436128D01*
X128344091Y-131376517D01*
X128293796Y-131241669D01*
X128293795Y-131241668D01*
X128293793Y-131241664D01*
X128207547Y-131126455D01*
X128207544Y-131126452D01*
X128092335Y-131040206D01*
X128092328Y-131040202D01*
X127960917Y-130991189D01*
X127904983Y-130949318D01*
X127880566Y-130883853D01*
X127895418Y-130815580D01*
X127916563Y-130787332D01*
X127984902Y-130718994D01*
X131365357Y-130718994D01*
X131365357Y-130719005D01*
X131385890Y-130966812D01*
X131385892Y-130966824D01*
X131446936Y-131207881D01*
X131546826Y-131435606D01*
X131682833Y-131643782D01*
X131682836Y-131643785D01*
X131851256Y-131826738D01*
X132047491Y-131979474D01*
X132266190Y-132097828D01*
X132501386Y-132178571D01*
X132746665Y-132219500D01*
X132995335Y-132219500D01*
X133240614Y-132178571D01*
X133475810Y-132097828D01*
X133694509Y-131979474D01*
X133890744Y-131826738D01*
X134059164Y-131643785D01*
X134195173Y-131435607D01*
X134295063Y-131207881D01*
X134356108Y-130966821D01*
X134356109Y-130966812D01*
X134376643Y-130719005D01*
X134376643Y-130718994D01*
X137865357Y-130718994D01*
X137865357Y-130719005D01*
X137885890Y-130966812D01*
X137885892Y-130966824D01*
X137946936Y-131207881D01*
X138046826Y-131435606D01*
X138182833Y-131643782D01*
X138182836Y-131643785D01*
X138351256Y-131826738D01*
X138547491Y-131979474D01*
X138766190Y-132097828D01*
X139001386Y-132178571D01*
X139246665Y-132219500D01*
X139495335Y-132219500D01*
X139740614Y-132178571D01*
X139975810Y-132097828D01*
X140194509Y-131979474D01*
X140390744Y-131826738D01*
X140559164Y-131643785D01*
X140695173Y-131435607D01*
X140795063Y-131207881D01*
X140856108Y-130966821D01*
X140856109Y-130966812D01*
X140873661Y-130754994D01*
X145589357Y-130754994D01*
X145589357Y-130755005D01*
X145609890Y-131002812D01*
X145609892Y-131002824D01*
X145670936Y-131243881D01*
X145770826Y-131471606D01*
X145906833Y-131679782D01*
X145906836Y-131679785D01*
X146075256Y-131862738D01*
X146271491Y-132015474D01*
X146271493Y-132015475D01*
X146423671Y-132097830D01*
X146490190Y-132133828D01*
X146725386Y-132214571D01*
X146970665Y-132255500D01*
X147219335Y-132255500D01*
X147464614Y-132214571D01*
X147699810Y-132133828D01*
X147918509Y-132015474D01*
X148114744Y-131862738D01*
X148283164Y-131679785D01*
X148419173Y-131471607D01*
X148519063Y-131243881D01*
X148580108Y-131002821D01*
X148581709Y-130983500D01*
X148600643Y-130755005D01*
X148600643Y-130754994D01*
X152089357Y-130754994D01*
X152089357Y-130755005D01*
X152109890Y-131002812D01*
X152109892Y-131002824D01*
X152170936Y-131243881D01*
X152270826Y-131471606D01*
X152406833Y-131679782D01*
X152406836Y-131679785D01*
X152575256Y-131862738D01*
X152771491Y-132015474D01*
X152771493Y-132015475D01*
X152923671Y-132097830D01*
X152990190Y-132133828D01*
X153225386Y-132214571D01*
X153470665Y-132255500D01*
X153719335Y-132255500D01*
X153964614Y-132214571D01*
X154199810Y-132133828D01*
X154418509Y-132015474D01*
X154614744Y-131862738D01*
X154783164Y-131679785D01*
X154919173Y-131471607D01*
X155019063Y-131243881D01*
X155080108Y-131002821D01*
X155081709Y-130983500D01*
X155097661Y-130790994D01*
X160471357Y-130790994D01*
X160471357Y-130791005D01*
X160491890Y-131038812D01*
X160491892Y-131038824D01*
X160552936Y-131279881D01*
X160652826Y-131507606D01*
X160788833Y-131715782D01*
X160788836Y-131715785D01*
X160957256Y-131898738D01*
X161153491Y-132051474D01*
X161153493Y-132051475D01*
X161305671Y-132133830D01*
X161372190Y-132169828D01*
X161607386Y-132250571D01*
X161852665Y-132291500D01*
X162101335Y-132291500D01*
X162346614Y-132250571D01*
X162581810Y-132169828D01*
X162800509Y-132051474D01*
X162996744Y-131898738D01*
X163165164Y-131715785D01*
X163301173Y-131507607D01*
X163401063Y-131279881D01*
X163462108Y-131038821D01*
X163467457Y-130974274D01*
X163482643Y-130791005D01*
X163482643Y-130790994D01*
X166971357Y-130790994D01*
X166971357Y-130791005D01*
X166991890Y-131038812D01*
X166991892Y-131038824D01*
X167052936Y-131279881D01*
X167152826Y-131507606D01*
X167288833Y-131715782D01*
X167288836Y-131715785D01*
X167457256Y-131898738D01*
X167653491Y-132051474D01*
X167653493Y-132051475D01*
X167805671Y-132133830D01*
X167872190Y-132169828D01*
X168107386Y-132250571D01*
X168352665Y-132291500D01*
X168601335Y-132291500D01*
X168846614Y-132250571D01*
X169081810Y-132169828D01*
X169300509Y-132051474D01*
X169496744Y-131898738D01*
X169665164Y-131715785D01*
X169801173Y-131507607D01*
X169901063Y-131279881D01*
X169962108Y-131038821D01*
X169967457Y-130974274D01*
X169982643Y-130791005D01*
X169982643Y-130790994D01*
X169979660Y-130754994D01*
X175763357Y-130754994D01*
X175763357Y-130755005D01*
X175783890Y-131002812D01*
X175783892Y-131002824D01*
X175844936Y-131243881D01*
X175944826Y-131471606D01*
X176080833Y-131679782D01*
X176080836Y-131679785D01*
X176249256Y-131862738D01*
X176445491Y-132015474D01*
X176445493Y-132015475D01*
X176597671Y-132097830D01*
X176664190Y-132133828D01*
X176899386Y-132214571D01*
X177144665Y-132255500D01*
X177393335Y-132255500D01*
X177638614Y-132214571D01*
X177873810Y-132133828D01*
X178092509Y-132015474D01*
X178288744Y-131862738D01*
X178457164Y-131679785D01*
X178593173Y-131471607D01*
X178693063Y-131243881D01*
X178754108Y-131002821D01*
X178755709Y-130983500D01*
X178774643Y-130755005D01*
X178774643Y-130754994D01*
X182263357Y-130754994D01*
X182263357Y-130755005D01*
X182283890Y-131002812D01*
X182283892Y-131002824D01*
X182344936Y-131243881D01*
X182444826Y-131471606D01*
X182580833Y-131679782D01*
X182580836Y-131679785D01*
X182749256Y-131862738D01*
X182945491Y-132015474D01*
X182945493Y-132015475D01*
X183097671Y-132097830D01*
X183164190Y-132133828D01*
X183399386Y-132214571D01*
X183644665Y-132255500D01*
X183893335Y-132255500D01*
X184138614Y-132214571D01*
X184373810Y-132133828D01*
X184592509Y-132015474D01*
X184788744Y-131862738D01*
X184957164Y-131679785D01*
X185093173Y-131471607D01*
X185193063Y-131243881D01*
X185254108Y-131002821D01*
X185255709Y-130983500D01*
X185271661Y-130790994D01*
X191713357Y-130790994D01*
X191713357Y-130791005D01*
X191733890Y-131038812D01*
X191733892Y-131038824D01*
X191794936Y-131279881D01*
X191894826Y-131507606D01*
X192030833Y-131715782D01*
X192030836Y-131715785D01*
X192199256Y-131898738D01*
X192395491Y-132051474D01*
X192395493Y-132051475D01*
X192547671Y-132133830D01*
X192614190Y-132169828D01*
X192849386Y-132250571D01*
X193094665Y-132291500D01*
X193343335Y-132291500D01*
X193588614Y-132250571D01*
X193823810Y-132169828D01*
X194042509Y-132051474D01*
X194238744Y-131898738D01*
X194407164Y-131715785D01*
X194543173Y-131507607D01*
X194643063Y-131279881D01*
X194704108Y-131038821D01*
X194709457Y-130974274D01*
X194724643Y-130791005D01*
X194724643Y-130790994D01*
X198213357Y-130790994D01*
X198213357Y-130791005D01*
X198233890Y-131038812D01*
X198233892Y-131038824D01*
X198294936Y-131279881D01*
X198394826Y-131507606D01*
X198530833Y-131715782D01*
X198530836Y-131715785D01*
X198699256Y-131898738D01*
X198895491Y-132051474D01*
X198895493Y-132051475D01*
X199047671Y-132133830D01*
X199114190Y-132169828D01*
X199349386Y-132250571D01*
X199594665Y-132291500D01*
X199843335Y-132291500D01*
X200088614Y-132250571D01*
X200323810Y-132169828D01*
X200542509Y-132051474D01*
X200738744Y-131898738D01*
X200907164Y-131715785D01*
X201043173Y-131507607D01*
X201143063Y-131279881D01*
X201204108Y-131038821D01*
X201209457Y-130974274D01*
X201224643Y-130791005D01*
X201224643Y-130790994D01*
X201204109Y-130543187D01*
X201204107Y-130543175D01*
X201143063Y-130302118D01*
X201043173Y-130074393D01*
X200907166Y-129866217D01*
X200885557Y-129842744D01*
X200738744Y-129683262D01*
X200542509Y-129530526D01*
X200542507Y-129530525D01*
X200542506Y-129530524D01*
X200323811Y-129412172D01*
X200323802Y-129412169D01*
X200088616Y-129331429D01*
X199843335Y-129290500D01*
X199594665Y-129290500D01*
X199349383Y-129331429D01*
X199114197Y-129412169D01*
X199114188Y-129412172D01*
X198895493Y-129530524D01*
X198699257Y-129683261D01*
X198530833Y-129866217D01*
X198394826Y-130074393D01*
X198294936Y-130302118D01*
X198233892Y-130543175D01*
X198233890Y-130543187D01*
X198213357Y-130790994D01*
X194724643Y-130790994D01*
X194704109Y-130543187D01*
X194704107Y-130543175D01*
X194643063Y-130302118D01*
X194543173Y-130074393D01*
X194407166Y-129866217D01*
X194385557Y-129842744D01*
X194238744Y-129683262D01*
X194042509Y-129530526D01*
X194042507Y-129530525D01*
X194042506Y-129530524D01*
X193823811Y-129412172D01*
X193823802Y-129412169D01*
X193588616Y-129331429D01*
X193343335Y-129290500D01*
X193094665Y-129290500D01*
X192849383Y-129331429D01*
X192614197Y-129412169D01*
X192614188Y-129412172D01*
X192395493Y-129530524D01*
X192199257Y-129683261D01*
X192030833Y-129866217D01*
X191894826Y-130074393D01*
X191794936Y-130302118D01*
X191733892Y-130543175D01*
X191733890Y-130543187D01*
X191713357Y-130790994D01*
X185271661Y-130790994D01*
X185274643Y-130755005D01*
X185274643Y-130754994D01*
X185254109Y-130507187D01*
X185254107Y-130507175D01*
X185193063Y-130266118D01*
X185093173Y-130038393D01*
X184957166Y-129830217D01*
X184935557Y-129806744D01*
X184788744Y-129647262D01*
X184592509Y-129494526D01*
X184592507Y-129494525D01*
X184592506Y-129494524D01*
X184373811Y-129376172D01*
X184373802Y-129376169D01*
X184138616Y-129295429D01*
X183893335Y-129254500D01*
X183644665Y-129254500D01*
X183399383Y-129295429D01*
X183164197Y-129376169D01*
X183164188Y-129376172D01*
X182945493Y-129494524D01*
X182749257Y-129647261D01*
X182580833Y-129830217D01*
X182444826Y-130038393D01*
X182344936Y-130266118D01*
X182283892Y-130507175D01*
X182283890Y-130507187D01*
X182263357Y-130754994D01*
X178774643Y-130754994D01*
X178754109Y-130507187D01*
X178754107Y-130507175D01*
X178693063Y-130266118D01*
X178593173Y-130038393D01*
X178457166Y-129830217D01*
X178435557Y-129806744D01*
X178288744Y-129647262D01*
X178092509Y-129494526D01*
X178092507Y-129494525D01*
X178092506Y-129494524D01*
X177873811Y-129376172D01*
X177873802Y-129376169D01*
X177638616Y-129295429D01*
X177393335Y-129254500D01*
X177144665Y-129254500D01*
X176899383Y-129295429D01*
X176664197Y-129376169D01*
X176664188Y-129376172D01*
X176445493Y-129494524D01*
X176249257Y-129647261D01*
X176080833Y-129830217D01*
X175944826Y-130038393D01*
X175844936Y-130266118D01*
X175783892Y-130507175D01*
X175783890Y-130507187D01*
X175763357Y-130754994D01*
X169979660Y-130754994D01*
X169962109Y-130543187D01*
X169962107Y-130543175D01*
X169901063Y-130302118D01*
X169801173Y-130074393D01*
X169665166Y-129866217D01*
X169643557Y-129842744D01*
X169496744Y-129683262D01*
X169300509Y-129530526D01*
X169300507Y-129530525D01*
X169300506Y-129530524D01*
X169081811Y-129412172D01*
X169081802Y-129412169D01*
X168846616Y-129331429D01*
X168601335Y-129290500D01*
X168352665Y-129290500D01*
X168107383Y-129331429D01*
X167872197Y-129412169D01*
X167872188Y-129412172D01*
X167653493Y-129530524D01*
X167457257Y-129683261D01*
X167288833Y-129866217D01*
X167152826Y-130074393D01*
X167052936Y-130302118D01*
X166991892Y-130543175D01*
X166991890Y-130543187D01*
X166971357Y-130790994D01*
X163482643Y-130790994D01*
X163462109Y-130543187D01*
X163462107Y-130543175D01*
X163401063Y-130302118D01*
X163301173Y-130074393D01*
X163165166Y-129866217D01*
X163143557Y-129842744D01*
X162996744Y-129683262D01*
X162800509Y-129530526D01*
X162800507Y-129530525D01*
X162800506Y-129530524D01*
X162581811Y-129412172D01*
X162581802Y-129412169D01*
X162346616Y-129331429D01*
X162101335Y-129290500D01*
X161852665Y-129290500D01*
X161607383Y-129331429D01*
X161372197Y-129412169D01*
X161372188Y-129412172D01*
X161153493Y-129530524D01*
X160957257Y-129683261D01*
X160788833Y-129866217D01*
X160652826Y-130074393D01*
X160552936Y-130302118D01*
X160491892Y-130543175D01*
X160491890Y-130543187D01*
X160471357Y-130790994D01*
X155097661Y-130790994D01*
X155100643Y-130755005D01*
X155100643Y-130754994D01*
X155080109Y-130507187D01*
X155080107Y-130507175D01*
X155019063Y-130266118D01*
X154919173Y-130038393D01*
X154783166Y-129830217D01*
X154761557Y-129806744D01*
X154614744Y-129647262D01*
X154418509Y-129494526D01*
X154418507Y-129494525D01*
X154418506Y-129494524D01*
X154199811Y-129376172D01*
X154199802Y-129376169D01*
X153964616Y-129295429D01*
X153719335Y-129254500D01*
X153470665Y-129254500D01*
X153225383Y-129295429D01*
X152990197Y-129376169D01*
X152990188Y-129376172D01*
X152771493Y-129494524D01*
X152575257Y-129647261D01*
X152406833Y-129830217D01*
X152270826Y-130038393D01*
X152170936Y-130266118D01*
X152109892Y-130507175D01*
X152109890Y-130507187D01*
X152089357Y-130754994D01*
X148600643Y-130754994D01*
X148580109Y-130507187D01*
X148580107Y-130507175D01*
X148519063Y-130266118D01*
X148419173Y-130038393D01*
X148283166Y-129830217D01*
X148261557Y-129806744D01*
X148114744Y-129647262D01*
X147918509Y-129494526D01*
X147918507Y-129494525D01*
X147918506Y-129494524D01*
X147699811Y-129376172D01*
X147699802Y-129376169D01*
X147464616Y-129295429D01*
X147219335Y-129254500D01*
X146970665Y-129254500D01*
X146725383Y-129295429D01*
X146490197Y-129376169D01*
X146490188Y-129376172D01*
X146271493Y-129494524D01*
X146075257Y-129647261D01*
X145906833Y-129830217D01*
X145770826Y-130038393D01*
X145670936Y-130266118D01*
X145609892Y-130507175D01*
X145609890Y-130507187D01*
X145589357Y-130754994D01*
X140873661Y-130754994D01*
X140876643Y-130719005D01*
X140876643Y-130718994D01*
X140856109Y-130471187D01*
X140856107Y-130471175D01*
X140795063Y-130230118D01*
X140695173Y-130002393D01*
X140559166Y-129794217D01*
X140537557Y-129770744D01*
X140390744Y-129611262D01*
X140194509Y-129458526D01*
X140194507Y-129458525D01*
X140194506Y-129458524D01*
X139975811Y-129340172D01*
X139975802Y-129340169D01*
X139740616Y-129259429D01*
X139495335Y-129218500D01*
X139246665Y-129218500D01*
X139001383Y-129259429D01*
X138766197Y-129340169D01*
X138766188Y-129340172D01*
X138547493Y-129458524D01*
X138351257Y-129611261D01*
X138182833Y-129794217D01*
X138046826Y-130002393D01*
X137946936Y-130230118D01*
X137885892Y-130471175D01*
X137885890Y-130471187D01*
X137865357Y-130718994D01*
X134376643Y-130718994D01*
X134356109Y-130471187D01*
X134356107Y-130471175D01*
X134295063Y-130230118D01*
X134195173Y-130002393D01*
X134059166Y-129794217D01*
X134037557Y-129770744D01*
X133890744Y-129611262D01*
X133694509Y-129458526D01*
X133694507Y-129458525D01*
X133694506Y-129458524D01*
X133475811Y-129340172D01*
X133475802Y-129340169D01*
X133240616Y-129259429D01*
X132995335Y-129218500D01*
X132746665Y-129218500D01*
X132501383Y-129259429D01*
X132266197Y-129340169D01*
X132266188Y-129340172D01*
X132047493Y-129458524D01*
X131851257Y-129611261D01*
X131682833Y-129794217D01*
X131546826Y-130002393D01*
X131446936Y-130230118D01*
X131385892Y-130471175D01*
X131385890Y-130471187D01*
X131365357Y-130718994D01*
X127984902Y-130718994D01*
X128038495Y-130665401D01*
X128174035Y-130471830D01*
X128273903Y-130257663D01*
X128335063Y-130029408D01*
X128355659Y-129794000D01*
X128335063Y-129558592D01*
X128286184Y-129376172D01*
X128273905Y-129330344D01*
X128273904Y-129330343D01*
X128273903Y-129330337D01*
X128174035Y-129116171D01*
X128038495Y-128922599D01*
X128038494Y-128922597D01*
X127871402Y-128755506D01*
X127871396Y-128755501D01*
X127685842Y-128625575D01*
X127642217Y-128570998D01*
X127635023Y-128501500D01*
X127666546Y-128439145D01*
X127685842Y-128422425D01*
X127708026Y-128406891D01*
X127871401Y-128292495D01*
X128038495Y-128125401D01*
X128174035Y-127931830D01*
X128273903Y-127717663D01*
X128335063Y-127489408D01*
X128355659Y-127254000D01*
X128335063Y-127018592D01*
X128273903Y-126790337D01*
X128174035Y-126576171D01*
X128118600Y-126497000D01*
X128038494Y-126382597D01*
X127871402Y-126215506D01*
X127871396Y-126215501D01*
X127685842Y-126085575D01*
X127642217Y-126030998D01*
X127635023Y-125961500D01*
X127666546Y-125899145D01*
X127685842Y-125882425D01*
X127776178Y-125819171D01*
X127871401Y-125752495D01*
X128038495Y-125585401D01*
X128174035Y-125391830D01*
X128273903Y-125177663D01*
X128335063Y-124949408D01*
X128355659Y-124714000D01*
X128335063Y-124478592D01*
X128273903Y-124250337D01*
X128174035Y-124036171D01*
X128038495Y-123842599D01*
X128038494Y-123842597D01*
X127871402Y-123675506D01*
X127871396Y-123675501D01*
X127685842Y-123545575D01*
X127642217Y-123490998D01*
X127635023Y-123421500D01*
X127666546Y-123359145D01*
X127685842Y-123342425D01*
X127708026Y-123326891D01*
X127871401Y-123212495D01*
X128038495Y-123045401D01*
X128174035Y-122851830D01*
X128273903Y-122637663D01*
X128335063Y-122409408D01*
X128355659Y-122174000D01*
X128335063Y-121938592D01*
X128273903Y-121710337D01*
X128174035Y-121496171D01*
X128038495Y-121302599D01*
X128038494Y-121302597D01*
X127871402Y-121135506D01*
X127871395Y-121135501D01*
X127677834Y-120999967D01*
X127677830Y-120999965D01*
X127677828Y-120999964D01*
X127463663Y-120900097D01*
X127463659Y-120900096D01*
X127463655Y-120900094D01*
X127235413Y-120838938D01*
X127235403Y-120838936D01*
X127000001Y-120818341D01*
X126999999Y-120818341D01*
X126764596Y-120838936D01*
X126764586Y-120838938D01*
X126536344Y-120900094D01*
X126536335Y-120900098D01*
X126322171Y-120999964D01*
X126322169Y-120999965D01*
X126128597Y-121135505D01*
X125961505Y-121302597D01*
X125825965Y-121496169D01*
X125825964Y-121496171D01*
X125726098Y-121710335D01*
X125726094Y-121710344D01*
X125664938Y-121938586D01*
X125664936Y-121938596D01*
X125644341Y-122173999D01*
X119880500Y-122173999D01*
X119880500Y-116966999D01*
X130493357Y-116966999D01*
X130493357Y-116967000D01*
X130513884Y-117188535D01*
X130513885Y-117188537D01*
X130574769Y-117402523D01*
X130574775Y-117402538D01*
X130673938Y-117601683D01*
X130673943Y-117601691D01*
X130808020Y-117779238D01*
X130972437Y-117929123D01*
X130972439Y-117929125D01*
X131161595Y-118046245D01*
X131161596Y-118046245D01*
X131161599Y-118046247D01*
X131369060Y-118126618D01*
X131587757Y-118167500D01*
X131587759Y-118167500D01*
X131810241Y-118167500D01*
X131810243Y-118167500D01*
X132028940Y-118126618D01*
X132236401Y-118046247D01*
X132425562Y-117929124D01*
X132589981Y-117779236D01*
X132724058Y-117601689D01*
X132823229Y-117402528D01*
X132884115Y-117188536D01*
X132904643Y-116967000D01*
X132884115Y-116745464D01*
X132823229Y-116531472D01*
X132770243Y-116425062D01*
X132724061Y-116332316D01*
X132724056Y-116332308D01*
X132589979Y-116154761D01*
X132425562Y-116004876D01*
X132425560Y-116004874D01*
X132236404Y-115887754D01*
X132236398Y-115887752D01*
X132028940Y-115807382D01*
X131810243Y-115766500D01*
X131587757Y-115766500D01*
X131369060Y-115807382D01*
X131237864Y-115858207D01*
X131161601Y-115887752D01*
X131161595Y-115887754D01*
X130972439Y-116004874D01*
X130972437Y-116004876D01*
X130808020Y-116154761D01*
X130673943Y-116332308D01*
X130673938Y-116332316D01*
X130574775Y-116531461D01*
X130574769Y-116531476D01*
X130513885Y-116745462D01*
X130513884Y-116745464D01*
X130493357Y-116966999D01*
X119880500Y-116966999D01*
X119880500Y-113965998D01*
X121392390Y-113965998D01*
X121392390Y-113966001D01*
X121412804Y-114251433D01*
X121473628Y-114531037D01*
X121473630Y-114531043D01*
X121473631Y-114531046D01*
X121559972Y-114762534D01*
X121573635Y-114799166D01*
X121710770Y-115050309D01*
X121710775Y-115050317D01*
X121882254Y-115279387D01*
X121882270Y-115279405D01*
X122084594Y-115481729D01*
X122084612Y-115481745D01*
X122313682Y-115653224D01*
X122313690Y-115653229D01*
X122564833Y-115790364D01*
X122564832Y-115790364D01*
X122564836Y-115790365D01*
X122564839Y-115790367D01*
X122832954Y-115890369D01*
X122832960Y-115890370D01*
X122832962Y-115890371D01*
X123112566Y-115951195D01*
X123112568Y-115951195D01*
X123112572Y-115951196D01*
X123366220Y-115969337D01*
X123397999Y-115971610D01*
X123398000Y-115971610D01*
X123398001Y-115971610D01*
X123426595Y-115969564D01*
X123683428Y-115951196D01*
X123963046Y-115890369D01*
X124231161Y-115790367D01*
X124482315Y-115653226D01*
X124711395Y-115481739D01*
X124913739Y-115279395D01*
X125085226Y-115050315D01*
X125222367Y-114799161D01*
X125322369Y-114531046D01*
X125383196Y-114251428D01*
X125403610Y-113966000D01*
X125383196Y-113680572D01*
X125322369Y-113400954D01*
X125222367Y-113132839D01*
X125131399Y-112966245D01*
X125085229Y-112881690D01*
X125085224Y-112881682D01*
X124913745Y-112652612D01*
X124913729Y-112652594D01*
X124711405Y-112450270D01*
X124711387Y-112450254D01*
X124482317Y-112278775D01*
X124482309Y-112278770D01*
X124231166Y-112141635D01*
X124231167Y-112141635D01*
X124108343Y-112095824D01*
X123963046Y-112041631D01*
X123963043Y-112041630D01*
X123963037Y-112041628D01*
X123683433Y-111980804D01*
X123398001Y-111960390D01*
X123397999Y-111960390D01*
X123112566Y-111980804D01*
X122832962Y-112041628D01*
X122564833Y-112141635D01*
X122313690Y-112278770D01*
X122313682Y-112278775D01*
X122084612Y-112450254D01*
X122084594Y-112450270D01*
X121882270Y-112652594D01*
X121882254Y-112652612D01*
X121710775Y-112881682D01*
X121710770Y-112881690D01*
X121573635Y-113132833D01*
X121473628Y-113400962D01*
X121412804Y-113680566D01*
X121392390Y-113965998D01*
X119880500Y-113965998D01*
X119880500Y-111886999D01*
X130493357Y-111886999D01*
X130493357Y-111887000D01*
X130513884Y-112108535D01*
X130513885Y-112108537D01*
X130574769Y-112322523D01*
X130574775Y-112322538D01*
X130673938Y-112521683D01*
X130673943Y-112521691D01*
X130808020Y-112699238D01*
X130972437Y-112849123D01*
X130972439Y-112849125D01*
X131161595Y-112966245D01*
X131161596Y-112966245D01*
X131161599Y-112966247D01*
X131369060Y-113046618D01*
X131587757Y-113087500D01*
X131587759Y-113087500D01*
X131810241Y-113087500D01*
X131810243Y-113087500D01*
X132028940Y-113046618D01*
X132236401Y-112966247D01*
X132425562Y-112849124D01*
X132589981Y-112699236D01*
X132724058Y-112521689D01*
X132823229Y-112322528D01*
X132884115Y-112108536D01*
X132904643Y-111887000D01*
X132884115Y-111665464D01*
X132823229Y-111451472D01*
X132823224Y-111451461D01*
X132724061Y-111252316D01*
X132724056Y-111252308D01*
X132589979Y-111074761D01*
X132425562Y-110924876D01*
X132425560Y-110924874D01*
X132236404Y-110807754D01*
X132236398Y-110807752D01*
X132028940Y-110727382D01*
X131810243Y-110686500D01*
X131587757Y-110686500D01*
X131369060Y-110727382D01*
X131302894Y-110753015D01*
X131161601Y-110807752D01*
X131161595Y-110807754D01*
X130972439Y-110924874D01*
X130972437Y-110924876D01*
X130808020Y-111074761D01*
X130673943Y-111252308D01*
X130673938Y-111252316D01*
X130574775Y-111451461D01*
X130574769Y-111451476D01*
X130513885Y-111665462D01*
X130513884Y-111665464D01*
X130493357Y-111886999D01*
X119880500Y-111886999D01*
X119880500Y-108965998D01*
X121392390Y-108965998D01*
X121392390Y-108966001D01*
X121412804Y-109251433D01*
X121473628Y-109531037D01*
X121473630Y-109531043D01*
X121473631Y-109531046D01*
X121529969Y-109682094D01*
X121573635Y-109799166D01*
X121710770Y-110050309D01*
X121710775Y-110050317D01*
X121882254Y-110279387D01*
X121882270Y-110279405D01*
X122084594Y-110481729D01*
X122084612Y-110481745D01*
X122313682Y-110653224D01*
X122313690Y-110653229D01*
X122564833Y-110790364D01*
X122564832Y-110790364D01*
X122564836Y-110790365D01*
X122564839Y-110790367D01*
X122832954Y-110890369D01*
X122832960Y-110890370D01*
X122832962Y-110890371D01*
X123112566Y-110951195D01*
X123112568Y-110951195D01*
X123112572Y-110951196D01*
X123366220Y-110969337D01*
X123397999Y-110971610D01*
X123398000Y-110971610D01*
X123398001Y-110971610D01*
X123426595Y-110969564D01*
X123683428Y-110951196D01*
X123804420Y-110924876D01*
X123963037Y-110890371D01*
X123963037Y-110890370D01*
X123963046Y-110890369D01*
X124231161Y-110790367D01*
X124482315Y-110653226D01*
X124711395Y-110481739D01*
X124913739Y-110279395D01*
X125085226Y-110050315D01*
X125222367Y-109799161D01*
X125322369Y-109531046D01*
X125350908Y-109399854D01*
X125383195Y-109251433D01*
X125383195Y-109251432D01*
X125383196Y-109251428D01*
X125403610Y-108966000D01*
X125403077Y-108958553D01*
X125395357Y-108850606D01*
X125383196Y-108680572D01*
X125373317Y-108635160D01*
X125322371Y-108400962D01*
X125322370Y-108400960D01*
X125322369Y-108400954D01*
X125222367Y-108132839D01*
X125088024Y-107886810D01*
X125085229Y-107881690D01*
X125085224Y-107881682D01*
X124913745Y-107652612D01*
X124913729Y-107652594D01*
X124711405Y-107450270D01*
X124711387Y-107450254D01*
X124482317Y-107278775D01*
X124482309Y-107278770D01*
X124231166Y-107141635D01*
X124231167Y-107141635D01*
X124123915Y-107101632D01*
X123963046Y-107041631D01*
X123963043Y-107041630D01*
X123963037Y-107041628D01*
X123683433Y-106980804D01*
X123398001Y-106960390D01*
X123397999Y-106960390D01*
X123112566Y-106980804D01*
X122832962Y-107041628D01*
X122564833Y-107141635D01*
X122313690Y-107278770D01*
X122313682Y-107278775D01*
X122084612Y-107450254D01*
X122084594Y-107450270D01*
X121882270Y-107652594D01*
X121882254Y-107652612D01*
X121710775Y-107881682D01*
X121710770Y-107881690D01*
X121573635Y-108132833D01*
X121473628Y-108400962D01*
X121412804Y-108680566D01*
X121392390Y-108965998D01*
X119880500Y-108965998D01*
X119880500Y-102418135D01*
X121397500Y-102418135D01*
X121397500Y-105513870D01*
X121397501Y-105513876D01*
X121403908Y-105573483D01*
X121454202Y-105708328D01*
X121454206Y-105708335D01*
X121540452Y-105823544D01*
X121540455Y-105823547D01*
X121655664Y-105909793D01*
X121655671Y-105909797D01*
X121790517Y-105960091D01*
X121790516Y-105960091D01*
X121797444Y-105960835D01*
X121850127Y-105966500D01*
X124945872Y-105966499D01*
X125005483Y-105960091D01*
X125140331Y-105909796D01*
X125255546Y-105823546D01*
X125341796Y-105708331D01*
X125392091Y-105573483D01*
X125398500Y-105513873D01*
X125398499Y-102418128D01*
X125392091Y-102358517D01*
X125341796Y-102223669D01*
X125341795Y-102223668D01*
X125341793Y-102223664D01*
X125255547Y-102108455D01*
X125255544Y-102108452D01*
X125140335Y-102022206D01*
X125140328Y-102022202D01*
X125005482Y-101971908D01*
X125005483Y-101971908D01*
X124945883Y-101965501D01*
X124945881Y-101965500D01*
X124945873Y-101965500D01*
X124945864Y-101965500D01*
X121850129Y-101965500D01*
X121850123Y-101965501D01*
X121790516Y-101971908D01*
X121655671Y-102022202D01*
X121655664Y-102022206D01*
X121540455Y-102108452D01*
X121540452Y-102108455D01*
X121454206Y-102223664D01*
X121454202Y-102223671D01*
X121403909Y-102358516D01*
X121403908Y-102358516D01*
X121397501Y-102418116D01*
X121397501Y-102418123D01*
X121397500Y-102418135D01*
X119880500Y-102418135D01*
X119880500Y-88475258D01*
X120484500Y-88475258D01*
X120484500Y-88704741D01*
X120496933Y-88799172D01*
X120514452Y-88932238D01*
X120544566Y-89044626D01*
X120573842Y-89153887D01*
X120661650Y-89365876D01*
X120661657Y-89365890D01*
X120776392Y-89564617D01*
X120916081Y-89746661D01*
X120916089Y-89746670D01*
X121078330Y-89908911D01*
X121078338Y-89908918D01*
X121260382Y-90048607D01*
X121260385Y-90048608D01*
X121260388Y-90048611D01*
X121459112Y-90163344D01*
X121459117Y-90163346D01*
X121459123Y-90163349D01*
X121609022Y-90225439D01*
X121663426Y-90269280D01*
X121685491Y-90335574D01*
X121668212Y-90403273D01*
X121617075Y-90450884D01*
X121609022Y-90454561D01*
X121459123Y-90516650D01*
X121459109Y-90516657D01*
X121260382Y-90631392D01*
X121078338Y-90771081D01*
X120916081Y-90933338D01*
X120776392Y-91115382D01*
X120661657Y-91314109D01*
X120661650Y-91314123D01*
X120573842Y-91526112D01*
X120514453Y-91747759D01*
X120514451Y-91747770D01*
X120484500Y-91975258D01*
X120484500Y-92204741D01*
X120509446Y-92394215D01*
X120514452Y-92432238D01*
X120559531Y-92600478D01*
X120573842Y-92653887D01*
X120661650Y-92865876D01*
X120661657Y-92865890D01*
X120776392Y-93064617D01*
X120916081Y-93246661D01*
X120916089Y-93246670D01*
X121078330Y-93408911D01*
X121078338Y-93408918D01*
X121260382Y-93548607D01*
X121260385Y-93548608D01*
X121260388Y-93548611D01*
X121459112Y-93663344D01*
X121459117Y-93663346D01*
X121459123Y-93663349D01*
X121550480Y-93701190D01*
X121671113Y-93751158D01*
X121892762Y-93810548D01*
X122120266Y-93840500D01*
X122120273Y-93840500D01*
X123849727Y-93840500D01*
X123849734Y-93840500D01*
X124077238Y-93810548D01*
X124298887Y-93751158D01*
X124510888Y-93663344D01*
X124709612Y-93548611D01*
X124891661Y-93408919D01*
X124891665Y-93408914D01*
X124891670Y-93408911D01*
X125053911Y-93246670D01*
X125053914Y-93246665D01*
X125053919Y-93246661D01*
X125193611Y-93064612D01*
X125308344Y-92865888D01*
X125396158Y-92653887D01*
X125455548Y-92432238D01*
X125485500Y-92204734D01*
X125485500Y-91975266D01*
X125455548Y-91747762D01*
X125396158Y-91526113D01*
X125328324Y-91362347D01*
X125308349Y-91314123D01*
X125308346Y-91314117D01*
X125308344Y-91314112D01*
X125193611Y-91115388D01*
X125193608Y-91115385D01*
X125193607Y-91115382D01*
X125092764Y-90983962D01*
X125053919Y-90933339D01*
X125053918Y-90933338D01*
X125053911Y-90933330D01*
X124891670Y-90771089D01*
X124891661Y-90771081D01*
X124709617Y-90631392D01*
X124510890Y-90516657D01*
X124510876Y-90516650D01*
X124402083Y-90471587D01*
X124360976Y-90454560D01*
X124306573Y-90410721D01*
X124284508Y-90344426D01*
X124301787Y-90276727D01*
X124352924Y-90229116D01*
X124360967Y-90225443D01*
X124510888Y-90163344D01*
X124709612Y-90048611D01*
X124891661Y-89908919D01*
X124891665Y-89908914D01*
X124891670Y-89908911D01*
X125053911Y-89746670D01*
X125053914Y-89746665D01*
X125053919Y-89746661D01*
X125193611Y-89564612D01*
X125308344Y-89365888D01*
X125396158Y-89153887D01*
X125455548Y-88932238D01*
X125485500Y-88704734D01*
X125485500Y-88475266D01*
X125455548Y-88247762D01*
X125396158Y-88026113D01*
X125338121Y-87886000D01*
X125308349Y-87814123D01*
X125308346Y-87814117D01*
X125308344Y-87814112D01*
X125193611Y-87615388D01*
X125193608Y-87615385D01*
X125193607Y-87615382D01*
X125053918Y-87433338D01*
X125053911Y-87433330D01*
X124891670Y-87271089D01*
X124891661Y-87271081D01*
X124709617Y-87131392D01*
X124510890Y-87016657D01*
X124510876Y-87016650D01*
X124298887Y-86928842D01*
X124077238Y-86869452D01*
X124039215Y-86864446D01*
X123849741Y-86839500D01*
X123849734Y-86839500D01*
X122120266Y-86839500D01*
X122120258Y-86839500D01*
X121918982Y-86866000D01*
X121892762Y-86869452D01*
X121799076Y-86894554D01*
X121671112Y-86928842D01*
X121459123Y-87016650D01*
X121459109Y-87016657D01*
X121260382Y-87131392D01*
X121078338Y-87271081D01*
X120916081Y-87433338D01*
X120776392Y-87615382D01*
X120661657Y-87814109D01*
X120661650Y-87814123D01*
X120573842Y-88026112D01*
X120561521Y-88072097D01*
X120514549Y-88247402D01*
X120514453Y-88247759D01*
X120514451Y-88247770D01*
X120484500Y-88475258D01*
X119880500Y-88475258D01*
X119880500Y-82696998D01*
X126456532Y-82696998D01*
X126456532Y-82697001D01*
X126476364Y-82923686D01*
X126476366Y-82923697D01*
X126535258Y-83143488D01*
X126535261Y-83143497D01*
X126631431Y-83349732D01*
X126631432Y-83349734D01*
X126761954Y-83536141D01*
X126922858Y-83697045D01*
X126922861Y-83697047D01*
X127109266Y-83827568D01*
X127124975Y-83834893D01*
X127177414Y-83881064D01*
X127196567Y-83948257D01*
X127176352Y-84015138D01*
X127124979Y-84059656D01*
X127109514Y-84066867D01*
X127109512Y-84066868D01*
X127036526Y-84117973D01*
X127036526Y-84117974D01*
X127715553Y-84797000D01*
X127709339Y-84797000D01*
X127607606Y-84824259D01*
X127516394Y-84876920D01*
X127441920Y-84951394D01*
X127389259Y-85042606D01*
X127362000Y-85144339D01*
X127362000Y-85150552D01*
X126682974Y-84471526D01*
X126682973Y-84471526D01*
X126631868Y-84544512D01*
X126631866Y-84544516D01*
X126535734Y-84750673D01*
X126535730Y-84750682D01*
X126476860Y-84970389D01*
X126476858Y-84970400D01*
X126457034Y-85196997D01*
X126457034Y-85197002D01*
X126476858Y-85423599D01*
X126476860Y-85423610D01*
X126535730Y-85643317D01*
X126535735Y-85643331D01*
X126631863Y-85849478D01*
X126682974Y-85922472D01*
X127362000Y-85243446D01*
X127362000Y-85249661D01*
X127389259Y-85351394D01*
X127441920Y-85442606D01*
X127516394Y-85517080D01*
X127607606Y-85569741D01*
X127709339Y-85597000D01*
X127715553Y-85597000D01*
X127036526Y-86276025D01*
X127109513Y-86327132D01*
X127109521Y-86327136D01*
X127315668Y-86423264D01*
X127315682Y-86423269D01*
X127535389Y-86482139D01*
X127535400Y-86482141D01*
X127761998Y-86501966D01*
X127762002Y-86501966D01*
X127988599Y-86482141D01*
X127988610Y-86482139D01*
X128208317Y-86423269D01*
X128208331Y-86423264D01*
X128414478Y-86327136D01*
X128487471Y-86276024D01*
X127808447Y-85597000D01*
X127814661Y-85597000D01*
X127916394Y-85569741D01*
X128007606Y-85517080D01*
X128082080Y-85442606D01*
X128134741Y-85351394D01*
X128162000Y-85249661D01*
X128162000Y-85243447D01*
X128841024Y-85922471D01*
X128892136Y-85849478D01*
X128988264Y-85643331D01*
X128988269Y-85643317D01*
X129047139Y-85423610D01*
X129047141Y-85423599D01*
X129066966Y-85197002D01*
X129066966Y-85196997D01*
X129047141Y-84970400D01*
X129047139Y-84970389D01*
X128988269Y-84750682D01*
X128988264Y-84750668D01*
X128892136Y-84544521D01*
X128892132Y-84544513D01*
X128841025Y-84471526D01*
X128162000Y-85150551D01*
X128162000Y-85144339D01*
X128134741Y-85042606D01*
X128082080Y-84951394D01*
X128007606Y-84876920D01*
X127916394Y-84824259D01*
X127814661Y-84797000D01*
X127808448Y-84797000D01*
X128487472Y-84117974D01*
X128414480Y-84066864D01*
X128399024Y-84059657D01*
X128346585Y-84013484D01*
X128327433Y-83946290D01*
X128347649Y-83879409D01*
X128399023Y-83834893D01*
X128414734Y-83827568D01*
X128601139Y-83697047D01*
X128762047Y-83536139D01*
X128892568Y-83349734D01*
X128988739Y-83143496D01*
X129047635Y-82923692D01*
X129067468Y-82697000D01*
X129067468Y-82696998D01*
X130266532Y-82696998D01*
X130266532Y-82697001D01*
X130286364Y-82923686D01*
X130286366Y-82923697D01*
X130345258Y-83143488D01*
X130345261Y-83143497D01*
X130441431Y-83349732D01*
X130441432Y-83349734D01*
X130571954Y-83536141D01*
X130732858Y-83697045D01*
X130732861Y-83697047D01*
X130919266Y-83827568D01*
X130934975Y-83834893D01*
X130987414Y-83881064D01*
X131006567Y-83948257D01*
X130986352Y-84015138D01*
X130934979Y-84059656D01*
X130919514Y-84066867D01*
X130919512Y-84066868D01*
X130846526Y-84117973D01*
X130846526Y-84117974D01*
X131525553Y-84797000D01*
X131519339Y-84797000D01*
X131417606Y-84824259D01*
X131326394Y-84876920D01*
X131251920Y-84951394D01*
X131199259Y-85042606D01*
X131172000Y-85144339D01*
X131172000Y-85150552D01*
X130492974Y-84471526D01*
X130492973Y-84471526D01*
X130441868Y-84544512D01*
X130441866Y-84544516D01*
X130345734Y-84750673D01*
X130345730Y-84750682D01*
X130286860Y-84970389D01*
X130286858Y-84970400D01*
X130267034Y-85196997D01*
X130267034Y-85197002D01*
X130286858Y-85423599D01*
X130286860Y-85423610D01*
X130345730Y-85643317D01*
X130345735Y-85643331D01*
X130441863Y-85849478D01*
X130492974Y-85922472D01*
X131172000Y-85243446D01*
X131172000Y-85249661D01*
X131199259Y-85351394D01*
X131251920Y-85442606D01*
X131326394Y-85517080D01*
X131417606Y-85569741D01*
X131519339Y-85597000D01*
X131525553Y-85597000D01*
X130846526Y-86276025D01*
X130919513Y-86327132D01*
X130919521Y-86327136D01*
X131125668Y-86423264D01*
X131125682Y-86423269D01*
X131345389Y-86482139D01*
X131345400Y-86482141D01*
X131571998Y-86501966D01*
X131572002Y-86501966D01*
X131798599Y-86482141D01*
X131798610Y-86482139D01*
X132018317Y-86423269D01*
X132018331Y-86423264D01*
X132224478Y-86327136D01*
X132297471Y-86276024D01*
X131618447Y-85597000D01*
X131624661Y-85597000D01*
X131726394Y-85569741D01*
X131817606Y-85517080D01*
X131892080Y-85442606D01*
X131944741Y-85351394D01*
X131972000Y-85249661D01*
X131972000Y-85243447D01*
X132651024Y-85922471D01*
X132702136Y-85849478D01*
X132798264Y-85643331D01*
X132798269Y-85643317D01*
X132857139Y-85423610D01*
X132857141Y-85423599D01*
X132876966Y-85197002D01*
X132876966Y-85196997D01*
X132857141Y-84970400D01*
X132857139Y-84970389D01*
X132798269Y-84750682D01*
X132798264Y-84750668D01*
X132702136Y-84544521D01*
X132702132Y-84544513D01*
X132651025Y-84471526D01*
X131972000Y-85150551D01*
X131972000Y-85144339D01*
X131944741Y-85042606D01*
X131892080Y-84951394D01*
X131817606Y-84876920D01*
X131726394Y-84824259D01*
X131624661Y-84797000D01*
X131618448Y-84797000D01*
X132297472Y-84117974D01*
X132224480Y-84066864D01*
X132209024Y-84059657D01*
X132156585Y-84013484D01*
X132137433Y-83946290D01*
X132157649Y-83879409D01*
X132209023Y-83834893D01*
X132224734Y-83827568D01*
X132411139Y-83697047D01*
X132572047Y-83536139D01*
X132702568Y-83349734D01*
X132798739Y-83143496D01*
X132857635Y-82923692D01*
X132877468Y-82697000D01*
X132865635Y-82561746D01*
X133438500Y-82561746D01*
X133438500Y-82778253D01*
X133472370Y-82992098D01*
X133539272Y-83198006D01*
X133539273Y-83198009D01*
X133616581Y-83349732D01*
X133637567Y-83390919D01*
X133764828Y-83566078D01*
X133917922Y-83719172D01*
X134084215Y-83839991D01*
X134126879Y-83895320D01*
X134132858Y-83964933D01*
X134100252Y-84026728D01*
X134084214Y-84040626D01*
X133918245Y-84161210D01*
X133765211Y-84314244D01*
X133765211Y-84314245D01*
X133637994Y-84489342D01*
X133539736Y-84682182D01*
X133539735Y-84682185D01*
X133472857Y-84888016D01*
X133472857Y-84888019D01*
X133461457Y-84960000D01*
X135505988Y-84960000D01*
X135473075Y-85017007D01*
X135439000Y-85144174D01*
X135439000Y-85275826D01*
X135473075Y-85402993D01*
X135505988Y-85460000D01*
X133461457Y-85460000D01*
X133472857Y-85531980D01*
X133472857Y-85531983D01*
X133539735Y-85737814D01*
X133539736Y-85737817D01*
X133637994Y-85930657D01*
X133765211Y-86105754D01*
X133765211Y-86105755D01*
X133918244Y-86258788D01*
X134084214Y-86379373D01*
X134126879Y-86434703D01*
X134132858Y-86504317D01*
X134100252Y-86566111D01*
X134084214Y-86580009D01*
X133917920Y-86700829D01*
X133764830Y-86853919D01*
X133764830Y-86853920D01*
X133764828Y-86853922D01*
X133753545Y-86869452D01*
X133637567Y-87029080D01*
X133539273Y-87221990D01*
X133539272Y-87221993D01*
X133472370Y-87427901D01*
X133438500Y-87641746D01*
X133438500Y-87858253D01*
X133472370Y-88072098D01*
X133539272Y-88278006D01*
X133539273Y-88278009D01*
X133636125Y-88468088D01*
X133637567Y-88470919D01*
X133764828Y-88646078D01*
X133917922Y-88799172D01*
X134072190Y-88911255D01*
X134083789Y-88919682D01*
X134126454Y-88975012D01*
X134132433Y-89044626D01*
X134099827Y-89106421D01*
X134083788Y-89120318D01*
X133917922Y-89240828D01*
X133917920Y-89240830D01*
X133917919Y-89240830D01*
X133764830Y-89393919D01*
X133764830Y-89393920D01*
X133764828Y-89393922D01*
X133710174Y-89469145D01*
X133637567Y-89569080D01*
X133539273Y-89761990D01*
X133539272Y-89761993D01*
X133472370Y-89967901D01*
X133438500Y-90181746D01*
X133438500Y-90398253D01*
X133472370Y-90612098D01*
X133539272Y-90818006D01*
X133539273Y-90818009D01*
X133637567Y-91010919D01*
X133764828Y-91186078D01*
X133917922Y-91339172D01*
X134072190Y-91451255D01*
X134083789Y-91459682D01*
X134126454Y-91515012D01*
X134132433Y-91584626D01*
X134099827Y-91646421D01*
X134083788Y-91660318D01*
X133917922Y-91780828D01*
X133917920Y-91780830D01*
X133917919Y-91780830D01*
X133764830Y-91933919D01*
X133764830Y-91933920D01*
X133764828Y-91933922D01*
X133716339Y-92000661D01*
X133637567Y-92109080D01*
X133539273Y-92301990D01*
X133539272Y-92301993D01*
X133472370Y-92507901D01*
X133438500Y-92721746D01*
X133438500Y-92938253D01*
X133472370Y-93152098D01*
X133539272Y-93358006D01*
X133539273Y-93358009D01*
X133636389Y-93548607D01*
X133637567Y-93550919D01*
X133764828Y-93726078D01*
X133917922Y-93879172D01*
X134072190Y-93991255D01*
X134083789Y-93999682D01*
X134126454Y-94055012D01*
X134132433Y-94124626D01*
X134099827Y-94186421D01*
X134083788Y-94200318D01*
X133917922Y-94320828D01*
X133917920Y-94320830D01*
X133917919Y-94320830D01*
X133764830Y-94473919D01*
X133764830Y-94473920D01*
X133764828Y-94473922D01*
X133710174Y-94549145D01*
X133637567Y-94649080D01*
X133539273Y-94841990D01*
X133539272Y-94841993D01*
X133472370Y-95047901D01*
X133438500Y-95261746D01*
X133438500Y-95478253D01*
X133472370Y-95692098D01*
X133539272Y-95898006D01*
X133539273Y-95898009D01*
X133637567Y-96090919D01*
X133764828Y-96266078D01*
X133917922Y-96419172D01*
X134062609Y-96524294D01*
X134083789Y-96539682D01*
X134126454Y-96595012D01*
X134132433Y-96664626D01*
X134099827Y-96726421D01*
X134083789Y-96740318D01*
X134071095Y-96749541D01*
X133917922Y-96860828D01*
X133917920Y-96860830D01*
X133917919Y-96860830D01*
X133764830Y-97013919D01*
X133764830Y-97013920D01*
X133764828Y-97013922D01*
X133745179Y-97040967D01*
X133637567Y-97189080D01*
X133539273Y-97381990D01*
X133539272Y-97381993D01*
X133472370Y-97587901D01*
X133438500Y-97801746D01*
X133438500Y-98018253D01*
X133472370Y-98232098D01*
X133539272Y-98438006D01*
X133539273Y-98438009D01*
X133608818Y-98574497D01*
X133637567Y-98630919D01*
X133764828Y-98806078D01*
X133917922Y-98959172D01*
X134093081Y-99086433D01*
X134187697Y-99134642D01*
X134285990Y-99184726D01*
X134285993Y-99184727D01*
X134358133Y-99208166D01*
X134491903Y-99251630D01*
X134705746Y-99285500D01*
X134705747Y-99285500D01*
X136172253Y-99285500D01*
X136172254Y-99285500D01*
X136386097Y-99251630D01*
X136592009Y-99184726D01*
X136784919Y-99086433D01*
X136960078Y-98959172D01*
X137113172Y-98806078D01*
X137240433Y-98630919D01*
X137338726Y-98438009D01*
X137405630Y-98232097D01*
X137439500Y-98018254D01*
X137439500Y-97801746D01*
X137405630Y-97587903D01*
X137372178Y-97484947D01*
X137338727Y-97381993D01*
X137338726Y-97381990D01*
X137266383Y-97240011D01*
X137240433Y-97189081D01*
X137113172Y-97013922D01*
X136960078Y-96860828D01*
X136794208Y-96740316D01*
X136751545Y-96684988D01*
X136745566Y-96615375D01*
X136778172Y-96553580D01*
X136794205Y-96539686D01*
X136960078Y-96419172D01*
X137113172Y-96266078D01*
X137240433Y-96090919D01*
X137338726Y-95898009D01*
X137405630Y-95692097D01*
X137439500Y-95478254D01*
X137439500Y-95261746D01*
X137405630Y-95047903D01*
X137356376Y-94896313D01*
X137338727Y-94841993D01*
X137338726Y-94841990D01*
X137254409Y-94676511D01*
X137240433Y-94649081D01*
X137113172Y-94473922D01*
X136960078Y-94320828D01*
X136794208Y-94200316D01*
X136751545Y-94144988D01*
X136745566Y-94075375D01*
X136778172Y-94013580D01*
X136794205Y-93999686D01*
X136960078Y-93879172D01*
X137113172Y-93726078D01*
X137240433Y-93550919D01*
X137338726Y-93358009D01*
X137405630Y-93152097D01*
X137439500Y-92938254D01*
X137439500Y-92721746D01*
X137405630Y-92507903D01*
X137338726Y-92301991D01*
X137338726Y-92301990D01*
X137273866Y-92174697D01*
X137240433Y-92109081D01*
X137113172Y-91933922D01*
X136960078Y-91780828D01*
X136794208Y-91660316D01*
X136751545Y-91604988D01*
X136745566Y-91535375D01*
X136778172Y-91473580D01*
X136794205Y-91459686D01*
X136960078Y-91339172D01*
X137113172Y-91186078D01*
X137240433Y-91010919D01*
X137338726Y-90818009D01*
X137405630Y-90612097D01*
X137439500Y-90398254D01*
X137439500Y-90181746D01*
X137405630Y-89967903D01*
X137338726Y-89761991D01*
X137338726Y-89761990D01*
X137240432Y-89569080D01*
X137113172Y-89393922D01*
X136960078Y-89240828D01*
X136794208Y-89120316D01*
X136751545Y-89064988D01*
X136745566Y-88995375D01*
X136778172Y-88933580D01*
X136794205Y-88919686D01*
X136960078Y-88799172D01*
X137113172Y-88646078D01*
X137240433Y-88470919D01*
X137338726Y-88278009D01*
X137405630Y-88072097D01*
X137439500Y-87858254D01*
X137439500Y-87641746D01*
X137405630Y-87427903D01*
X137338726Y-87221991D01*
X137338726Y-87221990D01*
X137288642Y-87123697D01*
X137240433Y-87029081D01*
X137113172Y-86853922D01*
X136960078Y-86700828D01*
X136793784Y-86580007D01*
X136751120Y-86524679D01*
X136745141Y-86455065D01*
X136777747Y-86393270D01*
X136793786Y-86379373D01*
X136959749Y-86258793D01*
X136959755Y-86258788D01*
X137112788Y-86105755D01*
X137112788Y-86105754D01*
X137240005Y-85930657D01*
X137338263Y-85737817D01*
X137338264Y-85737814D01*
X137405142Y-85531983D01*
X137405142Y-85531980D01*
X137416543Y-85460000D01*
X136372012Y-85460000D01*
X136404925Y-85402993D01*
X136439000Y-85275826D01*
X136439000Y-85144174D01*
X136404925Y-85017007D01*
X136372012Y-84960000D01*
X137416543Y-84960000D01*
X137405142Y-84888019D01*
X137405142Y-84888016D01*
X137338264Y-84682185D01*
X137338263Y-84682182D01*
X137240005Y-84489342D01*
X137112788Y-84314245D01*
X137112788Y-84314244D01*
X136959755Y-84161211D01*
X136793785Y-84040626D01*
X136751120Y-83985296D01*
X136745141Y-83915682D01*
X136777747Y-83853887D01*
X136793780Y-83839994D01*
X136960078Y-83719172D01*
X137113172Y-83566078D01*
X137240433Y-83390919D01*
X137338726Y-83198009D01*
X137405630Y-82992097D01*
X137439500Y-82778254D01*
X137439500Y-82561746D01*
X137405630Y-82347903D01*
X137365812Y-82225353D01*
X137338727Y-82141993D01*
X137338726Y-82141990D01*
X137288642Y-82043697D01*
X137240433Y-81949081D01*
X137113172Y-81773922D01*
X136960078Y-81620828D01*
X136784919Y-81493567D01*
X136739173Y-81470258D01*
X136592009Y-81395273D01*
X136592006Y-81395272D01*
X136386098Y-81328370D01*
X136279175Y-81311435D01*
X136172254Y-81294500D01*
X134705746Y-81294500D01*
X134634465Y-81305790D01*
X134491901Y-81328370D01*
X134285993Y-81395272D01*
X134285990Y-81395273D01*
X134093080Y-81493567D01*
X134031046Y-81538638D01*
X133917922Y-81620828D01*
X133917920Y-81620830D01*
X133917919Y-81620830D01*
X133764830Y-81773919D01*
X133764830Y-81773920D01*
X133764828Y-81773922D01*
X133710174Y-81849145D01*
X133637567Y-81949080D01*
X133539273Y-82141990D01*
X133539272Y-82141993D01*
X133472370Y-82347901D01*
X133438500Y-82561746D01*
X132865635Y-82561746D01*
X132857635Y-82470308D01*
X132798739Y-82250504D01*
X132702568Y-82044266D01*
X132572047Y-81857861D01*
X132572045Y-81857858D01*
X132411141Y-81696954D01*
X132224734Y-81566432D01*
X132224732Y-81566431D01*
X132018497Y-81470261D01*
X132018488Y-81470258D01*
X131798697Y-81411366D01*
X131798693Y-81411365D01*
X131798692Y-81411365D01*
X131798691Y-81411364D01*
X131798686Y-81411364D01*
X131572002Y-81391532D01*
X131571998Y-81391532D01*
X131345313Y-81411364D01*
X131345302Y-81411366D01*
X131125511Y-81470258D01*
X131125502Y-81470261D01*
X130919267Y-81566431D01*
X130919265Y-81566432D01*
X130732858Y-81696954D01*
X130571954Y-81857858D01*
X130441432Y-82044265D01*
X130441431Y-82044267D01*
X130345261Y-82250502D01*
X130345258Y-82250511D01*
X130286366Y-82470302D01*
X130286364Y-82470313D01*
X130266532Y-82696998D01*
X129067468Y-82696998D01*
X129047635Y-82470308D01*
X128988739Y-82250504D01*
X128892568Y-82044266D01*
X128762047Y-81857861D01*
X128762045Y-81857858D01*
X128601141Y-81696954D01*
X128414734Y-81566432D01*
X128414732Y-81566431D01*
X128208497Y-81470261D01*
X128208488Y-81470258D01*
X127988697Y-81411366D01*
X127988693Y-81411365D01*
X127988692Y-81411365D01*
X127988691Y-81411364D01*
X127988686Y-81411364D01*
X127762002Y-81391532D01*
X127761998Y-81391532D01*
X127535313Y-81411364D01*
X127535302Y-81411366D01*
X127315511Y-81470258D01*
X127315502Y-81470261D01*
X127109267Y-81566431D01*
X127109265Y-81566432D01*
X126922858Y-81696954D01*
X126761954Y-81857858D01*
X126631432Y-82044265D01*
X126631431Y-82044267D01*
X126535261Y-82250502D01*
X126535258Y-82250511D01*
X126476366Y-82470302D01*
X126476364Y-82470313D01*
X126456532Y-82696998D01*
X119880500Y-82696998D01*
X119880500Y-75835997D01*
X125478677Y-75835997D01*
X125478677Y-75836002D01*
X125497929Y-76056062D01*
X125497930Y-76056070D01*
X125555104Y-76269445D01*
X125555105Y-76269447D01*
X125555106Y-76269450D01*
X125620488Y-76409663D01*
X125648466Y-76469662D01*
X125648468Y-76469666D01*
X125775170Y-76650615D01*
X125775175Y-76650621D01*
X125931378Y-76806824D01*
X125931384Y-76806829D01*
X126112333Y-76933531D01*
X126112335Y-76933532D01*
X126112338Y-76933534D01*
X126312550Y-77026894D01*
X126525932Y-77084070D01*
X126683123Y-77097822D01*
X126745998Y-77103323D01*
X126746000Y-77103323D01*
X126746002Y-77103323D01*
X126801017Y-77098509D01*
X126966068Y-77084070D01*
X127179450Y-77026894D01*
X127379662Y-76933534D01*
X127560620Y-76806826D01*
X127716826Y-76650620D01*
X127843534Y-76469662D01*
X127936894Y-76269450D01*
X127994070Y-76056068D01*
X128008935Y-75886160D01*
X128013323Y-75836002D01*
X128013323Y-75835997D01*
X133987677Y-75835997D01*
X133987677Y-75836002D01*
X134006929Y-76056062D01*
X134006930Y-76056070D01*
X134064104Y-76269445D01*
X134064105Y-76269447D01*
X134064106Y-76269450D01*
X134129488Y-76409663D01*
X134157466Y-76469662D01*
X134157468Y-76469666D01*
X134284170Y-76650615D01*
X134284175Y-76650621D01*
X134440378Y-76806824D01*
X134440384Y-76806829D01*
X134621333Y-76933531D01*
X134621335Y-76933532D01*
X134621338Y-76933534D01*
X134821550Y-77026894D01*
X135034932Y-77084070D01*
X135192123Y-77097822D01*
X135254998Y-77103323D01*
X135255000Y-77103323D01*
X135255002Y-77103323D01*
X135310017Y-77098509D01*
X135475068Y-77084070D01*
X135688450Y-77026894D01*
X135888662Y-76933534D01*
X136069620Y-76806826D01*
X136225826Y-76650620D01*
X136352534Y-76469662D01*
X136445894Y-76269450D01*
X136503070Y-76056068D01*
X136517935Y-75886160D01*
X136522323Y-75836002D01*
X136522323Y-75835999D01*
X138052179Y-75835999D01*
X138052179Y-75836000D01*
X138071424Y-76055976D01*
X138071426Y-76055986D01*
X138128575Y-76269270D01*
X138128580Y-76269284D01*
X138221898Y-76469405D01*
X138221901Y-76469411D01*
X138267258Y-76534187D01*
X138267259Y-76534188D01*
X138938000Y-75863447D01*
X138938000Y-75886160D01*
X138963964Y-75983061D01*
X139014124Y-76069940D01*
X139085060Y-76140876D01*
X139171939Y-76191036D01*
X139268840Y-76217000D01*
X139291553Y-76217000D01*
X138620810Y-76887740D01*
X138685590Y-76933099D01*
X138685592Y-76933100D01*
X138885715Y-77026419D01*
X138885729Y-77026424D01*
X139099013Y-77083573D01*
X139099023Y-77083575D01*
X139318999Y-77102821D01*
X139319001Y-77102821D01*
X139538976Y-77083575D01*
X139538986Y-77083573D01*
X139752270Y-77026424D01*
X139752284Y-77026419D01*
X139952407Y-76933100D01*
X139952417Y-76933094D01*
X140017188Y-76887741D01*
X139346448Y-76217000D01*
X139369160Y-76217000D01*
X139466061Y-76191036D01*
X139552940Y-76140876D01*
X139623876Y-76069940D01*
X139674036Y-75983061D01*
X139700000Y-75886160D01*
X139700000Y-75863447D01*
X140370741Y-76534188D01*
X140416094Y-76469417D01*
X140416100Y-76469407D01*
X140509419Y-76269284D01*
X140509424Y-76269270D01*
X140566573Y-76055986D01*
X140566575Y-76055976D01*
X140585821Y-75836000D01*
X140585821Y-75835999D01*
X140566575Y-75616023D01*
X140566573Y-75616013D01*
X140509424Y-75402729D01*
X140509420Y-75402720D01*
X140416096Y-75202586D01*
X140370741Y-75137811D01*
X140370740Y-75137810D01*
X139700000Y-75808551D01*
X139700000Y-75785840D01*
X139674036Y-75688939D01*
X139623876Y-75602060D01*
X139552940Y-75531124D01*
X139466061Y-75480964D01*
X139369160Y-75455000D01*
X139346448Y-75455000D01*
X140017188Y-74784259D01*
X140017187Y-74784258D01*
X139952411Y-74738901D01*
X139952405Y-74738898D01*
X139752284Y-74645580D01*
X139752270Y-74645575D01*
X139538986Y-74588426D01*
X139538976Y-74588424D01*
X139319001Y-74569179D01*
X139318999Y-74569179D01*
X139099023Y-74588424D01*
X139099013Y-74588426D01*
X138885729Y-74645575D01*
X138885720Y-74645579D01*
X138685590Y-74738901D01*
X138620811Y-74784258D01*
X139291553Y-75455000D01*
X139268840Y-75455000D01*
X139171939Y-75480964D01*
X139085060Y-75531124D01*
X139014124Y-75602060D01*
X138963964Y-75688939D01*
X138938000Y-75785840D01*
X138938000Y-75808553D01*
X138267258Y-75137811D01*
X138221901Y-75202590D01*
X138128579Y-75402720D01*
X138128575Y-75402729D01*
X138071426Y-75616013D01*
X138071424Y-75616023D01*
X138052179Y-75835999D01*
X136522323Y-75835999D01*
X136522323Y-75835997D01*
X136504447Y-75631677D01*
X136503070Y-75615932D01*
X136445894Y-75402550D01*
X136352534Y-75202339D01*
X136225826Y-75021380D01*
X136069620Y-74865174D01*
X136069616Y-74865171D01*
X136069615Y-74865170D01*
X135888666Y-74738468D01*
X135888662Y-74738466D01*
X135888660Y-74738465D01*
X135688450Y-74645106D01*
X135688447Y-74645105D01*
X135688445Y-74645104D01*
X135475070Y-74587930D01*
X135475062Y-74587929D01*
X135255002Y-74568677D01*
X135254998Y-74568677D01*
X135034937Y-74587929D01*
X135034929Y-74587930D01*
X134821554Y-74645104D01*
X134821548Y-74645107D01*
X134621340Y-74738465D01*
X134621338Y-74738466D01*
X134440377Y-74865175D01*
X134284175Y-75021377D01*
X134157466Y-75202338D01*
X134157465Y-75202340D01*
X134064107Y-75402548D01*
X134064104Y-75402554D01*
X134006930Y-75615929D01*
X134006929Y-75615937D01*
X133987677Y-75835997D01*
X128013323Y-75835997D01*
X127995447Y-75631677D01*
X127994070Y-75615932D01*
X127936894Y-75402550D01*
X127843534Y-75202339D01*
X127716826Y-75021380D01*
X127560620Y-74865174D01*
X127560616Y-74865171D01*
X127560615Y-74865170D01*
X127379666Y-74738468D01*
X127379662Y-74738466D01*
X127379660Y-74738465D01*
X127179450Y-74645106D01*
X127179447Y-74645105D01*
X127179445Y-74645104D01*
X126966070Y-74587930D01*
X126966062Y-74587929D01*
X126746002Y-74568677D01*
X126745998Y-74568677D01*
X126525937Y-74587929D01*
X126525929Y-74587930D01*
X126312554Y-74645104D01*
X126312548Y-74645107D01*
X126112340Y-74738465D01*
X126112338Y-74738466D01*
X125931377Y-74865175D01*
X125775175Y-75021377D01*
X125648466Y-75202338D01*
X125648465Y-75202340D01*
X125555107Y-75402548D01*
X125555104Y-75402554D01*
X125497930Y-75615929D01*
X125497929Y-75615937D01*
X125478677Y-75835997D01*
X119880500Y-75835997D01*
X119880500Y-62444025D01*
X119900185Y-62376986D01*
X119952989Y-62331231D01*
X120022147Y-62321287D01*
X120085703Y-62350312D01*
X120123477Y-62409090D01*
X120128255Y-62436239D01*
X120134516Y-62535767D01*
X120134517Y-62535774D01*
X120191929Y-62836738D01*
X120216534Y-62912464D01*
X120286606Y-63128121D01*
X120417057Y-63405344D01*
X120417059Y-63405347D01*
X120417060Y-63405349D01*
X120581221Y-63664026D01*
X120581224Y-63664030D01*
X120581225Y-63664031D01*
X120617795Y-63708237D01*
X120776522Y-63900104D01*
X120999862Y-64109835D01*
X120999872Y-64109843D01*
X121247721Y-64289916D01*
X121247739Y-64289928D01*
X121516218Y-64437525D01*
X121516226Y-64437529D01*
X121801081Y-64550311D01*
X121801084Y-64550312D01*
X122097838Y-64626505D01*
X122097842Y-64626506D01*
X122161610Y-64634561D01*
X122401797Y-64664905D01*
X122401806Y-64664905D01*
X122401809Y-64664906D01*
X122401811Y-64664906D01*
X122708189Y-64664906D01*
X122708191Y-64664906D01*
X122708194Y-64664905D01*
X122708202Y-64664905D01*
X122889579Y-64641991D01*
X123012158Y-64626506D01*
X123308915Y-64550312D01*
X123480661Y-64482313D01*
X123593773Y-64437529D01*
X123593777Y-64437526D01*
X123593782Y-64437525D01*
X123862267Y-64289924D01*
X124110136Y-64109837D01*
X124333479Y-63900103D01*
X124528775Y-63664031D01*
X124692943Y-63405344D01*
X124823394Y-63128121D01*
X124918072Y-62836734D01*
X124975482Y-62535778D01*
X124979360Y-62474144D01*
X124994720Y-62230005D01*
X124994720Y-62229994D01*
X124975483Y-61924232D01*
X124975482Y-61924225D01*
X124975482Y-61924222D01*
X124918072Y-61623266D01*
X124823394Y-61331879D01*
X124692943Y-61054656D01*
X124535920Y-60807227D01*
X124528778Y-60795973D01*
X124528775Y-60795969D01*
X124333479Y-60559897D01*
X124110136Y-60350163D01*
X124110133Y-60350161D01*
X124110127Y-60350156D01*
X123862278Y-60170083D01*
X123862260Y-60170071D01*
X123593781Y-60022474D01*
X123593773Y-60022470D01*
X123308918Y-59909688D01*
X123308915Y-59909687D01*
X123012161Y-59833494D01*
X123012148Y-59833492D01*
X122766994Y-59802522D01*
X122702950Y-59774591D01*
X122664174Y-59716468D01*
X122662977Y-59646609D01*
X122699738Y-59587192D01*
X122762788Y-59557083D01*
X122782535Y-59555500D01*
X209630369Y-59555500D01*
X209697408Y-59575185D01*
G37*
%TD.AperFunction*%
%TA.AperFunction,Conductor*%
G36*
X174498000Y-108635160D02*
G01*
X174523964Y-108732061D01*
X174574124Y-108818940D01*
X174645060Y-108889876D01*
X174731939Y-108940036D01*
X174828840Y-108966000D01*
X174851553Y-108966000D01*
X174180810Y-109636740D01*
X174245589Y-109682098D01*
X174374781Y-109742342D01*
X174427220Y-109788514D01*
X174446372Y-109855708D01*
X174426156Y-109922589D01*
X174374781Y-109967106D01*
X174245340Y-110027465D01*
X174245338Y-110027466D01*
X174064377Y-110154175D01*
X173908175Y-110310377D01*
X173781466Y-110491338D01*
X173781465Y-110491340D01*
X173688107Y-110691548D01*
X173688101Y-110691564D01*
X173687620Y-110693359D01*
X173687192Y-110694059D01*
X173686252Y-110696644D01*
X173685732Y-110696454D01*
X173651248Y-110753015D01*
X173588397Y-110783537D01*
X173519022Y-110775233D01*
X173465150Y-110730741D01*
X173448074Y-110693343D01*
X173438742Y-110658513D01*
X173438738Y-110658502D01*
X173436277Y-110653224D01*
X173342568Y-110452266D01*
X173212047Y-110265861D01*
X173212045Y-110265858D01*
X173051141Y-110104954D01*
X172864734Y-109974432D01*
X172864730Y-109974430D01*
X172849022Y-109967105D01*
X172796583Y-109920931D01*
X172777433Y-109853737D01*
X172797650Y-109786857D01*
X172849028Y-109742340D01*
X172864481Y-109735134D01*
X172937471Y-109684024D01*
X172258447Y-109005000D01*
X172264661Y-109005000D01*
X172366394Y-108977741D01*
X172457606Y-108925080D01*
X172532080Y-108850606D01*
X172584741Y-108759394D01*
X172612000Y-108657661D01*
X172612000Y-108651447D01*
X173291024Y-109330471D01*
X173342136Y-109257478D01*
X173438264Y-109051331D01*
X173438267Y-109051323D01*
X173448073Y-109014724D01*
X173484437Y-108955063D01*
X173547283Y-108924532D01*
X173616659Y-108932826D01*
X173670538Y-108977309D01*
X173687621Y-109014711D01*
X173688573Y-109018264D01*
X173688580Y-109018284D01*
X173781898Y-109218405D01*
X173781901Y-109218411D01*
X173827258Y-109283187D01*
X173827259Y-109283188D01*
X174498000Y-108612447D01*
X174498000Y-108635160D01*
G37*
%TD.AperFunction*%
%TA.AperFunction,Conductor*%
G36*
X172215850Y-84857685D02*
G01*
X172236492Y-84874319D01*
X173192268Y-85830095D01*
X173225753Y-85891418D01*
X173220769Y-85961110D01*
X173178897Y-86017043D01*
X173124537Y-86037820D01*
X173124921Y-86039998D01*
X173119586Y-86040938D01*
X172891344Y-86102094D01*
X172891337Y-86102096D01*
X172891337Y-86102097D01*
X172877816Y-86108401D01*
X172677171Y-86201964D01*
X172677169Y-86201965D01*
X172483597Y-86337505D01*
X172316505Y-86504597D01*
X172186575Y-86690158D01*
X172131998Y-86733783D01*
X172062500Y-86740977D01*
X172000145Y-86709454D01*
X171983425Y-86690158D01*
X171853494Y-86504597D01*
X171686402Y-86337506D01*
X171686395Y-86337501D01*
X171685862Y-86337128D01*
X171573982Y-86258788D01*
X171492834Y-86201967D01*
X171492830Y-86201965D01*
X171421727Y-86168809D01*
X171278663Y-86102097D01*
X171278659Y-86102096D01*
X171278655Y-86102094D01*
X171050413Y-86040938D01*
X171050403Y-86040936D01*
X170815001Y-86020341D01*
X170814999Y-86020341D01*
X170579596Y-86040936D01*
X170579586Y-86040938D01*
X170351344Y-86102094D01*
X170351337Y-86102096D01*
X170351337Y-86102097D01*
X170337816Y-86108401D01*
X170137171Y-86201964D01*
X170137169Y-86201965D01*
X169943600Y-86337503D01*
X169821284Y-86459819D01*
X169759961Y-86493303D01*
X169690269Y-86488319D01*
X169634336Y-86446447D01*
X169617421Y-86415470D01*
X169568354Y-86283913D01*
X169568350Y-86283906D01*
X169482190Y-86168812D01*
X169482187Y-86168809D01*
X169367093Y-86082649D01*
X169367086Y-86082645D01*
X169232379Y-86032403D01*
X169232372Y-86032401D01*
X169172844Y-86026000D01*
X168525000Y-86026000D01*
X168525000Y-86931439D01*
X168471853Y-86900755D01*
X168342143Y-86866000D01*
X168207857Y-86866000D01*
X168078147Y-86900755D01*
X168025000Y-86931439D01*
X168025000Y-86026000D01*
X167377155Y-86026000D01*
X167317627Y-86032401D01*
X167317620Y-86032403D01*
X167182913Y-86082645D01*
X167182906Y-86082649D01*
X167067812Y-86168809D01*
X167067809Y-86168812D01*
X166981649Y-86283906D01*
X166981645Y-86283913D01*
X166932578Y-86415470D01*
X166890707Y-86471404D01*
X166825242Y-86495821D01*
X166756969Y-86480969D01*
X166728715Y-86459819D01*
X166677266Y-86408370D01*
X166606401Y-86337505D01*
X166606397Y-86337502D01*
X166606396Y-86337501D01*
X166412834Y-86201967D01*
X166412830Y-86201965D01*
X166341727Y-86168809D01*
X166198663Y-86102097D01*
X166198659Y-86102096D01*
X166198655Y-86102094D01*
X165970413Y-86040938D01*
X165970403Y-86040936D01*
X165735001Y-86020341D01*
X165734999Y-86020341D01*
X165499596Y-86040936D01*
X165499586Y-86040938D01*
X165271344Y-86102094D01*
X165271337Y-86102096D01*
X165271337Y-86102097D01*
X165257816Y-86108401D01*
X165057171Y-86201964D01*
X165057169Y-86201965D01*
X164863597Y-86337505D01*
X164696505Y-86504597D01*
X164566575Y-86690158D01*
X164511998Y-86733783D01*
X164442500Y-86740977D01*
X164380145Y-86709454D01*
X164363425Y-86690158D01*
X164233494Y-86504597D01*
X164066402Y-86337506D01*
X164066395Y-86337501D01*
X164065862Y-86337128D01*
X163953982Y-86258788D01*
X163872834Y-86201967D01*
X163872830Y-86201965D01*
X163801727Y-86168809D01*
X163658663Y-86102097D01*
X163658659Y-86102096D01*
X163658655Y-86102094D01*
X163430413Y-86040938D01*
X163430403Y-86040936D01*
X163195001Y-86020341D01*
X163194999Y-86020341D01*
X162959596Y-86040936D01*
X162959586Y-86040938D01*
X162731344Y-86102094D01*
X162731337Y-86102096D01*
X162731337Y-86102097D01*
X162717816Y-86108401D01*
X162517171Y-86201964D01*
X162517169Y-86201965D01*
X162323597Y-86337505D01*
X162156505Y-86504597D01*
X162020965Y-86698169D01*
X162020964Y-86698171D01*
X161921098Y-86912335D01*
X161921094Y-86912344D01*
X161859938Y-87140586D01*
X161859936Y-87140596D01*
X161839341Y-87375999D01*
X161839341Y-87376000D01*
X161859936Y-87611403D01*
X161859938Y-87611413D01*
X161921094Y-87839655D01*
X161921096Y-87839659D01*
X161921097Y-87839663D01*
X161993060Y-87993988D01*
X162020965Y-88053830D01*
X162020967Y-88053834D01*
X162065496Y-88117427D01*
X162156505Y-88247401D01*
X162323599Y-88414495D01*
X162420384Y-88482265D01*
X162517165Y-88550032D01*
X162517167Y-88550033D01*
X162517170Y-88550035D01*
X162731337Y-88649903D01*
X162959592Y-88711063D01*
X163130319Y-88726000D01*
X163194999Y-88731659D01*
X163195000Y-88731659D01*
X163195001Y-88731659D01*
X163259681Y-88726000D01*
X163430408Y-88711063D01*
X163658663Y-88649903D01*
X163872830Y-88550035D01*
X164066401Y-88414495D01*
X164233495Y-88247401D01*
X164363425Y-88061842D01*
X164418002Y-88018217D01*
X164487500Y-88011023D01*
X164549855Y-88042546D01*
X164566575Y-88061842D01*
X164696500Y-88247395D01*
X164696505Y-88247401D01*
X164863599Y-88414495D01*
X164960384Y-88482265D01*
X165057165Y-88550032D01*
X165057167Y-88550033D01*
X165057170Y-88550035D01*
X165271337Y-88649903D01*
X165499592Y-88711063D01*
X165670319Y-88726000D01*
X165734999Y-88731659D01*
X165735000Y-88731659D01*
X165735001Y-88731659D01*
X165799681Y-88726000D01*
X165970408Y-88711063D01*
X166198663Y-88649903D01*
X166412830Y-88550035D01*
X166606401Y-88414495D01*
X166728717Y-88292178D01*
X166790036Y-88258696D01*
X166859728Y-88263680D01*
X166915662Y-88305551D01*
X166932577Y-88336528D01*
X166981646Y-88468088D01*
X166981649Y-88468093D01*
X167067809Y-88583187D01*
X167067812Y-88583190D01*
X167182906Y-88669350D01*
X167182913Y-88669354D01*
X167317620Y-88719596D01*
X167317627Y-88719598D01*
X167377155Y-88725999D01*
X167377172Y-88726000D01*
X168025000Y-88726000D01*
X168025000Y-87820560D01*
X168078147Y-87851245D01*
X168207857Y-87886000D01*
X168342143Y-87886000D01*
X168471853Y-87851245D01*
X168525000Y-87820560D01*
X168525000Y-88726000D01*
X169172828Y-88726000D01*
X169172844Y-88725999D01*
X169232372Y-88719598D01*
X169232379Y-88719596D01*
X169367086Y-88669354D01*
X169367089Y-88669352D01*
X169420488Y-88629378D01*
X169485952Y-88604960D01*
X169554225Y-88619811D01*
X169603631Y-88669216D01*
X169618800Y-88728644D01*
X169618800Y-97555691D01*
X169599115Y-97622730D01*
X169582481Y-97643372D01*
X169465975Y-97759877D01*
X169339266Y-97940838D01*
X169339265Y-97940840D01*
X169279182Y-98069689D01*
X169233009Y-98122128D01*
X169165816Y-98141280D01*
X169098935Y-98121064D01*
X169054418Y-98069689D01*
X168994334Y-97940840D01*
X168994333Y-97940838D01*
X168867627Y-97759881D01*
X168812866Y-97705120D01*
X168711420Y-97603674D01*
X168711416Y-97603671D01*
X168711415Y-97603670D01*
X168530466Y-97476968D01*
X168530462Y-97476966D01*
X168530460Y-97476965D01*
X168330250Y-97383606D01*
X168330247Y-97383605D01*
X168330245Y-97383604D01*
X168116870Y-97326430D01*
X168116862Y-97326429D01*
X167896802Y-97307177D01*
X167896798Y-97307177D01*
X167676737Y-97326429D01*
X167676729Y-97326430D01*
X167463354Y-97383604D01*
X167463348Y-97383607D01*
X167263140Y-97476965D01*
X167263138Y-97476966D01*
X167082177Y-97603675D01*
X166925975Y-97759877D01*
X166799266Y-97940838D01*
X166799265Y-97940840D01*
X166739182Y-98069689D01*
X166693009Y-98122128D01*
X166625816Y-98141280D01*
X166558935Y-98121064D01*
X166514418Y-98069689D01*
X166454334Y-97940840D01*
X166454333Y-97940838D01*
X166327627Y-97759881D01*
X166272866Y-97705120D01*
X166171420Y-97603674D01*
X166171416Y-97603671D01*
X166171415Y-97603670D01*
X165990466Y-97476968D01*
X165990462Y-97476966D01*
X165990460Y-97476965D01*
X165790250Y-97383606D01*
X165790247Y-97383605D01*
X165790245Y-97383604D01*
X165576870Y-97326430D01*
X165576862Y-97326429D01*
X165356802Y-97307177D01*
X165356798Y-97307177D01*
X165136737Y-97326429D01*
X165136729Y-97326430D01*
X164923354Y-97383604D01*
X164923348Y-97383607D01*
X164723140Y-97476965D01*
X164723138Y-97476966D01*
X164542177Y-97603675D01*
X164385975Y-97759877D01*
X164259266Y-97940838D01*
X164259265Y-97940840D01*
X164199182Y-98069689D01*
X164153009Y-98122128D01*
X164085816Y-98141280D01*
X164018935Y-98121064D01*
X163974418Y-98069689D01*
X163914334Y-97940840D01*
X163914333Y-97940838D01*
X163787627Y-97759881D01*
X163732866Y-97705120D01*
X163631420Y-97603674D01*
X163631416Y-97603671D01*
X163631415Y-97603670D01*
X163450466Y-97476968D01*
X163450462Y-97476966D01*
X163450460Y-97476965D01*
X163250250Y-97383606D01*
X163250247Y-97383605D01*
X163250245Y-97383604D01*
X163036870Y-97326430D01*
X163036862Y-97326429D01*
X162816802Y-97307177D01*
X162816795Y-97307177D01*
X162772792Y-97311026D01*
X162704292Y-97297258D01*
X162674306Y-97275179D01*
X161382319Y-95983192D01*
X161348834Y-95921869D01*
X161346000Y-95895511D01*
X161346000Y-84972189D01*
X161365685Y-84905150D01*
X161382319Y-84884508D01*
X161392508Y-84874319D01*
X161453831Y-84840834D01*
X161480189Y-84838000D01*
X172148811Y-84838000D01*
X172215850Y-84857685D01*
G37*
%TD.AperFunction*%
%TA.AperFunction,Conductor*%
G36*
X175043200Y-95963061D02*
G01*
X175070459Y-96064794D01*
X175123120Y-96156006D01*
X175197594Y-96230480D01*
X175288806Y-96283141D01*
X175390539Y-96310400D01*
X175396753Y-96310400D01*
X174717726Y-96989425D01*
X174790713Y-97040532D01*
X174790717Y-97040534D01*
X174867027Y-97076118D01*
X174919466Y-97122290D01*
X174938618Y-97189484D01*
X174918402Y-97256365D01*
X174865237Y-97301699D01*
X174814622Y-97312500D01*
X174706955Y-97312500D01*
X174647427Y-97318901D01*
X174647420Y-97318903D01*
X174512713Y-97369145D01*
X174512706Y-97369149D01*
X174397612Y-97455309D01*
X174397609Y-97455312D01*
X174311449Y-97570406D01*
X174311445Y-97570413D01*
X174261203Y-97705120D01*
X174261201Y-97705127D01*
X174254800Y-97764655D01*
X174254800Y-97805293D01*
X174235115Y-97872332D01*
X174182311Y-97918087D01*
X174113153Y-97928031D01*
X174049597Y-97899006D01*
X174029225Y-97876416D01*
X173947627Y-97759881D01*
X173892866Y-97705120D01*
X173791420Y-97603674D01*
X173791416Y-97603671D01*
X173791415Y-97603670D01*
X173610466Y-97476968D01*
X173610462Y-97476966D01*
X173610460Y-97476965D01*
X173410250Y-97383606D01*
X173410245Y-97383604D01*
X173410241Y-97383603D01*
X173387063Y-97377392D01*
X173327404Y-97341026D01*
X173296876Y-97278178D01*
X173305173Y-97208803D01*
X173349660Y-97154926D01*
X173387075Y-97137841D01*
X173389696Y-97137139D01*
X173595934Y-97040968D01*
X173782339Y-96910447D01*
X173943247Y-96749539D01*
X174073768Y-96563134D01*
X174081093Y-96547424D01*
X174127264Y-96494986D01*
X174194457Y-96475833D01*
X174261338Y-96496048D01*
X174305857Y-96547424D01*
X174313064Y-96562880D01*
X174364174Y-96635872D01*
X175043200Y-95956846D01*
X175043200Y-95963061D01*
G37*
%TD.AperFunction*%
%TA.AperFunction,Conductor*%
G36*
X205696250Y-84022685D02*
G01*
X205716892Y-84039319D01*
X207531524Y-85853951D01*
X207565009Y-85915274D01*
X207560025Y-85984966D01*
X207518153Y-86040899D01*
X207452689Y-86065316D01*
X207400510Y-86057814D01*
X207332379Y-86032403D01*
X207332372Y-86032401D01*
X207272844Y-86026000D01*
X206625000Y-86026000D01*
X206625000Y-86931439D01*
X206571853Y-86900755D01*
X206442143Y-86866000D01*
X206307857Y-86866000D01*
X206178147Y-86900755D01*
X206125000Y-86931439D01*
X206125000Y-86026000D01*
X205477155Y-86026000D01*
X205417627Y-86032401D01*
X205417620Y-86032403D01*
X205282913Y-86082645D01*
X205282906Y-86082649D01*
X205167812Y-86168809D01*
X205167809Y-86168812D01*
X205081649Y-86283906D01*
X205081645Y-86283913D01*
X205032578Y-86415470D01*
X204990707Y-86471404D01*
X204925242Y-86495821D01*
X204856969Y-86480969D01*
X204828715Y-86459819D01*
X204777266Y-86408370D01*
X204706401Y-86337505D01*
X204706397Y-86337502D01*
X204706396Y-86337501D01*
X204512834Y-86201967D01*
X204512830Y-86201965D01*
X204441727Y-86168809D01*
X204298663Y-86102097D01*
X204298659Y-86102096D01*
X204298655Y-86102094D01*
X204070413Y-86040938D01*
X204070403Y-86040936D01*
X203835001Y-86020341D01*
X203834999Y-86020341D01*
X203599596Y-86040936D01*
X203599586Y-86040938D01*
X203371344Y-86102094D01*
X203371337Y-86102096D01*
X203371337Y-86102097D01*
X203357816Y-86108401D01*
X203157171Y-86201964D01*
X203157169Y-86201965D01*
X202963597Y-86337505D01*
X202796505Y-86504597D01*
X202666575Y-86690158D01*
X202611998Y-86733783D01*
X202542500Y-86740977D01*
X202480145Y-86709454D01*
X202463425Y-86690158D01*
X202333494Y-86504597D01*
X202166402Y-86337506D01*
X202166395Y-86337501D01*
X202165862Y-86337128D01*
X202053982Y-86258788D01*
X201972834Y-86201967D01*
X201972830Y-86201965D01*
X201901727Y-86168809D01*
X201758663Y-86102097D01*
X201758659Y-86102096D01*
X201758655Y-86102094D01*
X201530413Y-86040938D01*
X201530403Y-86040936D01*
X201295001Y-86020341D01*
X201294999Y-86020341D01*
X201059596Y-86040936D01*
X201059586Y-86040938D01*
X200831344Y-86102094D01*
X200831337Y-86102096D01*
X200831337Y-86102097D01*
X200817816Y-86108401D01*
X200617171Y-86201964D01*
X200617169Y-86201965D01*
X200423597Y-86337505D01*
X200256505Y-86504597D01*
X200126575Y-86690158D01*
X200071998Y-86733783D01*
X200002500Y-86740977D01*
X199940145Y-86709454D01*
X199923425Y-86690158D01*
X199793494Y-86504597D01*
X199626402Y-86337506D01*
X199626395Y-86337501D01*
X199625862Y-86337128D01*
X199513982Y-86258788D01*
X199432834Y-86201967D01*
X199432830Y-86201965D01*
X199361727Y-86168809D01*
X199218663Y-86102097D01*
X199218659Y-86102096D01*
X199218655Y-86102094D01*
X198990413Y-86040938D01*
X198990403Y-86040936D01*
X198755001Y-86020341D01*
X198754999Y-86020341D01*
X198519596Y-86040936D01*
X198519586Y-86040938D01*
X198291344Y-86102094D01*
X198291337Y-86102096D01*
X198291337Y-86102097D01*
X198277816Y-86108401D01*
X198077171Y-86201964D01*
X198077169Y-86201965D01*
X197883597Y-86337505D01*
X197716505Y-86504597D01*
X197586575Y-86690158D01*
X197531998Y-86733783D01*
X197462500Y-86740977D01*
X197400145Y-86709454D01*
X197383425Y-86690158D01*
X197253494Y-86504597D01*
X197086402Y-86337506D01*
X197086395Y-86337501D01*
X197085862Y-86337128D01*
X196973982Y-86258788D01*
X196892834Y-86201967D01*
X196892830Y-86201965D01*
X196821727Y-86168809D01*
X196678663Y-86102097D01*
X196678659Y-86102096D01*
X196678655Y-86102094D01*
X196450413Y-86040938D01*
X196450403Y-86040936D01*
X196215001Y-86020341D01*
X196214999Y-86020341D01*
X195979596Y-86040936D01*
X195979586Y-86040938D01*
X195751344Y-86102094D01*
X195751337Y-86102096D01*
X195751337Y-86102097D01*
X195737816Y-86108401D01*
X195537171Y-86201964D01*
X195537169Y-86201965D01*
X195343600Y-86337503D01*
X195221284Y-86459819D01*
X195159961Y-86493303D01*
X195090269Y-86488319D01*
X195034336Y-86446447D01*
X195017421Y-86415470D01*
X194968354Y-86283913D01*
X194968350Y-86283906D01*
X194882190Y-86168812D01*
X194882187Y-86168809D01*
X194767093Y-86082649D01*
X194767086Y-86082645D01*
X194632379Y-86032403D01*
X194632372Y-86032401D01*
X194572844Y-86026000D01*
X193925000Y-86026000D01*
X193925000Y-86931439D01*
X193871853Y-86900755D01*
X193742143Y-86866000D01*
X193607857Y-86866000D01*
X193478147Y-86900755D01*
X193425000Y-86931439D01*
X193425000Y-86026000D01*
X192777155Y-86026000D01*
X192717627Y-86032401D01*
X192717620Y-86032403D01*
X192582913Y-86082645D01*
X192582906Y-86082649D01*
X192467812Y-86168809D01*
X192467809Y-86168812D01*
X192381649Y-86283906D01*
X192381645Y-86283913D01*
X192332578Y-86415470D01*
X192290707Y-86471404D01*
X192225242Y-86495821D01*
X192156969Y-86480969D01*
X192128715Y-86459819D01*
X192077266Y-86408370D01*
X192006401Y-86337505D01*
X192006397Y-86337502D01*
X192006396Y-86337501D01*
X191812834Y-86201967D01*
X191812830Y-86201965D01*
X191741727Y-86168809D01*
X191598663Y-86102097D01*
X191598659Y-86102096D01*
X191598655Y-86102094D01*
X191370413Y-86040938D01*
X191370403Y-86040936D01*
X191135001Y-86020341D01*
X191134999Y-86020341D01*
X190899596Y-86040936D01*
X190899586Y-86040938D01*
X190671344Y-86102094D01*
X190671337Y-86102096D01*
X190671337Y-86102097D01*
X190657816Y-86108401D01*
X190457171Y-86201964D01*
X190457169Y-86201965D01*
X190263597Y-86337505D01*
X190096505Y-86504597D01*
X189966575Y-86690158D01*
X189911998Y-86733783D01*
X189842500Y-86740977D01*
X189780145Y-86709454D01*
X189763425Y-86690158D01*
X189633494Y-86504597D01*
X189466402Y-86337506D01*
X189466395Y-86337501D01*
X189465862Y-86337128D01*
X189353982Y-86258788D01*
X189272834Y-86201967D01*
X189272830Y-86201965D01*
X189201727Y-86168809D01*
X189058663Y-86102097D01*
X189058659Y-86102096D01*
X189058655Y-86102094D01*
X188830413Y-86040938D01*
X188830403Y-86040936D01*
X188595001Y-86020341D01*
X188594999Y-86020341D01*
X188359596Y-86040936D01*
X188359586Y-86040938D01*
X188131344Y-86102094D01*
X188131337Y-86102096D01*
X188131337Y-86102097D01*
X188117816Y-86108401D01*
X187917171Y-86201964D01*
X187917169Y-86201965D01*
X187723597Y-86337505D01*
X187556505Y-86504597D01*
X187426575Y-86690158D01*
X187371998Y-86733783D01*
X187302500Y-86740977D01*
X187240145Y-86709454D01*
X187223425Y-86690158D01*
X187093494Y-86504597D01*
X186926402Y-86337506D01*
X186926395Y-86337501D01*
X186925862Y-86337128D01*
X186813982Y-86258788D01*
X186732834Y-86201967D01*
X186732830Y-86201965D01*
X186661727Y-86168809D01*
X186518663Y-86102097D01*
X186518659Y-86102096D01*
X186518655Y-86102094D01*
X186290413Y-86040938D01*
X186290403Y-86040936D01*
X186055001Y-86020341D01*
X186054999Y-86020341D01*
X185819596Y-86040936D01*
X185819586Y-86040938D01*
X185591344Y-86102094D01*
X185591337Y-86102096D01*
X185591337Y-86102097D01*
X185577816Y-86108401D01*
X185377171Y-86201964D01*
X185377169Y-86201965D01*
X185183597Y-86337505D01*
X185016505Y-86504597D01*
X184886575Y-86690158D01*
X184831998Y-86733783D01*
X184762500Y-86740977D01*
X184700145Y-86709454D01*
X184683425Y-86690158D01*
X184553494Y-86504597D01*
X184386402Y-86337506D01*
X184386395Y-86337501D01*
X184385862Y-86337128D01*
X184273982Y-86258788D01*
X184192834Y-86201967D01*
X184192830Y-86201965D01*
X184121727Y-86168809D01*
X183978663Y-86102097D01*
X183978659Y-86102096D01*
X183978655Y-86102094D01*
X183750413Y-86040938D01*
X183750403Y-86040936D01*
X183515001Y-86020341D01*
X183514999Y-86020341D01*
X183279596Y-86040936D01*
X183279586Y-86040938D01*
X183051344Y-86102094D01*
X183051337Y-86102096D01*
X183051337Y-86102097D01*
X183037816Y-86108401D01*
X182837171Y-86201964D01*
X182837169Y-86201965D01*
X182643600Y-86337503D01*
X182521284Y-86459819D01*
X182459961Y-86493303D01*
X182390269Y-86488319D01*
X182334336Y-86446447D01*
X182317421Y-86415470D01*
X182268354Y-86283913D01*
X182268350Y-86283906D01*
X182182190Y-86168812D01*
X182182187Y-86168809D01*
X182067093Y-86082649D01*
X182067086Y-86082645D01*
X181932379Y-86032403D01*
X181932372Y-86032401D01*
X181872844Y-86026000D01*
X181225000Y-86026000D01*
X181225000Y-86931439D01*
X181171853Y-86900755D01*
X181042143Y-86866000D01*
X180907857Y-86866000D01*
X180778147Y-86900755D01*
X180725000Y-86931439D01*
X180725000Y-86026000D01*
X180077155Y-86026000D01*
X180017627Y-86032401D01*
X180017620Y-86032403D01*
X179882913Y-86082645D01*
X179882906Y-86082649D01*
X179767812Y-86168809D01*
X179767809Y-86168812D01*
X179681649Y-86283906D01*
X179681645Y-86283913D01*
X179632578Y-86415470D01*
X179590707Y-86471404D01*
X179525242Y-86495821D01*
X179456969Y-86480969D01*
X179428715Y-86459819D01*
X179377266Y-86408370D01*
X179306401Y-86337505D01*
X179306397Y-86337502D01*
X179306396Y-86337501D01*
X179112834Y-86201967D01*
X179112830Y-86201965D01*
X179041727Y-86168809D01*
X178898663Y-86102097D01*
X178898659Y-86102096D01*
X178898655Y-86102094D01*
X178670413Y-86040938D01*
X178670403Y-86040936D01*
X178435001Y-86020341D01*
X178434999Y-86020341D01*
X178199596Y-86040936D01*
X178199586Y-86040938D01*
X177971344Y-86102094D01*
X177971337Y-86102096D01*
X177971337Y-86102097D01*
X177957816Y-86108401D01*
X177757171Y-86201964D01*
X177757169Y-86201965D01*
X177563597Y-86337505D01*
X177396505Y-86504597D01*
X177266575Y-86690158D01*
X177211998Y-86733783D01*
X177142500Y-86740977D01*
X177080145Y-86709454D01*
X177063425Y-86690158D01*
X176933494Y-86504597D01*
X176766402Y-86337506D01*
X176766395Y-86337501D01*
X176765862Y-86337128D01*
X176653982Y-86258788D01*
X176572834Y-86201967D01*
X176572830Y-86201965D01*
X176501727Y-86168809D01*
X176358663Y-86102097D01*
X176358659Y-86102096D01*
X176358655Y-86102094D01*
X176130413Y-86040938D01*
X176130403Y-86040936D01*
X175895001Y-86020341D01*
X175894998Y-86020341D01*
X175769764Y-86031297D01*
X175701264Y-86017530D01*
X175671276Y-85995450D01*
X173890508Y-84214681D01*
X173857023Y-84153358D01*
X173862007Y-84083666D01*
X173903879Y-84027733D01*
X173969343Y-84003316D01*
X173978189Y-84003000D01*
X205629211Y-84003000D01*
X205696250Y-84022685D01*
G37*
%TD.AperFunction*%
%TA.AperFunction,Conductor*%
G36*
X171761850Y-64972685D02*
G01*
X171782492Y-64989319D01*
X172500681Y-65707508D01*
X172534166Y-65768831D01*
X172537000Y-65795189D01*
X172537000Y-68455562D01*
X172517315Y-68522601D01*
X172487456Y-68553673D01*
X172487749Y-68554023D01*
X172484504Y-68556746D01*
X172484137Y-68557128D01*
X172483604Y-68557501D01*
X172483595Y-68557508D01*
X172316505Y-68724597D01*
X172186575Y-68910158D01*
X172131998Y-68953783D01*
X172062500Y-68960977D01*
X172000145Y-68929454D01*
X171983425Y-68910158D01*
X171853494Y-68724597D01*
X171686402Y-68557506D01*
X171686395Y-68557501D01*
X171685862Y-68557128D01*
X171607910Y-68502545D01*
X171492834Y-68421967D01*
X171492830Y-68421965D01*
X171492828Y-68421964D01*
X171278663Y-68322097D01*
X171278659Y-68322096D01*
X171278655Y-68322094D01*
X171050413Y-68260938D01*
X171050403Y-68260936D01*
X170815001Y-68240341D01*
X170814999Y-68240341D01*
X170579596Y-68260936D01*
X170579586Y-68260938D01*
X170351344Y-68322094D01*
X170351335Y-68322098D01*
X170137171Y-68421964D01*
X170137169Y-68421965D01*
X169943600Y-68557503D01*
X169821284Y-68679819D01*
X169759961Y-68713303D01*
X169690269Y-68708319D01*
X169634336Y-68666447D01*
X169617421Y-68635470D01*
X169568354Y-68503913D01*
X169568350Y-68503906D01*
X169482190Y-68388812D01*
X169482187Y-68388809D01*
X169367093Y-68302649D01*
X169367086Y-68302645D01*
X169232379Y-68252403D01*
X169232372Y-68252401D01*
X169172844Y-68246000D01*
X168525000Y-68246000D01*
X168525000Y-69151439D01*
X168471853Y-69120755D01*
X168342143Y-69086000D01*
X168207857Y-69086000D01*
X168078147Y-69120755D01*
X168025000Y-69151439D01*
X168025000Y-68246000D01*
X167377155Y-68246000D01*
X167317627Y-68252401D01*
X167317620Y-68252403D01*
X167182913Y-68302645D01*
X167182906Y-68302649D01*
X167067812Y-68388809D01*
X167067809Y-68388812D01*
X166981649Y-68503906D01*
X166981645Y-68503913D01*
X166932578Y-68635470D01*
X166890707Y-68691404D01*
X166825242Y-68715821D01*
X166756969Y-68700969D01*
X166728715Y-68679819D01*
X166684366Y-68635470D01*
X166606401Y-68557505D01*
X166606397Y-68557502D01*
X166606396Y-68557501D01*
X166412834Y-68421967D01*
X166412830Y-68421965D01*
X166412828Y-68421964D01*
X166198663Y-68322097D01*
X166198659Y-68322096D01*
X166198655Y-68322094D01*
X165970413Y-68260938D01*
X165970403Y-68260936D01*
X165735001Y-68240341D01*
X165734999Y-68240341D01*
X165499596Y-68260936D01*
X165499586Y-68260938D01*
X165271344Y-68322094D01*
X165271335Y-68322098D01*
X165057171Y-68421964D01*
X165057169Y-68421965D01*
X164863597Y-68557505D01*
X164696505Y-68724597D01*
X164566575Y-68910158D01*
X164511998Y-68953783D01*
X164442500Y-68960977D01*
X164380145Y-68929454D01*
X164363425Y-68910158D01*
X164233494Y-68724597D01*
X164066402Y-68557506D01*
X164066395Y-68557501D01*
X164065862Y-68557128D01*
X163987910Y-68502545D01*
X163872834Y-68421967D01*
X163872830Y-68421965D01*
X163872828Y-68421964D01*
X163658663Y-68322097D01*
X163658659Y-68322096D01*
X163658655Y-68322094D01*
X163430413Y-68260938D01*
X163430403Y-68260936D01*
X163195001Y-68240341D01*
X163194999Y-68240341D01*
X162959596Y-68260936D01*
X162959586Y-68260938D01*
X162731344Y-68322094D01*
X162731335Y-68322098D01*
X162517171Y-68421964D01*
X162517169Y-68421965D01*
X162323597Y-68557505D01*
X162156505Y-68724597D01*
X162020965Y-68918169D01*
X162020964Y-68918171D01*
X161921098Y-69132335D01*
X161921094Y-69132344D01*
X161859938Y-69360586D01*
X161859936Y-69360596D01*
X161839341Y-69595999D01*
X161839341Y-69596000D01*
X161859936Y-69831403D01*
X161859938Y-69831413D01*
X161921094Y-70059655D01*
X161921096Y-70059659D01*
X161921097Y-70059663D01*
X161993060Y-70213988D01*
X162020965Y-70273830D01*
X162020967Y-70273834D01*
X162065496Y-70337427D01*
X162156505Y-70467401D01*
X162323599Y-70634495D01*
X162400135Y-70688086D01*
X162517165Y-70770032D01*
X162517167Y-70770033D01*
X162517170Y-70770035D01*
X162731337Y-70869903D01*
X162959592Y-70931063D01*
X163130319Y-70946000D01*
X163194999Y-70951659D01*
X163195000Y-70951659D01*
X163195001Y-70951659D01*
X163259681Y-70946000D01*
X163430408Y-70931063D01*
X163658663Y-70869903D01*
X163872830Y-70770035D01*
X164066401Y-70634495D01*
X164233495Y-70467401D01*
X164363425Y-70281842D01*
X164418002Y-70238217D01*
X164487500Y-70231023D01*
X164549855Y-70262546D01*
X164566575Y-70281842D01*
X164696500Y-70467395D01*
X164696505Y-70467401D01*
X164863599Y-70634495D01*
X164940135Y-70688086D01*
X165057165Y-70770032D01*
X165057167Y-70770033D01*
X165057170Y-70770035D01*
X165271337Y-70869903D01*
X165499592Y-70931063D01*
X165670319Y-70946000D01*
X165734999Y-70951659D01*
X165735000Y-70951659D01*
X165735001Y-70951659D01*
X165799681Y-70946000D01*
X165970408Y-70931063D01*
X166198663Y-70869903D01*
X166412830Y-70770035D01*
X166606401Y-70634495D01*
X166728717Y-70512178D01*
X166790036Y-70478696D01*
X166859728Y-70483680D01*
X166915662Y-70525551D01*
X166932577Y-70556528D01*
X166981646Y-70688088D01*
X166981649Y-70688093D01*
X167067809Y-70803187D01*
X167067812Y-70803190D01*
X167182906Y-70889350D01*
X167182913Y-70889354D01*
X167317620Y-70939596D01*
X167317627Y-70939598D01*
X167377155Y-70945999D01*
X167377172Y-70946000D01*
X168025000Y-70946000D01*
X168025000Y-70040560D01*
X168078147Y-70071245D01*
X168207857Y-70106000D01*
X168342143Y-70106000D01*
X168471853Y-70071245D01*
X168525000Y-70040560D01*
X168525000Y-70946000D01*
X169172828Y-70946000D01*
X169172844Y-70945999D01*
X169232372Y-70939598D01*
X169232379Y-70939596D01*
X169367086Y-70889354D01*
X169367093Y-70889350D01*
X169482187Y-70803190D01*
X169482190Y-70803187D01*
X169568350Y-70688093D01*
X169568354Y-70688086D01*
X169617422Y-70556529D01*
X169659293Y-70500595D01*
X169724757Y-70476178D01*
X169793030Y-70491030D01*
X169821285Y-70512181D01*
X169943599Y-70634495D01*
X170020135Y-70688086D01*
X170137165Y-70770032D01*
X170137167Y-70770033D01*
X170137170Y-70770035D01*
X170351337Y-70869903D01*
X170579592Y-70931063D01*
X170750319Y-70946000D01*
X170814999Y-70951659D01*
X170815000Y-70951659D01*
X170815001Y-70951659D01*
X170879681Y-70946000D01*
X171050408Y-70931063D01*
X171278663Y-70869903D01*
X171492830Y-70770035D01*
X171686401Y-70634495D01*
X171853495Y-70467401D01*
X171983425Y-70281842D01*
X172038002Y-70238217D01*
X172107500Y-70231023D01*
X172169855Y-70262546D01*
X172186575Y-70281842D01*
X172316500Y-70467395D01*
X172316505Y-70467401D01*
X172483599Y-70634495D01*
X172560135Y-70688086D01*
X172677165Y-70770032D01*
X172677167Y-70770033D01*
X172677170Y-70770035D01*
X172891337Y-70869903D01*
X173119592Y-70931063D01*
X173290319Y-70946000D01*
X173354999Y-70951659D01*
X173355000Y-70951659D01*
X173355001Y-70951659D01*
X173419681Y-70946000D01*
X173590408Y-70931063D01*
X173818663Y-70869903D01*
X174032830Y-70770035D01*
X174226401Y-70634495D01*
X174393495Y-70467401D01*
X174523425Y-70281842D01*
X174578002Y-70238217D01*
X174647500Y-70231023D01*
X174709855Y-70262546D01*
X174726575Y-70281842D01*
X174856500Y-70467395D01*
X174856505Y-70467401D01*
X175023599Y-70634495D01*
X175100135Y-70688086D01*
X175217165Y-70770032D01*
X175217167Y-70770033D01*
X175217170Y-70770035D01*
X175431337Y-70869903D01*
X175659592Y-70931063D01*
X175830319Y-70946000D01*
X175894999Y-70951659D01*
X175895000Y-70951659D01*
X175895001Y-70951659D01*
X175959681Y-70946000D01*
X176130408Y-70931063D01*
X176358663Y-70869903D01*
X176572830Y-70770035D01*
X176766401Y-70634495D01*
X176933495Y-70467401D01*
X177063425Y-70281842D01*
X177118002Y-70238217D01*
X177187500Y-70231023D01*
X177249855Y-70262546D01*
X177266575Y-70281842D01*
X177396500Y-70467395D01*
X177396505Y-70467401D01*
X177563599Y-70634495D01*
X177640135Y-70688086D01*
X177757165Y-70770032D01*
X177757167Y-70770033D01*
X177757170Y-70770035D01*
X177971337Y-70869903D01*
X178199592Y-70931063D01*
X178370319Y-70946000D01*
X178434999Y-70951659D01*
X178435000Y-70951659D01*
X178435001Y-70951659D01*
X178499681Y-70946000D01*
X178670408Y-70931063D01*
X178898663Y-70869903D01*
X179112830Y-70770035D01*
X179306401Y-70634495D01*
X179428717Y-70512178D01*
X179490036Y-70478696D01*
X179559728Y-70483680D01*
X179615662Y-70525551D01*
X179632577Y-70556528D01*
X179681646Y-70688088D01*
X179681649Y-70688093D01*
X179767809Y-70803187D01*
X179767812Y-70803190D01*
X179882906Y-70889350D01*
X179882913Y-70889354D01*
X180017620Y-70939596D01*
X180017627Y-70939598D01*
X180077155Y-70945999D01*
X180077172Y-70946000D01*
X180725000Y-70946000D01*
X180725000Y-70040560D01*
X180778147Y-70071245D01*
X180907857Y-70106000D01*
X181042143Y-70106000D01*
X181171853Y-70071245D01*
X181225000Y-70040560D01*
X181225000Y-70946000D01*
X181872828Y-70946000D01*
X181872844Y-70945999D01*
X181932372Y-70939598D01*
X181932379Y-70939596D01*
X182067086Y-70889354D01*
X182067093Y-70889350D01*
X182182187Y-70803190D01*
X182182190Y-70803187D01*
X182268350Y-70688093D01*
X182268354Y-70688086D01*
X182317422Y-70556529D01*
X182359293Y-70500595D01*
X182424757Y-70476178D01*
X182493030Y-70491030D01*
X182521285Y-70512181D01*
X182643599Y-70634495D01*
X182720135Y-70688086D01*
X182837165Y-70770032D01*
X182837167Y-70770033D01*
X182837170Y-70770035D01*
X183051337Y-70869903D01*
X183279592Y-70931063D01*
X183450319Y-70946000D01*
X183514999Y-70951659D01*
X183515000Y-70951659D01*
X183515001Y-70951659D01*
X183579681Y-70946000D01*
X183750408Y-70931063D01*
X183978663Y-70869903D01*
X184192830Y-70770035D01*
X184386401Y-70634495D01*
X184553495Y-70467401D01*
X184683425Y-70281842D01*
X184738002Y-70238217D01*
X184807500Y-70231023D01*
X184869855Y-70262546D01*
X184886575Y-70281842D01*
X185016500Y-70467395D01*
X185016505Y-70467401D01*
X185183599Y-70634495D01*
X185260135Y-70688086D01*
X185377165Y-70770032D01*
X185377167Y-70770033D01*
X185377170Y-70770035D01*
X185591337Y-70869903D01*
X185819592Y-70931063D01*
X185990319Y-70946000D01*
X186054999Y-70951659D01*
X186055000Y-70951659D01*
X186055001Y-70951659D01*
X186119681Y-70946000D01*
X186290408Y-70931063D01*
X186518663Y-70869903D01*
X186732830Y-70770035D01*
X186926401Y-70634495D01*
X187093495Y-70467401D01*
X187223425Y-70281842D01*
X187278002Y-70238217D01*
X187347500Y-70231023D01*
X187409855Y-70262546D01*
X187426575Y-70281842D01*
X187556500Y-70467395D01*
X187556505Y-70467401D01*
X187723599Y-70634495D01*
X187800135Y-70688086D01*
X187917165Y-70770032D01*
X187917167Y-70770033D01*
X187917170Y-70770035D01*
X188131337Y-70869903D01*
X188359592Y-70931063D01*
X188530319Y-70946000D01*
X188594999Y-70951659D01*
X188595000Y-70951659D01*
X188595001Y-70951659D01*
X188659681Y-70946000D01*
X188830408Y-70931063D01*
X189058663Y-70869903D01*
X189272830Y-70770035D01*
X189466401Y-70634495D01*
X189633495Y-70467401D01*
X189763425Y-70281842D01*
X189818002Y-70238217D01*
X189887500Y-70231023D01*
X189949855Y-70262546D01*
X189966575Y-70281842D01*
X190096500Y-70467395D01*
X190096505Y-70467401D01*
X190263599Y-70634495D01*
X190340135Y-70688086D01*
X190457165Y-70770032D01*
X190457167Y-70770033D01*
X190457170Y-70770035D01*
X190671337Y-70869903D01*
X190899592Y-70931063D01*
X191070319Y-70946000D01*
X191134999Y-70951659D01*
X191135000Y-70951659D01*
X191135001Y-70951659D01*
X191199681Y-70946000D01*
X191370408Y-70931063D01*
X191598663Y-70869903D01*
X191812830Y-70770035D01*
X192006401Y-70634495D01*
X192128717Y-70512178D01*
X192190036Y-70478696D01*
X192259728Y-70483680D01*
X192315662Y-70525551D01*
X192332577Y-70556528D01*
X192381646Y-70688088D01*
X192381649Y-70688093D01*
X192467809Y-70803187D01*
X192467812Y-70803190D01*
X192582906Y-70889350D01*
X192582913Y-70889354D01*
X192717620Y-70939596D01*
X192717627Y-70939598D01*
X192777155Y-70945999D01*
X192777172Y-70946000D01*
X193425000Y-70946000D01*
X193425000Y-70040560D01*
X193478147Y-70071245D01*
X193607857Y-70106000D01*
X193742143Y-70106000D01*
X193871853Y-70071245D01*
X193925000Y-70040560D01*
X193925000Y-70946000D01*
X194572828Y-70946000D01*
X194572844Y-70945999D01*
X194632372Y-70939598D01*
X194632379Y-70939596D01*
X194767086Y-70889354D01*
X194767093Y-70889350D01*
X194882187Y-70803190D01*
X194882190Y-70803187D01*
X194968350Y-70688093D01*
X194968354Y-70688086D01*
X195017422Y-70556529D01*
X195059293Y-70500595D01*
X195124757Y-70476178D01*
X195193030Y-70491030D01*
X195221285Y-70512181D01*
X195343599Y-70634495D01*
X195420135Y-70688086D01*
X195537165Y-70770032D01*
X195537167Y-70770033D01*
X195537170Y-70770035D01*
X195751337Y-70869903D01*
X195979592Y-70931063D01*
X196150319Y-70946000D01*
X196214999Y-70951659D01*
X196215000Y-70951659D01*
X196215001Y-70951659D01*
X196279681Y-70946000D01*
X196450408Y-70931063D01*
X196678663Y-70869903D01*
X196892830Y-70770035D01*
X197086401Y-70634495D01*
X197253495Y-70467401D01*
X197383425Y-70281842D01*
X197438002Y-70238217D01*
X197507500Y-70231023D01*
X197569855Y-70262546D01*
X197586575Y-70281842D01*
X197716500Y-70467395D01*
X197716505Y-70467401D01*
X197883599Y-70634495D01*
X197960135Y-70688086D01*
X198077165Y-70770032D01*
X198077167Y-70770033D01*
X198077170Y-70770035D01*
X198291337Y-70869903D01*
X198519592Y-70931063D01*
X198690319Y-70946000D01*
X198754999Y-70951659D01*
X198755000Y-70951659D01*
X198755001Y-70951659D01*
X198819681Y-70946000D01*
X198990408Y-70931063D01*
X199218663Y-70869903D01*
X199432830Y-70770035D01*
X199626401Y-70634495D01*
X199793495Y-70467401D01*
X199923425Y-70281842D01*
X199978002Y-70238217D01*
X200047500Y-70231023D01*
X200109855Y-70262546D01*
X200126575Y-70281842D01*
X200256500Y-70467395D01*
X200256505Y-70467401D01*
X200423599Y-70634495D01*
X200500135Y-70688086D01*
X200617165Y-70770032D01*
X200617167Y-70770033D01*
X200617170Y-70770035D01*
X200831337Y-70869903D01*
X201059592Y-70931063D01*
X201230319Y-70946000D01*
X201294999Y-70951659D01*
X201295000Y-70951659D01*
X201295001Y-70951659D01*
X201359681Y-70946000D01*
X201530408Y-70931063D01*
X201758663Y-70869903D01*
X201972830Y-70770035D01*
X202166401Y-70634495D01*
X202333495Y-70467401D01*
X202463425Y-70281842D01*
X202518002Y-70238217D01*
X202587500Y-70231023D01*
X202649855Y-70262546D01*
X202666575Y-70281842D01*
X202796500Y-70467395D01*
X202796505Y-70467401D01*
X202963599Y-70634495D01*
X203040135Y-70688086D01*
X203157165Y-70770032D01*
X203157167Y-70770033D01*
X203157170Y-70770035D01*
X203371337Y-70869903D01*
X203599592Y-70931063D01*
X203770319Y-70946000D01*
X203834999Y-70951659D01*
X203835000Y-70951659D01*
X203835001Y-70951659D01*
X203899681Y-70946000D01*
X204070408Y-70931063D01*
X204298663Y-70869903D01*
X204512830Y-70770035D01*
X204706401Y-70634495D01*
X204828717Y-70512178D01*
X204890036Y-70478696D01*
X204959728Y-70483680D01*
X205015662Y-70525551D01*
X205032577Y-70556528D01*
X205081646Y-70688088D01*
X205081649Y-70688093D01*
X205167809Y-70803187D01*
X205167812Y-70803190D01*
X205282906Y-70889350D01*
X205282913Y-70889354D01*
X205417620Y-70939596D01*
X205417627Y-70939598D01*
X205477155Y-70945999D01*
X205477172Y-70946000D01*
X206125000Y-70946000D01*
X206125000Y-70040560D01*
X206178147Y-70071245D01*
X206307857Y-70106000D01*
X206442143Y-70106000D01*
X206571853Y-70071245D01*
X206625000Y-70040560D01*
X206625000Y-70946000D01*
X207272828Y-70946000D01*
X207272844Y-70945999D01*
X207332372Y-70939598D01*
X207332379Y-70939596D01*
X207467086Y-70889354D01*
X207467093Y-70889350D01*
X207582187Y-70803190D01*
X207582190Y-70803187D01*
X207668350Y-70688093D01*
X207668354Y-70688086D01*
X207717422Y-70556529D01*
X207759293Y-70500595D01*
X207824757Y-70476178D01*
X207893030Y-70491030D01*
X207921285Y-70512181D01*
X208043599Y-70634495D01*
X208120135Y-70688086D01*
X208237165Y-70770032D01*
X208237167Y-70770033D01*
X208237170Y-70770035D01*
X208451337Y-70869903D01*
X208679592Y-70931063D01*
X208850319Y-70946000D01*
X208914999Y-70951659D01*
X208915000Y-70951659D01*
X208915001Y-70951659D01*
X208979681Y-70946000D01*
X209150408Y-70931063D01*
X209378663Y-70869903D01*
X209592830Y-70770035D01*
X209786401Y-70634495D01*
X209953495Y-70467401D01*
X210083425Y-70281842D01*
X210138002Y-70238217D01*
X210207500Y-70231023D01*
X210269855Y-70262546D01*
X210286575Y-70281842D01*
X210416500Y-70467395D01*
X210416505Y-70467401D01*
X210583599Y-70634495D01*
X210660135Y-70688086D01*
X210777165Y-70770032D01*
X210777167Y-70770033D01*
X210777170Y-70770035D01*
X210991337Y-70869903D01*
X211219592Y-70931063D01*
X211390319Y-70946000D01*
X211454999Y-70951659D01*
X211455000Y-70951659D01*
X211455001Y-70951659D01*
X211519681Y-70946000D01*
X211690408Y-70931063D01*
X211918663Y-70869903D01*
X212132830Y-70770035D01*
X212326401Y-70634495D01*
X212493495Y-70467401D01*
X212629035Y-70273830D01*
X212632140Y-70269396D01*
X212633465Y-70270324D01*
X212678675Y-70227214D01*
X212747282Y-70213988D01*
X212812148Y-70239953D01*
X212852678Y-70296866D01*
X212859500Y-70337427D01*
X212859500Y-75181451D01*
X212839815Y-75248490D01*
X212787011Y-75294245D01*
X212717853Y-75304189D01*
X212654297Y-75275164D01*
X212621944Y-75231261D01*
X212560924Y-75092151D01*
X212433983Y-74897852D01*
X212433980Y-74897849D01*
X212433979Y-74897847D01*
X212276784Y-74727087D01*
X212276779Y-74727083D01*
X212276777Y-74727081D01*
X212093634Y-74584535D01*
X212093628Y-74584531D01*
X211889504Y-74474064D01*
X211889495Y-74474061D01*
X211669984Y-74398702D01*
X211498282Y-74370050D01*
X211441049Y-74360500D01*
X211208951Y-74360500D01*
X211163164Y-74368140D01*
X210980015Y-74398702D01*
X210760504Y-74474061D01*
X210760495Y-74474064D01*
X210556371Y-74584531D01*
X210556365Y-74584535D01*
X210373222Y-74727081D01*
X210373219Y-74727084D01*
X210373216Y-74727086D01*
X210373216Y-74727087D01*
X210356287Y-74745477D01*
X210216016Y-74897852D01*
X210089075Y-75092151D01*
X209995842Y-75304699D01*
X209938866Y-75529691D01*
X209938864Y-75529702D01*
X209919700Y-75760993D01*
X209919700Y-75761006D01*
X209938864Y-75992297D01*
X209938866Y-75992308D01*
X209995842Y-76217300D01*
X210089075Y-76429848D01*
X210216016Y-76624147D01*
X210216019Y-76624151D01*
X210216021Y-76624153D01*
X210373216Y-76794913D01*
X210373219Y-76794915D01*
X210373222Y-76794918D01*
X210556365Y-76937464D01*
X210556371Y-76937468D01*
X210556374Y-76937470D01*
X210760497Y-77047936D01*
X210826891Y-77070729D01*
X210980015Y-77123297D01*
X210980017Y-77123297D01*
X210980019Y-77123298D01*
X211208951Y-77161500D01*
X211208952Y-77161500D01*
X211441048Y-77161500D01*
X211441049Y-77161500D01*
X211669981Y-77123298D01*
X211889503Y-77047936D01*
X212093626Y-76937470D01*
X212098685Y-76933533D01*
X212216728Y-76841656D01*
X212276784Y-76794913D01*
X212433979Y-76624153D01*
X212560924Y-76429849D01*
X212621944Y-76290738D01*
X212666900Y-76237252D01*
X212733636Y-76216562D01*
X212800964Y-76235237D01*
X212847507Y-76287347D01*
X212859500Y-76340548D01*
X212859500Y-80631451D01*
X212839815Y-80698490D01*
X212787011Y-80744245D01*
X212717853Y-80754189D01*
X212654297Y-80725164D01*
X212621944Y-80681261D01*
X212560924Y-80542151D01*
X212433983Y-80347852D01*
X212433980Y-80347849D01*
X212433979Y-80347847D01*
X212276784Y-80177087D01*
X212276779Y-80177083D01*
X212276777Y-80177081D01*
X212093634Y-80034535D01*
X212093628Y-80034531D01*
X211889504Y-79924064D01*
X211889495Y-79924061D01*
X211669984Y-79848702D01*
X211498282Y-79820050D01*
X211441049Y-79810500D01*
X211208951Y-79810500D01*
X211163164Y-79818140D01*
X210980015Y-79848702D01*
X210760504Y-79924061D01*
X210760495Y-79924064D01*
X210556371Y-80034531D01*
X210556365Y-80034535D01*
X210373222Y-80177081D01*
X210373219Y-80177084D01*
X210216016Y-80347852D01*
X210089075Y-80542151D01*
X209995842Y-80754699D01*
X209938866Y-80979691D01*
X209938864Y-80979702D01*
X209919700Y-81210993D01*
X209919700Y-81211006D01*
X209938864Y-81442297D01*
X209938866Y-81442308D01*
X209995842Y-81667300D01*
X210089075Y-81879848D01*
X210216016Y-82074147D01*
X210216019Y-82074151D01*
X210216021Y-82074153D01*
X210373216Y-82244913D01*
X210373219Y-82244915D01*
X210373222Y-82244918D01*
X210556365Y-82387464D01*
X210556371Y-82387468D01*
X210556374Y-82387470D01*
X210760497Y-82497936D01*
X210874487Y-82537068D01*
X210980015Y-82573297D01*
X210980017Y-82573297D01*
X210980019Y-82573298D01*
X211208951Y-82611500D01*
X211208952Y-82611500D01*
X211441048Y-82611500D01*
X211441049Y-82611500D01*
X211669981Y-82573298D01*
X211889503Y-82497936D01*
X212093626Y-82387470D01*
X212144465Y-82347901D01*
X212170220Y-82327855D01*
X212276784Y-82244913D01*
X212433979Y-82074153D01*
X212560924Y-81879849D01*
X212621944Y-81740738D01*
X212666900Y-81687252D01*
X212733636Y-81666562D01*
X212800964Y-81685237D01*
X212847507Y-81737347D01*
X212859500Y-81790548D01*
X212859500Y-86634573D01*
X212839815Y-86701612D01*
X212787011Y-86747367D01*
X212717853Y-86757311D01*
X212654297Y-86728286D01*
X212632742Y-86702183D01*
X212632140Y-86702605D01*
X212493494Y-86504597D01*
X212326402Y-86337506D01*
X212326395Y-86337501D01*
X212325862Y-86337128D01*
X212213982Y-86258788D01*
X212132834Y-86201967D01*
X212132830Y-86201965D01*
X212061727Y-86168809D01*
X211918663Y-86102097D01*
X211918659Y-86102096D01*
X211918655Y-86102094D01*
X211690413Y-86040938D01*
X211690403Y-86040936D01*
X211455001Y-86020341D01*
X211454999Y-86020341D01*
X211219596Y-86040936D01*
X211219586Y-86040938D01*
X210991344Y-86102094D01*
X210991337Y-86102096D01*
X210991337Y-86102097D01*
X210977816Y-86108401D01*
X210777171Y-86201964D01*
X210777169Y-86201965D01*
X210583597Y-86337505D01*
X210416505Y-86504597D01*
X210286575Y-86690158D01*
X210231998Y-86733783D01*
X210162500Y-86740977D01*
X210100145Y-86709454D01*
X210083425Y-86690158D01*
X209953494Y-86504597D01*
X209786404Y-86337508D01*
X209786401Y-86337505D01*
X209785863Y-86337128D01*
X209785683Y-86336903D01*
X209782251Y-86334023D01*
X209782830Y-86333332D01*
X209742245Y-86282545D01*
X209733000Y-86235562D01*
X209733000Y-86000033D01*
X209732999Y-86000029D01*
X209711395Y-85891418D01*
X209701565Y-85841998D01*
X209639903Y-85693132D01*
X209586238Y-85612819D01*
X209550382Y-85559155D01*
X209436445Y-85445218D01*
X209436444Y-85445217D01*
X209432114Y-85440887D01*
X209432103Y-85440877D01*
X206540848Y-82549620D01*
X206540844Y-82549617D01*
X206406874Y-82460100D01*
X206406861Y-82460093D01*
X206258006Y-82398436D01*
X206257994Y-82398433D01*
X206099970Y-82367000D01*
X206099966Y-82367000D01*
X164257657Y-82367000D01*
X164190618Y-82347315D01*
X164144863Y-82294511D01*
X164134919Y-82225353D01*
X164163944Y-82161797D01*
X164186534Y-82141425D01*
X164259155Y-82090575D01*
X164296401Y-82064495D01*
X164463495Y-81897401D01*
X164599035Y-81703830D01*
X164698903Y-81489663D01*
X164760063Y-81261408D01*
X164780659Y-81026000D01*
X164770597Y-80910997D01*
X207039723Y-80910997D01*
X207039723Y-80911002D01*
X207058793Y-81128975D01*
X207058793Y-81128979D01*
X207115422Y-81340322D01*
X207115424Y-81340326D01*
X207115425Y-81340330D01*
X207141046Y-81395274D01*
X207207897Y-81538638D01*
X207207898Y-81538639D01*
X207333402Y-81717877D01*
X207488123Y-81872598D01*
X207667361Y-81998102D01*
X207865670Y-82090575D01*
X208077023Y-82147207D01*
X208259926Y-82163208D01*
X208294998Y-82166277D01*
X208295000Y-82166277D01*
X208295002Y-82166277D01*
X208323254Y-82163805D01*
X208512977Y-82147207D01*
X208724330Y-82090575D01*
X208922639Y-81998102D01*
X209101877Y-81872598D01*
X209256598Y-81717877D01*
X209382102Y-81538639D01*
X209474575Y-81340330D01*
X209531207Y-81128977D01*
X209550277Y-80911000D01*
X209531207Y-80693023D01*
X209474575Y-80481670D01*
X209382102Y-80283362D01*
X209382100Y-80283359D01*
X209382099Y-80283357D01*
X209256599Y-80104124D01*
X209184759Y-80032284D01*
X209101877Y-79949402D01*
X208922639Y-79823898D01*
X208922640Y-79823898D01*
X208922638Y-79823897D01*
X208768661Y-79752097D01*
X208724330Y-79731425D01*
X208724326Y-79731424D01*
X208724322Y-79731422D01*
X208512977Y-79674793D01*
X208295002Y-79655723D01*
X208294998Y-79655723D01*
X208149682Y-79668436D01*
X208077023Y-79674793D01*
X208077020Y-79674793D01*
X207865677Y-79731422D01*
X207865668Y-79731426D01*
X207667361Y-79823898D01*
X207667357Y-79823900D01*
X207488121Y-79949402D01*
X207333402Y-80104121D01*
X207207900Y-80283357D01*
X207207898Y-80283361D01*
X207115426Y-80481668D01*
X207115422Y-80481677D01*
X207058793Y-80693020D01*
X207058793Y-80693024D01*
X207039723Y-80910997D01*
X164770597Y-80910997D01*
X164760063Y-80790592D01*
X164698903Y-80562337D01*
X164599035Y-80348171D01*
X164598808Y-80347847D01*
X164463496Y-80154600D01*
X164413017Y-80104121D01*
X164341179Y-80032283D01*
X164307696Y-79970963D01*
X164312680Y-79901271D01*
X164354551Y-79845337D01*
X164385529Y-79828422D01*
X164517086Y-79779354D01*
X164517093Y-79779350D01*
X164632187Y-79693190D01*
X164632190Y-79693187D01*
X164718350Y-79578093D01*
X164718354Y-79578086D01*
X164768596Y-79443379D01*
X164768598Y-79443372D01*
X164774999Y-79383844D01*
X164775000Y-79383827D01*
X164775000Y-78736000D01*
X163869560Y-78736000D01*
X163900245Y-78682853D01*
X163935000Y-78553143D01*
X163935000Y-78418857D01*
X163900245Y-78289147D01*
X163869560Y-78236000D01*
X164775000Y-78236000D01*
X164775000Y-77588172D01*
X164774999Y-77588155D01*
X164768598Y-77528627D01*
X164768596Y-77528620D01*
X164718354Y-77393913D01*
X164718350Y-77393906D01*
X164632190Y-77278812D01*
X164632187Y-77278809D01*
X164517093Y-77192649D01*
X164517088Y-77192646D01*
X164385528Y-77143577D01*
X164329595Y-77101705D01*
X164305178Y-77036241D01*
X164320030Y-76967968D01*
X164341175Y-76939720D01*
X164463495Y-76817401D01*
X164599035Y-76623830D01*
X164698903Y-76409663D01*
X164760063Y-76181408D01*
X164770598Y-76061000D01*
X207039723Y-76061000D01*
X207050257Y-76181413D01*
X207058793Y-76278975D01*
X207058793Y-76278979D01*
X207115422Y-76490322D01*
X207115424Y-76490326D01*
X207115425Y-76490330D01*
X207161661Y-76589484D01*
X207207897Y-76688638D01*
X207207898Y-76688639D01*
X207333402Y-76867877D01*
X207488123Y-77022598D01*
X207667361Y-77148102D01*
X207865670Y-77240575D01*
X208077023Y-77297207D01*
X208259926Y-77313208D01*
X208294998Y-77316277D01*
X208295000Y-77316277D01*
X208295002Y-77316277D01*
X208323254Y-77313805D01*
X208512977Y-77297207D01*
X208724330Y-77240575D01*
X208922639Y-77148102D01*
X209101877Y-77022598D01*
X209256598Y-76867877D01*
X209382102Y-76688639D01*
X209474575Y-76490330D01*
X209531207Y-76278977D01*
X209550277Y-76061000D01*
X209549838Y-76055986D01*
X209540216Y-75945999D01*
X209531207Y-75843023D01*
X209474575Y-75631670D01*
X209382102Y-75433362D01*
X209382100Y-75433359D01*
X209382099Y-75433357D01*
X209256599Y-75254124D01*
X209183926Y-75181451D01*
X209101877Y-75099402D01*
X208957510Y-74998315D01*
X208922638Y-74973897D01*
X208823484Y-74927661D01*
X208724330Y-74881425D01*
X208724326Y-74881424D01*
X208724322Y-74881422D01*
X208512977Y-74824793D01*
X208295002Y-74805723D01*
X208294998Y-74805723D01*
X208149682Y-74818436D01*
X208077023Y-74824793D01*
X208077020Y-74824793D01*
X207865677Y-74881422D01*
X207865668Y-74881426D01*
X207667361Y-74973898D01*
X207667357Y-74973900D01*
X207488121Y-75099402D01*
X207333402Y-75254121D01*
X207207900Y-75433357D01*
X207207898Y-75433361D01*
X207115426Y-75631668D01*
X207115422Y-75631677D01*
X207058793Y-75843020D01*
X207058793Y-75843024D01*
X207040162Y-76055986D01*
X207039723Y-76061000D01*
X164770598Y-76061000D01*
X164780659Y-75946000D01*
X164760063Y-75710592D01*
X164711591Y-75529691D01*
X164698905Y-75482344D01*
X164698904Y-75482343D01*
X164698903Y-75482337D01*
X164599035Y-75268171D01*
X164589200Y-75254124D01*
X164463494Y-75074597D01*
X164296402Y-74907506D01*
X164296395Y-74907501D01*
X164102834Y-74771967D01*
X164102830Y-74771965D01*
X164031924Y-74738901D01*
X163888663Y-74672097D01*
X163888659Y-74672096D01*
X163888655Y-74672094D01*
X163660413Y-74610938D01*
X163660403Y-74610936D01*
X163425001Y-74590341D01*
X163424999Y-74590341D01*
X163189596Y-74610936D01*
X163189586Y-74610938D01*
X162961344Y-74672094D01*
X162961335Y-74672098D01*
X162747171Y-74771964D01*
X162747169Y-74771965D01*
X162553597Y-74907505D01*
X162386505Y-75074597D01*
X162250965Y-75268169D01*
X162250964Y-75268171D01*
X162151098Y-75482335D01*
X162151094Y-75482344D01*
X162089938Y-75710586D01*
X162089936Y-75710596D01*
X162069341Y-75945999D01*
X162069341Y-75946000D01*
X162089936Y-76181403D01*
X162089938Y-76181413D01*
X162151094Y-76409655D01*
X162151096Y-76409659D01*
X162151097Y-76409663D01*
X162209164Y-76534187D01*
X162250965Y-76623830D01*
X162250967Y-76623834D01*
X162297521Y-76690319D01*
X162386501Y-76817396D01*
X162386506Y-76817402D01*
X162508818Y-76939714D01*
X162542303Y-77001037D01*
X162537319Y-77070729D01*
X162495447Y-77126662D01*
X162464471Y-77143577D01*
X162332912Y-77192646D01*
X162332906Y-77192649D01*
X162217812Y-77278809D01*
X162217809Y-77278812D01*
X162131649Y-77393906D01*
X162131645Y-77393913D01*
X162081403Y-77528620D01*
X162081401Y-77528627D01*
X162075000Y-77588155D01*
X162075000Y-78236000D01*
X162980440Y-78236000D01*
X162949755Y-78289147D01*
X162915000Y-78418857D01*
X162915000Y-78553143D01*
X162949755Y-78682853D01*
X162980440Y-78736000D01*
X162075000Y-78736000D01*
X162075000Y-79383844D01*
X162081401Y-79443372D01*
X162081403Y-79443379D01*
X162131645Y-79578086D01*
X162131649Y-79578093D01*
X162217809Y-79693187D01*
X162217812Y-79693190D01*
X162332906Y-79779350D01*
X162332913Y-79779354D01*
X162464470Y-79828421D01*
X162520403Y-79870292D01*
X162544821Y-79935756D01*
X162529970Y-80004029D01*
X162508819Y-80032284D01*
X162386503Y-80154600D01*
X162250965Y-80348169D01*
X162250964Y-80348171D01*
X162151098Y-80562335D01*
X162151094Y-80562344D01*
X162089938Y-80790586D01*
X162089936Y-80790596D01*
X162069341Y-81025999D01*
X162069341Y-81026000D01*
X162089936Y-81261403D01*
X162089938Y-81261413D01*
X162151094Y-81489655D01*
X162151096Y-81489659D01*
X162151097Y-81489663D01*
X162233587Y-81666562D01*
X162250965Y-81703830D01*
X162250967Y-81703834D01*
X162386501Y-81897395D01*
X162386506Y-81897402D01*
X162553597Y-82064493D01*
X162553603Y-82064498D01*
X162663466Y-82141425D01*
X162707091Y-82196002D01*
X162714285Y-82265500D01*
X162682762Y-82327855D01*
X162622532Y-82363269D01*
X162592343Y-82367000D01*
X161362689Y-82367000D01*
X161295650Y-82347315D01*
X161275008Y-82330681D01*
X154144948Y-75200620D01*
X154144944Y-75200617D01*
X154010974Y-75111100D01*
X154010961Y-75111093D01*
X153862106Y-75049436D01*
X153862094Y-75049433D01*
X153704070Y-75018000D01*
X153704066Y-75018000D01*
X148846808Y-75018000D01*
X148779769Y-74998315D01*
X148759127Y-74981681D01*
X148642621Y-74865175D01*
X148642615Y-74865170D01*
X148471675Y-74745477D01*
X148428050Y-74690900D01*
X148420856Y-74621402D01*
X148452379Y-74559047D01*
X148455085Y-74556253D01*
X158022020Y-64989319D01*
X158083343Y-64955834D01*
X158109701Y-64953000D01*
X171694811Y-64953000D01*
X171761850Y-64972685D01*
G37*
%TD.AperFunction*%
%TD*%
M02*
