G04 #@! TF.GenerationSoftware,KiCad,Pcbnew,8.0.5*
G04 #@! TF.CreationDate,2025-01-03T00:20:55+01:00*
G04 #@! TF.ProjectId,Tortu,546f7274-752e-46b6-9963-61645f706362,rev?*
G04 #@! TF.SameCoordinates,Original*
G04 #@! TF.FileFunction,Copper,L1,Top*
G04 #@! TF.FilePolarity,Positive*
%FSLAX46Y46*%
G04 Gerber Fmt 4.6, Leading zero omitted, Abs format (unit mm)*
G04 Created by KiCad (PCBNEW 8.0.5) date 2025-01-03 00:20:55*
%MOMM*%
%LPD*%
G01*
G04 APERTURE LIST*
G04 #@! TA.AperFunction,ComponentPad*
%ADD10R,1.700000X1.700000*%
G04 #@! TD*
G04 #@! TA.AperFunction,ComponentPad*
%ADD11O,1.700000X1.700000*%
G04 #@! TD*
G04 #@! TA.AperFunction,ComponentPad*
%ADD12C,1.524000*%
G04 #@! TD*
G04 #@! TA.AperFunction,SMDPad,CuDef*
%ADD13R,1.700000X3.500000*%
G04 #@! TD*
G04 #@! TA.AperFunction,SMDPad,CuDef*
%ADD14R,3.500000X1.700000*%
G04 #@! TD*
G04 #@! TA.AperFunction,ComponentPad*
%ADD15R,3.000000X3.000000*%
G04 #@! TD*
G04 #@! TA.AperFunction,ComponentPad*
%ADD16C,3.000000*%
G04 #@! TD*
G04 #@! TA.AperFunction,ComponentPad*
%ADD17C,2.000000*%
G04 #@! TD*
G04 #@! TA.AperFunction,ComponentPad*
%ADD18C,1.600000*%
G04 #@! TD*
G04 #@! TA.AperFunction,ComponentPad*
%ADD19O,1.600000X1.600000*%
G04 #@! TD*
G04 #@! TA.AperFunction,ComponentPad*
%ADD20R,2.000000X2.000000*%
G04 #@! TD*
G04 #@! TA.AperFunction,ComponentPad*
%ADD21O,3.000000X1.750000*%
G04 #@! TD*
G04 #@! TA.AperFunction,ComponentPad*
%ADD22O,4.000000X2.500000*%
G04 #@! TD*
G04 #@! TA.AperFunction,Conductor*
%ADD23C,0.635000*%
G04 #@! TD*
G04 APERTURE END LIST*
D10*
X165100000Y-62230000D03*
D11*
X167640000Y-62230000D03*
D12*
X194310000Y-97536000D03*
X196850000Y-97536000D03*
X199390000Y-97536000D03*
X201930000Y-97536000D03*
X204470000Y-97536000D03*
X207010000Y-97536000D03*
D11*
X211074000Y-105410000D03*
D13*
X211074000Y-104510000D03*
D11*
X208534000Y-105410000D03*
D13*
X208534000Y-104510000D03*
D10*
X205994000Y-105410000D03*
D13*
X205994000Y-104510000D03*
D11*
X203454000Y-105410000D03*
D13*
X203454000Y-104510000D03*
D11*
X200914000Y-105410000D03*
D13*
X200914000Y-104510000D03*
D11*
X198374000Y-105410000D03*
D13*
X198374000Y-104510000D03*
D11*
X195834000Y-105410000D03*
D13*
X195834000Y-104510000D03*
D10*
X193294000Y-105410000D03*
D13*
X193294000Y-104510000D03*
D11*
X190754000Y-105410000D03*
D13*
X190754000Y-104510000D03*
D11*
X188214000Y-105410000D03*
D13*
X188214000Y-104510000D03*
D11*
X185674000Y-105410000D03*
D13*
X185674000Y-104510000D03*
D11*
X183134000Y-105410000D03*
D13*
X183134000Y-104510000D03*
D10*
X180594000Y-105410000D03*
D13*
X180594000Y-104510000D03*
D11*
X178054000Y-105410000D03*
D13*
X178054000Y-104510000D03*
D11*
X175514000Y-105410000D03*
D13*
X175514000Y-104510000D03*
D11*
X172974000Y-105410000D03*
D13*
X172974000Y-104510000D03*
D11*
X170434000Y-105410000D03*
D13*
X170434000Y-104510000D03*
D10*
X167894000Y-105410000D03*
D13*
X167894000Y-104510000D03*
D11*
X165354000Y-105410000D03*
D13*
X165354000Y-104510000D03*
D11*
X162814000Y-105410000D03*
D13*
X162814000Y-104510000D03*
D11*
X162814000Y-123190000D03*
D13*
X162814000Y-124090000D03*
D11*
X165354000Y-123190000D03*
D13*
X165354000Y-124090000D03*
D10*
X167894000Y-123190000D03*
D13*
X167894000Y-124090000D03*
D11*
X170434000Y-123190000D03*
D13*
X170434000Y-124090000D03*
D11*
X172974000Y-123190000D03*
D13*
X172974000Y-124090000D03*
D11*
X175514000Y-123190000D03*
D13*
X175514000Y-124090000D03*
D11*
X178054000Y-123190000D03*
D13*
X178054000Y-124090000D03*
D10*
X180594000Y-123190000D03*
D13*
X180594000Y-124090000D03*
D11*
X183134000Y-123190000D03*
D13*
X183134000Y-124090000D03*
D11*
X185674000Y-123190000D03*
D13*
X185674000Y-124090000D03*
D11*
X188214000Y-123190000D03*
D13*
X188214000Y-124090000D03*
D11*
X190754000Y-123190000D03*
D13*
X190754000Y-124090000D03*
D10*
X193294000Y-123190000D03*
D13*
X193294000Y-124090000D03*
D11*
X195834000Y-123190000D03*
D13*
X195834000Y-124090000D03*
D11*
X198374000Y-123190000D03*
D13*
X198374000Y-124090000D03*
D11*
X200914000Y-123190000D03*
D13*
X200914000Y-124090000D03*
D11*
X203454000Y-123190000D03*
D13*
X203454000Y-124090000D03*
D10*
X205994000Y-123190000D03*
D13*
X205994000Y-124090000D03*
D11*
X208534000Y-123190000D03*
D13*
X208534000Y-124090000D03*
D11*
X211074000Y-123190000D03*
D13*
X211074000Y-124090000D03*
D11*
X163044000Y-111760000D03*
D14*
X162144000Y-111760000D03*
D10*
X163044000Y-114300000D03*
D14*
X162144000Y-114300000D03*
D11*
X163044000Y-116840000D03*
D14*
X162144000Y-116840000D03*
D15*
X123398000Y-103966000D03*
D16*
X123398000Y-108966000D03*
X123398000Y-113966000D03*
D17*
X177269000Y-130755000D03*
X183769000Y-130755000D03*
X177269000Y-135255000D03*
X183769000Y-135255000D03*
D18*
X137668000Y-113792000D03*
D19*
X137668000Y-123952000D03*
D17*
X135255000Y-75836000D03*
X126746000Y-75836000D03*
X147828000Y-75836000D03*
X139319000Y-75836000D03*
X193219000Y-130791000D03*
X199719000Y-130791000D03*
X193219000Y-135291000D03*
X199719000Y-135291000D03*
D18*
X208514000Y-128270000D03*
X206014000Y-128270000D03*
X160000000Y-73025000D03*
X157500000Y-73025000D03*
D17*
X147095000Y-130755000D03*
X153595000Y-130755000D03*
X147095000Y-135255000D03*
X153595000Y-135255000D03*
D18*
X208514000Y-132080000D03*
X206014000Y-132080000D03*
D10*
X122555000Y-73025000D03*
D11*
X122555000Y-75565000D03*
D10*
X132588000Y-123952000D03*
D11*
X130048000Y-123952000D03*
X127508000Y-123952000D03*
X124968000Y-123952000D03*
X122428000Y-123952000D03*
D20*
X157477200Y-76685500D03*
D17*
X160017200Y-76685500D03*
X162557200Y-76685500D03*
X165097200Y-76685500D03*
X167637200Y-76685500D03*
X170177200Y-76685500D03*
X172717200Y-76685500D03*
X175257200Y-76685500D03*
D18*
X140462000Y-82824000D03*
X140462000Y-85324000D03*
D21*
X135439000Y-82670000D03*
X135439000Y-85210000D03*
X135439000Y-87750000D03*
X135439000Y-90290000D03*
X135439000Y-92830000D03*
X135439000Y-95370000D03*
X135439000Y-97910000D03*
D22*
X122985000Y-92090000D03*
X122985000Y-88590000D03*
D18*
X144272000Y-82824000D03*
X144272000Y-85324000D03*
D10*
X122682000Y-132842000D03*
D11*
X125222000Y-132842000D03*
D18*
X186690000Y-95885000D03*
X186690000Y-98385000D03*
D17*
X132871000Y-130719000D03*
X139371000Y-130719000D03*
X132871000Y-135219000D03*
X139371000Y-135219000D03*
X161977000Y-130791000D03*
X168477000Y-130791000D03*
X161977000Y-135291000D03*
X168477000Y-135291000D03*
D23*
X165201600Y-64033400D02*
X164707700Y-64527300D01*
X164707700Y-64527300D02*
X154266624Y-64527300D01*
X137324000Y-77905000D02*
X135255000Y-75836000D01*
X154266624Y-64527300D02*
X149806200Y-68987724D01*
X165201600Y-62026800D02*
X165201600Y-64033400D01*
X149806200Y-68987724D02*
X149806200Y-76609400D01*
X149806200Y-76609400D02*
X148510600Y-77905000D01*
X148510600Y-77905000D02*
X137324000Y-77905000D01*
X167640000Y-62230000D02*
X167640000Y-62865000D01*
X167640000Y-62865000D02*
X165142700Y-65362300D01*
X154612492Y-65362300D02*
X150641200Y-69333592D01*
X165142700Y-65362300D02*
X154612492Y-65362300D01*
X150641200Y-69333592D02*
X150641200Y-76955268D01*
X150641200Y-76955268D02*
X148856468Y-78740000D01*
X148856468Y-78740000D02*
X129650000Y-78740000D01*
X129650000Y-78740000D02*
X126746000Y-75836000D01*
X186055000Y-95885000D02*
X160020000Y-95885000D01*
X186690000Y-95885000D02*
X186055000Y-95885000D01*
X186055000Y-95885000D02*
X195199000Y-95885000D01*
X160020000Y-107315000D02*
X160020000Y-95885000D01*
X160020000Y-95885000D02*
X160020000Y-73045000D01*
X196850000Y-97536000D02*
X195199000Y-95885000D01*
X200914000Y-116459000D02*
X193406344Y-108951344D01*
X193406344Y-108951344D02*
X161656344Y-108951344D01*
X160020000Y-73045000D02*
X160000000Y-73025000D01*
X161656344Y-108951344D02*
X160020000Y-107315000D01*
X200914000Y-123190000D02*
X200914000Y-116459000D01*
X167637200Y-73967236D02*
X164042264Y-70372300D01*
X164042264Y-70372300D02*
X156687700Y-70372300D01*
X173925868Y-118516000D02*
X178054000Y-122644132D01*
X156687700Y-70372300D02*
X155651200Y-71408800D01*
X167637200Y-76685500D02*
X167637200Y-73967236D01*
X155651200Y-84746404D02*
X153435000Y-86962604D01*
X155651200Y-71408800D02*
X155651200Y-84746404D01*
X153435000Y-86962604D02*
X153435000Y-111493264D01*
X153435000Y-111493264D02*
X160457736Y-118516000D01*
X160457736Y-118516000D02*
X173925868Y-118516000D01*
X178054000Y-122644132D02*
X178054000Y-122980000D01*
X175514000Y-122980000D02*
X175514000Y-121285000D01*
X160111868Y-119351000D02*
X152600000Y-111839132D01*
X175514000Y-121285000D02*
X173580000Y-119351000D01*
X152600000Y-111839132D02*
X152600000Y-86616736D01*
X173580000Y-119351000D02*
X160111868Y-119351000D01*
X164388132Y-69537300D02*
X170177200Y-75326368D01*
X152600000Y-86616736D02*
X154816200Y-84400536D01*
X154816200Y-84400536D02*
X154816200Y-71062932D01*
X154816200Y-71062932D02*
X156341832Y-69537300D01*
X156341832Y-69537300D02*
X164388132Y-69537300D01*
X170177200Y-75326368D02*
X170177200Y-76685500D01*
X165354000Y-120694000D02*
X164846000Y-120186000D01*
X164846000Y-120186000D02*
X159766000Y-120186000D01*
X155995964Y-68702300D02*
X164734000Y-68702300D01*
X159766000Y-120186000D02*
X151765000Y-112185000D01*
X151765000Y-112185000D02*
X151765000Y-86270868D01*
X165354000Y-122980000D02*
X165354000Y-120694000D01*
X151765000Y-86270868D02*
X153981200Y-84054668D01*
X153981200Y-84054668D02*
X153981200Y-70717064D01*
X153981200Y-70717064D02*
X155995964Y-68702300D01*
X164734000Y-68702300D02*
X172717200Y-76685500D01*
X139371000Y-130719000D02*
X141185000Y-128905000D01*
X141185000Y-128905000D02*
X154264132Y-128905000D01*
X154264132Y-128905000D02*
X155124532Y-128044600D01*
X155124532Y-128044600D02*
X159610400Y-128044600D01*
X159610400Y-128044600D02*
X162814000Y-124841000D01*
X153595000Y-130755000D02*
X155470400Y-128879600D01*
X170652132Y-127435000D02*
X182038600Y-127435000D01*
X155470400Y-128879600D02*
X169207532Y-128879600D01*
X182038600Y-127435000D02*
X183134000Y-126339600D01*
X169207532Y-128879600D02*
X170652132Y-127435000D01*
X183134000Y-126339600D02*
X183134000Y-125871264D01*
X193219000Y-130791000D02*
X193219000Y-128907600D01*
X193219000Y-128907600D02*
X195834000Y-126292600D01*
X195834000Y-126292600D02*
X195834000Y-123190000D01*
X183769000Y-130755000D02*
X183824868Y-130755000D01*
X189581500Y-126357500D02*
X190754000Y-125185000D01*
X183824868Y-130755000D02*
X188222368Y-126357500D01*
X190754000Y-125185000D02*
X190754000Y-123190000D01*
X188222368Y-126357500D02*
X189581500Y-126357500D01*
X168477000Y-130791000D02*
X170998000Y-128270000D01*
X170998000Y-128270000D02*
X185129000Y-128270000D01*
X188214000Y-125185000D02*
X188214000Y-123190000D01*
X185129000Y-128270000D02*
X188214000Y-125185000D01*
X210185000Y-74041000D02*
X210185000Y-93980000D01*
X208183368Y-102242500D02*
X199546500Y-102242500D01*
X151476200Y-69679460D02*
X154958360Y-66197300D01*
X135939000Y-95370000D02*
X139123264Y-95370000D01*
X210194500Y-93989500D02*
X210194500Y-100231368D01*
X151476200Y-83017064D02*
X151476200Y-69679460D01*
X139123264Y-95370000D02*
X151476200Y-83017064D01*
X154958360Y-66197300D02*
X202341300Y-66197300D01*
X198374000Y-103415000D02*
X198374000Y-105410000D01*
X210185000Y-93980000D02*
X210194500Y-93989500D01*
X199546500Y-102242500D02*
X198374000Y-103415000D01*
X210194500Y-100231368D02*
X208183368Y-102242500D01*
X202341300Y-66197300D02*
X210185000Y-74041000D01*
X135939000Y-97910000D02*
X137764132Y-97910000D01*
X197841500Y-101407500D02*
X195834000Y-103415000D01*
X137764132Y-97910000D02*
X152311200Y-83362932D01*
X195834000Y-103415000D02*
X195834000Y-105410000D01*
X209350000Y-94325868D02*
X209359500Y-94335368D01*
X152311200Y-83362932D02*
X152311200Y-70025328D01*
X209359500Y-94335368D02*
X209359500Y-99885500D01*
X152311200Y-70025328D02*
X155304228Y-67032300D01*
X155304228Y-67032300D02*
X201995432Y-67032300D01*
X209350000Y-74386868D02*
X209350000Y-94325868D01*
X201995432Y-67032300D02*
X209350000Y-74386868D01*
X209359500Y-99885500D02*
X207837500Y-101407500D01*
X207837500Y-101407500D02*
X197841500Y-101407500D01*
X153146200Y-83708800D02*
X153146200Y-70371196D01*
X207491632Y-100572500D02*
X193432500Y-100572500D01*
X135384708Y-92830000D02*
X133421500Y-94793208D01*
X133421500Y-94793208D02*
X133421500Y-98486792D01*
X133421500Y-98486792D02*
X134237208Y-99302500D01*
X134237208Y-99302500D02*
X137552500Y-99302500D01*
X137552500Y-99302500D02*
X153146200Y-83708800D01*
X153146200Y-70371196D02*
X155650096Y-67867300D01*
X155650096Y-67867300D02*
X201649564Y-67867300D01*
X135939000Y-92830000D02*
X135384708Y-92830000D01*
X201649564Y-67867300D02*
X208515000Y-74732736D01*
X208515000Y-74732736D02*
X208515000Y-94671736D01*
X208515000Y-94671736D02*
X208524500Y-94681236D01*
X208524500Y-94681236D02*
X208524500Y-99539632D01*
X208524500Y-99539632D02*
X207491632Y-100572500D01*
X193432500Y-100572500D02*
X190754000Y-103251000D01*
X190754000Y-103251000D02*
X190754000Y-105410000D01*
X201930000Y-97536000D02*
X199728500Y-99737500D01*
X199728500Y-99737500D02*
X193086632Y-99737500D01*
X191859132Y-100965000D02*
X177964000Y-100965000D01*
X177964000Y-100965000D02*
X175514000Y-103415000D01*
X193086632Y-99737500D02*
X191859132Y-100965000D01*
X175514000Y-103415000D02*
X175514000Y-105410000D01*
X186690000Y-98385000D02*
X170855000Y-98385000D01*
X167894000Y-101346000D02*
X167894000Y-105410000D01*
X170855000Y-98385000D02*
X167894000Y-101346000D01*
X208514000Y-128270000D02*
X208514000Y-132080000D01*
X208534000Y-123190000D02*
X208534000Y-128250000D01*
X208534000Y-128250000D02*
X208514000Y-128270000D01*
X206014000Y-132080000D02*
X206014000Y-128270000D01*
X205994000Y-123190000D02*
X205994000Y-128250000D01*
X205994000Y-128250000D02*
X206014000Y-128270000D01*
X205994000Y-127234000D02*
X206014000Y-127254000D01*
X135939000Y-85210000D02*
X136053000Y-85324000D01*
X136053000Y-85324000D02*
X144272000Y-85324000D01*
X126492000Y-95597000D02*
X126492000Y-105872000D01*
X122985000Y-92090000D02*
X126492000Y-95597000D01*
X126492000Y-105872000D02*
X123398000Y-108966000D01*
X123398000Y-113966000D02*
X137494000Y-113966000D01*
X122682000Y-132842000D02*
X121060500Y-131220500D01*
X121060500Y-116303500D02*
X123398000Y-113966000D01*
X137494000Y-113966000D02*
X137668000Y-113792000D01*
X121060500Y-131220500D02*
X121060500Y-116303500D01*
X132871000Y-130719000D02*
X139371000Y-130719000D01*
X161977000Y-130791000D02*
X168477000Y-130791000D01*
X147095000Y-130755000D02*
X153595000Y-130755000D01*
X135939000Y-82670000D02*
X136093000Y-82824000D01*
X122555000Y-75565000D02*
X129660000Y-82670000D01*
X129660000Y-82670000D02*
X135939000Y-82670000D01*
X136093000Y-82824000D02*
X144272000Y-82824000D01*
X208534000Y-127234000D02*
X208514000Y-127254000D01*
X193219000Y-130791000D02*
X199719000Y-130791000D01*
X177269000Y-130755000D02*
X183769000Y-130755000D01*
X122428000Y-130048000D02*
X125222000Y-132842000D01*
X122428000Y-123952000D02*
X122428000Y-130048000D01*
X137668000Y-123952000D02*
X132588000Y-123952000D01*
X122555000Y-73025000D02*
X145017000Y-73025000D01*
X145017000Y-73025000D02*
X147237566Y-75245566D01*
M02*
