%TF.GenerationSoftware,KiCad,Pcbnew,8.0.5*%
%TF.CreationDate,2024-10-19T23:11:02+02:00*%
%TF.ProjectId,Tortu,546f7274-752e-46b6-9963-61645f706362,rev?*%
%TF.SameCoordinates,Original*%
%TF.FileFunction,Drillmap*%
%TF.FilePolarity,Positive*%
%FSLAX45Y45*%
G04 Gerber Fmt 4.5, Leading zero omitted, Abs format (unit mm)*
G04 Created by KiCad (PCBNEW 8.0.5) date 2024-10-19 23:11:02*
%MOMM*%
%LPD*%
G01*
G04 APERTURE LIST*
%ADD10C,0.050000*%
%ADD11C,0.200000*%
%ADD12C,0.150000*%
%ADD13C,0.180000*%
G04 APERTURE END LIST*
D10*
X21216880Y-13779500D02*
G75*
G02*
X20820120Y-13779500I-198380J0D01*
G01*
X20820120Y-13779500D02*
G75*
G02*
X21216880Y-13779500I198380J0D01*
G01*
X12453880Y-13779500D02*
G75*
G02*
X12057120Y-13779500I-198380J0D01*
G01*
X12057120Y-13779500D02*
G75*
G02*
X12453880Y-13779500I198380J0D01*
G01*
X21216880Y-6223000D02*
G75*
G02*
X20820120Y-6223000I-198380J0D01*
G01*
X20820120Y-6223000D02*
G75*
G02*
X21216880Y-6223000I198380J0D01*
G01*
X12448941Y-6223000D02*
G75*
G02*
X12062059Y-6223000I-193441J0D01*
G01*
X12062059Y-6223000D02*
G75*
G02*
X12448941Y-6223000I193441J0D01*
G01*
X21336000Y-13843000D02*
X21336000Y-6159500D01*
X12192000Y-14097000D02*
X21082000Y-14097000D01*
X11938000Y-6159500D02*
X11938000Y-13843000D01*
X12192000Y-5905500D02*
X21082000Y-5905500D01*
X11938000Y-6159500D02*
G75*
G02*
X12192000Y-5905500I254000J0D01*
G01*
X21082000Y-5905500D02*
G75*
G02*
X21336000Y-6159500I0J-254000D01*
G01*
X21336000Y-13843000D02*
G75*
G02*
X21082000Y-14097000I-254000J0D01*
G01*
X12192000Y-14097000D02*
G75*
G02*
X11938000Y-13843000I0J254000D01*
G01*
D11*
D12*
X20754500Y-7531100D02*
X20904500Y-7681100D01*
X20904500Y-7531100D02*
X20754500Y-7681100D01*
X20754500Y-8016100D02*
X20904500Y-8166100D01*
X20904500Y-8016100D02*
X20754500Y-8166100D01*
D13*
X21222500Y-7576100D02*
G75*
G02*
X21042500Y-7576100I-90000J0D01*
G01*
X21042500Y-7576100D02*
G75*
G02*
X21222500Y-7576100I90000J0D01*
G01*
X21222500Y-8121100D02*
G75*
G02*
X21042500Y-8121100I-90000J0D01*
G01*
X21042500Y-8121100D02*
G75*
G02*
X21222500Y-8121100I90000J0D01*
G01*
D11*
X12196277Y-14410984D02*
X12196277Y-14210984D01*
X12196277Y-14210984D02*
X12243896Y-14210984D01*
X12243896Y-14210984D02*
X12272467Y-14220508D01*
X12272467Y-14220508D02*
X12291515Y-14239555D01*
X12291515Y-14239555D02*
X12301039Y-14258603D01*
X12301039Y-14258603D02*
X12310562Y-14296698D01*
X12310562Y-14296698D02*
X12310562Y-14325269D01*
X12310562Y-14325269D02*
X12301039Y-14363365D01*
X12301039Y-14363365D02*
X12291515Y-14382412D01*
X12291515Y-14382412D02*
X12272467Y-14401460D01*
X12272467Y-14401460D02*
X12243896Y-14410984D01*
X12243896Y-14410984D02*
X12196277Y-14410984D01*
X12396277Y-14410984D02*
X12396277Y-14277650D01*
X12396277Y-14315746D02*
X12405801Y-14296698D01*
X12405801Y-14296698D02*
X12415324Y-14287174D01*
X12415324Y-14287174D02*
X12434372Y-14277650D01*
X12434372Y-14277650D02*
X12453420Y-14277650D01*
X12520086Y-14410984D02*
X12520086Y-14277650D01*
X12520086Y-14210984D02*
X12510562Y-14220508D01*
X12510562Y-14220508D02*
X12520086Y-14230031D01*
X12520086Y-14230031D02*
X12529610Y-14220508D01*
X12529610Y-14220508D02*
X12520086Y-14210984D01*
X12520086Y-14210984D02*
X12520086Y-14230031D01*
X12643896Y-14410984D02*
X12624848Y-14401460D01*
X12624848Y-14401460D02*
X12615324Y-14382412D01*
X12615324Y-14382412D02*
X12615324Y-14210984D01*
X12748658Y-14410984D02*
X12729610Y-14401460D01*
X12729610Y-14401460D02*
X12720086Y-14382412D01*
X12720086Y-14382412D02*
X12720086Y-14210984D01*
X12977229Y-14410984D02*
X12977229Y-14210984D01*
X12977229Y-14210984D02*
X13043896Y-14353841D01*
X13043896Y-14353841D02*
X13110562Y-14210984D01*
X13110562Y-14210984D02*
X13110562Y-14410984D01*
X13291515Y-14410984D02*
X13291515Y-14306222D01*
X13291515Y-14306222D02*
X13281991Y-14287174D01*
X13281991Y-14287174D02*
X13262943Y-14277650D01*
X13262943Y-14277650D02*
X13224848Y-14277650D01*
X13224848Y-14277650D02*
X13205801Y-14287174D01*
X13291515Y-14401460D02*
X13272467Y-14410984D01*
X13272467Y-14410984D02*
X13224848Y-14410984D01*
X13224848Y-14410984D02*
X13205801Y-14401460D01*
X13205801Y-14401460D02*
X13196277Y-14382412D01*
X13196277Y-14382412D02*
X13196277Y-14363365D01*
X13196277Y-14363365D02*
X13205801Y-14344317D01*
X13205801Y-14344317D02*
X13224848Y-14334793D01*
X13224848Y-14334793D02*
X13272467Y-14334793D01*
X13272467Y-14334793D02*
X13291515Y-14325269D01*
X13386753Y-14277650D02*
X13386753Y-14477650D01*
X13386753Y-14287174D02*
X13405801Y-14277650D01*
X13405801Y-14277650D02*
X13443896Y-14277650D01*
X13443896Y-14277650D02*
X13462943Y-14287174D01*
X13462943Y-14287174D02*
X13472467Y-14296698D01*
X13472467Y-14296698D02*
X13481991Y-14315746D01*
X13481991Y-14315746D02*
X13481991Y-14372888D01*
X13481991Y-14372888D02*
X13472467Y-14391936D01*
X13472467Y-14391936D02*
X13462943Y-14401460D01*
X13462943Y-14401460D02*
X13443896Y-14410984D01*
X13443896Y-14410984D02*
X13405801Y-14410984D01*
X13405801Y-14410984D02*
X13386753Y-14401460D01*
X13567705Y-14391936D02*
X13577229Y-14401460D01*
X13577229Y-14401460D02*
X13567705Y-14410984D01*
X13567705Y-14410984D02*
X13558182Y-14401460D01*
X13558182Y-14401460D02*
X13567705Y-14391936D01*
X13567705Y-14391936D02*
X13567705Y-14410984D01*
X13567705Y-14287174D02*
X13577229Y-14296698D01*
X13577229Y-14296698D02*
X13567705Y-14306222D01*
X13567705Y-14306222D02*
X13558182Y-14296698D01*
X13558182Y-14296698D02*
X13567705Y-14287174D01*
X13567705Y-14287174D02*
X13567705Y-14306222D01*
D12*
X11785500Y-14664500D02*
X11935500Y-14814500D01*
X11935500Y-14664500D02*
X11785500Y-14814500D01*
D11*
X12301039Y-14830984D02*
X12186753Y-14830984D01*
X12243896Y-14830984D02*
X12243896Y-14630984D01*
X12243896Y-14630984D02*
X12224848Y-14659555D01*
X12224848Y-14659555D02*
X12205801Y-14678603D01*
X12205801Y-14678603D02*
X12186753Y-14688127D01*
X12386753Y-14811936D02*
X12396277Y-14821460D01*
X12396277Y-14821460D02*
X12386753Y-14830984D01*
X12386753Y-14830984D02*
X12377229Y-14821460D01*
X12377229Y-14821460D02*
X12386753Y-14811936D01*
X12386753Y-14811936D02*
X12386753Y-14830984D01*
X12577229Y-14630984D02*
X12481991Y-14630984D01*
X12481991Y-14630984D02*
X12472467Y-14726222D01*
X12472467Y-14726222D02*
X12481991Y-14716698D01*
X12481991Y-14716698D02*
X12501039Y-14707174D01*
X12501039Y-14707174D02*
X12548658Y-14707174D01*
X12548658Y-14707174D02*
X12567705Y-14716698D01*
X12567705Y-14716698D02*
X12577229Y-14726222D01*
X12577229Y-14726222D02*
X12586753Y-14745269D01*
X12586753Y-14745269D02*
X12586753Y-14792888D01*
X12586753Y-14792888D02*
X12577229Y-14811936D01*
X12577229Y-14811936D02*
X12567705Y-14821460D01*
X12567705Y-14821460D02*
X12548658Y-14830984D01*
X12548658Y-14830984D02*
X12501039Y-14830984D01*
X12501039Y-14830984D02*
X12481991Y-14821460D01*
X12481991Y-14821460D02*
X12472467Y-14811936D01*
X12710562Y-14630984D02*
X12729610Y-14630984D01*
X12729610Y-14630984D02*
X12748658Y-14640508D01*
X12748658Y-14640508D02*
X12758182Y-14650031D01*
X12758182Y-14650031D02*
X12767705Y-14669079D01*
X12767705Y-14669079D02*
X12777229Y-14707174D01*
X12777229Y-14707174D02*
X12777229Y-14754793D01*
X12777229Y-14754793D02*
X12767705Y-14792888D01*
X12767705Y-14792888D02*
X12758182Y-14811936D01*
X12758182Y-14811936D02*
X12748658Y-14821460D01*
X12748658Y-14821460D02*
X12729610Y-14830984D01*
X12729610Y-14830984D02*
X12710562Y-14830984D01*
X12710562Y-14830984D02*
X12691515Y-14821460D01*
X12691515Y-14821460D02*
X12681991Y-14811936D01*
X12681991Y-14811936D02*
X12672467Y-14792888D01*
X12672467Y-14792888D02*
X12662943Y-14754793D01*
X12662943Y-14754793D02*
X12662943Y-14707174D01*
X12662943Y-14707174D02*
X12672467Y-14669079D01*
X12672467Y-14669079D02*
X12681991Y-14650031D01*
X12681991Y-14650031D02*
X12691515Y-14640508D01*
X12691515Y-14640508D02*
X12710562Y-14630984D01*
X12901039Y-14630984D02*
X12920086Y-14630984D01*
X12920086Y-14630984D02*
X12939134Y-14640508D01*
X12939134Y-14640508D02*
X12948658Y-14650031D01*
X12948658Y-14650031D02*
X12958182Y-14669079D01*
X12958182Y-14669079D02*
X12967705Y-14707174D01*
X12967705Y-14707174D02*
X12967705Y-14754793D01*
X12967705Y-14754793D02*
X12958182Y-14792888D01*
X12958182Y-14792888D02*
X12948658Y-14811936D01*
X12948658Y-14811936D02*
X12939134Y-14821460D01*
X12939134Y-14821460D02*
X12920086Y-14830984D01*
X12920086Y-14830984D02*
X12901039Y-14830984D01*
X12901039Y-14830984D02*
X12881991Y-14821460D01*
X12881991Y-14821460D02*
X12872467Y-14811936D01*
X12872467Y-14811936D02*
X12862943Y-14792888D01*
X12862943Y-14792888D02*
X12853420Y-14754793D01*
X12853420Y-14754793D02*
X12853420Y-14707174D01*
X12853420Y-14707174D02*
X12862943Y-14669079D01*
X12862943Y-14669079D02*
X12872467Y-14650031D01*
X12872467Y-14650031D02*
X12881991Y-14640508D01*
X12881991Y-14640508D02*
X12901039Y-14630984D01*
X13053420Y-14830984D02*
X13053420Y-14697650D01*
X13053420Y-14716698D02*
X13062943Y-14707174D01*
X13062943Y-14707174D02*
X13081991Y-14697650D01*
X13081991Y-14697650D02*
X13110563Y-14697650D01*
X13110563Y-14697650D02*
X13129610Y-14707174D01*
X13129610Y-14707174D02*
X13139134Y-14726222D01*
X13139134Y-14726222D02*
X13139134Y-14830984D01*
X13139134Y-14726222D02*
X13148658Y-14707174D01*
X13148658Y-14707174D02*
X13167705Y-14697650D01*
X13167705Y-14697650D02*
X13196277Y-14697650D01*
X13196277Y-14697650D02*
X13215324Y-14707174D01*
X13215324Y-14707174D02*
X13224848Y-14726222D01*
X13224848Y-14726222D02*
X13224848Y-14830984D01*
X13320086Y-14830984D02*
X13320086Y-14697650D01*
X13320086Y-14716698D02*
X13329610Y-14707174D01*
X13329610Y-14707174D02*
X13348658Y-14697650D01*
X13348658Y-14697650D02*
X13377229Y-14697650D01*
X13377229Y-14697650D02*
X13396277Y-14707174D01*
X13396277Y-14707174D02*
X13405801Y-14726222D01*
X13405801Y-14726222D02*
X13405801Y-14830984D01*
X13405801Y-14726222D02*
X13415324Y-14707174D01*
X13415324Y-14707174D02*
X13434372Y-14697650D01*
X13434372Y-14697650D02*
X13462943Y-14697650D01*
X13462943Y-14697650D02*
X13481991Y-14707174D01*
X13481991Y-14707174D02*
X13491515Y-14726222D01*
X13491515Y-14726222D02*
X13491515Y-14830984D01*
X13881991Y-14621460D02*
X13710563Y-14878603D01*
X14139134Y-14630984D02*
X14158182Y-14630984D01*
X14158182Y-14630984D02*
X14177229Y-14640508D01*
X14177229Y-14640508D02*
X14186753Y-14650031D01*
X14186753Y-14650031D02*
X14196277Y-14669079D01*
X14196277Y-14669079D02*
X14205801Y-14707174D01*
X14205801Y-14707174D02*
X14205801Y-14754793D01*
X14205801Y-14754793D02*
X14196277Y-14792888D01*
X14196277Y-14792888D02*
X14186753Y-14811936D01*
X14186753Y-14811936D02*
X14177229Y-14821460D01*
X14177229Y-14821460D02*
X14158182Y-14830984D01*
X14158182Y-14830984D02*
X14139134Y-14830984D01*
X14139134Y-14830984D02*
X14120086Y-14821460D01*
X14120086Y-14821460D02*
X14110563Y-14811936D01*
X14110563Y-14811936D02*
X14101039Y-14792888D01*
X14101039Y-14792888D02*
X14091515Y-14754793D01*
X14091515Y-14754793D02*
X14091515Y-14707174D01*
X14091515Y-14707174D02*
X14101039Y-14669079D01*
X14101039Y-14669079D02*
X14110563Y-14650031D01*
X14110563Y-14650031D02*
X14120086Y-14640508D01*
X14120086Y-14640508D02*
X14139134Y-14630984D01*
X14291515Y-14811936D02*
X14301039Y-14821460D01*
X14301039Y-14821460D02*
X14291515Y-14830984D01*
X14291515Y-14830984D02*
X14281991Y-14821460D01*
X14281991Y-14821460D02*
X14291515Y-14811936D01*
X14291515Y-14811936D02*
X14291515Y-14830984D01*
X14424848Y-14630984D02*
X14443896Y-14630984D01*
X14443896Y-14630984D02*
X14462944Y-14640508D01*
X14462944Y-14640508D02*
X14472467Y-14650031D01*
X14472467Y-14650031D02*
X14481991Y-14669079D01*
X14481991Y-14669079D02*
X14491515Y-14707174D01*
X14491515Y-14707174D02*
X14491515Y-14754793D01*
X14491515Y-14754793D02*
X14481991Y-14792888D01*
X14481991Y-14792888D02*
X14472467Y-14811936D01*
X14472467Y-14811936D02*
X14462944Y-14821460D01*
X14462944Y-14821460D02*
X14443896Y-14830984D01*
X14443896Y-14830984D02*
X14424848Y-14830984D01*
X14424848Y-14830984D02*
X14405801Y-14821460D01*
X14405801Y-14821460D02*
X14396277Y-14811936D01*
X14396277Y-14811936D02*
X14386753Y-14792888D01*
X14386753Y-14792888D02*
X14377229Y-14754793D01*
X14377229Y-14754793D02*
X14377229Y-14707174D01*
X14377229Y-14707174D02*
X14386753Y-14669079D01*
X14386753Y-14669079D02*
X14396277Y-14650031D01*
X14396277Y-14650031D02*
X14405801Y-14640508D01*
X14405801Y-14640508D02*
X14424848Y-14630984D01*
X14672467Y-14630984D02*
X14577229Y-14630984D01*
X14577229Y-14630984D02*
X14567706Y-14726222D01*
X14567706Y-14726222D02*
X14577229Y-14716698D01*
X14577229Y-14716698D02*
X14596277Y-14707174D01*
X14596277Y-14707174D02*
X14643896Y-14707174D01*
X14643896Y-14707174D02*
X14662944Y-14716698D01*
X14662944Y-14716698D02*
X14672467Y-14726222D01*
X14672467Y-14726222D02*
X14681991Y-14745269D01*
X14681991Y-14745269D02*
X14681991Y-14792888D01*
X14681991Y-14792888D02*
X14672467Y-14811936D01*
X14672467Y-14811936D02*
X14662944Y-14821460D01*
X14662944Y-14821460D02*
X14643896Y-14830984D01*
X14643896Y-14830984D02*
X14596277Y-14830984D01*
X14596277Y-14830984D02*
X14577229Y-14821460D01*
X14577229Y-14821460D02*
X14567706Y-14811936D01*
X14777229Y-14830984D02*
X14815325Y-14830984D01*
X14815325Y-14830984D02*
X14834372Y-14821460D01*
X14834372Y-14821460D02*
X14843896Y-14811936D01*
X14843896Y-14811936D02*
X14862944Y-14783365D01*
X14862944Y-14783365D02*
X14872467Y-14745269D01*
X14872467Y-14745269D02*
X14872467Y-14669079D01*
X14872467Y-14669079D02*
X14862944Y-14650031D01*
X14862944Y-14650031D02*
X14853420Y-14640508D01*
X14853420Y-14640508D02*
X14834372Y-14630984D01*
X14834372Y-14630984D02*
X14796277Y-14630984D01*
X14796277Y-14630984D02*
X14777229Y-14640508D01*
X14777229Y-14640508D02*
X14767706Y-14650031D01*
X14767706Y-14650031D02*
X14758182Y-14669079D01*
X14758182Y-14669079D02*
X14758182Y-14716698D01*
X14758182Y-14716698D02*
X14767706Y-14735746D01*
X14767706Y-14735746D02*
X14777229Y-14745269D01*
X14777229Y-14745269D02*
X14796277Y-14754793D01*
X14796277Y-14754793D02*
X14834372Y-14754793D01*
X14834372Y-14754793D02*
X14853420Y-14745269D01*
X14853420Y-14745269D02*
X14862944Y-14735746D01*
X14862944Y-14735746D02*
X14872467Y-14716698D01*
X15062944Y-14830984D02*
X14948658Y-14830984D01*
X15005801Y-14830984D02*
X15005801Y-14630984D01*
X15005801Y-14630984D02*
X14986753Y-14659555D01*
X14986753Y-14659555D02*
X14967706Y-14678603D01*
X14967706Y-14678603D02*
X14948658Y-14688127D01*
X15139134Y-14630984D02*
X15139134Y-14669079D01*
X15215325Y-14630984D02*
X15215325Y-14669079D01*
X15510563Y-14907174D02*
X15501039Y-14897650D01*
X15501039Y-14897650D02*
X15481991Y-14869079D01*
X15481991Y-14869079D02*
X15472468Y-14850031D01*
X15472468Y-14850031D02*
X15462944Y-14821460D01*
X15462944Y-14821460D02*
X15453420Y-14773841D01*
X15453420Y-14773841D02*
X15453420Y-14735746D01*
X15453420Y-14735746D02*
X15462944Y-14688127D01*
X15462944Y-14688127D02*
X15472468Y-14659555D01*
X15472468Y-14659555D02*
X15481991Y-14640508D01*
X15481991Y-14640508D02*
X15501039Y-14611936D01*
X15501039Y-14611936D02*
X15510563Y-14602412D01*
X15577229Y-14650031D02*
X15586753Y-14640508D01*
X15586753Y-14640508D02*
X15605801Y-14630984D01*
X15605801Y-14630984D02*
X15653420Y-14630984D01*
X15653420Y-14630984D02*
X15672468Y-14640508D01*
X15672468Y-14640508D02*
X15681991Y-14650031D01*
X15681991Y-14650031D02*
X15691515Y-14669079D01*
X15691515Y-14669079D02*
X15691515Y-14688127D01*
X15691515Y-14688127D02*
X15681991Y-14716698D01*
X15681991Y-14716698D02*
X15567706Y-14830984D01*
X15567706Y-14830984D02*
X15691515Y-14830984D01*
X15929610Y-14830984D02*
X15929610Y-14630984D01*
X16015325Y-14830984D02*
X16015325Y-14726222D01*
X16015325Y-14726222D02*
X16005801Y-14707174D01*
X16005801Y-14707174D02*
X15986753Y-14697650D01*
X15986753Y-14697650D02*
X15958182Y-14697650D01*
X15958182Y-14697650D02*
X15939134Y-14707174D01*
X15939134Y-14707174D02*
X15929610Y-14716698D01*
X16139134Y-14830984D02*
X16120087Y-14821460D01*
X16120087Y-14821460D02*
X16110563Y-14811936D01*
X16110563Y-14811936D02*
X16101039Y-14792888D01*
X16101039Y-14792888D02*
X16101039Y-14735746D01*
X16101039Y-14735746D02*
X16110563Y-14716698D01*
X16110563Y-14716698D02*
X16120087Y-14707174D01*
X16120087Y-14707174D02*
X16139134Y-14697650D01*
X16139134Y-14697650D02*
X16167706Y-14697650D01*
X16167706Y-14697650D02*
X16186753Y-14707174D01*
X16186753Y-14707174D02*
X16196277Y-14716698D01*
X16196277Y-14716698D02*
X16205801Y-14735746D01*
X16205801Y-14735746D02*
X16205801Y-14792888D01*
X16205801Y-14792888D02*
X16196277Y-14811936D01*
X16196277Y-14811936D02*
X16186753Y-14821460D01*
X16186753Y-14821460D02*
X16167706Y-14830984D01*
X16167706Y-14830984D02*
X16139134Y-14830984D01*
X16320087Y-14830984D02*
X16301039Y-14821460D01*
X16301039Y-14821460D02*
X16291515Y-14802412D01*
X16291515Y-14802412D02*
X16291515Y-14630984D01*
X16472468Y-14821460D02*
X16453420Y-14830984D01*
X16453420Y-14830984D02*
X16415325Y-14830984D01*
X16415325Y-14830984D02*
X16396277Y-14821460D01*
X16396277Y-14821460D02*
X16386753Y-14802412D01*
X16386753Y-14802412D02*
X16386753Y-14726222D01*
X16386753Y-14726222D02*
X16396277Y-14707174D01*
X16396277Y-14707174D02*
X16415325Y-14697650D01*
X16415325Y-14697650D02*
X16453420Y-14697650D01*
X16453420Y-14697650D02*
X16472468Y-14707174D01*
X16472468Y-14707174D02*
X16481991Y-14726222D01*
X16481991Y-14726222D02*
X16481991Y-14745269D01*
X16481991Y-14745269D02*
X16386753Y-14764317D01*
X16558182Y-14821460D02*
X16577230Y-14830984D01*
X16577230Y-14830984D02*
X16615325Y-14830984D01*
X16615325Y-14830984D02*
X16634372Y-14821460D01*
X16634372Y-14821460D02*
X16643896Y-14802412D01*
X16643896Y-14802412D02*
X16643896Y-14792888D01*
X16643896Y-14792888D02*
X16634372Y-14773841D01*
X16634372Y-14773841D02*
X16615325Y-14764317D01*
X16615325Y-14764317D02*
X16586753Y-14764317D01*
X16586753Y-14764317D02*
X16567706Y-14754793D01*
X16567706Y-14754793D02*
X16558182Y-14735746D01*
X16558182Y-14735746D02*
X16558182Y-14726222D01*
X16558182Y-14726222D02*
X16567706Y-14707174D01*
X16567706Y-14707174D02*
X16586753Y-14697650D01*
X16586753Y-14697650D02*
X16615325Y-14697650D01*
X16615325Y-14697650D02*
X16634372Y-14707174D01*
X16710563Y-14907174D02*
X16720087Y-14897650D01*
X16720087Y-14897650D02*
X16739134Y-14869079D01*
X16739134Y-14869079D02*
X16748658Y-14850031D01*
X16748658Y-14850031D02*
X16758182Y-14821460D01*
X16758182Y-14821460D02*
X16767706Y-14773841D01*
X16767706Y-14773841D02*
X16767706Y-14735746D01*
X16767706Y-14735746D02*
X16758182Y-14688127D01*
X16758182Y-14688127D02*
X16748658Y-14659555D01*
X16748658Y-14659555D02*
X16739134Y-14640508D01*
X16739134Y-14640508D02*
X16720087Y-14611936D01*
X16720087Y-14611936D02*
X16710563Y-14602412D01*
X17072468Y-14907174D02*
X17062944Y-14897650D01*
X17062944Y-14897650D02*
X17043896Y-14869079D01*
X17043896Y-14869079D02*
X17034373Y-14850031D01*
X17034373Y-14850031D02*
X17024849Y-14821460D01*
X17024849Y-14821460D02*
X17015325Y-14773841D01*
X17015325Y-14773841D02*
X17015325Y-14735746D01*
X17015325Y-14735746D02*
X17024849Y-14688127D01*
X17024849Y-14688127D02*
X17034373Y-14659555D01*
X17034373Y-14659555D02*
X17043896Y-14640508D01*
X17043896Y-14640508D02*
X17062944Y-14611936D01*
X17062944Y-14611936D02*
X17072468Y-14602412D01*
X17148658Y-14697650D02*
X17148658Y-14830984D01*
X17148658Y-14716698D02*
X17158182Y-14707174D01*
X17158182Y-14707174D02*
X17177230Y-14697650D01*
X17177230Y-14697650D02*
X17205801Y-14697650D01*
X17205801Y-14697650D02*
X17224849Y-14707174D01*
X17224849Y-14707174D02*
X17234373Y-14726222D01*
X17234373Y-14726222D02*
X17234373Y-14830984D01*
X17358182Y-14830984D02*
X17339134Y-14821460D01*
X17339134Y-14821460D02*
X17329611Y-14811936D01*
X17329611Y-14811936D02*
X17320087Y-14792888D01*
X17320087Y-14792888D02*
X17320087Y-14735746D01*
X17320087Y-14735746D02*
X17329611Y-14716698D01*
X17329611Y-14716698D02*
X17339134Y-14707174D01*
X17339134Y-14707174D02*
X17358182Y-14697650D01*
X17358182Y-14697650D02*
X17386754Y-14697650D01*
X17386754Y-14697650D02*
X17405801Y-14707174D01*
X17405801Y-14707174D02*
X17415325Y-14716698D01*
X17415325Y-14716698D02*
X17424849Y-14735746D01*
X17424849Y-14735746D02*
X17424849Y-14792888D01*
X17424849Y-14792888D02*
X17415325Y-14811936D01*
X17415325Y-14811936D02*
X17405801Y-14821460D01*
X17405801Y-14821460D02*
X17386754Y-14830984D01*
X17386754Y-14830984D02*
X17358182Y-14830984D01*
X17481992Y-14697650D02*
X17558182Y-14697650D01*
X17510563Y-14630984D02*
X17510563Y-14802412D01*
X17510563Y-14802412D02*
X17520087Y-14821460D01*
X17520087Y-14821460D02*
X17539134Y-14830984D01*
X17539134Y-14830984D02*
X17558182Y-14830984D01*
X17777230Y-14697650D02*
X17777230Y-14897650D01*
X17777230Y-14707174D02*
X17796277Y-14697650D01*
X17796277Y-14697650D02*
X17834373Y-14697650D01*
X17834373Y-14697650D02*
X17853420Y-14707174D01*
X17853420Y-14707174D02*
X17862944Y-14716698D01*
X17862944Y-14716698D02*
X17872468Y-14735746D01*
X17872468Y-14735746D02*
X17872468Y-14792888D01*
X17872468Y-14792888D02*
X17862944Y-14811936D01*
X17862944Y-14811936D02*
X17853420Y-14821460D01*
X17853420Y-14821460D02*
X17834373Y-14830984D01*
X17834373Y-14830984D02*
X17796277Y-14830984D01*
X17796277Y-14830984D02*
X17777230Y-14821460D01*
X17986754Y-14830984D02*
X17967706Y-14821460D01*
X17967706Y-14821460D02*
X17958182Y-14802412D01*
X17958182Y-14802412D02*
X17958182Y-14630984D01*
X18148658Y-14830984D02*
X18148658Y-14726222D01*
X18148658Y-14726222D02*
X18139135Y-14707174D01*
X18139135Y-14707174D02*
X18120087Y-14697650D01*
X18120087Y-14697650D02*
X18081992Y-14697650D01*
X18081992Y-14697650D02*
X18062944Y-14707174D01*
X18148658Y-14821460D02*
X18129611Y-14830984D01*
X18129611Y-14830984D02*
X18081992Y-14830984D01*
X18081992Y-14830984D02*
X18062944Y-14821460D01*
X18062944Y-14821460D02*
X18053420Y-14802412D01*
X18053420Y-14802412D02*
X18053420Y-14783365D01*
X18053420Y-14783365D02*
X18062944Y-14764317D01*
X18062944Y-14764317D02*
X18081992Y-14754793D01*
X18081992Y-14754793D02*
X18129611Y-14754793D01*
X18129611Y-14754793D02*
X18148658Y-14745269D01*
X18215325Y-14697650D02*
X18291515Y-14697650D01*
X18243896Y-14630984D02*
X18243896Y-14802412D01*
X18243896Y-14802412D02*
X18253420Y-14821460D01*
X18253420Y-14821460D02*
X18272468Y-14830984D01*
X18272468Y-14830984D02*
X18291515Y-14830984D01*
X18434373Y-14821460D02*
X18415325Y-14830984D01*
X18415325Y-14830984D02*
X18377230Y-14830984D01*
X18377230Y-14830984D02*
X18358182Y-14821460D01*
X18358182Y-14821460D02*
X18348658Y-14802412D01*
X18348658Y-14802412D02*
X18348658Y-14726222D01*
X18348658Y-14726222D02*
X18358182Y-14707174D01*
X18358182Y-14707174D02*
X18377230Y-14697650D01*
X18377230Y-14697650D02*
X18415325Y-14697650D01*
X18415325Y-14697650D02*
X18434373Y-14707174D01*
X18434373Y-14707174D02*
X18443896Y-14726222D01*
X18443896Y-14726222D02*
X18443896Y-14745269D01*
X18443896Y-14745269D02*
X18348658Y-14764317D01*
X18615325Y-14830984D02*
X18615325Y-14630984D01*
X18615325Y-14821460D02*
X18596277Y-14830984D01*
X18596277Y-14830984D02*
X18558182Y-14830984D01*
X18558182Y-14830984D02*
X18539135Y-14821460D01*
X18539135Y-14821460D02*
X18529611Y-14811936D01*
X18529611Y-14811936D02*
X18520087Y-14792888D01*
X18520087Y-14792888D02*
X18520087Y-14735746D01*
X18520087Y-14735746D02*
X18529611Y-14716698D01*
X18529611Y-14716698D02*
X18539135Y-14707174D01*
X18539135Y-14707174D02*
X18558182Y-14697650D01*
X18558182Y-14697650D02*
X18596277Y-14697650D01*
X18596277Y-14697650D02*
X18615325Y-14707174D01*
X18691516Y-14907174D02*
X18701039Y-14897650D01*
X18701039Y-14897650D02*
X18720087Y-14869079D01*
X18720087Y-14869079D02*
X18729611Y-14850031D01*
X18729611Y-14850031D02*
X18739135Y-14821460D01*
X18739135Y-14821460D02*
X18748658Y-14773841D01*
X18748658Y-14773841D02*
X18748658Y-14735746D01*
X18748658Y-14735746D02*
X18739135Y-14688127D01*
X18739135Y-14688127D02*
X18729611Y-14659555D01*
X18729611Y-14659555D02*
X18720087Y-14640508D01*
X18720087Y-14640508D02*
X18701039Y-14611936D01*
X18701039Y-14611936D02*
X18691516Y-14602412D01*
D13*
X11935500Y-15009500D02*
G75*
G02*
X11755500Y-15009500I-90000J0D01*
G01*
X11755500Y-15009500D02*
G75*
G02*
X11935500Y-15009500I90000J0D01*
G01*
D11*
X12301039Y-15100984D02*
X12186753Y-15100984D01*
X12243896Y-15100984D02*
X12243896Y-14900984D01*
X12243896Y-14900984D02*
X12224848Y-14929555D01*
X12224848Y-14929555D02*
X12205801Y-14948603D01*
X12205801Y-14948603D02*
X12186753Y-14958127D01*
X12386753Y-15081936D02*
X12396277Y-15091460D01*
X12396277Y-15091460D02*
X12386753Y-15100984D01*
X12386753Y-15100984D02*
X12377229Y-15091460D01*
X12377229Y-15091460D02*
X12386753Y-15081936D01*
X12386753Y-15081936D02*
X12386753Y-15100984D01*
X12510562Y-14986698D02*
X12491515Y-14977174D01*
X12491515Y-14977174D02*
X12481991Y-14967650D01*
X12481991Y-14967650D02*
X12472467Y-14948603D01*
X12472467Y-14948603D02*
X12472467Y-14939079D01*
X12472467Y-14939079D02*
X12481991Y-14920031D01*
X12481991Y-14920031D02*
X12491515Y-14910508D01*
X12491515Y-14910508D02*
X12510562Y-14900984D01*
X12510562Y-14900984D02*
X12548658Y-14900984D01*
X12548658Y-14900984D02*
X12567705Y-14910508D01*
X12567705Y-14910508D02*
X12577229Y-14920031D01*
X12577229Y-14920031D02*
X12586753Y-14939079D01*
X12586753Y-14939079D02*
X12586753Y-14948603D01*
X12586753Y-14948603D02*
X12577229Y-14967650D01*
X12577229Y-14967650D02*
X12567705Y-14977174D01*
X12567705Y-14977174D02*
X12548658Y-14986698D01*
X12548658Y-14986698D02*
X12510562Y-14986698D01*
X12510562Y-14986698D02*
X12491515Y-14996222D01*
X12491515Y-14996222D02*
X12481991Y-15005746D01*
X12481991Y-15005746D02*
X12472467Y-15024793D01*
X12472467Y-15024793D02*
X12472467Y-15062888D01*
X12472467Y-15062888D02*
X12481991Y-15081936D01*
X12481991Y-15081936D02*
X12491515Y-15091460D01*
X12491515Y-15091460D02*
X12510562Y-15100984D01*
X12510562Y-15100984D02*
X12548658Y-15100984D01*
X12548658Y-15100984D02*
X12567705Y-15091460D01*
X12567705Y-15091460D02*
X12577229Y-15081936D01*
X12577229Y-15081936D02*
X12586753Y-15062888D01*
X12586753Y-15062888D02*
X12586753Y-15024793D01*
X12586753Y-15024793D02*
X12577229Y-15005746D01*
X12577229Y-15005746D02*
X12567705Y-14996222D01*
X12567705Y-14996222D02*
X12548658Y-14986698D01*
X12710562Y-14900984D02*
X12729610Y-14900984D01*
X12729610Y-14900984D02*
X12748658Y-14910508D01*
X12748658Y-14910508D02*
X12758182Y-14920031D01*
X12758182Y-14920031D02*
X12767705Y-14939079D01*
X12767705Y-14939079D02*
X12777229Y-14977174D01*
X12777229Y-14977174D02*
X12777229Y-15024793D01*
X12777229Y-15024793D02*
X12767705Y-15062888D01*
X12767705Y-15062888D02*
X12758182Y-15081936D01*
X12758182Y-15081936D02*
X12748658Y-15091460D01*
X12748658Y-15091460D02*
X12729610Y-15100984D01*
X12729610Y-15100984D02*
X12710562Y-15100984D01*
X12710562Y-15100984D02*
X12691515Y-15091460D01*
X12691515Y-15091460D02*
X12681991Y-15081936D01*
X12681991Y-15081936D02*
X12672467Y-15062888D01*
X12672467Y-15062888D02*
X12662943Y-15024793D01*
X12662943Y-15024793D02*
X12662943Y-14977174D01*
X12662943Y-14977174D02*
X12672467Y-14939079D01*
X12672467Y-14939079D02*
X12681991Y-14920031D01*
X12681991Y-14920031D02*
X12691515Y-14910508D01*
X12691515Y-14910508D02*
X12710562Y-14900984D01*
X12901039Y-14900984D02*
X12920086Y-14900984D01*
X12920086Y-14900984D02*
X12939134Y-14910508D01*
X12939134Y-14910508D02*
X12948658Y-14920031D01*
X12948658Y-14920031D02*
X12958182Y-14939079D01*
X12958182Y-14939079D02*
X12967705Y-14977174D01*
X12967705Y-14977174D02*
X12967705Y-15024793D01*
X12967705Y-15024793D02*
X12958182Y-15062888D01*
X12958182Y-15062888D02*
X12948658Y-15081936D01*
X12948658Y-15081936D02*
X12939134Y-15091460D01*
X12939134Y-15091460D02*
X12920086Y-15100984D01*
X12920086Y-15100984D02*
X12901039Y-15100984D01*
X12901039Y-15100984D02*
X12881991Y-15091460D01*
X12881991Y-15091460D02*
X12872467Y-15081936D01*
X12872467Y-15081936D02*
X12862943Y-15062888D01*
X12862943Y-15062888D02*
X12853420Y-15024793D01*
X12853420Y-15024793D02*
X12853420Y-14977174D01*
X12853420Y-14977174D02*
X12862943Y-14939079D01*
X12862943Y-14939079D02*
X12872467Y-14920031D01*
X12872467Y-14920031D02*
X12881991Y-14910508D01*
X12881991Y-14910508D02*
X12901039Y-14900984D01*
X13053420Y-15100984D02*
X13053420Y-14967650D01*
X13053420Y-14986698D02*
X13062943Y-14977174D01*
X13062943Y-14977174D02*
X13081991Y-14967650D01*
X13081991Y-14967650D02*
X13110563Y-14967650D01*
X13110563Y-14967650D02*
X13129610Y-14977174D01*
X13129610Y-14977174D02*
X13139134Y-14996222D01*
X13139134Y-14996222D02*
X13139134Y-15100984D01*
X13139134Y-14996222D02*
X13148658Y-14977174D01*
X13148658Y-14977174D02*
X13167705Y-14967650D01*
X13167705Y-14967650D02*
X13196277Y-14967650D01*
X13196277Y-14967650D02*
X13215324Y-14977174D01*
X13215324Y-14977174D02*
X13224848Y-14996222D01*
X13224848Y-14996222D02*
X13224848Y-15100984D01*
X13320086Y-15100984D02*
X13320086Y-14967650D01*
X13320086Y-14986698D02*
X13329610Y-14977174D01*
X13329610Y-14977174D02*
X13348658Y-14967650D01*
X13348658Y-14967650D02*
X13377229Y-14967650D01*
X13377229Y-14967650D02*
X13396277Y-14977174D01*
X13396277Y-14977174D02*
X13405801Y-14996222D01*
X13405801Y-14996222D02*
X13405801Y-15100984D01*
X13405801Y-14996222D02*
X13415324Y-14977174D01*
X13415324Y-14977174D02*
X13434372Y-14967650D01*
X13434372Y-14967650D02*
X13462943Y-14967650D01*
X13462943Y-14967650D02*
X13481991Y-14977174D01*
X13481991Y-14977174D02*
X13491515Y-14996222D01*
X13491515Y-14996222D02*
X13491515Y-15100984D01*
X13881991Y-14891460D02*
X13710563Y-15148603D01*
X14139134Y-14900984D02*
X14158182Y-14900984D01*
X14158182Y-14900984D02*
X14177229Y-14910508D01*
X14177229Y-14910508D02*
X14186753Y-14920031D01*
X14186753Y-14920031D02*
X14196277Y-14939079D01*
X14196277Y-14939079D02*
X14205801Y-14977174D01*
X14205801Y-14977174D02*
X14205801Y-15024793D01*
X14205801Y-15024793D02*
X14196277Y-15062888D01*
X14196277Y-15062888D02*
X14186753Y-15081936D01*
X14186753Y-15081936D02*
X14177229Y-15091460D01*
X14177229Y-15091460D02*
X14158182Y-15100984D01*
X14158182Y-15100984D02*
X14139134Y-15100984D01*
X14139134Y-15100984D02*
X14120086Y-15091460D01*
X14120086Y-15091460D02*
X14110563Y-15081936D01*
X14110563Y-15081936D02*
X14101039Y-15062888D01*
X14101039Y-15062888D02*
X14091515Y-15024793D01*
X14091515Y-15024793D02*
X14091515Y-14977174D01*
X14091515Y-14977174D02*
X14101039Y-14939079D01*
X14101039Y-14939079D02*
X14110563Y-14920031D01*
X14110563Y-14920031D02*
X14120086Y-14910508D01*
X14120086Y-14910508D02*
X14139134Y-14900984D01*
X14291515Y-15081936D02*
X14301039Y-15091460D01*
X14301039Y-15091460D02*
X14291515Y-15100984D01*
X14291515Y-15100984D02*
X14281991Y-15091460D01*
X14281991Y-15091460D02*
X14291515Y-15081936D01*
X14291515Y-15081936D02*
X14291515Y-15100984D01*
X14424848Y-14900984D02*
X14443896Y-14900984D01*
X14443896Y-14900984D02*
X14462944Y-14910508D01*
X14462944Y-14910508D02*
X14472467Y-14920031D01*
X14472467Y-14920031D02*
X14481991Y-14939079D01*
X14481991Y-14939079D02*
X14491515Y-14977174D01*
X14491515Y-14977174D02*
X14491515Y-15024793D01*
X14491515Y-15024793D02*
X14481991Y-15062888D01*
X14481991Y-15062888D02*
X14472467Y-15081936D01*
X14472467Y-15081936D02*
X14462944Y-15091460D01*
X14462944Y-15091460D02*
X14443896Y-15100984D01*
X14443896Y-15100984D02*
X14424848Y-15100984D01*
X14424848Y-15100984D02*
X14405801Y-15091460D01*
X14405801Y-15091460D02*
X14396277Y-15081936D01*
X14396277Y-15081936D02*
X14386753Y-15062888D01*
X14386753Y-15062888D02*
X14377229Y-15024793D01*
X14377229Y-15024793D02*
X14377229Y-14977174D01*
X14377229Y-14977174D02*
X14386753Y-14939079D01*
X14386753Y-14939079D02*
X14396277Y-14920031D01*
X14396277Y-14920031D02*
X14405801Y-14910508D01*
X14405801Y-14910508D02*
X14424848Y-14900984D01*
X14558182Y-14900984D02*
X14691515Y-14900984D01*
X14691515Y-14900984D02*
X14605801Y-15100984D01*
X14805801Y-14900984D02*
X14824848Y-14900984D01*
X14824848Y-14900984D02*
X14843896Y-14910508D01*
X14843896Y-14910508D02*
X14853420Y-14920031D01*
X14853420Y-14920031D02*
X14862944Y-14939079D01*
X14862944Y-14939079D02*
X14872467Y-14977174D01*
X14872467Y-14977174D02*
X14872467Y-15024793D01*
X14872467Y-15024793D02*
X14862944Y-15062888D01*
X14862944Y-15062888D02*
X14853420Y-15081936D01*
X14853420Y-15081936D02*
X14843896Y-15091460D01*
X14843896Y-15091460D02*
X14824848Y-15100984D01*
X14824848Y-15100984D02*
X14805801Y-15100984D01*
X14805801Y-15100984D02*
X14786753Y-15091460D01*
X14786753Y-15091460D02*
X14777229Y-15081936D01*
X14777229Y-15081936D02*
X14767706Y-15062888D01*
X14767706Y-15062888D02*
X14758182Y-15024793D01*
X14758182Y-15024793D02*
X14758182Y-14977174D01*
X14758182Y-14977174D02*
X14767706Y-14939079D01*
X14767706Y-14939079D02*
X14777229Y-14920031D01*
X14777229Y-14920031D02*
X14786753Y-14910508D01*
X14786753Y-14910508D02*
X14805801Y-14900984D01*
X14967706Y-15100984D02*
X15005801Y-15100984D01*
X15005801Y-15100984D02*
X15024848Y-15091460D01*
X15024848Y-15091460D02*
X15034372Y-15081936D01*
X15034372Y-15081936D02*
X15053420Y-15053365D01*
X15053420Y-15053365D02*
X15062944Y-15015269D01*
X15062944Y-15015269D02*
X15062944Y-14939079D01*
X15062944Y-14939079D02*
X15053420Y-14920031D01*
X15053420Y-14920031D02*
X15043896Y-14910508D01*
X15043896Y-14910508D02*
X15024848Y-14900984D01*
X15024848Y-14900984D02*
X14986753Y-14900984D01*
X14986753Y-14900984D02*
X14967706Y-14910508D01*
X14967706Y-14910508D02*
X14958182Y-14920031D01*
X14958182Y-14920031D02*
X14948658Y-14939079D01*
X14948658Y-14939079D02*
X14948658Y-14986698D01*
X14948658Y-14986698D02*
X14958182Y-15005746D01*
X14958182Y-15005746D02*
X14967706Y-15015269D01*
X14967706Y-15015269D02*
X14986753Y-15024793D01*
X14986753Y-15024793D02*
X15024848Y-15024793D01*
X15024848Y-15024793D02*
X15043896Y-15015269D01*
X15043896Y-15015269D02*
X15053420Y-15005746D01*
X15053420Y-15005746D02*
X15062944Y-14986698D01*
X15139134Y-14900984D02*
X15139134Y-14939079D01*
X15215325Y-14900984D02*
X15215325Y-14939079D01*
X15510563Y-15177174D02*
X15501039Y-15167650D01*
X15501039Y-15167650D02*
X15481991Y-15139079D01*
X15481991Y-15139079D02*
X15472468Y-15120031D01*
X15472468Y-15120031D02*
X15462944Y-15091460D01*
X15462944Y-15091460D02*
X15453420Y-15043841D01*
X15453420Y-15043841D02*
X15453420Y-15005746D01*
X15453420Y-15005746D02*
X15462944Y-14958127D01*
X15462944Y-14958127D02*
X15472468Y-14929555D01*
X15472468Y-14929555D02*
X15481991Y-14910508D01*
X15481991Y-14910508D02*
X15501039Y-14881936D01*
X15501039Y-14881936D02*
X15510563Y-14872412D01*
X15577229Y-14920031D02*
X15586753Y-14910508D01*
X15586753Y-14910508D02*
X15605801Y-14900984D01*
X15605801Y-14900984D02*
X15653420Y-14900984D01*
X15653420Y-14900984D02*
X15672468Y-14910508D01*
X15672468Y-14910508D02*
X15681991Y-14920031D01*
X15681991Y-14920031D02*
X15691515Y-14939079D01*
X15691515Y-14939079D02*
X15691515Y-14958127D01*
X15691515Y-14958127D02*
X15681991Y-14986698D01*
X15681991Y-14986698D02*
X15567706Y-15100984D01*
X15567706Y-15100984D02*
X15691515Y-15100984D01*
X15929610Y-15100984D02*
X15929610Y-14900984D01*
X16015325Y-15100984D02*
X16015325Y-14996222D01*
X16015325Y-14996222D02*
X16005801Y-14977174D01*
X16005801Y-14977174D02*
X15986753Y-14967650D01*
X15986753Y-14967650D02*
X15958182Y-14967650D01*
X15958182Y-14967650D02*
X15939134Y-14977174D01*
X15939134Y-14977174D02*
X15929610Y-14986698D01*
X16139134Y-15100984D02*
X16120087Y-15091460D01*
X16120087Y-15091460D02*
X16110563Y-15081936D01*
X16110563Y-15081936D02*
X16101039Y-15062888D01*
X16101039Y-15062888D02*
X16101039Y-15005746D01*
X16101039Y-15005746D02*
X16110563Y-14986698D01*
X16110563Y-14986698D02*
X16120087Y-14977174D01*
X16120087Y-14977174D02*
X16139134Y-14967650D01*
X16139134Y-14967650D02*
X16167706Y-14967650D01*
X16167706Y-14967650D02*
X16186753Y-14977174D01*
X16186753Y-14977174D02*
X16196277Y-14986698D01*
X16196277Y-14986698D02*
X16205801Y-15005746D01*
X16205801Y-15005746D02*
X16205801Y-15062888D01*
X16205801Y-15062888D02*
X16196277Y-15081936D01*
X16196277Y-15081936D02*
X16186753Y-15091460D01*
X16186753Y-15091460D02*
X16167706Y-15100984D01*
X16167706Y-15100984D02*
X16139134Y-15100984D01*
X16320087Y-15100984D02*
X16301039Y-15091460D01*
X16301039Y-15091460D02*
X16291515Y-15072412D01*
X16291515Y-15072412D02*
X16291515Y-14900984D01*
X16472468Y-15091460D02*
X16453420Y-15100984D01*
X16453420Y-15100984D02*
X16415325Y-15100984D01*
X16415325Y-15100984D02*
X16396277Y-15091460D01*
X16396277Y-15091460D02*
X16386753Y-15072412D01*
X16386753Y-15072412D02*
X16386753Y-14996222D01*
X16386753Y-14996222D02*
X16396277Y-14977174D01*
X16396277Y-14977174D02*
X16415325Y-14967650D01*
X16415325Y-14967650D02*
X16453420Y-14967650D01*
X16453420Y-14967650D02*
X16472468Y-14977174D01*
X16472468Y-14977174D02*
X16481991Y-14996222D01*
X16481991Y-14996222D02*
X16481991Y-15015269D01*
X16481991Y-15015269D02*
X16386753Y-15034317D01*
X16558182Y-15091460D02*
X16577230Y-15100984D01*
X16577230Y-15100984D02*
X16615325Y-15100984D01*
X16615325Y-15100984D02*
X16634372Y-15091460D01*
X16634372Y-15091460D02*
X16643896Y-15072412D01*
X16643896Y-15072412D02*
X16643896Y-15062888D01*
X16643896Y-15062888D02*
X16634372Y-15043841D01*
X16634372Y-15043841D02*
X16615325Y-15034317D01*
X16615325Y-15034317D02*
X16586753Y-15034317D01*
X16586753Y-15034317D02*
X16567706Y-15024793D01*
X16567706Y-15024793D02*
X16558182Y-15005746D01*
X16558182Y-15005746D02*
X16558182Y-14996222D01*
X16558182Y-14996222D02*
X16567706Y-14977174D01*
X16567706Y-14977174D02*
X16586753Y-14967650D01*
X16586753Y-14967650D02*
X16615325Y-14967650D01*
X16615325Y-14967650D02*
X16634372Y-14977174D01*
X16710563Y-15177174D02*
X16720087Y-15167650D01*
X16720087Y-15167650D02*
X16739134Y-15139079D01*
X16739134Y-15139079D02*
X16748658Y-15120031D01*
X16748658Y-15120031D02*
X16758182Y-15091460D01*
X16758182Y-15091460D02*
X16767706Y-15043841D01*
X16767706Y-15043841D02*
X16767706Y-15005746D01*
X16767706Y-15005746D02*
X16758182Y-14958127D01*
X16758182Y-14958127D02*
X16748658Y-14929555D01*
X16748658Y-14929555D02*
X16739134Y-14910508D01*
X16739134Y-14910508D02*
X16720087Y-14881936D01*
X16720087Y-14881936D02*
X16710563Y-14872412D01*
X17072468Y-15177174D02*
X17062944Y-15167650D01*
X17062944Y-15167650D02*
X17043896Y-15139079D01*
X17043896Y-15139079D02*
X17034373Y-15120031D01*
X17034373Y-15120031D02*
X17024849Y-15091460D01*
X17024849Y-15091460D02*
X17015325Y-15043841D01*
X17015325Y-15043841D02*
X17015325Y-15005746D01*
X17015325Y-15005746D02*
X17024849Y-14958127D01*
X17024849Y-14958127D02*
X17034373Y-14929555D01*
X17034373Y-14929555D02*
X17043896Y-14910508D01*
X17043896Y-14910508D02*
X17062944Y-14881936D01*
X17062944Y-14881936D02*
X17072468Y-14872412D01*
X17148658Y-14967650D02*
X17148658Y-15100984D01*
X17148658Y-14986698D02*
X17158182Y-14977174D01*
X17158182Y-14977174D02*
X17177230Y-14967650D01*
X17177230Y-14967650D02*
X17205801Y-14967650D01*
X17205801Y-14967650D02*
X17224849Y-14977174D01*
X17224849Y-14977174D02*
X17234373Y-14996222D01*
X17234373Y-14996222D02*
X17234373Y-15100984D01*
X17358182Y-15100984D02*
X17339134Y-15091460D01*
X17339134Y-15091460D02*
X17329611Y-15081936D01*
X17329611Y-15081936D02*
X17320087Y-15062888D01*
X17320087Y-15062888D02*
X17320087Y-15005746D01*
X17320087Y-15005746D02*
X17329611Y-14986698D01*
X17329611Y-14986698D02*
X17339134Y-14977174D01*
X17339134Y-14977174D02*
X17358182Y-14967650D01*
X17358182Y-14967650D02*
X17386754Y-14967650D01*
X17386754Y-14967650D02*
X17405801Y-14977174D01*
X17405801Y-14977174D02*
X17415325Y-14986698D01*
X17415325Y-14986698D02*
X17424849Y-15005746D01*
X17424849Y-15005746D02*
X17424849Y-15062888D01*
X17424849Y-15062888D02*
X17415325Y-15081936D01*
X17415325Y-15081936D02*
X17405801Y-15091460D01*
X17405801Y-15091460D02*
X17386754Y-15100984D01*
X17386754Y-15100984D02*
X17358182Y-15100984D01*
X17481992Y-14967650D02*
X17558182Y-14967650D01*
X17510563Y-14900984D02*
X17510563Y-15072412D01*
X17510563Y-15072412D02*
X17520087Y-15091460D01*
X17520087Y-15091460D02*
X17539134Y-15100984D01*
X17539134Y-15100984D02*
X17558182Y-15100984D01*
X17777230Y-14967650D02*
X17777230Y-15167650D01*
X17777230Y-14977174D02*
X17796277Y-14967650D01*
X17796277Y-14967650D02*
X17834373Y-14967650D01*
X17834373Y-14967650D02*
X17853420Y-14977174D01*
X17853420Y-14977174D02*
X17862944Y-14986698D01*
X17862944Y-14986698D02*
X17872468Y-15005746D01*
X17872468Y-15005746D02*
X17872468Y-15062888D01*
X17872468Y-15062888D02*
X17862944Y-15081936D01*
X17862944Y-15081936D02*
X17853420Y-15091460D01*
X17853420Y-15091460D02*
X17834373Y-15100984D01*
X17834373Y-15100984D02*
X17796277Y-15100984D01*
X17796277Y-15100984D02*
X17777230Y-15091460D01*
X17986754Y-15100984D02*
X17967706Y-15091460D01*
X17967706Y-15091460D02*
X17958182Y-15072412D01*
X17958182Y-15072412D02*
X17958182Y-14900984D01*
X18148658Y-15100984D02*
X18148658Y-14996222D01*
X18148658Y-14996222D02*
X18139135Y-14977174D01*
X18139135Y-14977174D02*
X18120087Y-14967650D01*
X18120087Y-14967650D02*
X18081992Y-14967650D01*
X18081992Y-14967650D02*
X18062944Y-14977174D01*
X18148658Y-15091460D02*
X18129611Y-15100984D01*
X18129611Y-15100984D02*
X18081992Y-15100984D01*
X18081992Y-15100984D02*
X18062944Y-15091460D01*
X18062944Y-15091460D02*
X18053420Y-15072412D01*
X18053420Y-15072412D02*
X18053420Y-15053365D01*
X18053420Y-15053365D02*
X18062944Y-15034317D01*
X18062944Y-15034317D02*
X18081992Y-15024793D01*
X18081992Y-15024793D02*
X18129611Y-15024793D01*
X18129611Y-15024793D02*
X18148658Y-15015269D01*
X18215325Y-14967650D02*
X18291515Y-14967650D01*
X18243896Y-14900984D02*
X18243896Y-15072412D01*
X18243896Y-15072412D02*
X18253420Y-15091460D01*
X18253420Y-15091460D02*
X18272468Y-15100984D01*
X18272468Y-15100984D02*
X18291515Y-15100984D01*
X18434373Y-15091460D02*
X18415325Y-15100984D01*
X18415325Y-15100984D02*
X18377230Y-15100984D01*
X18377230Y-15100984D02*
X18358182Y-15091460D01*
X18358182Y-15091460D02*
X18348658Y-15072412D01*
X18348658Y-15072412D02*
X18348658Y-14996222D01*
X18348658Y-14996222D02*
X18358182Y-14977174D01*
X18358182Y-14977174D02*
X18377230Y-14967650D01*
X18377230Y-14967650D02*
X18415325Y-14967650D01*
X18415325Y-14967650D02*
X18434373Y-14977174D01*
X18434373Y-14977174D02*
X18443896Y-14996222D01*
X18443896Y-14996222D02*
X18443896Y-15015269D01*
X18443896Y-15015269D02*
X18348658Y-15034317D01*
X18615325Y-15100984D02*
X18615325Y-14900984D01*
X18615325Y-15091460D02*
X18596277Y-15100984D01*
X18596277Y-15100984D02*
X18558182Y-15100984D01*
X18558182Y-15100984D02*
X18539135Y-15091460D01*
X18539135Y-15091460D02*
X18529611Y-15081936D01*
X18529611Y-15081936D02*
X18520087Y-15062888D01*
X18520087Y-15062888D02*
X18520087Y-15005746D01*
X18520087Y-15005746D02*
X18529611Y-14986698D01*
X18529611Y-14986698D02*
X18539135Y-14977174D01*
X18539135Y-14977174D02*
X18558182Y-14967650D01*
X18558182Y-14967650D02*
X18596277Y-14967650D01*
X18596277Y-14967650D02*
X18615325Y-14977174D01*
X18691516Y-15177174D02*
X18701039Y-15167650D01*
X18701039Y-15167650D02*
X18720087Y-15139079D01*
X18720087Y-15139079D02*
X18729611Y-15120031D01*
X18729611Y-15120031D02*
X18739135Y-15091460D01*
X18739135Y-15091460D02*
X18748658Y-15043841D01*
X18748658Y-15043841D02*
X18748658Y-15005746D01*
X18748658Y-15005746D02*
X18739135Y-14958127D01*
X18739135Y-14958127D02*
X18729611Y-14929555D01*
X18729611Y-14929555D02*
X18720087Y-14910508D01*
X18720087Y-14910508D02*
X18701039Y-14881936D01*
X18701039Y-14881936D02*
X18691516Y-14872412D01*
M02*
