M48
; DRILL file {KiCad 8.0.5} date 2024-10-19T23:11:01+0200
; FORMAT={-:-/ absolute / metric / decimal}
; #@! TF.CreationDate,2024-10-19T23:11:01+02:00
; #@! TF.GenerationSoftware,Kicad,Pcbnew,8.0.5
; #@! TF.FileFunction,Plated,1,2,PTH
FMAT,2
METRIC
; #@! TA.AperFunction,Plated,PTH,ViaDrill
T1C0.300
; #@! TA.AperFunction,Plated,PTH,ComponentDrill
T2C0.700
; #@! TA.AperFunction,Plated,PTH,ComponentDrill
T3C0.762
; #@! TA.AperFunction,Plated,PTH,ComponentDrill
T4C0.800
; #@! TA.AperFunction,Plated,PTH,ComponentDrill
T5C1.000
; #@! TA.AperFunction,Plated,PTH,ComponentDrill
T6C1.020
; #@! TA.AperFunction,Plated,PTH,ComponentDrill
T7C1.100
; #@! TA.AperFunction,Plated,PTH,ComponentDrill
T8C1.200
%
G90
G05
T1
X148.59Y-69.722
T2
X131.699Y-111.887
X131.699Y-116.967
T3
X126.746Y-75.836
X135.255Y-75.836
X139.319Y-75.836
X147.828Y-75.836
X157.737Y-98.575
X160.277Y-98.575
X162.817Y-98.575
X165.357Y-98.575
X167.897Y-98.575
X170.437Y-98.575
X172.977Y-98.575
X174.879Y-108.585
X174.879Y-111.125
X174.879Y-113.665
X174.879Y-116.205
X174.879Y-118.745
X174.879Y-121.285
X175.517Y-98.575
T4
X127.762Y-82.697
X127.762Y-85.197
X131.572Y-82.697
X131.572Y-85.197
X172.212Y-108.605
X172.212Y-111.105
X172.943Y-95.91
X175.443Y-95.91
X206.522Y-91.948
X206.522Y-95.123
X209.022Y-91.948
X209.022Y-95.123
T5
X122.936Y-126.497
X122.936Y-129.037
X122.985Y-88.59
X122.985Y-92.09
X127.0Y-122.174
X127.0Y-124.714
X127.0Y-127.254
X127.0Y-129.794
X127.0Y-132.334
X135.939Y-82.67
X135.939Y-85.21
X135.939Y-87.75
X135.939Y-90.29
X135.939Y-92.83
X135.939Y-95.37
X135.939Y-97.91
T6
X163.195Y-69.596
X163.195Y-87.376
X163.425Y-75.946
X163.425Y-78.486
X163.425Y-81.026
X165.735Y-69.596
X165.735Y-87.376
X168.275Y-69.596
X168.275Y-87.376
X170.815Y-69.596
X170.815Y-87.376
X173.355Y-69.596
X173.355Y-87.376
X175.895Y-69.596
X175.895Y-87.376
X178.435Y-69.596
X178.435Y-87.376
X180.975Y-69.596
X180.975Y-87.376
X183.515Y-69.596
X183.515Y-87.376
X186.055Y-69.596
X186.055Y-87.376
X188.595Y-69.596
X188.595Y-87.376
X191.135Y-69.596
X191.135Y-87.376
X193.675Y-69.596
X193.675Y-87.376
X196.215Y-69.596
X196.215Y-87.376
X198.755Y-69.596
X198.755Y-87.376
X201.295Y-69.596
X201.295Y-87.376
X203.835Y-69.596
X203.835Y-87.376
X206.375Y-69.596
X206.375Y-87.376
X208.915Y-69.596
X208.915Y-87.376
X211.455Y-69.596
X211.455Y-87.376
T7
X132.871Y-130.719
X132.871Y-135.219
X139.371Y-130.719
X139.371Y-135.219
X147.095Y-130.755
X147.095Y-135.255
X153.595Y-130.755
X153.595Y-135.255
X161.977Y-130.791
X161.977Y-135.291
X168.477Y-130.791
X168.477Y-135.291
X177.269Y-130.755
X177.269Y-135.255
X183.769Y-130.755
X183.769Y-135.255
X193.219Y-130.791
X193.219Y-135.291
X199.719Y-130.791
X199.719Y-135.291
T8
X123.398Y-103.966
X123.398Y-108.966
X123.398Y-113.966
M30
